G04 (created by PCBNEW (2012-nov-02)-testing) date 20.01.2013 (нд)  8,50,36 EET*
%MOIN*%
G04 Gerber Fmt 3.4, Leading zero omitted, Abs format*
%FSLAX34Y34*%
G01*
G70*
G90*
G04 APERTURE LIST*
%ADD10C,0.006*%
%ADD11R,0.02X0.045*%
%ADD12R,0.045X0.025*%
%ADD13R,0.025X0.045*%
%ADD14C,0.08*%
%ADD15R,0.08X0.08*%
%ADD16C,0.019685*%
%ADD17C,0.023622*%
%ADD18C,0.01*%
G04 APERTURE END LIST*
G54D10*
G54D11*
X83750Y-51250D03*
X84750Y-51250D03*
X85250Y-51250D03*
X85750Y-51250D03*
X86250Y-51250D03*
X86750Y-51250D03*
X87250Y-51250D03*
X87250Y-53750D03*
X86750Y-53750D03*
X86250Y-53750D03*
X85750Y-53750D03*
X85250Y-53750D03*
X84750Y-53750D03*
X84250Y-53750D03*
X83750Y-53750D03*
X84250Y-51250D03*
G54D12*
X85708Y-54109D03*
X85708Y-54709D03*
X86259Y-54109D03*
X86259Y-54709D03*
G54D13*
X87101Y-54488D03*
X87701Y-54488D03*
X84300Y-50500D03*
X83700Y-50500D03*
X85300Y-50500D03*
X84700Y-50500D03*
X85700Y-50500D03*
X86300Y-50500D03*
X86700Y-50500D03*
X87300Y-50500D03*
G54D14*
X84500Y-55299D03*
X85500Y-55299D03*
X86500Y-55299D03*
X87500Y-55299D03*
X87500Y-49700D03*
X86500Y-49700D03*
X85500Y-49700D03*
G54D15*
X83500Y-55299D03*
G54D14*
X84500Y-49700D03*
X83500Y-49700D03*
G54D16*
X86259Y-54709D02*
X86259Y-54921D01*
X86500Y-55161D02*
X86500Y-55299D01*
X86259Y-54921D02*
X86500Y-55161D01*
G54D17*
X87500Y-55299D02*
X87500Y-54783D01*
G54D18*
X87701Y-54581D02*
X87701Y-54488D01*
G54D17*
X87500Y-54783D02*
X87701Y-54581D01*
X86750Y-53750D02*
X86750Y-54387D01*
X86850Y-54488D02*
X87101Y-54488D01*
X86750Y-54387D02*
X86850Y-54488D01*
G54D16*
X86250Y-53750D02*
X86250Y-54099D01*
X86250Y-54099D02*
X86259Y-54109D01*
X85750Y-53750D02*
X85750Y-54068D01*
X85750Y-54068D02*
X85708Y-54109D01*
M02*
