G04 (created by PCBNEW (2012-nov-02)-testing) date 20.01.2013 (нд)  8,50,36 EET*
%MOIN*%
G04 Gerber Fmt 3.4, Leading zero omitted, Abs format*
%FSLAX34Y34*%
G01*
G70*
G90*
G04 APERTURE LIST*
%ADD10C,0.006*%
%ADD11C,0.008*%
%ADD12C,0.005*%
%ADD13C,0.02*%
%ADD14C,0.012*%
%ADD15C,0.0045*%
%ADD16C,0.01125*%
%ADD17C,0.01*%
G04 APERTURE END LIST*
G54D10*
G54D11*
X83300Y-52200D02*
X83600Y-52200D01*
X83600Y-52200D02*
X83600Y-52800D01*
X83600Y-52800D02*
X83300Y-52800D01*
X87700Y-51600D02*
X87700Y-53400D01*
X87700Y-53400D02*
X83300Y-53400D01*
X83300Y-53400D02*
X83300Y-51600D01*
X83300Y-51600D02*
X87700Y-51600D01*
G54D12*
X85983Y-54212D02*
X85983Y-53934D01*
X85983Y-53934D02*
X85433Y-53934D01*
X85433Y-53934D02*
X85433Y-54212D01*
X85983Y-54884D02*
X85983Y-54606D01*
X85983Y-54884D02*
X85433Y-54884D01*
X85433Y-54884D02*
X85433Y-54606D01*
X86534Y-54212D02*
X86534Y-53934D01*
X86534Y-53934D02*
X85984Y-53934D01*
X85984Y-53934D02*
X85984Y-54212D01*
X86534Y-54884D02*
X86534Y-54606D01*
X86534Y-54884D02*
X85984Y-54884D01*
X85984Y-54884D02*
X85984Y-54606D01*
X87204Y-54213D02*
X86926Y-54213D01*
X86926Y-54213D02*
X86926Y-54763D01*
X86926Y-54763D02*
X87204Y-54763D01*
X87876Y-54213D02*
X87598Y-54213D01*
X87876Y-54213D02*
X87876Y-54763D01*
X87876Y-54763D02*
X87598Y-54763D01*
X84197Y-50775D02*
X84475Y-50775D01*
X84475Y-50775D02*
X84475Y-50225D01*
X84475Y-50225D02*
X84197Y-50225D01*
X83525Y-50775D02*
X83803Y-50775D01*
X83525Y-50775D02*
X83525Y-50225D01*
X83525Y-50225D02*
X83803Y-50225D01*
X85197Y-50775D02*
X85475Y-50775D01*
X85475Y-50775D02*
X85475Y-50225D01*
X85475Y-50225D02*
X85197Y-50225D01*
X84525Y-50775D02*
X84803Y-50775D01*
X84525Y-50775D02*
X84525Y-50225D01*
X84525Y-50225D02*
X84803Y-50225D01*
X85803Y-50225D02*
X85525Y-50225D01*
X85525Y-50225D02*
X85525Y-50775D01*
X85525Y-50775D02*
X85803Y-50775D01*
X86475Y-50225D02*
X86197Y-50225D01*
X86475Y-50225D02*
X86475Y-50775D01*
X86475Y-50775D02*
X86197Y-50775D01*
X86803Y-50225D02*
X86525Y-50225D01*
X86525Y-50225D02*
X86525Y-50775D01*
X86525Y-50775D02*
X86803Y-50775D01*
X87475Y-50225D02*
X87197Y-50225D01*
X87475Y-50225D02*
X87475Y-50775D01*
X87475Y-50775D02*
X87197Y-50775D01*
G54D13*
X86700Y-52800D02*
X86200Y-54700D01*
X84000Y-54700D02*
X85700Y-54700D01*
X84000Y-52700D02*
X83500Y-54700D01*
X84700Y-50300D02*
X84100Y-52300D01*
X85200Y-50300D02*
X86700Y-50300D01*
X84600Y-52500D02*
X86200Y-52500D01*
X87200Y-50400D02*
X86800Y-52400D01*
X87500Y-54750D02*
G75*
G03X87500Y-54750I-250J0D01*
G74*
G01*
G54D14*
X84000Y-54750D02*
X85750Y-54750D01*
X83500Y-48750D02*
X83000Y-48750D01*
X83000Y-48750D02*
X83000Y-56250D01*
X83000Y-56250D02*
X83500Y-56250D01*
X87500Y-56250D02*
X88000Y-56250D01*
X88000Y-56250D02*
X88000Y-48750D01*
X88000Y-48750D02*
X87500Y-48750D01*
X83500Y-56250D02*
X87500Y-56250D01*
X87500Y-48750D02*
X83500Y-48750D01*
X84550Y-52500D02*
X86250Y-52500D01*
X86850Y-52300D02*
X87200Y-50350D01*
X85150Y-50300D02*
X86700Y-50300D01*
X84100Y-52250D02*
X84650Y-50300D01*
X84000Y-52700D02*
X83500Y-54750D01*
G54D11*
X85245Y-51761D02*
X85245Y-52085D01*
X85264Y-52123D01*
X85283Y-52142D01*
X85321Y-52161D01*
X85397Y-52161D01*
X85435Y-52142D01*
X85454Y-52123D01*
X85473Y-52085D01*
X85473Y-51761D01*
X85873Y-52161D02*
X85645Y-52161D01*
X85759Y-52161D02*
X85759Y-51761D01*
X85721Y-51819D01*
X85683Y-51857D01*
X85645Y-51876D01*
X85004Y-52895D02*
X85004Y-53161D01*
X84909Y-52742D02*
X84814Y-53028D01*
X85061Y-53028D01*
X85290Y-52761D02*
X85328Y-52761D01*
X85366Y-52780D01*
X85385Y-52800D01*
X85404Y-52838D01*
X85423Y-52914D01*
X85423Y-53009D01*
X85404Y-53085D01*
X85385Y-53123D01*
X85366Y-53142D01*
X85328Y-53161D01*
X85290Y-53161D01*
X85252Y-53142D01*
X85233Y-53123D01*
X85214Y-53085D01*
X85195Y-53009D01*
X85195Y-52914D01*
X85214Y-52838D01*
X85233Y-52800D01*
X85252Y-52780D01*
X85290Y-52761D01*
X85614Y-53161D02*
X85690Y-53161D01*
X85728Y-53142D01*
X85747Y-53123D01*
X85785Y-53066D01*
X85804Y-52990D01*
X85804Y-52838D01*
X85785Y-52800D01*
X85766Y-52780D01*
X85728Y-52761D01*
X85652Y-52761D01*
X85614Y-52780D01*
X85595Y-52800D01*
X85576Y-52838D01*
X85576Y-52933D01*
X85595Y-52971D01*
X85614Y-52990D01*
X85652Y-53009D01*
X85728Y-53009D01*
X85766Y-52990D01*
X85785Y-52971D01*
X85804Y-52933D01*
X86147Y-52895D02*
X86147Y-53161D01*
X86052Y-52742D02*
X85957Y-53028D01*
X86204Y-53028D01*
G54D15*
X85703Y-54514D02*
X85643Y-54420D01*
X85600Y-54514D02*
X85600Y-54317D01*
X85669Y-54317D01*
X85686Y-54326D01*
X85695Y-54335D01*
X85703Y-54354D01*
X85703Y-54382D01*
X85695Y-54401D01*
X85686Y-54410D01*
X85669Y-54420D01*
X85600Y-54420D01*
X85772Y-54335D02*
X85780Y-54326D01*
X85797Y-54317D01*
X85840Y-54317D01*
X85857Y-54326D01*
X85866Y-54335D01*
X85875Y-54354D01*
X85875Y-54373D01*
X85866Y-54401D01*
X85763Y-54514D01*
X85875Y-54514D01*
X85764Y-53821D02*
X85704Y-53726D01*
X85661Y-53821D02*
X85661Y-53621D01*
X85730Y-53621D01*
X85747Y-53630D01*
X85755Y-53640D01*
X85764Y-53659D01*
X85764Y-53688D01*
X85755Y-53707D01*
X85747Y-53716D01*
X85730Y-53726D01*
X85661Y-53726D01*
X86254Y-54514D02*
X86194Y-54420D01*
X86151Y-54514D02*
X86151Y-54317D01*
X86220Y-54317D01*
X86237Y-54326D01*
X86246Y-54335D01*
X86254Y-54354D01*
X86254Y-54382D01*
X86246Y-54401D01*
X86237Y-54410D01*
X86220Y-54420D01*
X86151Y-54420D01*
X86314Y-54317D02*
X86426Y-54317D01*
X86366Y-54392D01*
X86391Y-54392D01*
X86409Y-54401D01*
X86417Y-54410D01*
X86426Y-54429D01*
X86426Y-54476D01*
X86417Y-54495D01*
X86409Y-54504D01*
X86391Y-54514D01*
X86340Y-54514D01*
X86323Y-54504D01*
X86314Y-54495D01*
X86315Y-53821D02*
X86255Y-53726D01*
X86212Y-53821D02*
X86212Y-53621D01*
X86281Y-53621D01*
X86298Y-53630D01*
X86306Y-53640D01*
X86315Y-53659D01*
X86315Y-53688D01*
X86306Y-53707D01*
X86298Y-53716D01*
X86281Y-53726D01*
X86212Y-53726D01*
X87506Y-54493D02*
X87412Y-54553D01*
X87506Y-54596D02*
X87309Y-54596D01*
X87309Y-54527D01*
X87318Y-54510D01*
X87328Y-54501D01*
X87346Y-54493D01*
X87374Y-54493D01*
X87393Y-54501D01*
X87403Y-54510D01*
X87412Y-54527D01*
X87412Y-54596D01*
X87374Y-54338D02*
X87506Y-54338D01*
X87299Y-54381D02*
X87440Y-54424D01*
X87440Y-54313D01*
X86813Y-54432D02*
X86718Y-54492D01*
X86813Y-54535D02*
X86613Y-54535D01*
X86613Y-54466D01*
X86623Y-54449D01*
X86632Y-54441D01*
X86651Y-54432D01*
X86680Y-54432D01*
X86699Y-54441D01*
X86708Y-54449D01*
X86718Y-54466D01*
X86718Y-54535D01*
X84054Y-50555D02*
X83960Y-50615D01*
X84054Y-50657D02*
X83857Y-50657D01*
X83857Y-50589D01*
X83867Y-50572D01*
X83876Y-50563D01*
X83895Y-50555D01*
X83923Y-50555D01*
X83942Y-50563D01*
X83951Y-50572D01*
X83960Y-50589D01*
X83960Y-50657D01*
X83857Y-50392D02*
X83857Y-50477D01*
X83951Y-50486D01*
X83942Y-50477D01*
X83932Y-50460D01*
X83932Y-50417D01*
X83942Y-50400D01*
X83951Y-50392D01*
X83970Y-50383D01*
X84017Y-50383D01*
X84035Y-50392D01*
X84045Y-50400D01*
X84054Y-50417D01*
X84054Y-50460D01*
X84045Y-50477D01*
X84035Y-50486D01*
X84749Y-50444D02*
X84654Y-50504D01*
X84749Y-50547D02*
X84549Y-50547D01*
X84549Y-50478D01*
X84559Y-50461D01*
X84569Y-50452D01*
X84588Y-50444D01*
X84616Y-50444D01*
X84635Y-50452D01*
X84645Y-50461D01*
X84654Y-50478D01*
X84654Y-50547D01*
X85054Y-50555D02*
X84960Y-50615D01*
X85054Y-50657D02*
X84857Y-50657D01*
X84857Y-50589D01*
X84867Y-50572D01*
X84876Y-50563D01*
X84895Y-50555D01*
X84923Y-50555D01*
X84942Y-50563D01*
X84951Y-50572D01*
X84960Y-50589D01*
X84960Y-50657D01*
X84857Y-50400D02*
X84857Y-50435D01*
X84867Y-50452D01*
X84876Y-50460D01*
X84904Y-50477D01*
X84942Y-50486D01*
X85017Y-50486D01*
X85035Y-50477D01*
X85045Y-50469D01*
X85054Y-50452D01*
X85054Y-50417D01*
X85045Y-50400D01*
X85035Y-50392D01*
X85017Y-50383D01*
X84970Y-50383D01*
X84951Y-50392D01*
X84942Y-50400D01*
X84932Y-50417D01*
X84932Y-50452D01*
X84942Y-50469D01*
X84951Y-50477D01*
X84970Y-50486D01*
X85749Y-50444D02*
X85654Y-50504D01*
X85749Y-50547D02*
X85549Y-50547D01*
X85549Y-50478D01*
X85559Y-50461D01*
X85569Y-50452D01*
X85588Y-50444D01*
X85616Y-50444D01*
X85635Y-50452D01*
X85645Y-50461D01*
X85654Y-50478D01*
X85654Y-50547D01*
X86104Y-50505D02*
X86010Y-50565D01*
X86104Y-50607D02*
X85907Y-50607D01*
X85907Y-50539D01*
X85917Y-50522D01*
X85926Y-50513D01*
X85945Y-50505D01*
X85973Y-50505D01*
X85992Y-50513D01*
X86001Y-50522D01*
X86010Y-50539D01*
X86010Y-50607D01*
X85907Y-50445D02*
X85907Y-50325D01*
X86104Y-50402D01*
X85411Y-50444D02*
X85316Y-50504D01*
X85411Y-50547D02*
X85211Y-50547D01*
X85211Y-50478D01*
X85221Y-50461D01*
X85231Y-50452D01*
X85250Y-50444D01*
X85278Y-50444D01*
X85297Y-50452D01*
X85307Y-50461D01*
X85316Y-50478D01*
X85316Y-50547D01*
X87104Y-50505D02*
X87010Y-50565D01*
X87104Y-50607D02*
X86907Y-50607D01*
X86907Y-50539D01*
X86917Y-50522D01*
X86926Y-50513D01*
X86945Y-50505D01*
X86973Y-50505D01*
X86992Y-50513D01*
X87001Y-50522D01*
X87010Y-50539D01*
X87010Y-50607D01*
X86992Y-50402D02*
X86982Y-50419D01*
X86973Y-50427D01*
X86954Y-50436D01*
X86945Y-50436D01*
X86926Y-50427D01*
X86917Y-50419D01*
X86907Y-50402D01*
X86907Y-50367D01*
X86917Y-50350D01*
X86926Y-50342D01*
X86945Y-50333D01*
X86954Y-50333D01*
X86973Y-50342D01*
X86982Y-50350D01*
X86992Y-50367D01*
X86992Y-50402D01*
X87001Y-50419D01*
X87010Y-50427D01*
X87029Y-50436D01*
X87067Y-50436D01*
X87085Y-50427D01*
X87095Y-50419D01*
X87104Y-50402D01*
X87104Y-50367D01*
X87095Y-50350D01*
X87085Y-50342D01*
X87067Y-50333D01*
X87029Y-50333D01*
X87010Y-50342D01*
X87001Y-50350D01*
X86992Y-50367D01*
X86411Y-50444D02*
X86316Y-50504D01*
X86411Y-50547D02*
X86211Y-50547D01*
X86211Y-50478D01*
X86221Y-50461D01*
X86231Y-50452D01*
X86250Y-50444D01*
X86278Y-50444D01*
X86297Y-50452D01*
X86307Y-50461D01*
X86316Y-50478D01*
X86316Y-50547D01*
G54D16*
X85157Y-48500D02*
X85221Y-48533D01*
X85328Y-48533D01*
X85371Y-48500D01*
X85392Y-48466D01*
X85414Y-48400D01*
X85414Y-48333D01*
X85392Y-48266D01*
X85371Y-48233D01*
X85328Y-48200D01*
X85242Y-48166D01*
X85200Y-48133D01*
X85178Y-48100D01*
X85157Y-48033D01*
X85157Y-47966D01*
X85178Y-47900D01*
X85200Y-47866D01*
X85242Y-47833D01*
X85350Y-47833D01*
X85414Y-47866D01*
X85842Y-48533D02*
X85585Y-48533D01*
X85714Y-48533D02*
X85714Y-47833D01*
X85671Y-47933D01*
X85628Y-48000D01*
X85585Y-48033D01*
G54D14*
G54D17*
X84816Y-56333D02*
X85083Y-56333D01*
X84911Y-57033D01*
X85216Y-57000D02*
X85273Y-57033D01*
X85369Y-57033D01*
X85407Y-57000D01*
X85426Y-56966D01*
X85445Y-56900D01*
X85445Y-56833D01*
X85426Y-56766D01*
X85407Y-56733D01*
X85369Y-56700D01*
X85292Y-56666D01*
X85254Y-56633D01*
X85235Y-56600D01*
X85216Y-56533D01*
X85216Y-56466D01*
X85235Y-56400D01*
X85254Y-56366D01*
X85292Y-56333D01*
X85388Y-56333D01*
X85445Y-56366D01*
X85616Y-56666D02*
X85750Y-56666D01*
X85807Y-57033D02*
X85616Y-57033D01*
X85616Y-56333D01*
X85807Y-56333D01*
X86188Y-56366D02*
X86150Y-56333D01*
X86092Y-56333D01*
X86035Y-56366D01*
X85997Y-56433D01*
X85978Y-56500D01*
X85959Y-56633D01*
X85959Y-56733D01*
X85978Y-56866D01*
X85997Y-56933D01*
X86035Y-57000D01*
X86092Y-57033D01*
X86130Y-57033D01*
X86188Y-57000D01*
X86207Y-56966D01*
X86207Y-56733D01*
X86130Y-56733D01*
X86378Y-57033D02*
X86378Y-56333D01*
X86511Y-56833D01*
X86645Y-56333D01*
X86645Y-57033D01*
G54D14*
M02*
