999
dxflib 2.2.0.0
  0
SECTION
  2
HEADER
  9
$ACADVER
  1
AC1015
  9
$HANDSEED
  5
FFFF
  9
$DIMASZ
 40
2.5
  9
$MEASUREMENT
 70
1
  9
$DIMGAP
 40
0.625
  9
$DIMEXO
 40
0.625
  9
$INSUNITS
 70
4
  9
$DIMTXT
 40
2.5
  9
$DIMSTYLE
  2
Standard
  9
$PLIMMAX
 10
210.0
 20
297.0
  9
$PLIMMIN
 10
0.0
 20
0.0
  9
$DIMEXE
 40
1.25
  0
ENDSEC
  0
SECTION
  2
TABLES
  0
TABLE
  2
VPORT
  5
8
100
AcDbSymbolTable
 70
1
  0
VPORT
  5
30
100
AcDbSymbolTableRecord
100
AcDbViewportTableRecord
  2
*Active
 70
0
 10
0.0
 20
0.0
 11
1.0
 21
1.0
 12
286.3055555555554861
 22
148.5
 13
0.0
 23
0.0
 14
10.0
 24
10.0
 15
10.0
 25
10.0
 16
0.0
 26
0.0
 36
1.0
 17
0.0
 27
0.0
 37
0.0
 40
297.0
 41
1.92798353909465
 42
50.0
 43
0.0
 44
0.0
 50
0.0
 51
0.0
 71
0
 72
100
 73
1
 74
3
 75
1
 76
1
 77
0
 78
0
281
0
 65
1
110
0.0
120
0.0
130
0.0
111
1.0
121
0.0
131
0.0
112
0.0
122
1.0
132
0.0
 79
0
146
0.0
  0
ENDTAB
  0
TABLE
  2
LTYPE
  5
5
100
AcDbSymbolTable
 70
21
  0
LTYPE
  5
14
100
AcDbSymbolTableRecord
100
AcDbLinetypeTableRecord
  2
ByBlock
 70
0
  3

 72
65
 73
0
 40
0.0
  0
LTYPE
  5
15
100
AcDbSymbolTableRecord
100
AcDbLinetypeTableRecord
  2
ByLayer
 70
0
  3

 72
65
 73
0
 40
0.0
  0
LTYPE
  5
16
100
AcDbSymbolTableRecord
100
AcDbLinetypeTableRecord
  2
CONTINUOUS
 70
0
  3
Solid line
 72
65
 73
0
 40
0.0
  0
LTYPE
  5
31
100
AcDbSymbolTableRecord
100
AcDbLinetypeTableRecord
  2
DOT
 70
0
  3
Dot . . . . . . . . . . . . . . . . . . . . . .
 72
65
 73
2
 40
6.3499999999999996
 49
0.0
 74
0
 49
-6.3499999999999996
 74
0
  0
LTYPE
  5
32
100
AcDbSymbolTableRecord
100
AcDbLinetypeTableRecord
  2
DOT2
 70
0
  3
Dot (.5x) .....................................
 72
65
 73
2
 40
3.1749999999999998
 49
0.0
 74
0
 49
-3.1749999999999998
 74
0
  0
LTYPE
  5
33
100
AcDbSymbolTableRecord
100
AcDbLinetypeTableRecord
  2
DOTX2
 70
0
  3
Dot (2x) .  .  .  .  .  .  .  .  .  .  .  .  .
 72
65
 73
2
 40
12.6999999999999993
 49
0.0
 74
0
 49
-12.6999999999999993
 74
0
  0
LTYPE
  5
34
100
AcDbSymbolTableRecord
100
AcDbLinetypeTableRecord
  2
DASHED
 70
0
  3
Dashed __ __ __ __ __ __ __ __ __ __ __ __ __ _
 72
65
 73
2
 40
19.0500000000000007
 49
12.6999999999999993
 74
0
 49
-6.3499999999999996
 74
0
  0
LTYPE
  5
35
100
AcDbSymbolTableRecord
100
AcDbLinetypeTableRecord
  2
DASHED2
 70
0
  3
Dashed (.5x) _ _ _ _ _ _ _ _ _ _ _ _ _ _ _ _ _
 72
65
 73
2
 40
9.5250000000000004
 49
6.3499999999999996
 74
0
 49
-3.1749999999999998
 74
0
  0
LTYPE
  5
36
100
AcDbSymbolTableRecord
100
AcDbLinetypeTableRecord
  2
DASHEDX2
 70
0
  3
Dashed (2x) ____  ____  ____  ____  ____  ___
 72
65
 73
2
 40
38.1000000000000014
 49
25.3999999999999986
 74
0
 49
-12.6999999999999993
 74
0
  0
LTYPE
  5
37
100
AcDbSymbolTableRecord
100
AcDbLinetypeTableRecord
  2
DASHDOT
 70
0
  3
Dash dot __ . __ . __ . __ . __ . __ . __ . __
 72
65
 73
4
 40
25.3999999999999986
 49
12.6999999999999993
 74
0
 49
-6.3499999999999996
 74
0
 49
0.0
 74
0
 49
-6.3499999999999996
 74
0
  0
LTYPE
  5
38
100
AcDbSymbolTableRecord
100
AcDbLinetypeTableRecord
  2
DASHDOT2
 70
0
  3
Dash dot (.5x) _._._._._._._._._._._._._._._.
 72
65
 73
4
 40
12.6999999999999993
 49
6.3499999999999996
 74
0
 49
-3.1749999999999998
 74
0
 49
0.0
 74
0
 49
-3.1749999999999998
 74
0
  0
LTYPE
  5
39
100
AcDbSymbolTableRecord
100
AcDbLinetypeTableRecord
  2
DASHDOTX2
 70
0
  3
Dash dot (2x) ____  .  ____  .  ____  .  ___
 72
65
 73
4
 40
50.7999999999999972
 49
25.3999999999999986
 74
0
 49
-12.6999999999999993
 74
0
 49
0.0
 74
0
 49
-12.6999999999999993
 74
0
  0
LTYPE
  5
3A
100
AcDbSymbolTableRecord
100
AcDbLinetypeTableRecord
  2
DIVIDE
 70
0
  3
Divide ____ . . ____ . . ____ . . ____ . . ____
 72
65
 73
6
 40
31.75
 49
12.6999999999999993
 74
0
 49
-6.3499999999999996
 74
0
 49
0.0
 74
0
 49
-6.3499999999999996
 74
0
 49
0.0
 74
0
 49
-6.3499999999999996
 74
0
  0
LTYPE
  5
3B
100
AcDbSymbolTableRecord
100
AcDbLinetypeTableRecord
  2
DIVIDE2
 70
0
  3
Divide (.5x) __..__..__..__..__..__..__..__.._
 72
65
 73
6
 40
15.875
 49
6.3499999999999996
 74
0
 49
-3.1749999999999998
 74
0
 49
0.0
 74
0
 49
-3.1749999999999998
 74
0
 49
0.0
 74
0
 49
-3.1749999999999998
 74
0
  0
LTYPE
  5
3C
100
AcDbSymbolTableRecord
100
AcDbLinetypeTableRecord
  2
DIVIDEX2
 70
0
  3
Divide (2x) ________  .  .  ________  .  .  _
 72
65
 73
6
 40
63.5
 49
25.3999999999999986
 74
0
 49
-12.6999999999999993
 74
0
 49
0.0
 74
0
 49
-12.6999999999999993
 74
0
 49
0.0
 74
0
 49
-12.6999999999999993
 74
0
  0
LTYPE
  5
3D
100
AcDbSymbolTableRecord
100
AcDbLinetypeTableRecord
  2
CENTER
 70
0
  3
Center ____ _ ____ _ ____ _ ____ _ ____ _ ____
 72
65
 73
4
 40
50.7999999999999972
 49
31.75
 74
0
 49
-6.3499999999999996
 74
0
 49
6.3499999999999996
 74
0
 49
-6.3499999999999996
 74
0
  0
LTYPE
  5
3E
100
AcDbSymbolTableRecord
100
AcDbLinetypeTableRecord
  2
CENTER2
 70
0
  3
Center (.5x) ___ _ ___ _ ___ _ ___ _ ___ _ ___
 72
65
 73
4
 40
28.5749999999999993
 49
19.0500000000000007
 74
0
 49
-3.1749999999999998
 74
0
 49
3.1749999999999998
 74
0
 49
-3.1749999999999998
 74
0
  0
LTYPE
  5
3F
100
AcDbSymbolTableRecord
100
AcDbLinetypeTableRecord
  2
CENTERX2
 70
0
  3
Center (2x) ________  __  ________  __  _____
 72
65
 73
4
 40
101.5999999999999943
 49
63.5
 74
0
 49
-12.6999999999999993
 74
0
 49
12.6999999999999993
 74
0
 49
-12.6999999999999993
 74
0
  0
LTYPE
  5
40
100
AcDbSymbolTableRecord
100
AcDbLinetypeTableRecord
  2
BORDER
 70
0
  3
Border __ __ . __ __ . __ __ . __ __ . __ __ .
 72
65
 73
6
 40
44.4500000000000028
 49
12.6999999999999993
 74
0
 49
-6.3499999999999996
 74
0
 49
12.6999999999999993
 74
0
 49
-6.3499999999999996
 74
0
 49
0.0
 74
0
 49
-6.3499999999999996
 74
0
  0
LTYPE
  5
41
100
AcDbSymbolTableRecord
100
AcDbLinetypeTableRecord
  2
BORDER2
 70
0
  3
Border (.5x) __.__.__.__.__.__.__.__.__.__.__.
 72
65
 73
6
 40
22.2250000000000014
 49
6.3499999999999996
 74
0
 49
-3.1749999999999998
 74
0
 49
6.3499999999999996
 74
0
 49
-3.1749999999999998
 74
0
 49
0.0
 74
0
 49
-3.1749999999999998
 74
0
  0
LTYPE
  5
42
100
AcDbSymbolTableRecord
100
AcDbLinetypeTableRecord
  2
BORDERX2
 70
0
  3
Border (2x) ____  ____  .  ____  ____  .  ___
 72
65
 73
6
 40
88.9000000000000057
 49
25.3999999999999986
 74
0
 49
-12.6999999999999993
 74
0
 49
25.3999999999999986
 74
0
 49
-12.6999999999999993
 74
0
 49
0.0
 74
0
 49
-12.6999999999999993
 74
0
  0
ENDTAB
  0
TABLE
  2
LAYER
  5
2
100
AcDbSymbolTable
 70
2
  0
LAYER
  5
10
100
AcDbSymbolTableRecord
100
AcDbLayerTableRecord
  2
0
 70
0
 62
7
  6
CONTINUOUS
390
F
  0
LAYER
  5
43
100
AcDbSymbolTableRecord
100
AcDbLayerTableRecord
  2
Layer_1
 70
0
 62
7
  6
CONTINUOUS
390
F
  0
ENDTAB
  0
TABLE
  2
STYLE
  5
3
100
AcDbSymbolTable
 70
1
  0
STYLE
  5
11
100
AcDbSymbolTableRecord
100
AcDbTextStyleTableRecord
  2
Standard
 70
0
 40
0.0
 41
0.75
 50
0.0
 71
0
 42
2.5
  3
txt
  4

  0
ENDTAB
  0
TABLE
  2
VIEW
  5
6
100
AcDbSymbolTable
 70
0
  0
ENDTAB
  0
TABLE
  2
UCS
  5
7
100
AcDbSymbolTable
 70
0
  0
ENDTAB
  0
TABLE
  2
APPID
  5
9
100
AcDbSymbolTable
 70
1
  0
APPID
  5
12
100
AcDbSymbolTableRecord
100
AcDbRegAppTableRecord
  2
ACAD
 70
0
  0
ENDTAB
  0
TABLE
  2
DIMSTYLE
  5
A
100
AcDbSymbolTable
 70
1
100
AcDbDimStyleTable
 71
0
  0
DIMSTYLE
105
27
100
AcDbSymbolTableRecord
100
AcDbDimStyleTableRecord
  2
Standard
 41
2.5
 42
0.625
 43
3.75
 44
1.25
 70
0
 73
0
 74
0
 77
1
 78
8
140
2.5
141
2.5
143
0.03937007874016
147
0.625
171
3
172
1
271
2
272
2
274
3
278
44
283
0
284
8
340
11
  0
ENDTAB
  0
TABLE
  2
BLOCK_RECORD
  5
1
100
AcDbSymbolTable
 70
1
  0
BLOCK_RECORD
  5
1F
100
AcDbSymbolTableRecord
100
AcDbBlockTableRecord
  2
*Model_Space
340
22
  0
BLOCK_RECORD
  5
1B
100
AcDbSymbolTableRecord
100
AcDbBlockTableRecord
  2
*Paper_Space
340
1E
  0
BLOCK_RECORD
  5
23
100
AcDbSymbolTableRecord
100
AcDbBlockTableRecord
  2
*Paper_Space0
340
26
  0
ENDTAB
  0
ENDSEC
  0
SECTION
  2
BLOCKS
  0
BLOCK
  5
20
100
AcDbEntity
  8
0
100
AcDbBlockBegin
  2
*Model_Space
 70
0
 10
0.0
 20
0.0
 30
0.0
  3
*Model_Space
  1

  0
ENDBLK
  5
21
100
AcDbEntity
  8
0
100
AcDbBlockEnd
  0
BLOCK
  5
1C
100
AcDbEntity
 67
1
  8
0
100
AcDbBlockBegin
  2
*Paper_Space
 70
0
 10
0.0
 20
0.0
 30
0.0
  3
*Paper_Space
  1

  0
ENDBLK
  5
1D
100
AcDbEntity
 67
1
  8
0
100
AcDbBlockEnd
  0
BLOCK
  5
24
100
AcDbEntity
  8
0
100
AcDbBlockBegin
  2
*Paper_Space0
 70
0
 10
0.0
 20
0.0
 30
0.0
  3
*Paper_Space0
  1

  0
ENDBLK
  5
25
100
AcDbEntity
  8
0
100
AcDbBlockEnd
  0
ENDSEC
  0
SECTION
  2
ENTITIES
  0
SPLINE
  5
44
  8
Layer_1
 62
7
370
-1
  6
ByLayer
100
AcDbEntity
100
AcDbSpline
 70
8
 71
3
 72
8
 73
4
 74
0
 40
0.0
 40
0.0
 40
0.0
 40
0.0
 40
1.0
 40
1.0
 40
1.0
 40
1.0
 10
146.649721999999997
 20
167.5922850000000039
 30
0.0
 10
146.5910910000000058
 20
167.5922850000000039
 30
0.0
 10
146.5303959999999961
 20
167.5892259999999965
 30
0.0
 10
146.4733329999999967
 20
167.5834649999999897
 30
0.0
  0
SPLINE
  5
45
  8
Layer_1
 62
7
370
-1
  6
ByLayer
100
AcDbEntity
100
AcDbSpline
 70
8
 71
3
 72
8
 73
4
 74
0
 40
0.0
 40
0.0
 40
0.0
 40
0.0
 40
1.0
 40
1.0
 40
1.0
 40
1.0
 10
1.2964580000000001
 20
88.4201319999999953
 30
0.0
 10
0.588136
 20
88.4201319999999953
 30
0.0
 10
0.017639
 20
87.7573440000000033
 30
0.0
 10
0.017639
 20
86.9384649999999937
 30
0.0
  0
LWPOLYLINE
  5
46
  8
Layer_1
 62
7
370
-1
  6
ByLayer
100
AcDbEntity
100
AcDbPolyline
 90
176
 70
0
 10
146.4733329999999967
 20
167.5834649999999897
 10
7.8316670000000004
 20
167.5834649999999897
 10
6.3323609999999997
 20
167.5834649999999897
 10
6.3323609999999997
 20
166.1106179999999881
 10
6.3323609999999997
 20
165.7842990000000043
 10
6.3323609999999997
 20
164.3114510000000053
 10
7.8316670000000004
 20
164.3114510000000053
 10
142.1694439999999986
 20
164.3114510000000053
 10
142.1694439999999986
 20
163.985131999999993
 10
7.8316670000000004
 20
163.985131999999993
 10
6.3323609999999997
 20
163.985131999999993
 10
6.3323609999999997
 20
162.5122849999999914
 10
6.3323609999999997
 20
160.7131180000000086
 10
7.8316670000000004
 20
160.7131180000000086
 10
142.1694439999999986
 20
160.7131180000000086
 10
142.1694439999999986
 20
160.3867989999999963
 10
7.8316670000000004
 20
160.3867989999999963
 10
6.3323609999999997
 20
160.3867989999999963
 10
6.3323609999999997
 20
158.9139509999999973
 10
6.3323609999999997
 20
157.1059649999999976
 10
7.8316670000000004
 20
157.1059649999999976
 10
142.1694439999999986
 20
157.1059649999999976
 10
142.1694439999999986
 20
156.7884650000000022
 10
7.8316670000000004
 20
156.7884650000000022
 10
6.3323609999999997
 20
156.7884650000000022
 10
6.3323609999999997
 20
155.3067990000000123
 10
6.3323609999999997
 20
153.507632000000001
 10
7.8316670000000004
 20
153.507632000000001
 10
142.1694439999999986
 20
153.507632000000001
 10
142.1694439999999986
 20
153.1901320000000055
 10
7.8316670000000004
 20
153.1901320000000055
 10
6.3323609999999997
 20
153.1901320000000055
 10
6.3323609999999997
 20
151.7084649999999897
 10
6.3323609999999997
 20
149.9092990000000043
 10
7.8316670000000004
 20
149.9092990000000043
 10
142.1694439999999986
 20
149.9092990000000043
 10
142.1694439999999986
 20
149.5917990000000088
 10
7.8316670000000004
 20
149.5917990000000088
 10
6.3323609999999997
 20
149.5917990000000088
 10
6.3323609999999997
 20
148.110131999999993
 10
6.3323609999999997
 20
146.3109650000000101
 10
7.8316670000000004
 20
146.3109650000000101
 10
142.1694439999999986
 20
146.3109650000000101
 10
142.1694439999999986
 20
145.9846459999999979
 10
7.8316670000000004
 20
145.9846459999999979
 10
6.3323609999999997
 20
145.9846459999999979
 10
6.3323609999999997
 20
144.5117989999999963
 10
6.3323609999999997
 20
142.7126320000000135
 10
7.8316670000000004
 20
142.7126320000000135
 10
142.1694439999999986
 20
142.7126320000000135
 10
142.1694439999999986
 20
142.3863120000000038
 10
7.8316670000000004
 20
142.3863120000000038
 10
6.3323609999999997
 20
142.3863120000000038
 10
6.3323609999999997
 20
140.9134650000000022
 10
6.3323609999999997
 20
140.58714599999999
 10
6.3323609999999997
 20
139.1142989999999884
 10
6.3323609999999997
 20
139.1054790000000025
 10
7.8316670000000004
 20
139.1054790000000025
 10
7.8316670000000004
 20
139.1142989999999884
 10
142.1694439999999986
 20
139.1142989999999884
 10
142.1694439999999986
 20
138.7879790000000071
 10
7.8316670000000004
 20
138.7879790000000071
 10
6.3323609999999997
 20
138.7879790000000071
 10
6.3323609999999997
 20
137.3063119999999913
 10
6.3323609999999997
 20
137.0064509999999984
 10
6.3323609999999997
 20
135.5336039999999969
 10
6.3323609999999997
 20
135.5071460000000059
 10
7.8316670000000004
 20
135.5071460000000059
 10
7.8316670000000004
 20
135.5336039999999969
 10
142.1694439999999986
 20
135.5336039999999969
 10
142.1694439999999986
 20
135.207285000000013
 10
6.3323609999999997
 20
135.207285000000013
 10
6.3323609999999997
 20
133.734437000000014
 10
6.3323609999999997
 20
133.4081180000000018
 10
6.3323609999999997
 20
131.9352710000000002
 10
6.3323609999999997
 20
131.9088120000000117
 10
7.8316670000000004
 20
131.9088120000000117
 10
7.8316670000000004
 20
131.9352710000000002
 10
142.1694439999999986
 20
131.9352710000000002
 10
142.1694439999999986
 20
131.6089509999999905
 10
6.3323609999999997
 20
131.6089509999999905
 10
6.3323609999999997
 20
130.1361039999999889
 10
6.3323609999999997
 20
129.8097850000000051
 10
6.3323609999999997
 20
128.336937000000006
 10
6.3323609999999997
 20
128.3104789999999866
 10
7.8316670000000004
 20
128.3104789999999866
 10
7.8316670000000004
 20
128.336937000000006
 10
142.1694439999999986
 20
128.336937000000006
 10
142.1694439999999986
 20
128.0106179999999938
 10
7.8316670000000004
 20
128.0106179999999938
 10
6.3323609999999997
 20
128.0106179999999938
 10
6.3323609999999997
 20
126.5289510000000064
 10
6.3323609999999997
 20
124.7297850000000068
 10
7.8316670000000004
 20
124.7297850000000068
 10
142.1694439999999986
 20
124.7297850000000068
 10
142.1694439999999986
 20
124.4122849999999971
 10
7.8316670000000004
 20
124.4122849999999971
 10
6.3323609999999997
 20
124.4122849999999971
 10
6.3323609999999997
 20
122.9306179999999955
 10
6.3323609999999997
 20
121.1314509999999984
 10
7.8316670000000004
 20
121.1314509999999984
 10
142.1694439999999986
 20
121.1314509999999984
 10
142.1694439999999986
 20
120.813951000000003
 10
7.8316670000000004
 20
120.813951000000003
 10
6.3323609999999997
 20
120.813951000000003
 10
6.3323609999999997
 20
119.3322849999999988
 10
6.3323609999999997
 20
117.5331180000000018
 10
7.8316670000000004
 20
117.5331180000000018
 10
142.1694439999999986
 20
117.5331180000000018
 10
142.1694439999999986
 20
117.2067990000000037
 10
7.8316670000000004
 20
117.2067990000000037
 10
6.3323609999999997
 20
117.2067990000000037
 10
6.3323609999999997
 20
115.7339510000000047
 10
6.3323609999999997
 20
113.9347850000000051
 10
7.8316670000000004
 20
113.9347850000000051
 10
142.1694439999999986
 20
113.9347850000000051
 10
142.1694439999999986
 20
113.6084649999999954
 10
7.8316670000000004
 20
113.6084649999999954
 10
6.3323609999999997
 20
113.6084649999999954
 10
6.3323609999999997
 20
112.1356179999999938
 10
6.3323609999999997
 20
110.3364509999999967
 10
7.8316670000000004
 20
110.3364509999999967
 10
142.1694439999999986
 20
110.3364509999999967
 10
142.1694439999999986
 20
110.0101319999999987
 10
7.8316670000000004
 20
110.0101319999999987
 10
6.3323609999999997
 20
110.0101319999999987
 10
6.3323609999999997
 20
108.5284649999999971
 10
6.3323609999999997
 20
106.7292989999999975
 10
7.8316670000000004
 20
106.7292989999999975
 10
142.1694439999999986
 20
106.7292989999999975
 10
142.1694439999999986
 20
106.411799000000002
 10
7.8316670000000004
 20
106.411799000000002
 10
6.3323609999999997
 20
106.411799000000002
 10
6.3323609999999997
 20
104.9301320000000004
 10
6.3323609999999997
 20
103.1309650000000033
 10
7.8316670000000004
 20
103.1309650000000033
 10
142.1694439999999986
 20
103.1309650000000033
 10
142.1694439999999986
 20
102.8134649999999937
 10
7.8316670000000004
 20
102.8134649999999937
 10
6.3323609999999997
 20
102.8134649999999937
 10
6.3323609999999997
 20
101.3317990000000037
 10
6.3323609999999997
 20
101.0319369999999992
 10
6.3323609999999997
 20
99.5590899999999976
 10
6.3323609999999997
 20
99.5326320000000067
 10
7.8316670000000004
 20
99.5326320000000067
 10
7.8316670000000004
 20
99.5590899999999976
 10
142.1694439999999986
 20
99.5590899999999976
 10
142.1694439999999986
 20
99.2327709999999996
 10
6.3323609999999997
 20
99.2327709999999996
 10
6.3323609999999997
 20
97.751103999999998
 10
6.3323609999999997
 20
97.4336040000000025
 10
6.3323609999999997
 20
95.9519370000000009
 10
6.3323609999999997
 20
95.9342989999999958
 10
7.8316670000000004
 20
95.9342989999999958
 10
7.8316670000000004
 20
95.9519370000000009
 10
142.1694439999999986
 20
95.9519370000000009
 10
142.1694439999999986
 20
95.6344370000000055
 10
6.3323609999999997
 20
95.6344370000000055
 10
6.3323609999999997
 20
94.1527710000000013
 10
6.3323609999999997
 20
93.8352710000000059
 10
6.3323609999999997
 20
92.3536040000000042
 10
6.3323609999999997
 20
92.3359650000000016
 10
7.8316670000000004
 20
92.3359650000000016
 10
7.8316670000000004
 20
92.3536040000000042
 10
142.1694439999999986
 20
92.3536040000000042
 10
142.1694439999999986
 20
92.0361039999999946
 10
7.8316670000000004
 20
92.0361039999999946
 10
6.3323609999999997
 20
92.0361039999999946
 10
6.3323609999999997
 20
90.554436999999993
 10
6.3323609999999997
 20
88.7552709999999934
 10
7.8316670000000004
 20
88.7552709999999934
 10
142.1694439999999986
 20
88.7552709999999934
 10
142.1694439999999986
 20
88.4289509999999979
 10
1.4199310000000001
 20
88.4289509999999979
 10
1.4199310000000001
 20
88.4201319999999953
 10
1.2964580000000001
 20
88.4201319999999953
  0
SPLINE
  5
47
  8
Layer_1
 62
7
370
-1
  6
ByLayer
100
AcDbEntity
100
AcDbSpline
 70
8
 71
3
 72
8
 73
4
 74
0
 40
0.0
 40
0.0
 40
0.0
 40
0.0
 40
1.0
 40
1.0
 40
1.0
 40
1.0
 10
0.017639
 20
1.2663819999999999
 30
0.0
 10
0.017639
 20
0.562802
 30
0.0
 10
0.584059
 20
-0.003618
 30
0.0
 10
1.287639
 20
-0.003618
 30
0.0
  0
LWPOLYLINE
  5
48
  8
Layer_1
 62
7
370
-1
  6
ByLayer
100
AcDbEntity
100
AcDbPolyline
 90
4
 70
0
 10
0.017639
 20
86.9384649999999937
 10
0.017639
 20
3.7181869999999999
 10
0.017639
 20
1.495687
 10
0.017639
 20
1.2663819999999999
  0
SPLINE
  5
49
  8
Layer_1
 62
7
370
-1
  6
ByLayer
100
AcDbEntity
100
AcDbSpline
 70
8
 71
3
 72
8
 73
4
 74
0
 40
0.0
 40
0.0
 40
0.0
 40
0.0
 40
1.0
 40
1.0
 40
1.0
 40
1.0
 10
68.7299309999999934
 20
-0.003618
 30
0.0
 10
69.4335109999999958
 20
-0.003618
 30
0.0
 10
69.9999310000000037
 20
0.562802
 30
0.0
 10
69.9999310000000037
 20
1.2663819999999999
 30
0.0
  0
LWPOLYLINE
  5
4A
  8
Layer_1
 62
7
370
-1
  6
ByLayer
100
AcDbEntity
100
AcDbPolyline
 90
6
 70
0
 10
1.287639
 20
-0.003618
 10
67.7509720000000044
 20
-0.003618
 10
67.7509720000000044
 20
-0.797368
 10
68.3506940000000043
 20
-0.797368
 10
68.3506940000000043
 20
-0.003618
 10
68.7299309999999934
 20
-0.003618
  0
SPLINE
  5
4B
  8
Layer_1
 62
7
370
-1
  6
ByLayer
100
AcDbEntity
100
AcDbSpline
 70
8
 71
3
 72
8
 73
4
 74
0
 40
0.0
 40
0.0
 40
0.0
 40
0.0
 40
1.0
 40
1.0
 40
1.0
 40
1.0
 10
69.9999310000000037
 20
3.7181869999999999
 30
0.0
 10
69.9999310000000037
 20
4.421767
 30
0.0
 10
69.4335109999999958
 20
4.9881869999999999
 30
0.0
 10
68.7299309999999934
 20
4.9881869999999999
 30
0.0
  0
LWPOLYLINE
  5
4C
  8
Layer_1
 62
7
370
-1
  6
ByLayer
100
AcDbEntity
100
AcDbPolyline
 90
10
 70
0
 10
69.9999310000000037
 20
1.2663819999999999
 10
69.9999310000000037
 20
2.6598540000000002
 10
71.1993750000000034
 20
2.6598540000000002
 10
71.1993750000000034
 20
2.2629790000000001
 10
72.1959719999999976
 20
2.2629790000000001
 10
72.1959719999999976
 20
3.559437
 10
71.1993750000000034
 20
3.559437
 10
71.1993750000000034
 20
3.1625619999999999
 10
69.9999310000000037
 20
3.1625619999999999
 10
69.9999310000000037
 20
3.7181869999999999
  0
SPLINE
  5
4D
  8
Layer_1
 62
7
370
-1
  6
ByLayer
100
AcDbEntity
100
AcDbSpline
 70
8
 71
3
 72
8
 73
4
 74
0
 40
0.0
 40
0.0
 40
0.0
 40
0.0
 40
1.0
 40
1.0
 40
1.0
 40
1.0
 10
81.2888190000000037
 20
4.9881869999999999
 30
0.0
 10
80.5852390000000014
 20
4.9881869999999999
 30
0.0
 10
80.0188189999999935
 20
4.421767
 30
0.0
 10
80.0188189999999935
 20
3.7181869999999999
 30
0.0
  0
LWPOLYLINE
  5
4E
  8
Layer_1
 62
7
370
-1
  6
ByLayer
100
AcDbEntity
100
AcDbPolyline
 90
137
 70
0
 10
68.7299309999999934
 20
4.9881869999999999
 10
5.0006250000000003
 20
4.9881869999999999
 10
5.0006250000000003
 20
6.0024240000000004
 10
143.6687499999999886
 20
6.0024240000000004
 10
143.6687499999999886
 20
7.4752710000000002
 10
143.6687499999999886
 20
9.2744370000000007
 10
7.8316670000000004
 20
9.2744370000000007
 10
7.8316670000000004
 20
9.6007569999999998
 10
143.6687499999999886
 20
9.6007569999999998
 10
143.6687499999999886
 20
11.0736039999999996
 10
143.6687499999999886
 20
12.8727710000000002
 10
143.6687499999999886
 20
12.8815899999999992
 10
7.8316670000000004
 20
12.8815899999999992
 10
7.8316670000000004
 20
13.19909
 10
142.1694439999999986
 20
13.19909
 10
142.1694439999999986
 20
13.1726320000000001
 10
143.6687499999999886
 20
13.1726320000000001
 10
143.6687499999999886
 20
16.4534650000000013
 10
143.6687499999999886
 20
16.4799240000000005
 10
7.8316670000000004
 20
16.4799240000000005
 10
7.8316670000000004
 20
16.7974239999999995
 10
142.1694439999999986
 20
16.7974239999999995
 10
142.1694439999999986
 20
16.7797850000000004
 10
143.6687499999999886
 20
16.7797850000000004
 10
143.6687499999999886
 20
20.051798999999999
 10
143.6687499999999886
 20
20.0782570000000007
 10
7.8316670000000004
 20
20.0782570000000007
 10
7.8316670000000004
 20
20.3957569999999997
 10
142.1694439999999986
 20
20.3957569999999997
 10
142.1694439999999986
 20
20.3781180000000006
 10
143.6687499999999886
 20
20.3781180000000006
 10
143.6687499999999886
 20
23.6589509999999983
 10
143.6687499999999886
 20
23.6765900000000009
 10
7.8316670000000004
 20
23.6765900000000009
 10
7.8316670000000004
 20
24.00291
 10
142.1694439999999986
 20
24.00291
 10
142.1694439999999986
 20
23.9764510000000008
 10
143.6687499999999886
 20
23.9764510000000008
 10
143.6687499999999886
 20
27.2572849999999995
 10
143.6687499999999886
 20
27.2749239999999986
 10
7.8316670000000004
 20
27.2749239999999986
 10
7.8316670000000004
 20
27.6012430000000002
 10
142.1694439999999986
 20
27.6012430000000002
 10
142.1694439999999986
 20
27.5747849999999985
 10
143.6687499999999886
 20
27.5747849999999985
 10
143.6687499999999886
 20
30.8556179999999998
 10
7.8316670000000004
 20
30.8556179999999998
 10
7.8316670000000004
 20
31.1731179999999988
 10
143.6687499999999886
 20
31.1731179999999988
 10
143.6687499999999886
 20
32.6547849999999968
 10
143.6687499999999886
 20
34.4539510000000035
 10
7.8316670000000004
 20
34.4539510000000035
 10
7.8316670000000004
 20
34.780270999999999
 10
143.6687499999999886
 20
34.780270999999999
 10
143.6687499999999886
 20
36.2531180000000006
 10
143.6687499999999886
 20
38.0522849999999977
 10
7.8316670000000004
 20
38.0522849999999977
 10
7.8316670000000004
 20
38.3786040000000028
 10
143.6687499999999886
 20
38.3786040000000028
 10
143.6687499999999886
 20
39.8514509999999973
 10
143.6687499999999886
 20
41.6506180000000015
 10
7.8316670000000004
 20
41.6506180000000015
 10
7.8316670000000004
 20
41.9769369999999995
 10
143.6687499999999886
 20
41.9769369999999995
 10
143.6687499999999886
 20
43.4586040000000011
 10
143.6687499999999886
 20
45.2577709999999982
 10
7.8316670000000004
 20
45.2577709999999982
 10
7.8316670000000004
 20
45.5752710000000008
 10
143.6687499999999886
 20
45.5752710000000008
 10
143.6687499999999886
 20
47.0569369999999978
 10
143.6687499999999886
 20
48.856104000000002
 10
7.8316670000000004
 20
48.856104000000002
 10
7.8316670000000004
 20
49.1736039999999974
 10
142.1694439999999986
 20
49.1736039999999974
 10
142.1694439999999986
 20
49.1559650000000019
 10
143.6687499999999886
 20
49.1559650000000019
 10
143.6687499999999886
 20
52.4279790000000006
 10
143.6687499999999886
 20
52.4544369999999986
 10
7.8316670000000004
 20
52.4544369999999986
 10
7.8316670000000004
 20
52.7807570000000013
 10
142.1694439999999986
 20
52.7807570000000013
 10
142.1694439999999986
 20
52.7542990000000032
 10
143.6687499999999886
 20
52.7542990000000032
 10
143.6687499999999886
 20
56.0351319999999973
 10
143.6687499999999886
 20
56.0527709999999999
 10
7.8316670000000004
 20
56.0527709999999999
 10
7.8316670000000004
 20
56.3790899999999979
 10
142.1694439999999986
 20
56.3790899999999979
 10
142.1694439999999986
 20
56.3526319999999998
 10
143.6687499999999886
 20
56.3526319999999998
 10
143.6687499999999886
 20
59.6334650000000011
 10
143.6687499999999886
 20
59.6511039999999966
 10
7.8316670000000004
 20
59.6511039999999966
 10
7.8316670000000004
 20
59.9774239999999992
 10
142.1694439999999986
 20
59.9774239999999992
 10
142.1694439999999986
 20
59.9509649999999965
 10
143.6687499999999886
 20
59.9509649999999965
 10
143.6687499999999886
 20
63.2317990000000023
 10
143.6687499999999886
 20
63.2582570000000004
 10
7.8316670000000004
 20
63.2582570000000004
 10
7.8316670000000004
 20
63.575757000000003
 10
142.1694439999999986
 20
63.575757000000003
 10
142.1694439999999986
 20
63.5581180000000003
 10
143.6687499999999886
 20
63.5581180000000003
 10
143.6687499999999886
 20
66.8301320000000061
 10
7.8316670000000004
 20
66.8301320000000061
 10
7.8316670000000004
 20
67.1564510000000041
 10
143.6687499999999886
 20
67.1564510000000041
 10
143.6687499999999886
 20
68.6292990000000032
 10
143.6687499999999886
 20
70.4284650000000028
 10
7.8316670000000004
 20
70.4284650000000028
 10
7.8316670000000004
 20
70.7547849999999983
 10
143.6687499999999886
 20
70.7547849999999983
 10
143.6687499999999886
 20
72.2364510000000024
 10
143.6687499999999886
 20
74.0356179999999995
 10
7.8316670000000004
 20
74.0356179999999995
 10
7.8316670000000004
 20
74.3531179999999949
 10
143.6687499999999886
 20
74.3531179999999949
 10
143.6687499999999886
 20
75.8347849999999966
 10
143.6687499999999886
 20
77.6339509999999962
 10
7.8316670000000004
 20
77.6339509999999962
 10
7.8316670000000004
 20
77.9514510000000058
 10
143.6687499999999886
 20
77.9514510000000058
 10
143.6687499999999886
 20
79.4331179999999932
 10
143.6687499999999886
 20
81.2322850000000045
 10
7.8316670000000004
 20
81.2322850000000045
 10
7.8316670000000004
 20
81.5586040000000025
 10
143.6687499999999886
 20
81.5586040000000025
 10
143.6687499999999886
 20
83.0314510000000041
 10
143.6687499999999886
 20
83.3577709999999996
 10
143.6687499999999886
 20
84.8306180000000012
 10
142.1694439999999986
 20
84.8306180000000012
 10
7.8316670000000004
 20
84.8306180000000012
 10
7.8316670000000004
 20
85.1569369999999992
 10
144.9563890000000015
 20
85.1569369999999992
 10
144.9563890000000015
 20
4.9881869999999999
 10
81.2888190000000037
 20
4.9881869999999999
  0
SPLINE
  5
4F
  8
Layer_1
 62
7
370
-1
  6
ByLayer
100
AcDbEntity
100
AcDbSpline
 70
8
 71
3
 72
8
 73
4
 74
0
 40
0.0
 40
0.0
 40
0.0
 40
0.0
 40
1.0
 40
1.0
 40
1.0
 40
1.0
 10
80.0188189999999935
 20
1.2663819999999999
 30
0.0
 10
80.0188189999999935
 20
0.562802
 30
0.0
 10
80.5852390000000014
 20
-0.003618
 30
0.0
 10
81.2888190000000037
 20
-0.003618
 30
0.0
  0
LWPOLYLINE
  5
50
  8
Layer_1
 62
7
370
-1
  6
ByLayer
100
AcDbEntity
100
AcDbPolyline
 90
44
 70
0
 10
80.0188189999999935
 20
3.7181869999999999
 10
80.0188189999999935
 20
2.1924239999999999
 10
78.3078469999999953
 20
2.1924239999999999
 10
78.3078469999999953
 20
2.4129100000000001
 10
77.0113889999999941
 20
2.4129100000000001
 10
77.0113889999999941
 20
2.1924239999999999
 10
76.3322919999999954
 20
2.1924239999999999
 10
76.3322919999999954
 20
2.4129100000000001
 10
75.0270139999999941
 20
2.4129100000000001
 10
75.0270139999999941
 20
2.1924239999999999
 10
74.1979860000000002
 20
2.1924239999999999
 10
74.1979860000000002
 20
3.6740900000000001
 10
75.0270139999999941
 20
3.6740900000000001
 10
75.0270139999999941
 20
3.4095070000000001
 10
76.3322919999999954
 20
3.4095070000000001
 10
76.3322919999999954
 20
3.6211739999999999
 10
77.0113889999999941
 20
3.6211739999999999
 10
77.0113889999999941
 20
3.4095070000000001
 10
78.3078469999999953
 20
3.4095070000000001
 10
78.3078469999999953
 20
4.4149240000000001
 10
77.0113889999999941
 20
4.4149240000000001
 10
77.0113889999999941
 20
4.123882
 10
76.3322919999999954
 20
4.123882
 10
76.3322919999999954
 20
4.4149240000000001
 10
75.0270139999999941
 20
4.4149240000000001
 10
75.0270139999999941
 20
4.1767989999999999
 10
73.7040970000000044
 20
4.1767989999999999
 10
73.7040970000000044
 20
3.6740900000000001
 10
73.7040970000000044
 20
3.559437
 10
73.201389000000006
 20
3.559437
 10
73.201389000000006
 20
2.2629790000000001
 10
73.7040970000000044
 20
2.2629790000000001
 10
73.7040970000000044
 20
1.9807570000000001
 10
73.7040970000000044
 20
1.6897150000000001
 10
75.0270139999999941
 20
1.6897150000000001
 10
75.0270139999999941
 20
1.416312
 10
76.3322919999999954
 20
1.416312
 10
76.3322919999999954
 20
1.6897150000000001
 10
77.0113889999999941
 20
1.6897150000000001
 10
77.0113889999999941
 20
1.416312
 10
78.3078469999999953
 20
1.416312
 10
78.3078469999999953
 20
1.6897150000000001
 10
80.0188189999999935
 20
1.6897150000000001
 10
80.0188189999999935
 20
1.2663819999999999
  0
SPLINE
  5
51
  8
Layer_1
 62
7
370
-1
  6
ByLayer
100
AcDbEntity
100
AcDbSpline
 70
8
 71
3
 72
8
 73
4
 74
0
 40
0.0
 40
0.0
 40
0.0
 40
0.0
 40
1.0
 40
1.0
 40
1.0
 40
1.0
 10
148.7311109999999985
 20
-0.003618
 30
0.0
 10
149.4346909999999866
 20
-0.003618
 30
0.0
 10
150.0011110000000087
 20
0.562802
 30
0.0
 10
150.0011110000000087
 20
1.2663819999999999
 30
0.0
  0
LWPOLYLINE
  5
52
  8
Layer_1
 62
7
370
-1
  6
ByLayer
100
AcDbEntity
100
AcDbPolyline
 90
6
 70
0
 10
81.2888190000000037
 20
-0.003618
 10
81.6504170000000045
 20
-0.003618
 10
81.6504170000000045
 20
-0.797368
 10
82.2501390000000043
 20
-0.797368
 10
82.2501390000000043
 20
-0.003618
 10
148.7311109999999985
 20
-0.003618
  0
SPLINE
  5
53
  8
Layer_1
 62
7
370
-1
  6
ByLayer
100
AcDbEntity
100
AcDbSpline
 70
8
 71
3
 72
8
 73
4
 74
0
 40
0.0
 40
0.0
 40
0.0
 40
0.0
 40
1.0
 40
1.0
 40
1.0
 40
1.0
 10
150.0011110000000087
 20
1.4251320000000001
 30
0.0
 10
150.017171999999988
 20
1.519137
 30
0.0
 10
150.0275689999999997
 20
1.6174489999999999
 30
0.0
 10
150.0275689999999997
 20
1.7161740000000001
 30
0.0
  0
LWPOLYLINE
  5
54
  8
Layer_1
 62
7
370
-1
  6
ByLayer
100
AcDbEntity
100
AcDbPolyline
 90
2
 70
0
 10
150.0011110000000087
 20
1.2663819999999999
 10
150.0011110000000087
 20
1.4251320000000001
  0
SPLINE
  5
55
  8
Layer_1
 62
7
370
-1
  6
ByLayer
100
AcDbEntity
100
AcDbSpline
 70
8
 71
3
 72
8
 73
4
 74
0
 40
0.0
 40
0.0
 40
0.0
 40
0.0
 40
1.0
 40
1.0
 40
1.0
 40
1.0
 10
150.0275689999999997
 20
165.8989510000000109
 30
0.0
 10
150.0275689999999997
 20
166.7538649999999905
 30
0.0
 10
149.3936109999999928
 20
167.4566759999999874
 30
0.0
 10
148.5723610000000008
 20
167.5746460000000013
 30
0.0
  0
LWPOLYLINE
  5
56
  8
Layer_1
 62
7
370
-1
  6
ByLayer
100
AcDbEntity
100
AcDbPolyline
 90
2
 70
0
 10
150.0275689999999997
 20
1.7161740000000001
 10
150.0275689999999997
 20
165.8989510000000109
  0
SPLINE
  5
57
  8
Layer_1
 62
7
370
-1
  6
ByLayer
100
AcDbEntity
100
AcDbSpline
 70
8
 71
3
 72
8
 73
4
 74
0
 40
0.0
 40
0.0
 40
0.0
 40
0.0
 40
1.0
 40
1.0
 40
1.0
 40
1.0
 10
148.5018059999999878
 20
167.5834649999999897
 30
0.0
 10
148.4447429999999883
 20
167.5892259999999965
 30
0.0
 10
148.3928679999999929
 20
167.5922850000000039
 30
0.0
 10
148.3342360000000042
 20
167.5922850000000039
 30
0.0
  0
LWPOLYLINE
  5
58
  8
Layer_1
 62
7
370
-1
  6
ByLayer
100
AcDbEntity
100
AcDbPolyline
 90
3
 70
0
 10
148.5723610000000008
 20
167.5746460000000013
 10
148.5723610000000008
 20
167.5834649999999897
 10
148.5018059999999878
 20
167.5834649999999897
  0
LWPOLYLINE
  5
59
  8
Layer_1
 62
7
370
-1
  6
ByLayer
100
AcDbEntity
100
AcDbPolyline
 90
3
 70
0
 10
148.3342360000000042
 20
167.5922850000000039
 10
146.649721999999997
 20
167.5922850000000039
 10
146.649721999999997
 20
167.5922850000000039
  0
SPLINE
  5
5A
  8
Layer_1
 62
7
370
-1
  6
ByLayer
100
AcDbEntity
100
AcDbSpline
 70
8
 71
3
 72
8
 73
4
 74
0
 40
0.0
 40
0.0
 40
0.0
 40
0.0
 40
1.0
 40
1.0
 40
1.0
 40
1.0
 10
144.9652079999999899
 20
166.1106179999999881
 30
0.0
 10
144.9568399999999997
 20
166.0421100000000081
 30
0.0
 10
144.9563890000000015
 20
165.9697909999999865
 30
0.0
 10
144.9563890000000015
 20
165.8989510000000109
 30
0.0
  0
LWPOLYLINE
  5
5B
  8
Layer_1
 62
7
370
-1
  6
ByLayer
100
AcDbEntity
100
AcDbPolyline
 90
2
 70
0
 10
7.8316670000000004
 20
166.1106179999999881
 10
144.9652079999999899
 20
166.1106179999999881
  0
SPLINE
  5
5C
  8
Layer_1
 62
7
370
-1
  6
ByLayer
100
AcDbEntity
100
AcDbSpline
 70
8
 71
3
 72
8
 73
4
 74
0
 40
0.0
 40
0.0
 40
0.0
 40
0.0
 40
1.0
 40
1.0
 40
1.0
 40
1.0
 10
5.0006250000000003
 20
86.9384649999999937
 30
0.0
 10
5.0006250000000003
 20
86.9444400000000002
 30
0.0
 10
5.000686
 20
86.9501460000000037
 30
0.0
 10
5.0006250000000003
 20
86.9561039999999963
 30
0.0
  0
LWPOLYLINE
  5
5D
  8
Layer_1
 62
7
370
-1
  6
ByLayer
100
AcDbEntity
100
AcDbPolyline
 90
178
 70
0
 10
144.9563890000000015
 20
165.8989510000000109
 10
144.9563890000000015
 20
86.6297849999999983
 10
7.8316670000000004
 20
86.6297849999999983
 10
6.3323609999999997
 20
86.6297849999999983
 10
6.3323609999999997
 20
85.1569369999999992
 10
6.3323609999999997
 20
84.8306180000000012
 10
6.3323609999999997
 20
83.3577709999999996
 10
7.8316670000000004
 20
83.3577709999999996
 10
142.1694439999999986
 20
83.3577709999999996
 10
142.1694439999999986
 20
83.0314510000000041
 10
7.8316670000000004
 20
83.0314510000000041
 10
6.3323609999999997
 20
83.0314510000000041
 10
6.3323609999999997
 20
81.5586040000000025
 10
6.3323609999999997
 20
79.7506180000000029
 10
7.8316670000000004
 20
79.7506180000000029
 10
142.1694439999999986
 20
79.7506180000000029
 10
142.1694439999999986
 20
79.4331179999999932
 10
7.8316670000000004
 20
79.4331179999999932
 10
6.3323609999999997
 20
79.4331179999999932
 10
6.3323609999999997
 20
77.9514510000000058
 10
6.3323609999999997
 20
76.1522850000000062
 10
7.8316670000000004
 20
76.1522850000000062
 10
142.1694439999999986
 20
76.1522850000000062
 10
142.1694439999999986
 20
75.8347849999999966
 10
7.8316670000000004
 20
75.8347849999999966
 10
6.3323609999999997
 20
75.8347849999999966
 10
6.3323609999999997
 20
74.3531179999999949
 10
6.3323609999999997
 20
72.5539509999999979
 10
7.8316670000000004
 20
72.5539509999999979
 10
142.1694439999999986
 20
72.5539509999999979
 10
142.1694439999999986
 20
72.2364510000000024
 10
7.8316670000000004
 20
72.2364510000000024
 10
6.3323609999999997
 20
72.2364510000000024
 10
6.3323609999999997
 20
70.7547849999999983
 10
6.3323609999999997
 20
68.9556180000000012
 10
7.8316670000000004
 20
68.9556180000000012
 10
142.1694439999999986
 20
68.9556180000000012
 10
142.1694439999999986
 20
68.6292990000000032
 10
7.8316670000000004
 20
68.6292990000000032
 10
6.3323609999999997
 20
68.6292990000000032
 10
6.3323609999999997
 20
67.1564510000000041
 10
6.3323609999999997
 20
65.3572850000000045
 10
7.8316670000000004
 20
65.3572850000000045
 10
142.1694439999999986
 20
65.3572850000000045
 10
142.1694439999999986
 20
65.0574239999999975
 10
6.3323609999999997
 20
65.0574239999999975
 10
6.3323609999999997
 20
63.575757000000003
 10
6.3323609999999997
 20
63.2582570000000004
 10
6.3323609999999997
 20
61.7765899999999988
 10
6.3323609999999997
 20
61.7501320000000007
 10
7.8316670000000004
 20
61.7501320000000007
 10
7.8316670000000004
 20
61.7765899999999988
 10
142.1694439999999986
 20
61.7765899999999988
 10
142.1694439999999986
 20
61.4590900000000033
 10
6.3323609999999997
 20
61.4590900000000033
 10
6.3323609999999997
 20
59.9774239999999992
 10
6.3323609999999997
 20
59.6511039999999966
 10
6.3323609999999997
 20
58.1782570000000021
 10
6.3323609999999997
 20
58.1517989999999969
 10
7.8316670000000004
 20
58.1517989999999969
 10
7.8316670000000004
 20
58.1782570000000021
 10
142.1694439999999986
 20
58.1782570000000021
 10
142.1694439999999986
 20
57.8519369999999995
 10
6.3323609999999997
 20
57.8519369999999995
 10
6.3323609999999997
 20
56.3790899999999979
 10
6.3323609999999997
 20
56.0527709999999999
 10
6.3323609999999997
 20
54.5799239999999983
 10
6.3323609999999997
 20
54.5534650000000028
 10
7.8316670000000004
 20
54.5534650000000028
 10
7.8316670000000004
 20
54.5799239999999983
 10
142.1694439999999986
 20
54.5799239999999983
 10
142.1694439999999986
 20
54.2536040000000028
 10
6.3323609999999997
 20
54.2536040000000028
 10
6.3323609999999997
 20
52.7807570000000013
 10
6.3323609999999997
 20
52.4544369999999986
 10
6.3323609999999997
 20
50.9815899999999971
 10
6.3323609999999997
 20
50.955131999999999
 10
7.8316670000000004
 20
50.955131999999999
 10
7.8316670000000004
 20
50.9815899999999971
 10
142.1694439999999986
 20
50.9815899999999971
 10
142.1694439999999986
 20
50.655270999999999
 10
7.8316670000000004
 20
50.655270999999999
 10
6.3323609999999997
 20
50.655270999999999
 10
6.3323609999999997
 20
49.1736039999999974
 10
6.3323609999999997
 20
47.3744370000000004
 10
7.8316670000000004
 20
47.3744370000000004
 10
142.1694439999999986
 20
47.3744370000000004
 10
142.1694439999999986
 20
47.0569369999999978
 10
7.8316670000000004
 20
47.0569369999999978
 10
6.3323609999999997
 20
47.0569369999999978
 10
6.3323609999999997
 20
45.5752710000000008
 10
6.3323609999999997
 20
43.7761039999999966
 10
7.8316670000000004
 20
43.7761039999999966
 10
142.1694439999999986
 20
43.7761039999999966
 10
142.1694439999999986
 20
43.4586040000000011
 10
7.8316670000000004
 20
43.4586040000000011
 10
6.3323609999999997
 20
43.4586040000000011
 10
6.3323609999999997
 20
41.9769369999999995
 10
6.3323609999999997
 20
40.1777709999999999
 10
7.8316670000000004
 20
40.1777709999999999
 10
142.1694439999999986
 20
40.1777709999999999
 10
142.1694439999999986
 20
39.8514509999999973
 10
7.8316670000000004
 20
39.8514509999999973
 10
6.3323609999999997
 20
39.8514509999999973
 10
6.3323609999999997
 20
38.3786040000000028
 10
6.3323609999999997
 20
36.5794369999999986
 10
7.8316670000000004
 20
36.5794369999999986
 10
142.1694439999999986
 20
36.5794369999999986
 10
142.1694439999999986
 20
36.2531180000000006
 10
7.8316670000000004
 20
36.2531180000000006
 10
6.3323609999999997
 20
36.2531180000000006
 10
6.3323609999999997
 20
34.780270999999999
 10
6.3323609999999997
 20
34.4539510000000035
 10
6.3323609999999997
 20
32.981104000000002
 10
6.3323609999999997
 20
32.9722849999999994
 10
7.8316670000000004
 20
32.9722849999999994
 10
7.8316670000000004
 20
32.981104000000002
 10
142.1694439999999986
 20
32.981104000000002
 10
142.1694439999999986
 20
32.6547849999999968
 10
7.8316670000000004
 20
32.6547849999999968
 10
6.3323609999999997
 20
32.6547849999999968
 10
6.3323609999999997
 20
31.1731179999999988
 10
6.3323609999999997
 20
29.3739510000000017
 10
7.8316670000000004
 20
29.3739510000000017
 10
142.1694439999999986
 20
29.3739510000000017
 10
142.1694439999999986
 20
29.0740900000000018
 10
6.3323609999999997
 20
29.0740900000000018
 10
6.3323609999999997
 20
27.6012430000000002
 10
6.3323609999999997
 20
27.2749239999999986
 10
6.3323609999999997
 20
25.8020759999999996
 10
6.3323609999999997
 20
25.7756180000000015
 10
7.8316670000000004
 20
25.7756180000000015
 10
7.8316670000000004
 20
25.8020759999999996
 10
142.1694439999999986
 20
25.8020759999999996
 10
142.1694439999999986
 20
25.4757570000000015
 10
6.3323609999999997
 20
25.4757570000000015
 10
6.3323609999999997
 20
24.00291
 10
6.3323609999999997
 20
23.6765900000000009
 10
6.3323609999999997
 20
22.2037429999999993
 10
6.3323609999999997
 20
22.1772850000000012
 10
7.8316670000000004
 20
22.1772850000000012
 10
7.8316670000000004
 20
22.2037429999999993
 10
142.1694439999999986
 20
22.2037429999999993
 10
142.1694439999999986
 20
21.8774240000000013
 10
6.3323609999999997
 20
21.8774240000000013
 10
6.3323609999999997
 20
20.3957569999999997
 10
6.3323609999999997
 20
20.0782570000000007
 10
6.3323609999999997
 20
18.5965899999999991
 10
6.3323609999999997
 20
18.578951
 10
7.8316670000000004
 20
18.578951
 10
7.8316670000000004
 20
18.5965899999999991
 10
142.1694439999999986
 20
18.5965899999999991
 10
142.1694439999999986
 20
18.2790900000000001
 10
6.3323609999999997
 20
18.2790900000000001
 10
6.3323609999999997
 20
16.7974239999999995
 10
6.3323609999999997
 20
16.4799240000000005
 10
6.3323609999999997
 20
14.9982570000000006
 10
6.3323609999999997
 20
14.9806179999999998
 10
7.8316670000000004
 20
14.9806179999999998
 10
7.8316670000000004
 20
14.9982570000000006
 10
142.1694439999999986
 20
14.9982570000000006
 10
142.1694439999999986
 20
14.6807569999999998
 10
7.8316670000000004
 20
14.6807569999999998
 10
6.3323609999999997
 20
14.6807569999999998
 10
6.3323609999999997
 20
13.19909
 10
6.3323609999999997
 20
11.3999240000000004
 10
7.8316670000000004
 20
11.3999240000000004
 10
142.1694439999999986
 20
11.3999240000000004
 10
142.1694439999999986
 20
11.0736039999999996
 10
7.8316670000000004
 20
11.0736039999999996
 10
6.3323609999999997
 20
11.0736039999999996
 10
6.3323609999999997
 20
9.6007569999999998
 10
6.3323609999999997
 20
7.80159
 10
7.8316670000000004
 20
7.80159
 10
142.1694439999999986
 20
7.80159
 10
142.1694439999999986
 20
7.4752710000000002
 10
5.0006250000000003
 20
7.4752710000000002
 10
5.0006250000000003
 20
86.9384649999999937
  0
LWPOLYLINE
  5
5E
  8
Layer_1
 62
7
370
-1
  6
ByLayer
100
AcDbEntity
100
AcDbPolyline
 90
123
 70
0
 10
5.0006250000000003
 20
86.9561039999999963
 10
142.1694439999999986
 20
86.9561039999999963
 10
143.6687499999999886
 20
86.9561039999999963
 10
143.6687499999999886
 20
88.4289509999999979
 10
143.6687499999999886
 20
90.2369369999999975
 10
7.8316670000000004
 20
90.2369369999999975
 10
7.8316670000000004
 20
90.554436999999993
 10
143.6687499999999886
 20
90.554436999999993
 10
143.6687499999999886
 20
92.0361039999999946
 10
143.6687499999999886
 20
93.8352710000000059
 10
7.8316670000000004
 20
93.8352710000000059
 10
7.8316670000000004
 20
94.1527710000000013
 10
142.1694439999999986
 20
94.1527710000000013
 10
142.1694439999999986
 20
94.1351319999999987
 10
143.6687499999999886
 20
94.1351319999999987
 10
143.6687499999999886
 20
97.4071459999999973
 10
143.6687499999999886
 20
97.4336040000000025
 10
7.8316670000000004
 20
97.4336040000000025
 10
7.8316670000000004
 20
97.751103999999998
 10
142.1694439999999986
 20
97.751103999999998
 10
142.1694439999999986
 20
97.7334649999999954
 10
143.6687499999999886
 20
97.7334649999999954
 10
143.6687499999999886
 20
101.0142989999999941
 10
143.6687499999999886
 20
101.0319369999999992
 10
7.8316670000000004
 20
101.0319369999999992
 10
7.8316670000000004
 20
101.3317990000000037
 10
143.6687499999999886
 20
101.3317990000000037
 10
143.6687499999999886
 20
102.8134649999999937
 10
143.6687499999999886
 20
104.612632000000005
 10
7.8316670000000004
 20
104.612632000000005
 10
7.8316670000000004
 20
104.9301320000000004
 10
143.6687499999999886
 20
104.9301320000000004
 10
143.6687499999999886
 20
106.411799000000002
 10
143.6687499999999886
 20
108.2109650000000016
 10
7.8316670000000004
 20
108.2109650000000016
 10
7.8316670000000004
 20
108.5284649999999971
 10
143.6687499999999886
 20
108.5284649999999971
 10
143.6687499999999886
 20
110.0101319999999987
 10
143.6687499999999886
 20
111.8092989999999958
 10
7.8316670000000004
 20
111.8092989999999958
 10
7.8316670000000004
 20
112.1356179999999938
 10
143.6687499999999886
 20
112.1356179999999938
 10
143.6687499999999886
 20
113.6084649999999954
 10
143.6687499999999886
 20
115.4076320000000067
 10
7.8316670000000004
 20
115.4076320000000067
 10
7.8316670000000004
 20
115.7339510000000047
 10
143.6687499999999886
 20
115.7339510000000047
 10
143.6687499999999886
 20
117.2067990000000037
 10
143.6687499999999886
 20
119.0059650000000033
 10
7.8316670000000004
 20
119.0059650000000033
 10
7.8316670000000004
 20
119.3322849999999988
 10
143.6687499999999886
 20
119.3322849999999988
 10
143.6687499999999886
 20
120.813951000000003
 10
143.6687499999999886
 20
122.6131180000000001
 10
7.8316670000000004
 20
122.6131180000000001
 10
7.8316670000000004
 20
122.9306179999999955
 10
143.6687499999999886
 20
122.9306179999999955
 10
143.6687499999999886
 20
124.4122849999999971
 10
143.6687499999999886
 20
126.2114509999999967
 10
7.8316670000000004
 20
126.2114509999999967
 10
7.8316670000000004
 20
126.5289510000000064
 10
143.6687499999999886
 20
126.5289510000000064
 10
143.6687499999999886
 20
128.0106179999999938
 10
143.6687499999999886
 20
129.8097850000000051
 10
7.8316670000000004
 20
129.8097850000000051
 10
7.8316670000000004
 20
130.1361039999999889
 10
142.1694439999999986
 20
130.1361039999999889
 10
142.1694439999999986
 20
130.1096459999999979
 10
143.6687499999999886
 20
130.1096459999999979
 10
143.6687499999999886
 20
133.3904789999999991
 10
143.6687499999999886
 20
133.4081180000000018
 10
7.8316670000000004
 20
133.4081180000000018
 10
7.8316670000000004
 20
133.734437000000014
 10
142.1694439999999986
 20
133.734437000000014
 10
142.1694439999999986
 20
133.7079789999999946
 10
143.6687499999999886
 20
133.7079789999999946
 10
143.6687499999999886
 20
136.9888119999999958
 10
143.6687499999999886
 20
137.0064509999999984
 10
7.8316670000000004
 20
137.0064509999999984
 10
7.8316670000000004
 20
137.3063119999999913
 10
143.6687499999999886
 20
137.3063119999999913
 10
143.6687499999999886
 20
138.7879790000000071
 10
143.6687499999999886
 20
140.58714599999999
 10
7.8316670000000004
 20
140.58714599999999
 10
7.8316670000000004
 20
140.9134650000000022
 10
143.6687499999999886
 20
140.9134650000000022
 10
143.6687499999999886
 20
142.3863120000000038
 10
143.6687499999999886
 20
144.1854789999999866
 10
7.8316670000000004
 20
144.1854789999999866
 10
7.8316670000000004
 20
144.5117989999999963
 10
143.6687499999999886
 20
144.5117989999999963
 10
143.6687499999999886
 20
145.9846459999999979
 10
143.6687499999999886
 20
147.7838120000000117
 10
7.8316670000000004
 20
147.7838120000000117
 10
7.8316670000000004
 20
148.110131999999993
 10
143.6687499999999886
 20
148.110131999999993
 10
143.6687499999999886
 20
149.5917990000000088
 10
143.6687499999999886
 20
151.3909649999999942
 10
7.8316670000000004
 20
151.3909649999999942
 10
7.8316670000000004
 20
151.7084649999999897
 10
143.6687499999999886
 20
151.7084649999999897
 10
143.6687499999999886
 20
153.1901320000000055
 10
143.6687499999999886
 20
154.9892989999999884
 10
7.8316670000000004
 20
154.9892989999999884
 10
7.8316670000000004
 20
155.3067990000000123
 10
143.6687499999999886
 20
155.3067990000000123
 10
143.6687499999999886
 20
156.7884650000000022
 10
143.6687499999999886
 20
158.5876320000000135
 10
7.8316670000000004
 20
158.5876320000000135
 10
7.8316670000000004
 20
158.9139509999999973
 10
143.6687499999999886
 20
158.9139509999999973
 10
143.6687499999999886
 20
160.3867989999999963
 10
143.6687499999999886
 20
162.1859650000000101
 10
7.8316670000000004
 20
162.1859650000000101
 10
7.8316670000000004
 20
162.5122849999999914
 10
143.6687499999999886
 20
162.5122849999999914
 10
143.6687499999999886
 20
163.985131999999993
 10
143.6687499999999886
 20
164.3114510000000053
 10
143.6687499999999886
 20
165.7842990000000043
 10
142.1694439999999986
 20
165.7842990000000043
 10
7.8316670000000004
 20
165.7842990000000043
 10
7.8316670000000004
 20
166.1106179999999881
 10
7.8316670000000004
 20
166.1106179999999881
  0
SPLINE
  5
5F
  8
Layer_1
 62
7
370
-1
  6
ByLayer
100
AcDbEntity
100
AcDbSpline
 70
8
 71
3
 72
8
 73
4
 74
0
 40
0.0
 40
0.0
 40
0.0
 40
0.0
 40
1.0
 40
1.0
 40
1.0
 40
1.0
 10
3.9775689999999999
 20
162.9532570000000078
 30
0.0
 10
3.9950060000000001
 20
162.9085739999999873
 30
0.0
 10
4.0129489999999999
 20
162.8599930000000029
 30
0.0
 10
4.0216669999999999
 20
162.8033259999999984
 30
0.0
  0
SPLINE
  5
60
  8
Layer_1
 62
7
370
-1
  6
ByLayer
100
AcDbEntity
100
AcDbSpline
 70
8
 71
3
 72
8
 73
4
 74
0
 40
0.0
 40
0.0
 40
0.0
 40
0.0
 40
1.0
 40
1.0
 40
1.0
 40
1.0
 10
4.0216669999999999
 20
162.8033259999999984
 30
0.0
 10
4.0292950000000003
 20
162.7477460000000065
 30
0.0
 10
4.0304859999999998
 20
162.6835030000000017
 30
0.0
 10
4.0304859999999998
 20
162.6181180000000097
 30
0.0
  0
SPLINE
  5
61
  8
Layer_1
 62
7
370
-1
  6
ByLayer
100
AcDbEntity
100
AcDbSpline
 70
8
 71
3
 72
8
 73
4
 74
0
 40
0.0
 40
0.0
 40
0.0
 40
0.0
 40
1.0
 40
1.0
 40
1.0
 40
1.0
 10
4.0304859999999998
 20
162.6181180000000097
 30
0.0
 10
4.0304859999999998
 20
162.3772759999999948
 30
0.0
 10
3.9594010000000002
 20
162.1932649999999967
 30
0.0
 10
3.818819
 20
162.0624929999999893
 30
0.0
  0
SPLINE
  5
62
  8
Layer_1
 62
7
370
-1
  6
ByLayer
100
AcDbEntity
100
AcDbSpline
 70
8
 71
3
 72
8
 73
4
 74
0
 40
0.0
 40
0.0
 40
0.0
 40
0.0
 40
1.0
 40
1.0
 40
1.0
 40
1.0
 10
3.818819
 20
162.0624929999999893
 30
0.0
 10
3.678239
 20
161.9317189999999869
 30
0.0
 10
3.4773749999999999
 20
161.8684639999999888
 30
0.0
 10
3.2190970000000001
 20
161.8684649999999863
 30
0.0
  0
SPLINE
  5
63
  8
Layer_1
 62
7
370
-1
  6
ByLayer
100
AcDbEntity
100
AcDbSpline
 70
8
 71
3
 72
8
 73
4
 74
0
 40
0.0
 40
0.0
 40
0.0
 40
0.0
 40
1.0
 40
1.0
 40
1.0
 40
1.0
 10
3.2190970000000001
 20
161.8684649999999863
 30
0.0
 10
2.9586420000000002
 20
161.8684639999999888
 30
0.0
 10
2.7588680000000001
 20
161.9361790000000099
 30
0.0
 10
2.6193749999999998
 20
162.071312000000006
 30
0.0
  0
SPLINE
  5
64
  8
Layer_1
 62
7
370
-1
  6
ByLayer
100
AcDbEntity
100
AcDbSpline
 70
8
 71
3
 72
8
 73
4
 74
0
 40
0.0
 40
0.0
 40
0.0
 40
0.0
 40
1.0
 40
1.0
 40
1.0
 40
1.0
 10
2.6193749999999998
 20
162.071312000000006
 30
0.0
 10
2.478796
 20
162.2075340000000097
 30
0.0
 10
2.4077099999999998
 20
162.4027460000000076
 30
0.0
 10
2.407708
 20
162.6533959999999865
 30
0.0
  0
SPLINE
  5
65
  8
Layer_1
 62
7
370
-1
  6
ByLayer
100
AcDbEntity
100
AcDbSpline
 70
8
 71
3
 72
8
 73
4
 74
0
 40
0.0
 40
0.0
 40
0.0
 40
0.0
 40
1.0
 40
1.0
 40
1.0
 40
1.0
 10
2.407708
 20
162.6533959999999865
 30
0.0
 10
2.4077099999999998
 20
162.7885259999999903
 30
0.0
 10
2.4313039999999999
 20
162.9162259999999947
 30
0.0
 10
2.4694440000000002
 20
163.0502710000000093
 30
0.0
  0
SPLINE
  5
66
  8
Layer_1
 62
7
370
-1
  6
ByLayer
100
AcDbEntity
100
AcDbSpline
 70
8
 71
3
 72
8
 73
4
 74
0
 40
0.0
 40
0.0
 40
0.0
 40
0.0
 40
1.0
 40
1.0
 40
1.0
 40
1.0
 10
2.4694440000000002
 20
163.0502710000000093
 30
0.0
 10
2.5075889999999998
 20
163.185401000000013
 30
0.0
 10
2.5596420000000002
 20
163.3285600000000102
 30
0.0
 10
2.6370140000000002
 20
163.4647850000000062
 30
0.0
  0
LWPOLYLINE
  5
67
  8
Layer_1
 62
7
370
-1
  6
ByLayer
100
AcDbEntity
100
AcDbPolyline
 90
5
 70
0
 10
3.0779860000000001
 20
163.5529789999999934
 10
3.0779860000000001
 20
162.5740209999999877
 10
3.5013190000000001
 20
162.5740209999999877
 10
3.5013190000000001
 20
162.9532570000000078
 10
3.9775689999999999
 20
162.9532570000000078
  0
SPLINE
  5
68
  8
Layer_1
 62
7
370
-1
  6
ByLayer
100
AcDbEntity
100
AcDbSpline
 70
8
 71
3
 72
8
 73
4
 74
0
 40
0.0
 40
0.0
 40
0.0
 40
0.0
 40
1.0
 40
1.0
 40
1.0
 40
1.0
 10
2.134306
 20
163.4647850000000062
 30
0.0
 10
2.07437
 20
163.332919000000004
 30
0.0
 10
2.0325299999999999
 20
163.1907490000000109
 30
0.0
 10
2.002014
 20
163.041450999999995
 30
0.0
  0
SPLINE
  5
69
  8
Layer_1
 62
7
370
-1
  6
ByLayer
100
AcDbEntity
100
AcDbSpline
 70
8
 71
3
 72
8
 73
4
 74
0
 40
0.0
 40
0.0
 40
0.0
 40
0.0
 40
1.0
 40
1.0
 40
1.0
 40
1.0
 10
2.002014
 20
163.041450999999995
 30
0.0
 10
1.971503
 20
162.8932399999999916
 30
0.0
 10
1.9491000000000001
 20
162.7363960000000134
 30
0.0
 10
1.9490970000000001
 20
162.5740209999999877
 30
0.0
  0
SPLINE
  5
6A
  8
Layer_1
 62
7
370
-1
  6
ByLayer
100
AcDbEntity
100
AcDbSpline
 70
8
 71
3
 72
8
 73
4
 74
0
 40
0.0
 40
0.0
 40
0.0
 40
0.0
 40
1.0
 40
1.0
 40
1.0
 40
1.0
 10
1.9490970000000001
 20
162.5740209999999877
 30
0.0
 10
1.9491000000000001
 20
162.1533660000000054
 30
0.0
 10
2.0674739999999998
 20
161.8193530000000067
 30
0.0
 10
2.293056
 20
161.5774240000000077
 30
0.0
  0
SPLINE
  5
6B
  8
Layer_1
 62
7
370
-1
  6
ByLayer
100
AcDbEntity
100
AcDbSpline
 70
8
 71
3
 72
8
 73
4
 74
0
 40
0.0
 40
0.0
 40
0.0
 40
0.0
 40
1.0
 40
1.0
 40
1.0
 40
1.0
 10
2.293056
 20
161.5774240000000077
 30
0.0
 10
2.5186410000000001
 20
161.3354930000000138
 30
0.0
 10
2.8256890000000001
 20
161.2158259999999927
 30
0.0
 10
3.2190970000000001
 20
161.2158259999999927
 30
0.0
  0
SPLINE
  5
6C
  8
Layer_1
 62
7
370
-1
  6
ByLayer
100
AcDbEntity
100
AcDbSpline
 70
8
 71
3
 72
8
 73
4
 74
0
 40
0.0
 40
0.0
 40
0.0
 40
0.0
 40
1.0
 40
1.0
 40
1.0
 40
1.0
 10
3.2190970000000001
 20
161.2158259999999927
 30
0.0
 10
3.6081479999999999
 20
161.2158259999999927
 30
0.0
 10
3.917376
 20
161.3398520000000076
 30
0.0
 10
4.1451390000000004
 20
161.5774240000000077
 30
0.0
  0
SPLINE
  5
6D
  8
Layer_1
 62
7
370
-1
  6
ByLayer
100
AcDbEntity
100
AcDbSpline
 70
8
 71
3
 72
8
 73
4
 74
0
 40
0.0
 40
0.0
 40
0.0
 40
0.0
 40
1.0
 40
1.0
 40
1.0
 40
1.0
 10
4.1451390000000004
 20
161.5774240000000077
 30
0.0
 10
4.3718120000000003
 20
161.8149940000000129
 30
0.0
 10
4.4890970000000001
 20
162.1322549999999865
 30
0.0
 10
4.4890970000000001
 20
162.5387430000000109
 30
0.0
  0
SPLINE
  5
6E
  8
Layer_1
 62
7
370
-1
  6
ByLayer
100
AcDbEntity
100
AcDbSpline
 70
8
 71
3
 72
8
 73
4
 74
0
 40
0.0
 40
0.0
 40
0.0
 40
0.0
 40
1.0
 40
1.0
 40
1.0
 40
1.0
 10
4.4890970000000001
 20
162.5387430000000109
 30
0.0
 10
4.4890970000000001
 20
162.7185540000000117
 30
0.0
 10
4.465503
 20
162.8901730000000043
 30
0.0
 10
4.4273610000000003
 20
163.0590899999999976
 30
0.0
  0
SPLINE
  5
6F
  8
Layer_1
 62
7
370
-1
  6
ByLayer
100
AcDbEntity
100
AcDbSpline
 70
8
 71
3
 72
8
 73
4
 74
0
 40
0.0
 40
0.0
 40
0.0
 40
0.0
 40
1.0
 40
1.0
 40
1.0
 40
1.0
 10
4.4273610000000003
 20
163.0590899999999976
 30
0.0
 10
4.3892189999999998
 20
163.2280030000000011
 30
0.0
 10
4.3360760000000003
 20
163.396049000000005
 30
0.0
 10
4.259792
 20
163.5529789999999934
 30
0.0
  0
LWPOLYLINE
  5
70
  8
Layer_1
 62
7
370
-1
  6
ByLayer
100
AcDbEntity
100
AcDbPolyline
 90
2
 70
0
 10
2.6370140000000002
 20
163.4647850000000062
 10
2.134306
 20
163.4647850000000062
  0
LWPOLYLINE
  5
71
  8
Layer_1
 62
7
370
-1
  6
ByLayer
100
AcDbEntity
100
AcDbPolyline
 90
3
 70
0
 10
4.259792
 20
163.5529789999999934
 10
3.0779860000000001
 20
163.5529789999999934
 10
3.0779860000000001
 20
163.5529789999999934
  0
SPLINE
  5
72
  8
Layer_1
 62
7
370
-1
  6
ByLayer
100
AcDbEntity
100
AcDbSpline
 70
8
 71
3
 72
8
 73
4
 74
0
 40
0.0
 40
0.0
 40
0.0
 40
0.0
 40
1.0
 40
1.0
 40
1.0
 40
1.0
 10
3.2190970000000001
 20
158.5876320000000135
 30
0.0
 10
3.0371060000000001
 20
158.5876289999999926
 30
0.0
 10
2.8690600000000002
 20
158.5550139999999999
 30
0.0
 10
2.7252079999999999
 20
158.4994370000000004
 30
0.0
  0
SPLINE
  5
73
  8
Layer_1
 62
7
370
-1
  6
ByLayer
100
AcDbEntity
100
AcDbSpline
 70
8
 71
3
 72
8
 73
4
 74
0
 40
0.0
 40
0.0
 40
0.0
 40
0.0
 40
1.0
 40
1.0
 40
1.0
 40
1.0
 10
2.7252079999999999
 20
158.4994370000000004
 30
0.0
 10
2.5813600000000001
 20
158.4438560000000109
 30
0.0
 10
2.4560420000000001
 20
158.3669170000000008
 30
0.0
 10
2.3459720000000002
 20
158.252492999999987
 30
0.0
  0
SPLINE
  5
74
  8
Layer_1
 62
7
370
-1
  6
ByLayer
100
AcDbEntity
100
AcDbSpline
 70
8
 71
3
 72
8
 73
4
 74
0
 40
0.0
 40
0.0
 40
0.0
 40
0.0
 40
1.0
 40
1.0
 40
1.0
 40
1.0
 10
2.3459720000000002
 20
158.252492999999987
 30
0.0
 10
2.21956
 20
158.1228069999999946
 30
0.0
 10
2.1337000000000002
 20
157.9670529999999928
 30
0.0
 10
2.0813890000000002
 20
157.7850620000000106
 30
0.0
  0
SPLINE
  5
75
  8
Layer_1
 62
7
370
-1
  6
ByLayer
100
AcDbEntity
100
AcDbSpline
 70
8
 71
3
 72
8
 73
4
 74
0
 40
0.0
 40
0.0
 40
0.0
 40
0.0
 40
1.0
 40
1.0
 40
1.0
 40
1.0
 10
2.0813890000000002
 20
157.7850620000000106
 30
0.0
 10
2.0279919999999998
 20
157.6041580000000124
 30
0.0
 10
1.9931970000000001
 20
157.3265570000000082
 30
0.0
 10
1.9931939999999999
 20
156.9560350000000142
 30
0.0
  0
LWPOLYLINE
  5
76
  8
Layer_1
 62
7
370
-1
  6
ByLayer
100
AcDbEntity
100
AcDbPolyline
 90
14
 70
0
 10
3.9599310000000001
 20
160.8013119999999958
 10
3.9599310000000001
 20
159.6988819999999976
 10
3.4043060000000001
 20
159.6988819999999976
 10
3.4043060000000001
 20
160.7042989999999918
 10
2.9280560000000002
 20
160.7042989999999918
 10
2.9280560000000002
 20
159.6988819999999976
 10
2.4694440000000002
 20
159.6988819999999976
 10
2.4694440000000002
 20
160.766034999999988
 10
1.9931939999999999
 20
160.766034999999988
 10
1.9931939999999999
 20
159.072700999999995
 10
4.4361810000000004
 20
159.072700999999995
 10
4.4361810000000004
 20
160.8013119999999958
 10
3.9599310000000001
 20
160.8013119999999958
 10
3.9599310000000001
 20
160.8013119999999958
  0
SPLINE
  5
77
  8
Layer_1
 62
7
370
-1
  6
ByLayer
100
AcDbEntity
100
AcDbSpline
 70
8
 71
3
 72
8
 73
4
 74
0
 40
0.0
 40
0.0
 40
0.0
 40
0.0
 40
1.0
 40
1.0
 40
1.0
 40
1.0
 10
4.4361810000000004
 20
156.9560350000000142
 30
0.0
 10
4.4361810000000004
 20
157.322197999999986
 30
0.0
 10
4.4091149999999999
 20
157.5931590000000142
 30
0.0
 10
4.3568059999999997
 20
157.7762429999999938
 30
0.0
  0
SPLINE
  5
78
  8
Layer_1
 62
7
370
-1
  6
ByLayer
100
AcDbEntity
100
AcDbSpline
 70
8
 71
3
 72
8
 73
4
 74
0
 40
0.0
 40
0.0
 40
0.0
 40
0.0
 40
1.0
 40
1.0
 40
1.0
 40
1.0
 10
4.3568059999999997
 20
157.7762429999999938
 30
0.0
 10
4.303407
 20
157.9593240000000094
 30
0.0
 10
4.2186370000000002
 20
158.1217179999999871
 30
0.0
 10
4.0922219999999996
 20
158.252492999999987
 30
0.0
  0
SPLINE
  5
79
  8
Layer_1
 62
7
370
-1
  6
ByLayer
100
AcDbEntity
100
AcDbSpline
 70
8
 71
3
 72
8
 73
4
 74
0
 40
0.0
 40
0.0
 40
0.0
 40
0.0
 40
1.0
 40
1.0
 40
1.0
 40
1.0
 10
4.0922219999999996
 20
158.252492999999987
 30
0.0
 10
3.9821550000000001
 20
158.3669170000000008
 30
0.0
 10
3.8480180000000002
 20
158.4438560000000109
 30
0.0
 10
3.704167
 20
158.4994370000000004
 30
0.0
  0
SPLINE
  5
7A
  8
Layer_1
 62
7
370
-1
  6
ByLayer
100
AcDbEntity
100
AcDbSpline
 70
8
 71
3
 72
8
 73
4
 74
0
 40
0.0
 40
0.0
 40
0.0
 40
0.0
 40
1.0
 40
1.0
 40
1.0
 40
1.0
 10
3.704167
 20
158.4994370000000004
 30
0.0
 10
3.5592269999999999
 20
158.5550139999999999
 30
0.0
 10
3.4032710000000002
 20
158.5876289999999926
 30
0.0
 10
3.2190970000000001
 20
158.5876320000000135
 30
0.0
  0
LWPOLYLINE
  5
7B
  8
Layer_1
 62
7
370
-1
  6
ByLayer
100
AcDbEntity
100
AcDbPolyline
 90
4
 70
0
 10
1.9931939999999999
 20
156.9560350000000142
 10
1.9931939999999999
 20
156.2945760000000064
 10
4.4361810000000004
 20
156.2945760000000064
 10
4.4361810000000004
 20
156.9560350000000142
  0
SPLINE
  5
7C
  8
Layer_1
 62
7
370
-1
  6
ByLayer
100
AcDbEntity
100
AcDbSpline
 70
8
 71
3
 72
8
 73
4
 74
0
 40
0.0
 40
0.0
 40
0.0
 40
0.0
 40
1.0
 40
1.0
 40
1.0
 40
1.0
 10
3.2190970000000001
 20
157.9349929999999915
 30
0.0
 10
3.4621179999999998
 20
157.9349909999999966
 30
0.0
 10
3.6472190000000002
 20
157.8683660000000089
 30
0.0
 10
3.7747220000000001
 20
157.7321460000000002
 30
0.0
  0
SPLINE
  5
7D
  8
Layer_1
 62
7
370
-1
  6
ByLayer
100
AcDbEntity
100
AcDbSpline
 70
8
 71
3
 72
8
 73
4
 74
0
 40
0.0
 40
0.0
 40
0.0
 40
0.0
 40
1.0
 40
1.0
 40
1.0
 40
1.0
 10
3.7747220000000001
 20
157.7321460000000002
 30
0.0
 10
3.9022269999999999
 20
157.5970120000000065
 30
0.0
 10
3.9599310000000001
 20
157.398428999999993
 30
0.0
 10
3.9599310000000001
 20
157.1412430000000029
 30
0.0
  0
LWPOLYLINE
  5
7E
  8
Layer_1
 62
7
370
-1
  6
ByLayer
100
AcDbEntity
100
AcDbPolyline
 90
2
 70
0
 10
3.2190970000000001
 20
158.5876320000000135
 10
3.2190970000000001
 20
158.5876320000000135
  0
SPLINE
  5
7F
  8
Layer_1
 62
7
370
-1
  6
ByLayer
100
AcDbEntity
100
AcDbSpline
 70
8
 71
3
 72
8
 73
4
 74
0
 40
0.0
 40
0.0
 40
0.0
 40
0.0
 40
1.0
 40
1.0
 40
1.0
 40
1.0
 10
2.4694440000000002
 20
157.1412430000000029
 30
0.0
 10
2.469446
 20
157.399518999999998
 30
0.0
 10
2.5370599999999999
 20
157.5970120000000065
 30
0.0
 10
2.6634720000000001
 20
157.7321460000000002
 30
0.0
  0
SPLINE
  5
80
  8
Layer_1
 62
7
370
-1
  6
ByLayer
100
AcDbEntity
100
AcDbSpline
 70
8
 71
3
 72
8
 73
4
 74
0
 40
0.0
 40
0.0
 40
0.0
 40
0.0
 40
1.0
 40
1.0
 40
1.0
 40
1.0
 10
2.6634720000000001
 20
157.7321460000000002
 30
0.0
 10
2.7898879999999999
 20
157.8672760000000039
 30
0.0
 10
2.9771679999999998
 20
157.9349909999999966
 30
0.0
 10
3.2190970000000001
 20
157.9349929999999915
 30
0.0
  0
LWPOLYLINE
  5
81
  8
Layer_1
 62
7
370
-1
  6
ByLayer
100
AcDbEntity
100
AcDbPolyline
 90
4
 70
0
 10
3.9599310000000001
 20
157.1412430000000029
 10
3.9599310000000001
 20
156.9207570000000089
 10
2.4694440000000002
 20
156.9207570000000089
 10
2.4694440000000002
 20
157.1412430000000029
  0
SPLINE
  5
82
  8
Layer_1
 62
7
370
-1
  6
ByLayer
100
AcDbEntity
100
AcDbSpline
 70
8
 71
3
 72
8
 73
4
 74
0
 40
0.0
 40
0.0
 40
0.0
 40
0.0
 40
1.0
 40
1.0
 40
1.0
 40
1.0
 10
3.2190970000000001
 20
154.6629790000000071
 30
0.0
 10
2.8137020000000001
 20
154.6629770000000121
 30
0.0
 10
2.5032830000000001
 20
154.5727579999999932
 30
0.0
 10
2.2842359999999999
 20
154.3983959999999911
 30
0.0
  0
SPLINE
  5
83
  8
Layer_1
 62
7
370
-1
  6
ByLayer
100
AcDbEntity
100
AcDbSpline
 70
8
 71
3
 72
8
 73
4
 74
0
 40
0.0
 40
0.0
 40
0.0
 40
0.0
 40
1.0
 40
1.0
 40
1.0
 40
1.0
 10
2.2842359999999999
 20
154.3983959999999911
 30
0.0
 10
2.0641039999999999
 20
154.2240299999999991
 30
0.0
 10
1.9491000000000001
 20
153.977956000000006
 30
0.0
 10
1.9490970000000001
 20
153.6575620000000129
 30
0.0
  0
SPLINE
  5
84
  8
Layer_1
 62
7
370
-1
  6
ByLayer
100
AcDbEntity
100
AcDbSpline
 70
8
 71
3
 72
8
 73
4
 74
0
 40
0.0
 40
0.0
 40
0.0
 40
0.0
 40
1.0
 40
1.0
 40
1.0
 40
1.0
 10
1.9490970000000001
 20
153.6575620000000129
 30
0.0
 10
1.9491000000000001
 20
153.3360769999999889
 30
0.0
 10
2.0641039999999999
 20
153.0910930000000008
 30
0.0
 10
2.2842359999999999
 20
152.9167290000000037
 30
0.0
  0
SPLINE
  5
85
  8
Layer_1
 62
7
370
-1
  6
ByLayer
100
AcDbEntity
100
AcDbSpline
 70
8
 71
3
 72
8
 73
4
 74
0
 40
0.0
 40
0.0
 40
0.0
 40
0.0
 40
1.0
 40
1.0
 40
1.0
 40
1.0
 10
2.2842359999999999
 20
152.9167290000000037
 30
0.0
 10
2.5032830000000001
 20
152.7423650000000066
 30
0.0
 10
2.8137020000000001
 20
152.6521459999999877
 30
0.0
 10
3.2190970000000001
 20
152.6521459999999877
 30
0.0
  0
SPLINE
  5
86
  8
Layer_1
 62
7
370
-1
  6
ByLayer
100
AcDbEntity
100
AcDbSpline
 70
8
 71
3
 72
8
 73
4
 74
0
 40
0.0
 40
0.0
 40
0.0
 40
0.0
 40
1.0
 40
1.0
 40
1.0
 40
1.0
 10
3.2190970000000001
 20
152.6521459999999877
 30
0.0
 10
3.623405
 20
152.6521459999999877
 30
0.0
 10
3.933824
 20
152.7423650000000066
 30
0.0
 10
4.1539580000000003
 20
152.9167290000000037
 30
0.0
  0
SPLINE
  5
87
  8
Layer_1
 62
7
370
-1
  6
ByLayer
100
AcDbEntity
100
AcDbSpline
 70
8
 71
3
 72
8
 73
4
 74
0
 40
0.0
 40
0.0
 40
0.0
 40
0.0
 40
1.0
 40
1.0
 40
1.0
 40
1.0
 10
4.1539580000000003
 20
152.9167290000000037
 30
0.0
 10
4.3730029999999998
 20
153.0910930000000008
 30
0.0
 10
4.4890970000000001
 20
153.3360769999999889
 30
0.0
 10
4.4890970000000001
 20
153.6575620000000129
 30
0.0
  0
SPLINE
  5
88
  8
Layer_1
 62
7
370
-1
  6
ByLayer
100
AcDbEntity
100
AcDbSpline
 70
8
 71
3
 72
8
 73
4
 74
0
 40
0.0
 40
0.0
 40
0.0
 40
0.0
 40
1.0
 40
1.0
 40
1.0
 40
1.0
 10
4.4890970000000001
 20
153.6575620000000129
 30
0.0
 10
4.4890970000000001
 20
153.977956000000006
 30
0.0
 10
4.3730029999999998
 20
154.2240299999999991
 30
0.0
 10
4.1539580000000003
 20
154.3983959999999911
 30
0.0
  0
SPLINE
  5
89
  8
Layer_1
 62
7
370
-1
  6
ByLayer
100
AcDbEntity
100
AcDbSpline
 70
8
 71
3
 72
8
 73
4
 74
0
 40
0.0
 40
0.0
 40
0.0
 40
0.0
 40
1.0
 40
1.0
 40
1.0
 40
1.0
 10
4.1539580000000003
 20
154.3983959999999911
 30
0.0
 10
3.933824
 20
154.5727579999999932
 30
0.0
 10
3.623405
 20
154.6629770000000121
 30
0.0
 10
3.2190970000000001
 20
154.6629790000000071
 30
0.0
  0
LWPOLYLINE
  5
8A
  8
Layer_1
 62
7
370
-1
  6
ByLayer
100
AcDbEntity
100
AcDbPolyline
 90
2
 70
0
 10
3.2190970000000001
 20
157.9349929999999915
 10
3.2190970000000001
 20
157.9349929999999915
  0
SPLINE
  5
8B
  8
Layer_1
 62
7
370
-1
  6
ByLayer
100
AcDbEntity
100
AcDbSpline
 70
8
 71
3
 72
8
 73
4
 74
0
 40
0.0
 40
0.0
 40
0.0
 40
0.0
 40
1.0
 40
1.0
 40
1.0
 40
1.0
 10
3.2190970000000001
 20
154.0279789999999878
 30
0.0
 10
3.5275050000000001
 20
154.0279779999999903
 30
0.0
 10
3.7365029999999999
 20
154.0063609999999983
 30
0.0
 10
3.8629169999999999
 20
153.9486039999999889
 30
0.0
  0
SPLINE
  5
8C
  8
Layer_1
 62
7
370
-1
  6
ByLayer
100
AcDbEntity
100
AcDbSpline
 70
8
 71
3
 72
8
 73
4
 74
0
 40
0.0
 40
0.0
 40
0.0
 40
0.0
 40
1.0
 40
1.0
 40
1.0
 40
1.0
 10
3.8629169999999999
 20
153.9486039999999889
 30
0.0
 10
3.989331
 20
153.890845000000013
 30
0.0
 10
4.0569449999999998
 20
153.7916040000000066
 30
0.0
 10
4.0569439999999997
 20
153.6575620000000129
 30
0.0
  0
SPLINE
  5
8D
  8
Layer_1
 62
7
370
-1
  6
ByLayer
100
AcDbEntity
100
AcDbSpline
 70
8
 71
3
 72
8
 73
4
 74
0
 40
0.0
 40
0.0
 40
0.0
 40
0.0
 40
1.0
 40
1.0
 40
1.0
 40
1.0
 10
4.0569439999999997
 20
153.6575620000000129
 30
0.0
 10
4.0569449999999998
 20
153.5224289999999883
 30
0.0
 10
3.989331
 20
153.4242779999999868
 30
0.0
 10
3.8629169999999999
 20
153.3665210000000059
 30
0.0
  0
SPLINE
  5
8E
  8
Layer_1
 62
7
370
-1
  6
ByLayer
100
AcDbEntity
100
AcDbSpline
 70
8
 71
3
 72
8
 73
4
 74
0
 40
0.0
 40
0.0
 40
0.0
 40
0.0
 40
1.0
 40
1.0
 40
1.0
 40
1.0
 10
3.8629169999999999
 20
153.3665210000000059
 30
0.0
 10
3.7365029999999999
 20
153.3087620000000015
 30
0.0
 10
3.5275050000000001
 20
153.2783259999999927
 30
0.0
 10
3.2190970000000001
 20
153.2783259999999927
 30
0.0
  0
SPLINE
  5
8F
  8
Layer_1
 62
7
370
-1
  6
ByLayer
100
AcDbEntity
100
AcDbSpline
 70
8
 71
3
 72
8
 73
4
 74
0
 40
0.0
 40
0.0
 40
0.0
 40
0.0
 40
1.0
 40
1.0
 40
1.0
 40
1.0
 10
3.2190970000000001
 20
153.2783259999999927
 30
0.0
 10
2.913961
 20
153.2783259999999927
 30
0.0
 10
2.6906949999999998
 20
153.3087620000000015
 30
0.0
 10
2.5664579999999999
 20
153.3665210000000059
 30
0.0
  0
SPLINE
  5
90
  8
Layer_1
 62
7
370
-1
  6
ByLayer
100
AcDbEntity
100
AcDbSpline
 70
8
 71
3
 72
8
 73
4
 74
0
 40
0.0
 40
0.0
 40
0.0
 40
0.0
 40
1.0
 40
1.0
 40
1.0
 40
1.0
 10
2.5664579999999999
 20
153.3665210000000059
 30
0.0
 10
2.4411360000000002
 20
153.4242779999999868
 30
0.0
 10
2.3812519999999999
 20
153.5224289999999883
 30
0.0
 10
2.3812500000000001
 20
153.6575620000000129
 30
0.0
  0
SPLINE
  5
91
  8
Layer_1
 62
7
370
-1
  6
ByLayer
100
AcDbEntity
100
AcDbSpline
 70
8
 71
3
 72
8
 73
4
 74
0
 40
0.0
 40
0.0
 40
0.0
 40
0.0
 40
1.0
 40
1.0
 40
1.0
 40
1.0
 10
2.3812500000000001
 20
153.6575620000000129
 30
0.0
 10
2.3812519999999999
 20
153.7926940000000116
 30
0.0
 10
2.4411360000000002
 20
153.891933999999992
 30
0.0
 10
2.5664579999999999
 20
153.9486039999999889
 30
0.0
  0
SPLINE
  5
92
  8
Layer_1
 62
7
370
-1
  6
ByLayer
100
AcDbEntity
100
AcDbSpline
 70
8
 71
3
 72
8
 73
4
 74
0
 40
0.0
 40
0.0
 40
0.0
 40
0.0
 40
1.0
 40
1.0
 40
1.0
 40
1.0
 10
2.5664579999999999
 20
153.9486039999999889
 30
0.0
 10
2.6906949999999998
 20
154.0063609999999983
 30
0.0
 10
2.913961
 20
154.0279779999999903
 30
0.0
 10
3.2190970000000001
 20
154.0279789999999878
 30
0.0
  0
LWPOLYLINE
  5
93
  8
Layer_1
 62
7
370
-1
  6
ByLayer
100
AcDbEntity
100
AcDbPolyline
 90
2
 70
0
 10
3.2190970000000001
 20
154.6629790000000071
 10
3.2190970000000001
 20
154.6629790000000071
  0
SPLINE
  5
94
  8
Layer_1
 62
7
370
-1
  6
ByLayer
100
AcDbEntity
100
AcDbSpline
 70
8
 71
3
 72
8
 73
4
 74
0
 40
0.0
 40
0.0
 40
0.0
 40
0.0
 40
1.0
 40
1.0
 40
1.0
 40
1.0
 10
3.2190970000000001
 20
152.3346459999999922
 30
0.0
 10
2.8137020000000001
 20
152.3346439999999973
 30
0.0
 10
2.5032830000000001
 20
152.2444250000000068
 30
0.0
 10
2.2842359999999999
 20
152.0700620000000072
 30
0.0
  0
SPLINE
  5
95
  8
Layer_1
 62
7
370
-1
  6
ByLayer
100
AcDbEntity
100
AcDbSpline
 70
8
 71
3
 72
8
 73
4
 74
0
 40
0.0
 40
0.0
 40
0.0
 40
0.0
 40
1.0
 40
1.0
 40
1.0
 40
1.0
 10
2.2842359999999999
 20
152.0700620000000072
 30
0.0
 10
2.0641039999999999
 20
151.8956970000000126
 30
0.0
 10
1.9491000000000001
 20
151.6496219999999937
 30
0.0
 10
1.9490970000000001
 20
151.329228999999998
 30
0.0
  0
SPLINE
  5
96
  8
Layer_1
 62
7
370
-1
  6
ByLayer
100
AcDbEntity
100
AcDbSpline
 70
8
 71
3
 72
8
 73
4
 74
0
 40
0.0
 40
0.0
 40
0.0
 40
0.0
 40
1.0
 40
1.0
 40
1.0
 40
1.0
 10
1.9490970000000001
 20
151.329228999999998
 30
0.0
 10
1.9491000000000001
 20
151.0077440000000024
 30
0.0
 10
2.0641039999999999
 20
150.7627589999999884
 30
0.0
 10
2.2842359999999999
 20
150.5883959999999888
 30
0.0
  0
SPLINE
  5
97
  8
Layer_1
 62
7
370
-1
  6
ByLayer
100
AcDbEntity
100
AcDbSpline
 70
8
 71
3
 72
8
 73
4
 74
0
 40
0.0
 40
0.0
 40
0.0
 40
0.0
 40
1.0
 40
1.0
 40
1.0
 40
1.0
 10
2.2842359999999999
 20
150.5883959999999888
 30
0.0
 10
2.5032830000000001
 20
150.4140309999999943
 30
0.0
 10
2.8137020000000001
 20
150.3238120000000038
 30
0.0
 10
3.2190970000000001
 20
150.3238120000000038
 30
0.0
  0
SPLINE
  5
98
  8
Layer_1
 62
7
370
-1
  6
ByLayer
100
AcDbEntity
100
AcDbSpline
 70
8
 71
3
 72
8
 73
4
 74
0
 40
0.0
 40
0.0
 40
0.0
 40
0.0
 40
1.0
 40
1.0
 40
1.0
 40
1.0
 10
3.2190970000000001
 20
150.3238120000000038
 30
0.0
 10
3.623405
 20
150.3238120000000038
 30
0.0
 10
3.933824
 20
150.4140309999999943
 30
0.0
 10
4.1539580000000003
 20
150.5883959999999888
 30
0.0
  0
SPLINE
  5
99
  8
Layer_1
 62
7
370
-1
  6
ByLayer
100
AcDbEntity
100
AcDbSpline
 70
8
 71
3
 72
8
 73
4
 74
0
 40
0.0
 40
0.0
 40
0.0
 40
0.0
 40
1.0
 40
1.0
 40
1.0
 40
1.0
 10
4.1539580000000003
 20
150.5883959999999888
 30
0.0
 10
4.3730029999999998
 20
150.7627589999999884
 30
0.0
 10
4.4890970000000001
 20
151.0077440000000024
 30
0.0
 10
4.4890970000000001
 20
151.329228999999998
 30
0.0
  0
SPLINE
  5
9A
  8
Layer_1
 62
7
370
-1
  6
ByLayer
100
AcDbEntity
100
AcDbSpline
 70
8
 71
3
 72
8
 73
4
 74
0
 40
0.0
 40
0.0
 40
0.0
 40
0.0
 40
1.0
 40
1.0
 40
1.0
 40
1.0
 10
4.4890970000000001
 20
151.329228999999998
 30
0.0
 10
4.4890970000000001
 20
151.6496219999999937
 30
0.0
 10
4.3730029999999998
 20
151.8956970000000126
 30
0.0
 10
4.1539580000000003
 20
152.0700620000000072
 30
0.0
  0
SPLINE
  5
9B
  8
Layer_1
 62
7
370
-1
  6
ByLayer
100
AcDbEntity
100
AcDbSpline
 70
8
 71
3
 72
8
 73
4
 74
0
 40
0.0
 40
0.0
 40
0.0
 40
0.0
 40
1.0
 40
1.0
 40
1.0
 40
1.0
 10
4.1539580000000003
 20
152.0700620000000072
 30
0.0
 10
3.933824
 20
152.2444250000000068
 30
0.0
 10
3.623405
 20
152.3346439999999973
 30
0.0
 10
3.2190970000000001
 20
152.3346459999999922
 30
0.0
  0
LWPOLYLINE
  5
9C
  8
Layer_1
 62
7
370
-1
  6
ByLayer
100
AcDbEntity
100
AcDbPolyline
 90
2
 70
0
 10
3.2190970000000001
 20
154.0279789999999878
 10
3.2190970000000001
 20
154.0279789999999878
  0
SPLINE
  5
9D
  8
Layer_1
 62
7
370
-1
  6
ByLayer
100
AcDbEntity
100
AcDbSpline
 70
8
 71
3
 72
8
 73
4
 74
0
 40
0.0
 40
0.0
 40
0.0
 40
0.0
 40
1.0
 40
1.0
 40
1.0
 40
1.0
 10
3.2190970000000001
 20
151.6996460000000013
 30
0.0
 10
3.5275050000000001
 20
151.6996440000000064
 30
0.0
 10
3.7365029999999999
 20
151.6780280000000118
 30
0.0
 10
3.8629169999999999
 20
151.6202710000000025
 30
0.0
  0
SPLINE
  5
9E
  8
Layer_1
 62
7
370
-1
  6
ByLayer
100
AcDbEntity
100
AcDbSpline
 70
8
 71
3
 72
8
 73
4
 74
0
 40
0.0
 40
0.0
 40
0.0
 40
0.0
 40
1.0
 40
1.0
 40
1.0
 40
1.0
 10
3.8629169999999999
 20
151.6202710000000025
 30
0.0
 10
3.989331
 20
151.5625110000000006
 30
0.0
 10
4.0569449999999998
 20
151.4632699999999943
 30
0.0
 10
4.0569439999999997
 20
151.329228999999998
 30
0.0
  0
SPLINE
  5
9F
  8
Layer_1
 62
7
370
-1
  6
ByLayer
100
AcDbEntity
100
AcDbSpline
 70
8
 71
3
 72
8
 73
4
 74
0
 40
0.0
 40
0.0
 40
0.0
 40
0.0
 40
1.0
 40
1.0
 40
1.0
 40
1.0
 10
4.0569439999999997
 20
151.329228999999998
 30
0.0
 10
4.0569449999999998
 20
151.1940960000000018
 30
0.0
 10
3.989331
 20
151.0959450000000004
 30
0.0
 10
3.8629169999999999
 20
151.0381869999999935
 30
0.0
  0
SPLINE
  5
A0
  8
Layer_1
 62
7
370
-1
  6
ByLayer
100
AcDbEntity
100
AcDbSpline
 70
8
 71
3
 72
8
 73
4
 74
0
 40
0.0
 40
0.0
 40
0.0
 40
0.0
 40
1.0
 40
1.0
 40
1.0
 40
1.0
 10
3.8629169999999999
 20
151.0381869999999935
 30
0.0
 10
3.7365029999999999
 20
150.9804279999999892
 30
0.0
 10
3.5275050000000001
 20
150.9499920000000088
 30
0.0
 10
3.2190970000000001
 20
150.9499930000000063
 30
0.0
  0
SPLINE
  5
A1
  8
Layer_1
 62
7
370
-1
  6
ByLayer
100
AcDbEntity
100
AcDbSpline
 70
8
 71
3
 72
8
 73
4
 74
0
 40
0.0
 40
0.0
 40
0.0
 40
0.0
 40
1.0
 40
1.0
 40
1.0
 40
1.0
 10
3.2190970000000001
 20
150.9499930000000063
 30
0.0
 10
2.913961
 20
150.9499920000000088
 30
0.0
 10
2.6906949999999998
 20
150.9804279999999892
 30
0.0
 10
2.5664579999999999
 20
151.0381869999999935
 30
0.0
  0
SPLINE
  5
A2
  8
Layer_1
 62
7
370
-1
  6
ByLayer
100
AcDbEntity
100
AcDbSpline
 70
8
 71
3
 72
8
 73
4
 74
0
 40
0.0
 40
0.0
 40
0.0
 40
0.0
 40
1.0
 40
1.0
 40
1.0
 40
1.0
 10
2.5664579999999999
 20
151.0381869999999935
 30
0.0
 10
2.4411360000000002
 20
151.0959450000000004
 30
0.0
 10
2.3812519999999999
 20
151.1940960000000018
 30
0.0
 10
2.3812500000000001
 20
151.329228999999998
 30
0.0
  0
SPLINE
  5
A3
  8
Layer_1
 62
7
370
-1
  6
ByLayer
100
AcDbEntity
100
AcDbSpline
 70
8
 71
3
 72
8
 73
4
 74
0
 40
0.0
 40
0.0
 40
0.0
 40
0.0
 40
1.0
 40
1.0
 40
1.0
 40
1.0
 10
2.3812500000000001
 20
151.329228999999998
 30
0.0
 10
2.3812519999999999
 20
151.4643599999999992
 30
0.0
 10
2.4411360000000002
 20
151.5636010000000056
 30
0.0
 10
2.5664579999999999
 20
151.6202710000000025
 30
0.0
  0
SPLINE
  5
A4
  8
Layer_1
 62
7
370
-1
  6
ByLayer
100
AcDbEntity
100
AcDbSpline
 70
8
 71
3
 72
8
 73
4
 74
0
 40
0.0
 40
0.0
 40
0.0
 40
0.0
 40
1.0
 40
1.0
 40
1.0
 40
1.0
 10
2.5664579999999999
 20
151.6202710000000025
 30
0.0
 10
2.6906949999999998
 20
151.6780280000000118
 30
0.0
 10
2.913961
 20
151.6996440000000064
 30
0.0
 10
3.2190970000000001
 20
151.6996460000000013
 30
0.0
  0
LWPOLYLINE
  5
A5
  8
Layer_1
 62
7
370
-1
  6
ByLayer
100
AcDbEntity
100
AcDbPolyline
 90
2
 70
0
 10
3.2190970000000001
 20
152.3346459999999922
 10
3.2190970000000001
 20
152.3346459999999922
  0
LWPOLYLINE
  5
A6
  8
Layer_1
 62
7
370
-1
  6
ByLayer
100
AcDbEntity
100
AcDbPolyline
 90
2
 70
0
 10
3.2190970000000001
 20
151.6996460000000013
 10
3.2190970000000001
 20
151.6996460000000013
  0
SPLINE
  5
A7
  8
Layer_1
 62
7
370
-1
  6
ByLayer
100
AcDbEntity
100
AcDbSpline
 70
8
 71
3
 72
8
 73
4
 74
0
 40
0.0
 40
0.0
 40
0.0
 40
0.0
 40
1.0
 40
1.0
 40
1.0
 40
1.0
 10
3.3690280000000001
 20
146.4344370000000026
 30
0.0
 10
3.2317170000000002
 20
146.4344340000000102
 30
0.0
 10
3.0963889999999998
 20
146.4151999999999987
 30
0.0
 10
2.972153
 20
146.3727010000000064
 30
0.0
  0
SPLINE
  5
A8
  8
Layer_1
 62
7
370
-1
  6
ByLayer
100
AcDbEntity
100
AcDbSpline
 70
8
 71
3
 72
8
 73
4
 74
0
 40
0.0
 40
0.0
 40
0.0
 40
0.0
 40
1.0
 40
1.0
 40
1.0
 40
1.0
 10
2.972153
 20
146.3727010000000064
 30
0.0
 10
2.8468300000000002
 20
146.3312870000000032
 30
0.0
 10
2.7349939999999999
 20
146.2692230000000109
 30
0.0
 10
2.6281940000000001
 20
146.1874929999999893
 30
0.0
  0
SPLINE
  5
A9
  8
Layer_1
 62
7
370
-1
  6
ByLayer
100
AcDbEntity
100
AcDbSpline
 70
8
 71
3
 72
8
 73
4
 74
0
 40
0.0
 40
0.0
 40
0.0
 40
0.0
 40
1.0
 40
1.0
 40
1.0
 40
1.0
 10
2.6281940000000001
 20
146.1874929999999893
 30
0.0
 10
2.4527420000000002
 20
146.053448000000003
 30
0.0
 10
2.3151329999999999
 20
145.8842109999999934
 30
0.0
 10
2.2225000000000001
 20
145.6847850000000051
 30
0.0
  0
SPLINE
  5
AA
  8
Layer_1
 62
7
370
-1
  6
ByLayer
100
AcDbEntity
100
AcDbSpline
 70
8
 71
3
 72
8
 73
4
 74
0
 40
0.0
 40
0.0
 40
0.0
 40
0.0
 40
1.0
 40
1.0
 40
1.0
 40
1.0
 10
2.2225000000000001
 20
145.6847850000000051
 30
0.0
 10
2.128781
 20
145.4853530000000035
 30
0.0
 10
2.081391
 20
145.2674340000000086
 30
0.0
 10
2.0813890000000002
 20
145.0233259999999973
 30
0.0
  0
SPLINE
  5
AB
  8
Layer_1
 62
7
370
-1
  6
ByLayer
100
AcDbEntity
100
AcDbSpline
 70
8
 71
3
 72
8
 73
4
 74
0
 40
0.0
 40
0.0
 40
0.0
 40
0.0
 40
1.0
 40
1.0
 40
1.0
 40
1.0
 10
2.0813890000000002
 20
145.0233259999999973
 30
0.0
 10
2.081391
 20
144.8271650000000079
 30
0.0
 10
2.1219389999999998
 20
144.6331439999999873
 30
0.0
 10
2.1960419999999998
 20
144.4500620000000026
 30
0.0
  0
SPLINE
  5
AC
  8
Layer_1
 62
7
370
-1
  6
ByLayer
100
AcDbEntity
100
AcDbSpline
 70
8
 71
3
 72
8
 73
4
 74
0
 40
0.0
 40
0.0
 40
0.0
 40
0.0
 40
1.0
 40
1.0
 40
1.0
 40
1.0
 10
2.1960419999999998
 20
144.4500620000000026
 30
0.0
 10
2.270149
 20
144.268068999999997
 30
0.0
 10
2.3695919999999999
 20
144.1111229999999921
 30
0.0
 10
2.5047220000000001
 20
143.9738120000000094
 30
0.0
  0
SPLINE
  5
AD
  8
Layer_1
 62
7
370
-1
  6
ByLayer
100
AcDbEntity
100
AcDbSpline
 70
8
 71
3
 72
8
 73
4
 74
0
 40
0.0
 40
0.0
 40
0.0
 40
0.0
 40
1.0
 40
1.0
 40
1.0
 40
1.0
 10
2.5047220000000001
 20
143.9738120000000094
 30
0.0
 10
2.640946
 20
143.8365000000000009
 30
0.0
 10
2.801161
 20
143.7304169999999885
 30
0.0
 10
2.980972
 20
143.656312000000014
 30
0.0
  0
SPLINE
  5
AE
  8
Layer_1
 62
7
370
-1
  6
ByLayer
100
AcDbEntity
100
AcDbSpline
 70
8
 71
3
 72
8
 73
4
 74
0
 40
0.0
 40
0.0
 40
0.0
 40
0.0
 40
1.0
 40
1.0
 40
1.0
 40
1.0
 10
2.980972
 20
143.656312000000014
 30
0.0
 10
3.160787
 20
143.582207000000011
 30
0.0
 10
3.3558979999999998
 20
143.5416590000000099
 30
0.0
 10
3.554236
 20
143.5416600000000074
 30
0.0
  0
SPLINE
  5
AF
  8
Layer_1
 62
7
370
-1
  6
ByLayer
100
AcDbEntity
100
AcDbSpline
 70
8
 71
3
 72
8
 73
4
 74
0
 40
0.0
 40
0.0
 40
0.0
 40
0.0
 40
1.0
 40
1.0
 40
1.0
 40
1.0
 10
3.554236
 20
143.5416600000000074
 30
0.0
 10
3.760205
 20
143.5416590000000099
 30
0.0
 10
3.9476870000000002
 20
143.5832969999999875
 30
0.0
 10
4.1275000000000004
 20
143.656312000000014
 30
0.0
  0
SPLINE
  5
B0
  8
Layer_1
 62
7
370
-1
  6
ByLayer
100
AcDbEntity
100
AcDbSpline
 70
8
 71
3
 72
8
 73
4
 74
0
 40
0.0
 40
0.0
 40
0.0
 40
0.0
 40
1.0
 40
1.0
 40
1.0
 40
1.0
 10
4.1275000000000004
 20
143.656312000000014
 30
0.0
 10
4.3062230000000001
 20
143.729327000000012
 30
0.0
 10
4.4675279999999997
 20
143.8343199999999911
 30
0.0
 10
4.6037499999999998
 20
143.9738120000000094
 30
0.0
  0
SPLINE
  5
B1
  8
Layer_1
 62
7
370
-1
  6
ByLayer
100
AcDbEntity
100
AcDbSpline
 70
8
 71
3
 72
8
 73
4
 74
0
 40
0.0
 40
0.0
 40
0.0
 40
0.0
 40
1.0
 40
1.0
 40
1.0
 40
1.0
 10
4.6037499999999998
 20
143.9738120000000094
 30
0.0
 10
4.7399719999999999
 20
144.1133030000000019
 30
0.0
 10
4.8415949999999999
 20
144.2713379999999859
 30
0.0
 10
4.9124309999999998
 20
144.4500620000000026
 30
0.0
  0
SPLINE
  5
B2
  8
Layer_1
 62
7
370
-1
  6
ByLayer
100
AcDbEntity
100
AcDbSpline
 70
8
 71
3
 72
8
 73
4
 74
0
 40
0.0
 40
0.0
 40
0.0
 40
0.0
 40
1.0
 40
1.0
 40
1.0
 40
1.0
 10
4.9124309999999998
 20
144.4500620000000026
 30
0.0
 10
4.9843549999999999
 20
144.628783999999996
 30
0.0
 10
5.0182630000000001
 20
144.8217160000000092
 30
0.0
 10
5.0182640000000003
 20
145.0233259999999973
 30
0.0
  0
SPLINE
  5
B3
  8
Layer_1
 62
7
370
-1
  6
ByLayer
100
AcDbEntity
100
AcDbSpline
 70
8
 71
3
 72
8
 73
4
 74
0
 40
0.0
 40
0.0
 40
0.0
 40
0.0
 40
1.0
 40
1.0
 40
1.0
 40
1.0
 10
5.0182640000000003
 20
145.0233259999999973
 30
0.0
 10
5.0182630000000001
 20
145.1889700000000119
 30
0.0
 10
4.9867369999999998
 20
145.348196999999999
 30
0.0
 10
4.9300689999999996
 20
145.5083960000000047
 30
0.0
  0
SPLINE
  5
B4
  8
Layer_1
 62
7
370
-1
  6
ByLayer
100
AcDbEntity
100
AcDbSpline
 70
8
 71
3
 72
8
 73
4
 74
0
 40
0.0
 40
0.0
 40
0.0
 40
0.0
 40
1.0
 40
1.0
 40
1.0
 40
1.0
 10
4.9300689999999996
 20
145.5083960000000047
 30
0.0
 10
4.8744899999999998
 20
145.6696799999999996
 30
0.0
 10
4.7976520000000002
 20
145.8219630000000109
 30
0.0
 10
4.6919440000000003
 20
145.9581870000000094
 30
0.0
  0
LWPOLYLINE
  5
B5
  8
Layer_1
 62
7
370
-1
  6
ByLayer
100
AcDbEntity
100
AcDbPolyline
 90
13
 70
0
 10
4.0040279999999999
 20
149.9357569999999953
 10
4.0040279999999999
 20
149.3801320000000032
 10
1.9931939999999999
 20
149.3801320000000032
 10
1.9931939999999999
 20
148.7804099999999892
 10
2.1166670000000001
 20
148.2159650000000113
 10
2.54
 20
148.2159650000000113
 10
2.4253469999999999
 20
148.7804099999999892
 10
4.0040279999999999
 20
148.7804099999999892
 10
4.0040279999999999
 20
148.2247849999999971
 10
4.4361810000000004
 20
148.2247849999999971
 10
4.4361810000000004
 20
149.9357569999999953
 10
4.0040279999999999
 20
149.9357569999999953
 10
4.0040279999999999
 20
149.9357569999999953
  0
SPLINE
  5
B6
  8
Layer_1
 62
7
370
-1
  6
ByLayer
100
AcDbEntity
100
AcDbSpline
 70
8
 71
3
 72
8
 73
4
 74
0
 40
0.0
 40
0.0
 40
0.0
 40
0.0
 40
1.0
 40
1.0
 40
1.0
 40
1.0
 10
4.4273610000000003
 20
145.7817990000000066
 30
0.0
 10
4.5145429999999998
 20
145.6848060000000089
 30
0.0
 10
4.5878079999999999
 20
145.5663299999999936
 30
0.0
 10
4.6390279999999997
 20
145.4290210000000059
 30
0.0
  0
SPLINE
  5
B7
  8
Layer_1
 62
7
370
-1
  6
ByLayer
100
AcDbEntity
100
AcDbSpline
 70
8
 71
3
 72
8
 73
4
 74
0
 40
0.0
 40
0.0
 40
0.0
 40
0.0
 40
1.0
 40
1.0
 40
1.0
 40
1.0
 10
4.6390279999999997
 20
145.4290210000000059
 30
0.0
 10
4.6902470000000003
 20
145.2917070000000024
 30
0.0
 10
4.7095830000000003
 20
145.1518169999999941
 30
0.0
 10
4.7095830000000003
 20
145.0145070000000089
 30
0.0
  0
SPLINE
  5
B8
  8
Layer_1
 62
7
370
-1
  6
ByLayer
100
AcDbEntity
100
AcDbSpline
 70
8
 71
3
 72
8
 73
4
 74
0
 40
0.0
 40
0.0
 40
0.0
 40
0.0
 40
1.0
 40
1.0
 40
1.0
 40
1.0
 10
4.7095830000000003
 20
145.0145070000000089
 30
0.0
 10
4.7095830000000003
 20
144.8543080000000032
 30
0.0
 10
4.686877
 20
144.7063850000000116
 30
0.0
 10
4.6302079999999997
 20
144.5647150000000067
 30
0.0
  0
SPLINE
  5
B9
  8
Layer_1
 62
7
370
-1
  6
ByLayer
100
AcDbEntity
100
AcDbSpline
 70
8
 71
3
 72
8
 73
4
 74
0
 40
0.0
 40
0.0
 40
0.0
 40
0.0
 40
1.0
 40
1.0
 40
1.0
 40
1.0
 10
4.6302079999999997
 20
144.5647150000000067
 30
0.0
 10
4.5746289999999998
 20
144.4241330000000119
 30
0.0
 10
4.490062
 20
144.3032750000000135
 30
0.0
 10
4.3832639999999996
 20
144.1942990000000009
 30
0.0
  0
SPLINE
  5
BA
  8
Layer_1
 62
7
370
-1
  6
ByLayer
100
AcDbEntity
100
AcDbSpline
 70
8
 71
3
 72
8
 73
4
 74
0
 40
0.0
 40
0.0
 40
0.0
 40
0.0
 40
1.0
 40
1.0
 40
1.0
 40
1.0
 10
4.3832639999999996
 20
144.1942990000000009
 30
0.0
 10
4.274286
 20
144.0842299999999909
 30
0.0
 10
4.1456989999999996
 20
143.9973819999999876
 30
0.0
 10
4.0040279999999999
 20
143.9385350000000017
 30
0.0
  0
SPLINE
  5
BB
  8
Layer_1
 62
7
370
-1
  6
ByLayer
100
AcDbEntity
100
AcDbSpline
 70
8
 71
3
 72
8
 73
4
 74
0
 40
0.0
 40
0.0
 40
0.0
 40
0.0
 40
1.0
 40
1.0
 40
1.0
 40
1.0
 10
4.0040279999999999
 20
143.9385350000000017
 30
0.0
 10
3.8612679999999999
 20
143.8807759999999973
 30
0.0
 10
3.7166139999999999
 20
143.8503399999999885
 30
0.0
 10
3.554236
 20
143.8503399999999885
 30
0.0
  0
SPLINE
  5
BC
  8
Layer_1
 62
7
370
-1
  6
ByLayer
100
AcDbEntity
100
AcDbSpline
 70
8
 71
3
 72
8
 73
4
 74
0
 40
0.0
 40
0.0
 40
0.0
 40
0.0
 40
1.0
 40
1.0
 40
1.0
 40
1.0
 10
3.554236
 20
143.8503399999999885
 30
0.0
 10
3.3569879999999999
 20
143.8503399999999885
 30
0.0
 10
3.1675279999999999
 20
143.8932700000000011
 30
0.0
 10
2.9986109999999999
 20
143.9826319999999953
 30
0.0
  0
SPLINE
  5
BD
  8
Layer_1
 62
7
370
-1
  6
ByLayer
100
AcDbEntity
100
AcDbSpline
 70
8
 71
3
 72
8
 73
4
 74
0
 40
0.0
 40
0.0
 40
0.0
 40
0.0
 40
1.0
 40
1.0
 40
1.0
 40
1.0
 10
2.9986109999999999
 20
143.9826319999999953
 30
0.0
 10
2.8286069999999999
 20
144.0730829999999969
 30
0.0
 10
2.6908970000000001
 20
144.2005800000000022
 30
0.0
 10
2.5840969999999999
 20
144.361867999999987
 30
0.0
  0
SPLINE
  5
BE
  8
Layer_1
 62
7
370
-1
  6
ByLayer
100
AcDbEntity
100
AcDbSpline
 70
8
 71
3
 72
8
 73
4
 74
0
 40
0.0
 40
0.0
 40
0.0
 40
0.0
 40
1.0
 40
1.0
 40
1.0
 40
1.0
 10
2.5840969999999999
 20
144.361867999999987
 30
0.0
 10
2.5198019999999999
 20
144.4599469999999997
 30
0.0
 10
2.4756809999999998
 20
144.5638509999999997
 30
0.0
 10
2.4429859999999999
 20
144.6793680000000109
 30
0.0
  0
SPLINE
  5
BF
  8
Layer_1
 62
7
370
-1
  6
ByLayer
100
AcDbEntity
100
AcDbSpline
 70
8
 71
3
 72
8
 73
4
 74
0
 40
0.0
 40
0.0
 40
0.0
 40
0.0
 40
1.0
 40
1.0
 40
1.0
 40
1.0
 10
2.4429859999999999
 20
144.6793680000000109
 30
0.0
 10
2.409205
 20
144.7948829999999987
 30
0.0
 10
2.390072
 20
144.9145489999999938
 30
0.0
 10
2.390069
 20
145.0409649999999999
 30
0.0
  0
SPLINE
  5
C0
  8
Layer_1
 62
7
370
-1
  6
ByLayer
100
AcDbEntity
100
AcDbSpline
 70
8
 71
3
 72
8
 73
4
 74
0
 40
0.0
 40
0.0
 40
0.0
 40
0.0
 40
1.0
 40
1.0
 40
1.0
 40
1.0
 10
2.390069
 20
145.0409649999999999
 30
0.0
 10
2.390072
 20
145.2218660000000057
 30
0.0
 10
2.4239799999999998
 20
145.3977429999999913
 30
0.0
 10
2.4959030000000002
 20
145.5524929999999983
 30
0.0
  0
SPLINE
  5
C1
  8
Layer_1
 62
7
370
-1
  6
ByLayer
100
AcDbEntity
100
AcDbSpline
 70
8
 71
3
 72
8
 73
4
 74
0
 40
0.0
 40
0.0
 40
0.0
 40
0.0
 40
1.0
 40
1.0
 40
1.0
 40
1.0
 10
2.4959030000000002
 20
145.5524929999999983
 30
0.0
 10
2.5678299999999998
 20
145.708328999999992
 30
0.0
 10
2.6716319999999998
 20
145.837017000000003
 30
0.0
 10
2.804583
 20
145.9405490000000043
 30
0.0
  0
SPLINE
  5
C2
  8
Layer_1
 62
7
370
-1
  6
ByLayer
100
AcDbEntity
100
AcDbSpline
 70
8
 71
3
 72
8
 73
4
 74
0
 40
0.0
 40
0.0
 40
0.0
 40
0.0
 40
1.0
 40
1.0
 40
1.0
 40
1.0
 10
2.804583
 20
145.9405490000000043
 30
0.0
 10
2.8841389999999998
 20
146.0048429999999939
 30
0.0
 10
2.973268
 20
146.0500529999999912
 30
0.0
 10
3.0691670000000002
 20
146.0816599999999994
 30
0.0
  0
SPLINE
  5
C3
  8
Layer_1
 62
7
370
-1
  6
ByLayer
100
AcDbEntity
100
AcDbSpline
 70
8
 71
3
 72
8
 73
4
 74
0
 40
0.0
 40
0.0
 40
0.0
 40
0.0
 40
1.0
 40
1.0
 40
1.0
 40
1.0
 10
3.0691670000000002
 20
146.0816599999999994
 30
0.0
 10
3.1639789999999999
 20
146.1132599999999968
 30
0.0
 10
3.2600509999999998
 20
146.1257540000000006
 30
0.0
 10
3.3690280000000001
 20
146.125756999999993
 30
0.0
  0
SPLINE
  5
C4
  8
Layer_1
 62
7
370
-1
  6
ByLayer
100
AcDbEntity
100
AcDbSpline
 70
8
 71
3
 72
8
 73
4
 74
0
 40
0.0
 40
0.0
 40
0.0
 40
0.0
 40
1.0
 40
1.0
 40
1.0
 40
1.0
 10
3.3690280000000001
 20
146.125756999999993
 30
0.0
 10
3.540124
 20
146.1257540000000006
 30
0.0
 10
3.6822940000000002
 20
146.0884760000000142
 30
0.0
 10
3.7923610000000001
 20
146.0111039999999889
 30
0.0
  0
SPLINE
  5
C5
  8
Layer_1
 62
7
370
-1
  6
ByLayer
100
AcDbEntity
100
AcDbSpline
 70
8
 71
3
 72
8
 73
4
 74
0
 40
0.0
 40
0.0
 40
0.0
 40
0.0
 40
1.0
 40
1.0
 40
1.0
 40
1.0
 10
3.7923610000000001
 20
146.0111039999999889
 30
0.0
 10
3.9013390000000001
 20
145.9337270000000046
 30
0.0
 10
3.965684
 20
145.8287339999999972
 30
0.0
 10
3.986389
 20
145.6936039999999934
 30
0.0
  0
LWPOLYLINE
  5
C6
  8
Layer_1
 62
7
370
-1
  6
ByLayer
100
AcDbEntity
100
AcDbPolyline
 90
2
 70
0
 10
4.6919440000000003
 20
145.9581870000000094
 10
4.4273610000000003
 20
145.7817990000000066
  0
SPLINE
  5
C7
  8
Layer_1
 62
7
370
-1
  6
ByLayer
100
AcDbEntity
100
AcDbSpline
 70
8
 71
3
 72
8
 73
4
 74
0
 40
0.0
 40
0.0
 40
0.0
 40
0.0
 40
1.0
 40
1.0
 40
1.0
 40
1.0
 10
3.0691670000000002
 20
145.349646000000007
 30
0.0
 10
2.9917940000000001
 20
145.3169499999999914
 30
0.0
 10
2.9363700000000001
 20
145.2639090000000124
 30
0.0
 10
2.8927779999999998
 20
145.1908960000000093
 30
0.0
  0
SPLINE
  5
C8
  8
Layer_1
 62
7
370
-1
  6
ByLayer
100
AcDbEntity
100
AcDbSpline
 70
8
 71
3
 72
8
 73
4
 74
0
 40
0.0
 40
0.0
 40
0.0
 40
0.0
 40
1.0
 40
1.0
 40
1.0
 40
1.0
 10
2.8927779999999998
 20
145.1908960000000093
 30
0.0
 10
2.8491879999999998
 20
145.1189689999999928
 30
0.0
 10
2.8222239999999998
 20
145.0409400000000062
 30
0.0
 10
2.822222
 20
144.9439509999999984
 30
0.0
  0
SPLINE
  5
C9
  8
Layer_1
 62
7
370
-1
  6
ByLayer
100
AcDbEntity
100
AcDbSpline
 70
8
 71
3
 72
8
 73
4
 74
0
 40
0.0
 40
0.0
 40
0.0
 40
0.0
 40
1.0
 40
1.0
 40
1.0
 40
1.0
 10
2.822222
 20
144.9439509999999984
 30
0.0
 10
2.8222239999999998
 20
144.7575980000000015
 30
0.0
 10
2.888849
 20
144.6030350000000055
 30
0.0
 10
3.0250689999999998
 20
144.4853400000000079
 30
0.0
  0
SPLINE
  5
CA
  8
Layer_1
 62
7
370
-1
  6
ByLayer
100
AcDbEntity
100
AcDbSpline
 70
8
 71
3
 72
8
 73
4
 74
0
 40
0.0
 40
0.0
 40
0.0
 40
0.0
 40
1.0
 40
1.0
 40
1.0
 40
1.0
 10
3.0250689999999998
 20
144.4853400000000079
 30
0.0
 10
3.1612930000000001
 20
144.3676429999999868
 30
0.0
 10
3.3451010000000001
 20
144.3089510000000075
 30
0.0
 10
3.563056
 20
144.3089510000000075
 30
0.0
  0
SPLINE
  5
CB
  8
Layer_1
 62
7
370
-1
  6
ByLayer
100
AcDbEntity
100
AcDbSpline
 70
8
 71
3
 72
8
 73
4
 74
0
 40
0.0
 40
0.0
 40
0.0
 40
0.0
 40
1.0
 40
1.0
 40
1.0
 40
1.0
 10
3.563056
 20
144.3089510000000075
 30
0.0
 10
3.781012
 20
144.3089510000000075
 30
0.0
 10
3.9560010000000001
 20
144.3687329999999918
 30
0.0
 10
4.0922219999999996
 20
144.4853400000000079
 30
0.0
  0
SPLINE
  5
CC
  8
Layer_1
 62
7
370
-1
  6
ByLayer
100
AcDbEntity
100
AcDbSpline
 70
8
 71
3
 72
8
 73
4
 74
0
 40
0.0
 40
0.0
 40
0.0
 40
0.0
 40
1.0
 40
1.0
 40
1.0
 40
1.0
 10
4.0922219999999996
 20
144.4853400000000079
 30
0.0
 10
4.2273550000000002
 20
144.6030350000000055
 30
0.0
 10
4.2950699999999999
 20
144.7565079999999966
 30
0.0
 10
4.2950689999999998
 20
144.9439509999999984
 30
0.0
  0
SPLINE
  5
CD
  8
Layer_1
 62
7
370
-1
  6
ByLayer
100
AcDbEntity
100
AcDbSpline
 70
8
 71
3
 72
8
 73
4
 74
0
 40
0.0
 40
0.0
 40
0.0
 40
0.0
 40
1.0
 40
1.0
 40
1.0
 40
1.0
 10
4.2950689999999998
 20
144.9439509999999984
 30
0.0
 10
4.2950699999999999
 20
145.0409400000000062
 30
0.0
 10
4.2758349999999998
 20
145.1189689999999928
 30
0.0
 10
4.233333
 20
145.1908960000000093
 30
0.0
  0
SPLINE
  5
CE
  8
Layer_1
 62
7
370
-1
  6
ByLayer
100
AcDbEntity
100
AcDbSpline
 70
8
 71
3
 72
8
 73
4
 74
0
 40
0.0
 40
0.0
 40
0.0
 40
0.0
 40
1.0
 40
1.0
 40
1.0
 40
1.0
 10
4.233333
 20
145.1908960000000093
 30
0.0
 10
4.1897419999999999
 20
145.2639090000000124
 30
0.0
 10
4.1254999999999997
 20
145.3169499999999914
 30
0.0
 10
4.0481249999999998
 20
145.349646000000007
 30
0.0
  0
LWPOLYLINE
  5
CF
  8
Layer_1
 62
7
370
-1
  6
ByLayer
100
AcDbEntity
100
AcDbPolyline
 90
4
 70
0
 10
3.986389
 20
145.6936039999999934
 10
2.8574999999999999
 20
145.6936039999999934
 10
2.8574999999999999
 20
145.349646000000007
 10
3.0691670000000002
 20
145.349646000000007
  0
SPLINE
  5
D0
  8
Layer_1
 62
7
370
-1
  6
ByLayer
100
AcDbEntity
100
AcDbSpline
 70
8
 71
3
 72
8
 73
4
 74
0
 40
0.0
 40
0.0
 40
0.0
 40
0.0
 40
1.0
 40
1.0
 40
1.0
 40
1.0
 10
4.3038889999999999
 20
145.4202009999999916
 30
0.0
 10
4.3038889999999999
 20
145.7438630000000046
 30
0.0
 10
4.2204110000000004
 20
145.9922180000000083
 30
0.0
 10
4.0569439999999997
 20
146.1698539999999866
 30
0.0
  0
SPLINE
  5
D1
  8
Layer_1
 62
7
370
-1
  6
ByLayer
100
AcDbEntity
100
AcDbSpline
 70
8
 71
3
 72
8
 73
4
 74
0
 40
0.0
 40
0.0
 40
0.0
 40
0.0
 40
1.0
 40
1.0
 40
1.0
 40
1.0
 10
4.0569439999999997
 20
146.1698539999999866
 30
0.0
 10
3.8934790000000001
 20
146.347485000000006
 30
0.0
 10
3.664358
 20
146.4344340000000102
 30
0.0
 10
3.3690280000000001
 20
146.4344370000000026
 30
0.0
  0
LWPOLYLINE
  5
D2
  8
Layer_1
 62
7
370
-1
  6
ByLayer
100
AcDbEntity
100
AcDbPolyline
 90
3
 70
0
 10
4.0481249999999998
 20
145.349646000000007
 10
4.3038889999999999
 20
145.349646000000007
 10
4.3038889999999999
 20
145.4202009999999916
  0
SPLINE
  5
D3
  8
Layer_1
 62
7
370
-1
  6
ByLayer
100
AcDbEntity
100
AcDbSpline
 70
8
 71
3
 72
8
 73
4
 74
0
 40
0.0
 40
0.0
 40
0.0
 40
0.0
 40
1.0
 40
1.0
 40
1.0
 40
1.0
 10
3.554236
 20
145.3231869999999901
 30
0.0
 10
3.6871900000000002
 20
145.3231849999999952
 30
0.0
 10
3.7932730000000001
 20
145.2927489999999864
 30
0.0
 10
3.8717359999999998
 20
145.2349930000000029
 30
0.0
  0
SPLINE
  5
D4
  8
Layer_1
 62
7
370
-1
  6
ByLayer
100
AcDbEntity
100
AcDbSpline
 70
8
 71
3
 72
8
 73
4
 74
0
 40
0.0
 40
0.0
 40
0.0
 40
0.0
 40
1.0
 40
1.0
 40
1.0
 40
1.0
 10
3.8717359999999998
 20
145.2349930000000029
 30
0.0
 10
3.9491109999999998
 20
145.1772330000000011
 30
0.0
 10
3.986389
 20
145.0938570000000141
 30
0.0
 10
3.986389
 20
144.9968680000000063
 30
0.0
  0
SPLINE
  5
D5
  8
Layer_1
 62
7
370
-1
  6
ByLayer
100
AcDbEntity
100
AcDbSpline
 70
8
 71
3
 72
8
 73
4
 74
0
 40
0.0
 40
0.0
 40
0.0
 40
0.0
 40
1.0
 40
1.0
 40
1.0
 40
1.0
 10
3.986389
 20
144.9968680000000063
 30
0.0
 10
3.986389
 20
144.8987860000000012
 30
0.0
 10
3.9491109999999998
 20
144.8253190000000075
 30
0.0
 10
3.8717359999999998
 20
144.7675619999999981
 30
0.0
  0
SPLINE
  5
D6
  8
Layer_1
 62
7
370
-1
  6
ByLayer
100
AcDbEntity
100
AcDbSpline
 70
8
 71
3
 72
8
 73
4
 74
0
 40
0.0
 40
0.0
 40
0.0
 40
0.0
 40
1.0
 40
1.0
 40
1.0
 40
1.0
 10
3.8717359999999998
 20
144.7675619999999981
 30
0.0
 10
3.7943630000000002
 20
144.7108929999999987
 30
0.0
 10
3.6882799999999998
 20
144.6793670000000134
 30
0.0
 10
3.554236
 20
144.6793680000000109
 30
0.0
  0
SPLINE
  5
D7
  8
Layer_1
 62
7
370
-1
  6
ByLayer
100
AcDbEntity
100
AcDbSpline
 70
8
 71
3
 72
8
 73
4
 74
0
 40
0.0
 40
0.0
 40
0.0
 40
0.0
 40
1.0
 40
1.0
 40
1.0
 40
1.0
 10
3.554236
 20
144.6793680000000109
 30
0.0
 10
3.422374
 20
144.6793670000000134
 30
0.0
 10
3.321841
 20
144.7108929999999987
 30
0.0
 10
3.2455560000000001
 20
144.7675619999999981
 30
0.0
  0
SPLINE
  5
D8
  8
Layer_1
 62
7
370
-1
  6
ByLayer
100
AcDbEntity
100
AcDbSpline
 70
8
 71
3
 72
8
 73
4
 74
0
 40
0.0
 40
0.0
 40
0.0
 40
0.0
 40
1.0
 40
1.0
 40
1.0
 40
1.0
 10
3.2455560000000001
 20
144.7675619999999981
 30
0.0
 10
3.168183
 20
144.8253190000000075
 30
0.0
 10
3.1309040000000001
 20
144.900966000000011
 30
0.0
 10
3.130903
 20
144.9968680000000063
 30
0.0
  0
SPLINE
  5
D9
  8
Layer_1
 62
7
370
-1
  6
ByLayer
100
AcDbEntity
100
AcDbSpline
 70
8
 71
3
 72
8
 73
4
 74
0
 40
0.0
 40
0.0
 40
0.0
 40
0.0
 40
1.0
 40
1.0
 40
1.0
 40
1.0
 10
3.130903
 20
144.9968680000000063
 30
0.0
 10
3.1309040000000001
 20
145.0949459999999931
 30
0.0
 10
3.168183
 20
145.1772330000000011
 30
0.0
 10
3.2455560000000001
 20
145.2349930000000029
 30
0.0
  0
SPLINE
  5
DA
  8
Layer_1
 62
7
370
-1
  6
ByLayer
100
AcDbEntity
100
AcDbSpline
 70
8
 71
3
 72
8
 73
4
 74
0
 40
0.0
 40
0.0
 40
0.0
 40
0.0
 40
1.0
 40
1.0
 40
1.0
 40
1.0
 10
3.2455560000000001
 20
145.2349930000000029
 30
0.0
 10
3.321841
 20
145.2938389999999913
 30
0.0
 10
3.422374
 20
145.3231849999999952
 30
0.0
 10
3.554236
 20
145.3231869999999901
 30
0.0
  0
LWPOLYLINE
  5
DB
  8
Layer_1
 62
7
370
-1
  6
ByLayer
100
AcDbEntity
100
AcDbPolyline
 90
2
 70
0
 10
3.3690280000000001
 20
146.4344370000000026
 10
3.3690280000000001
 20
146.4344370000000026
  0
LWPOLYLINE
  5
DC
  8
Layer_1
 62
7
370
-1
  6
ByLayer
100
AcDbEntity
100
AcDbPolyline
 90
2
 70
0
 10
3.554236
 20
145.3231869999999901
 10
3.554236
 20
145.3231869999999901
  0
SPLINE
  5
DD
  8
Layer_1
 62
7
370
-1
  6
ByLayer
100
AcDbEntity
100
AcDbSpline
 70
8
 71
3
 72
8
 73
4
 74
0
 40
0.0
 40
0.0
 40
0.0
 40
0.0
 40
1.0
 40
1.0
 40
1.0
 40
1.0
 10
3.6247919999999998
 20
137.0329099999999869
 30
0.0
 10
3.5138389999999999
 20
137.0167669999999873
 30
0.0
 10
3.4210340000000001
 20
136.9740040000000079
 30
0.0
 10
3.3425690000000001
 20
136.9094369999999969
 30
0.0
  0
SPLINE
  5
DE
  8
Layer_1
 62
7
370
-1
  6
ByLayer
100
AcDbEntity
100
AcDbSpline
 70
8
 71
3
 72
8
 73
4
 74
0
 40
0.0
 40
0.0
 40
0.0
 40
0.0
 40
1.0
 40
1.0
 40
1.0
 40
1.0
 10
3.3425690000000001
 20
136.9094369999999969
 30
0.0
 10
3.2368619999999999
 20
136.8244320000000016
 30
0.0
 10
3.1645859999999999
 20
136.6947570000000098
 30
0.0
 10
3.1220829999999999
 20
136.5302010000000053
 30
0.0
  0
SPLINE
  5
DF
  8
Layer_1
 62
7
370
-1
  6
ByLayer
100
AcDbEntity
100
AcDbSpline
 70
8
 71
3
 72
8
 73
4
 74
0
 40
0.0
 40
0.0
 40
0.0
 40
0.0
 40
1.0
 40
1.0
 40
1.0
 40
1.0
 10
3.1220829999999999
 20
136.5302010000000053
 30
0.0
 10
3.085032
 20
136.6773180000000139
 30
0.0
 10
3.0185080000000002
 20
136.7901449999999954
 30
0.0
 10
2.9280560000000002
 20
136.8653400000000033
 30
0.0
  0
SPLINE
  5
E0
  8
Layer_1
 62
7
370
-1
  6
ByLayer
100
AcDbEntity
100
AcDbSpline
 70
8
 71
3
 72
8
 73
4
 74
0
 40
0.0
 40
0.0
 40
0.0
 40
0.0
 40
1.0
 40
1.0
 40
1.0
 40
1.0
 10
2.9280560000000002
 20
136.8653400000000033
 30
0.0
 10
2.836516
 20
136.9405329999999879
 30
0.0
 10
2.7180399999999998
 20
136.9799899999999866
 30
0.0
 10
2.575278
 20
136.9799930000000074
 30
0.0
  0
SPLINE
  5
E1
  8
Layer_1
 62
7
370
-1
  6
ByLayer
100
AcDbEntity
100
AcDbSpline
 70
8
 71
3
 72
8
 73
4
 74
0
 40
0.0
 40
0.0
 40
0.0
 40
0.0
 40
1.0
 40
1.0
 40
1.0
 40
1.0
 10
2.575278
 20
136.9799930000000074
 30
0.0
 10
2.3660429999999999
 20
136.9799899999999866
 30
0.0
 10
2.2113779999999998
 20
136.8998839999999859
 30
0.0
 10
2.107847
 20
136.7418680000000109
 30
0.0
  0
SPLINE
  5
E2
  8
Layer_1
 62
7
370
-1
  6
ByLayer
100
AcDbEntity
100
AcDbSpline
 70
8
 71
3
 72
8
 73
4
 74
0
 40
0.0
 40
0.0
 40
0.0
 40
0.0
 40
1.0
 40
1.0
 40
1.0
 40
1.0
 10
2.107847
 20
136.7418680000000109
 30
0.0
 10
2.003231
 20
136.584937999999994
 30
0.0
 10
1.9491000000000001
 20
136.344617999999997
 30
0.0
 10
1.9490970000000001
 20
136.0274929999999927
 30
0.0
  0
SPLINE
  5
E3
  8
Layer_1
 62
7
370
-1
  6
ByLayer
100
AcDbEntity
100
AcDbSpline
 70
8
 71
3
 72
8
 73
4
 74
0
 40
0.0
 40
0.0
 40
0.0
 40
0.0
 40
1.0
 40
1.0
 40
1.0
 40
1.0
 10
1.9490970000000001
 20
136.0274929999999927
 30
0.0
 10
1.9491000000000001
 20
135.9097950000000026
 30
0.0
 10
1.9581219999999999
 20
135.7967710000000068
 30
0.0
 10
1.9755560000000001
 20
135.674714999999992
 30
0.0
  0
SPLINE
  5
E4
  8
Layer_1
 62
7
370
-1
  6
ByLayer
100
AcDbEntity
100
AcDbSpline
 70
8
 71
3
 72
8
 73
4
 74
0
 40
0.0
 40
0.0
 40
0.0
 40
0.0
 40
1.0
 40
1.0
 40
1.0
 40
1.0
 10
1.9755560000000001
 20
135.674714999999992
 30
0.0
 10
1.9929939999999999
 20
135.552660000000003
 30
0.0
 10
2.02006
 20
135.4285329999999874
 30
0.0
 10
2.0549309999999998
 20
135.3042989999999861
 30
0.0
  0
LWPOLYLINE
  5
E5
  8
Layer_1
 62
7
370
-1
  6
ByLayer
100
AcDbEntity
100
AcDbPolyline
 90
15
 70
0
 10
1.9931939999999999
 20
142.0511740000000032
 10
1.9931939999999999
 20
141.4514509999999916
 10
3.7747220000000001
 20
141.0369369999999947
 10
1.9931939999999999
 20
140.6136040000000094
 10
1.9931939999999999
 20
140.0050620000000094
 10
3.7747220000000001
 20
139.59054900000001
 10
1.9931939999999999
 20
139.1672149999999988
 10
1.9931939999999999
 20
138.5674930000000131
 10
4.4361810000000004
 20
139.1495759999999962
 10
4.4361810000000004
 20
139.8727710000000002
 10
2.5840969999999999
 20
140.3137429999999881
 10
4.4361810000000004
 20
140.7547150000000045
 10
4.4361810000000004
 20
141.4779100000000085
 10
1.9931939999999999
 20
142.0511740000000032
 10
1.9931939999999999
 20
142.0511740000000032
  0
SPLINE
  5
E6
  8
Layer_1
 62
7
370
-1
  6
ByLayer
100
AcDbEntity
100
AcDbSpline
 70
8
 71
3
 72
8
 73
4
 74
0
 40
0.0
 40
0.0
 40
0.0
 40
0.0
 40
1.0
 40
1.0
 40
1.0
 40
1.0
 10
2.5223610000000001
 20
135.3042989999999861
 30
0.0
 10
2.4776820000000002
 20
135.4067369999999926
 30
0.0
 10
2.4394149999999999
 20
135.5094489999999894
 30
0.0
 10
2.416528
 20
135.6129789999999957
 30
0.0
  0
SPLINE
  5
E7
  8
Layer_1
 62
7
370
-1
  6
ByLayer
100
AcDbEntity
100
AcDbSpline
 70
8
 71
3
 72
8
 73
4
 74
0
 40
0.0
 40
0.0
 40
0.0
 40
0.0
 40
1.0
 40
1.0
 40
1.0
 40
1.0
 10
2.416528
 20
135.6129789999999957
 30
0.0
 10
2.3936440000000001
 20
135.7165070000000071
 30
0.0
 10
2.3812519999999999
 20
135.8203110000000038
 30
0.0
 10
2.3812500000000001
 20
135.9216600000000028
 30
0.0
  0
SPLINE
  5
E8
  8
Layer_1
 62
7
370
-1
  6
ByLayer
100
AcDbEntity
100
AcDbSpline
 70
8
 71
3
 72
8
 73
4
 74
0
 40
0.0
 40
0.0
 40
0.0
 40
0.0
 40
1.0
 40
1.0
 40
1.0
 40
1.0
 10
2.3812500000000001
 20
135.9216600000000028
 30
0.0
 10
2.3812519999999999
 20
136.0589689999999905
 30
0.0
 10
2.409408
 20
136.1639639999999929
 30
0.0
 10
2.4606249999999998
 20
136.2391599999999983
 30
0.0
  0
SPLINE
  5
E9
  8
Layer_1
 62
7
370
-1
  6
ByLayer
100
AcDbEntity
100
AcDbSpline
 70
8
 71
3
 72
8
 73
4
 74
0
 40
0.0
 40
0.0
 40
0.0
 40
0.0
 40
1.0
 40
1.0
 40
1.0
 40
1.0
 10
2.4606249999999998
 20
136.2391599999999983
 30
0.0
 10
2.5118459999999998
 20
136.3143520000000137
 30
0.0
 10
2.5873919999999999
 20
136.3538120000000049
 30
0.0
 10
2.681111
 20
136.3538120000000049
 30
0.0
  0
SPLINE
  5
EA
  8
Layer_1
 62
7
370
-1
  6
ByLayer
100
AcDbEntity
100
AcDbSpline
 70
8
 71
3
 72
8
 73
4
 74
0
 40
0.0
 40
0.0
 40
0.0
 40
0.0
 40
1.0
 40
1.0
 40
1.0
 40
1.0
 10
2.681111
 20
136.3538120000000049
 30
0.0
 10
2.7824620000000002
 20
136.3538120000000049
 30
0.0
 10
2.8514689999999998
 20
136.3077140000000043
 30
0.0
 10
2.9015970000000002
 20
136.2303400000000124
 30
0.0
  0
SPLINE
  5
EB
  8
Layer_1
 62
7
370
-1
  6
ByLayer
100
AcDbEntity
100
AcDbSpline
 70
8
 71
3
 72
8
 73
4
 74
0
 40
0.0
 40
0.0
 40
0.0
 40
0.0
 40
1.0
 40
1.0
 40
1.0
 40
1.0
 10
2.9015970000000002
 20
136.2303400000000124
 30
0.0
 10
2.9506389999999998
 20
136.1529659999999922
 30
0.0
 10
2.9809739999999998
 20
136.0355790000000127
 30
0.0
 10
2.980972
 20
135.8775620000000117
 30
0.0
  0
LWPOLYLINE
  5
EC
  8
Layer_1
 62
7
370
-1
  6
ByLayer
100
AcDbEntity
100
AcDbPolyline
 90
2
 70
0
 10
2.0549309999999998
 20
135.3042989999999861
 10
2.5223610000000001
 20
135.3042989999999861
  0
SPLINE
  5
ED
  8
Layer_1
 62
7
370
-1
  6
ByLayer
100
AcDbEntity
100
AcDbSpline
 70
8
 71
3
 72
8
 73
4
 74
0
 40
0.0
 40
0.0
 40
0.0
 40
0.0
 40
1.0
 40
1.0
 40
1.0
 40
1.0
 10
3.3866670000000001
 20
135.8687429999999949
 30
0.0
 10
3.3866679999999998
 20
136.0463770000000068
 30
0.0
 10
3.4082849999999998
 20
136.1839850000000069
 30
0.0
 10
3.4660419999999998
 20
136.274437000000006
 30
0.0
  0
SPLINE
  5
EE
  8
Layer_1
 62
7
370
-1
  6
ByLayer
100
AcDbEntity
100
AcDbSpline
 70
8
 71
3
 72
8
 73
4
 74
0
 40
0.0
 40
0.0
 40
0.0
 40
0.0
 40
1.0
 40
1.0
 40
1.0
 40
1.0
 10
3.4660419999999998
 20
136.274437000000006
 30
0.0
 10
3.5227110000000001
 20
136.3659759999999892
 30
0.0
 10
3.610649
 20
136.4067259999999919
 30
0.0
 10
3.7218059999999999
 20
136.4067290000000128
 30
0.0
  0
SPLINE
  5
EF
  8
Layer_1
 62
7
370
-1
  6
ByLayer
100
AcDbEntity
100
AcDbSpline
 70
8
 71
3
 72
8
 73
4
 74
0
 40
0.0
 40
0.0
 40
0.0
 40
0.0
 40
1.0
 40
1.0
 40
1.0
 40
1.0
 10
3.7218059999999999
 20
136.4067290000000128
 30
0.0
 10
3.8296939999999999
 20
136.4067259999999919
 30
0.0
 10
3.9109919999999998
 20
136.3637970000000053
 30
0.0
 10
3.96875
 20
136.274437000000006
 30
0.0
  0
SPLINE
  5
F0
  8
Layer_1
 62
7
370
-1
  6
ByLayer
100
AcDbEntity
100
AcDbSpline
 70
8
 71
3
 72
8
 73
4
 74
0
 40
0.0
 40
0.0
 40
0.0
 40
0.0
 40
1.0
 40
1.0
 40
1.0
 40
1.0
 10
3.96875
 20
136.274437000000006
 30
0.0
 10
4.0265079999999998
 20
136.1861639999999909
 30
0.0
 10
4.0569449999999998
 20
136.0619350000000054
 30
0.0
 10
4.0569439999999997
 20
135.8952009999999859
 30
0.0
  0
SPLINE
  5
F1
  8
Layer_1
 62
7
370
-1
  6
ByLayer
100
AcDbEntity
100
AcDbSpline
 70
8
 71
3
 72
8
 73
4
 74
0
 40
0.0
 40
0.0
 40
0.0
 40
0.0
 40
1.0
 40
1.0
 40
1.0
 40
1.0
 10
4.0569439999999997
 20
135.8952009999999859
 30
0.0
 10
4.0569449999999998
 20
135.782952999999992
 30
0.0
 10
4.0422719999999996
 20
135.6678489999999897
 30
0.0
 10
4.0128469999999998
 20
135.5512429999999995
 30
0.0
  0
SPLINE
  5
F2
  8
Layer_1
 62
7
370
-1
  6
ByLayer
100
AcDbEntity
100
AcDbSpline
 70
8
 71
3
 72
8
 73
4
 74
0
 40
0.0
 40
0.0
 40
0.0
 40
0.0
 40
1.0
 40
1.0
 40
1.0
 40
1.0
 10
4.0128469999999998
 20
135.5512429999999995
 30
0.0
 10
3.9823339999999998
 20
135.4357270000000142
 30
0.0
 10
3.9394040000000001
 20
135.3161599999999964
 30
0.0
 10
3.8805559999999999
 20
135.1984649999999988
 30
0.0
  0
LWPOLYLINE
  5
F3
  8
Layer_1
 62
7
370
-1
  6
ByLayer
100
AcDbEntity
100
AcDbPolyline
 90
4
 70
0
 10
2.980972
 20
135.8775620000000117
 10
2.980972
 20
135.6129789999999957
 10
3.3866670000000001
 20
135.6129789999999957
 10
3.3866670000000001
 20
135.8687429999999949
  0
SPLINE
  5
F4
  8
Layer_1
 62
7
370
-1
  6
ByLayer
100
AcDbEntity
100
AcDbSpline
 70
8
 71
3
 72
8
 73
4
 74
0
 40
0.0
 40
0.0
 40
0.0
 40
0.0
 40
1.0
 40
1.0
 40
1.0
 40
1.0
 10
4.3656249999999996
 20
135.1984649999999988
 30
0.0
 10
4.4059470000000003
 20
135.3216099999999926
 30
0.0
 10
4.4342040000000003
 20
135.4435579999999959
 30
0.0
 10
4.4538190000000002
 20
135.5688820000000021
 30
0.0
  0
SPLINE
  5
F5
  8
Layer_1
 62
7
370
-1
  6
ByLayer
100
AcDbEntity
100
AcDbSpline
 70
8
 71
3
 72
8
 73
4
 74
0
 40
0.0
 40
0.0
 40
0.0
 40
0.0
 40
1.0
 40
1.0
 40
1.0
 40
1.0
 10
4.4538190000000002
 20
135.5688820000000021
 30
0.0
 10
4.4745249999999999
 20
135.6952949999999873
 30
0.0
 10
4.4890970000000001
 20
135.8227919999999926
 30
0.0
 10
4.4890970000000001
 20
135.9481179999999938
 30
0.0
  0
SPLINE
  5
F6
  8
Layer_1
 62
7
370
-1
  6
ByLayer
100
AcDbEntity
100
AcDbSpline
 70
8
 71
3
 72
8
 73
4
 74
0
 40
0.0
 40
0.0
 40
0.0
 40
0.0
 40
1.0
 40
1.0
 40
1.0
 40
1.0
 10
4.4890970000000001
 20
135.9481179999999938
 30
0.0
 10
4.4890970000000001
 20
136.3033849999999916
 30
0.0
 10
4.4203939999999999
 20
136.5742419999999981
 30
0.0
 10
4.2950689999999998
 20
136.7595070000000135
 30
0.0
  0
SPLINE
  5
F7
  8
Layer_1
 62
7
370
-1
  6
ByLayer
100
AcDbEntity
100
AcDbSpline
 70
8
 71
3
 72
8
 73
4
 74
0
 40
0.0
 40
0.0
 40
0.0
 40
0.0
 40
1.0
 40
1.0
 40
1.0
 40
1.0
 10
4.2950689999999998
 20
136.7595070000000135
 30
0.0
 10
4.1686560000000004
 20
136.9447659999999871
 30
0.0
 10
3.9901949999999999
 20
137.0329069999999945
 30
0.0
 10
3.7482639999999998
 20
137.0329099999999869
 30
0.0
  0
SPLINE
  5
F8
  8
Layer_1
 62
7
370
-1
  6
ByLayer
100
AcDbEntity
100
AcDbSpline
 70
8
 71
3
 72
8
 73
4
 74
0
 40
0.0
 40
0.0
 40
0.0
 40
0.0
 40
1.0
 40
1.0
 40
1.0
 40
1.0
 10
3.7482639999999998
 20
137.0329099999999869
 30
0.0
 10
3.7076699999999998
 20
137.0329099999999869
 30
0.0
 10
3.6617760000000001
 20
137.0382920000000126
 30
0.0
 10
3.6247919999999998
 20
137.0329099999999869
 30
0.0
  0
LWPOLYLINE
  5
F9
  8
Layer_1
 62
7
370
-1
  6
ByLayer
100
AcDbEntity
100
AcDbPolyline
 90
2
 70
0
 10
3.8805559999999999
 20
135.1984649999999988
 10
4.3656249999999996
 20
135.1984649999999988
  0
SPLINE
  5
FA
  8
Layer_1
 62
7
370
-1
  6
ByLayer
100
AcDbEntity
100
AcDbSpline
 70
8
 71
3
 72
8
 73
4
 74
0
 40
0.0
 40
0.0
 40
0.0
 40
0.0
 40
1.0
 40
1.0
 40
1.0
 40
1.0
 10
3.6159720000000002
 20
134.7927709999999877
 30
0.0
 10
3.3794919999999999
 20
134.7927679999999953
 30
0.0
 10
3.1887400000000001
 20
134.7171209999999917
 30
0.0
 10
3.0427080000000002
 20
134.5634650000000079
 30
0.0
  0
SPLINE
  5
FB
  8
Layer_1
 62
7
370
-1
  6
ByLayer
100
AcDbEntity
100
AcDbSpline
 70
8
 71
3
 72
8
 73
4
 74
0
 40
0.0
 40
0.0
 40
0.0
 40
0.0
 40
1.0
 40
1.0
 40
1.0
 40
1.0
 10
3.0427080000000002
 20
134.5634650000000079
 30
0.0
 10
2.8966799999999999
 20
134.4108960000000081
 30
0.0
 10
2.8310430000000002
 20
134.2133010000000013
 30
0.0
 10
2.8310420000000001
 20
133.9637429999999938
 30
0.0
  0
SPLINE
  5
FC
  8
Layer_1
 62
7
370
-1
  6
ByLayer
100
AcDbEntity
100
AcDbSpline
 70
8
 71
3
 72
8
 73
4
 74
0
 40
0.0
 40
0.0
 40
0.0
 40
0.0
 40
1.0
 40
1.0
 40
1.0
 40
1.0
 10
2.8310420000000001
 20
133.9637429999999938
 30
0.0
 10
2.8310430000000002
 20
133.8645730000000071
 30
0.0
 10
2.8390770000000001
 20
133.7742509999999925
 30
0.0
 10
2.8663189999999998
 20
133.690339999999992
 30
0.0
  0
SPLINE
  5
FD
  8
Layer_1
 62
7
370
-1
  6
ByLayer
100
AcDbEntity
100
AcDbSpline
 70
8
 71
3
 72
8
 73
4
 74
0
 40
0.0
 40
0.0
 40
0.0
 40
0.0
 40
1.0
 40
1.0
 40
1.0
 40
1.0
 10
2.8663189999999998
 20
133.690339999999992
 30
0.0
 10
2.8924759999999998
 20
133.6064269999999965
 30
0.0
 10
2.9363939999999999
 20
133.5241399999999885
 30
0.0
 10
2.989792
 20
133.4522149999999954
 30
0.0
  0
SPLINE
  5
FE
  8
Layer_1
 62
7
370
-1
  6
ByLayer
100
AcDbEntity
100
AcDbSpline
 70
8
 71
3
 72
8
 73
4
 74
0
 40
0.0
 40
0.0
 40
0.0
 40
0.0
 40
1.0
 40
1.0
 40
1.0
 40
1.0
 10
2.989792
 20
133.4522149999999954
 30
0.0
 10
2.7849149999999998
 20
133.4696509999999989
 30
0.0
 10
2.6258919999999999
 20
133.5328039999999987
 30
0.0
 10
2.5223610000000001
 20
133.63742400000001
 30
0.0
  0
SPLINE
  5
FF
  8
Layer_1
 62
7
370
-1
  6
ByLayer
100
AcDbEntity
100
AcDbSpline
 70
8
 71
3
 72
8
 73
4
 74
0
 40
0.0
 40
0.0
 40
0.0
 40
0.0
 40
1.0
 40
1.0
 40
1.0
 40
1.0
 10
2.5223610000000001
 20
133.63742400000001
 30
0.0
 10
2.417745
 20
133.7420410000000004
 30
0.0
 10
2.363613
 20
133.8909519999999986
 30
0.0
 10
2.3636110000000001
 20
134.0783959999999979
 30
0.0
  0
SPLINE
  5
100
  8
Layer_1
 62
7
370
-1
  6
ByLayer
100
AcDbEntity
100
AcDbSpline
 70
8
 71
3
 72
8
 73
4
 74
0
 40
0.0
 40
0.0
 40
0.0
 40
0.0
 40
1.0
 40
1.0
 40
1.0
 40
1.0
 10
2.3636110000000001
 20
134.0783959999999979
 30
0.0
 10
2.363613
 20
134.1655770000000132
 30
0.0
 10
2.3837350000000002
 20
134.2514380000000074
 30
0.0
 10
2.407708
 20
134.3429790000000139
 30
0.0
  0
SPLINE
  5
101
  8
Layer_1
 62
7
370
-1
  6
ByLayer
100
AcDbEntity
100
AcDbSpline
 70
8
 71
3
 72
8
 73
4
 74
0
 40
0.0
 40
0.0
 40
0.0
 40
0.0
 40
1.0
 40
1.0
 40
1.0
 40
1.0
 10
2.407708
 20
134.3429790000000139
 30
0.0
 10
2.430596
 20
134.4345179999999971
 30
0.0
 10
2.4645039999999998
 20
134.5304899999999861
 30
0.0
 10
2.5135420000000002
 20
134.63402099999999
 30
0.0
  0
LWPOLYLINE
  5
102
  8
Layer_1
 62
7
370
-1
  6
ByLayer
100
AcDbEntity
100
AcDbPolyline
 90
2
 70
0
 10
3.6247919999999998
 20
137.0329099999999869
 10
3.6247919999999998
 20
137.0329099999999869
  0
SPLINE
  5
103
  8
Layer_1
 62
7
370
-1
  6
ByLayer
100
AcDbEntity
100
AcDbSpline
 70
8
 71
3
 72
8
 73
4
 74
0
 40
0.0
 40
0.0
 40
0.0
 40
0.0
 40
1.0
 40
1.0
 40
1.0
 40
1.0
 10
2.0637500000000002
 20
134.63402099999999
 30
0.0
 10
2.02888
 20
134.5304899999999861
 30
0.0
 10
2.001814
 20
134.4310470000000066
 30
0.0
 10
1.984375
 20
134.3253400000000113
 30
0.0
  0
SPLINE
  5
104
  8
Layer_1
 62
7
370
-1
  6
ByLayer
100
AcDbEntity
100
AcDbSpline
 70
8
 71
3
 72
8
 73
4
 74
0
 40
0.0
 40
0.0
 40
0.0
 40
0.0
 40
1.0
 40
1.0
 40
1.0
 40
1.0
 10
1.984375
 20
134.3253400000000113
 30
0.0
 10
1.9669410000000001
 20
134.2196309999999926
 30
0.0
 10
1.957919
 20
134.1112660000000005
 30
0.0
 10
1.9579169999999999
 20
133.999020999999999
 30
0.0
  0
SPLINE
  5
105
  8
Layer_1
 62
7
370
-1
  6
ByLayer
100
AcDbEntity
100
AcDbSpline
 70
8
 71
3
 72
8
 73
4
 74
0
 40
0.0
 40
0.0
 40
0.0
 40
0.0
 40
1.0
 40
1.0
 40
1.0
 40
1.0
 10
1.9579169999999999
 20
133.999020999999999
 30
0.0
 10
1.957919
 20
133.6448430000000087
 30
0.0
 10
2.0708449999999998
 20
133.3649609999999939
 30
0.0
 10
2.3018749999999999
 20
133.1611739999999884
 30
0.0
  0
SPLINE
  5
106
  8
Layer_1
 62
7
370
-1
  6
ByLayer
100
AcDbEntity
100
AcDbSpline
 70
8
 71
3
 72
8
 73
4
 74
0
 40
0.0
 40
0.0
 40
0.0
 40
0.0
 40
1.0
 40
1.0
 40
1.0
 40
1.0
 10
2.3018749999999999
 20
133.1611739999999884
 30
0.0
 10
2.5318200000000002
 20
132.9584759999999903
 30
0.0
 10
2.851159
 20
132.8524930000000097
 30
0.0
 10
3.254375
 20
132.8524930000000097
 30
0.0
  0
SPLINE
  5
107
  8
Layer_1
 62
7
370
-1
  6
ByLayer
100
AcDbEntity
100
AcDbSpline
 70
8
 71
3
 72
8
 73
4
 74
0
 40
0.0
 40
0.0
 40
0.0
 40
0.0
 40
1.0
 40
1.0
 40
1.0
 40
1.0
 10
3.254375
 20
132.8524930000000097
 30
0.0
 10
3.6477849999999998
 20
132.8524930000000097
 30
0.0
 10
3.9480919999999999
 20
132.9438000000000102
 30
0.0
 10
4.1627780000000003
 20
133.1170759999999973
 30
0.0
  0
SPLINE
  5
108
  8
Layer_1
 62
7
370
-1
  6
ByLayer
100
AcDbEntity
100
AcDbSpline
 70
8
 71
3
 72
8
 73
4
 74
0
 40
0.0
 40
0.0
 40
0.0
 40
0.0
 40
1.0
 40
1.0
 40
1.0
 40
1.0
 10
4.1627780000000003
 20
133.1170759999999973
 30
0.0
 10
4.3763740000000002
 20
133.2914389999999969
 30
0.0
 10
4.4890970000000001
 20
133.5319660000000113
 30
0.0
 10
4.4890970000000001
 20
133.8490899999999897
 30
0.0
  0
SPLINE
  5
109
  8
Layer_1
 62
7
370
-1
  6
ByLayer
100
AcDbEntity
100
AcDbSpline
 70
8
 71
3
 72
8
 73
4
 74
0
 40
0.0
 40
0.0
 40
0.0
 40
0.0
 40
1.0
 40
1.0
 40
1.0
 40
1.0
 10
4.4890970000000001
 20
133.8490899999999897
 30
0.0
 10
4.4890970000000001
 20
134.1367899999999906
 30
0.0
 10
4.4078999999999997
 20
134.3659100000000137
 30
0.0
 10
4.250972
 20
134.5370069999999885
 30
0.0
  0
SPLINE
  5
10A
  8
Layer_1
 62
7
370
-1
  6
ByLayer
100
AcDbEntity
100
AcDbSpline
 70
8
 71
3
 72
8
 73
4
 74
0
 40
0.0
 40
0.0
 40
0.0
 40
0.0
 40
1.0
 40
1.0
 40
1.0
 40
1.0
 10
4.250972
 20
134.5370069999999885
 30
0.0
 10
4.0929549999999999
 20
134.7080980000000068
 30
0.0
 10
3.8775189999999999
 20
134.7927679999999953
 30
0.0
 10
3.6159720000000002
 20
134.7927709999999877
 30
0.0
  0
LWPOLYLINE
  5
10B
  8
Layer_1
 62
7
370
-1
  6
ByLayer
100
AcDbEntity
100
AcDbPolyline
 90
2
 70
0
 10
2.5135420000000002
 20
134.63402099999999
 10
2.0637500000000002
 20
134.63402099999999
  0
SPLINE
  5
10C
  8
Layer_1
 62
7
370
-1
  6
ByLayer
100
AcDbEntity
100
AcDbSpline
 70
8
 71
3
 72
8
 73
4
 74
0
 40
0.0
 40
0.0
 40
0.0
 40
0.0
 40
1.0
 40
1.0
 40
1.0
 40
1.0
 10
3.660069
 20
134.193049000000002
 30
0.0
 10
3.8028309999999999
 20
134.1930460000000096
 30
0.0
 10
3.9144640000000002
 20
134.1604319999999859
 30
0.0
 10
3.986389
 20
134.1048539999999889
 30
0.0
  0
SPLINE
  5
10D
  8
Layer_1
 62
7
370
-1
  6
ByLayer
100
AcDbEntity
100
AcDbSpline
 70
8
 71
3
 72
8
 73
4
 74
0
 40
0.0
 40
0.0
 40
0.0
 40
0.0
 40
1.0
 40
1.0
 40
1.0
 40
1.0
 10
3.986389
 20
134.1048539999999889
 30
0.0
 10
4.0572249999999999
 20
134.0503630000000044
 30
0.0
 10
4.0922229999999997
 20
133.969065999999998
 30
0.0
 10
4.0922219999999996
 20
133.8579100000000039
 30
0.0
  0
SPLINE
  5
10E
  8
Layer_1
 62
7
370
-1
  6
ByLayer
100
AcDbEntity
100
AcDbSpline
 70
8
 71
3
 72
8
 73
4
 74
0
 40
0.0
 40
0.0
 40
0.0
 40
0.0
 40
1.0
 40
1.0
 40
1.0
 40
1.0
 10
4.0922219999999996
 20
133.8579100000000039
 30
0.0
 10
4.0922229999999997
 20
133.7478399999999965
 30
0.0
 10
4.0572249999999999
 20
133.6665429999999901
 30
0.0
 10
3.986389
 20
133.6109649999999931
 30
0.0
  0
SPLINE
  5
10F
  8
Layer_1
 62
7
370
-1
  6
ByLayer
100
AcDbEntity
100
AcDbSpline
 70
8
 71
3
 72
8
 73
4
 74
0
 40
0.0
 40
0.0
 40
0.0
 40
0.0
 40
1.0
 40
1.0
 40
1.0
 40
1.0
 10
3.986389
 20
133.6109649999999931
 30
0.0
 10
3.9144640000000002
 20
133.556477000000001
 30
0.0
 10
3.8028309999999999
 20
133.5315899999999942
 30
0.0
 10
3.660069
 20
133.5315899999999942
 30
0.0
  0
SPLINE
  5
110
  8
Layer_1
 62
7
370
-1
  6
ByLayer
100
AcDbEntity
100
AcDbSpline
 70
8
 71
3
 72
8
 73
4
 74
0
 40
0.0
 40
0.0
 40
0.0
 40
0.0
 40
1.0
 40
1.0
 40
1.0
 40
1.0
 10
3.660069
 20
133.5315899999999942
 30
0.0
 10
3.5173100000000002
 20
133.5315899999999942
 30
0.0
 10
3.4134060000000002
 20
133.556477000000001
 30
0.0
 10
3.3425690000000001
 20
133.6109649999999931
 30
0.0
  0
SPLINE
  5
111
  8
Layer_1
 62
7
370
-1
  6
ByLayer
100
AcDbEntity
100
AcDbSpline
 70
8
 71
3
 72
8
 73
4
 74
0
 40
0.0
 40
0.0
 40
0.0
 40
0.0
 40
1.0
 40
1.0
 40
1.0
 40
1.0
 10
3.3425690000000001
 20
133.6109649999999931
 30
0.0
 10
3.270645
 20
133.6665429999999901
 30
0.0
 10
3.2367370000000002
 20
133.7478399999999965
 30
0.0
 10
3.2367360000000001
 20
133.8579100000000039
 30
0.0
  0
SPLINE
  5
112
  8
Layer_1
 62
7
370
-1
  6
ByLayer
100
AcDbEntity
100
AcDbSpline
 70
8
 71
3
 72
8
 73
4
 74
0
 40
0.0
 40
0.0
 40
0.0
 40
0.0
 40
1.0
 40
1.0
 40
1.0
 40
1.0
 10
3.2367360000000001
 20
133.8579100000000039
 30
0.0
 10
3.2367370000000002
 20
133.969065999999998
 30
0.0
 10
3.270645
 20
134.0503630000000044
 30
0.0
 10
3.3425690000000001
 20
134.1048539999999889
 30
0.0
  0
SPLINE
  5
113
  8
Layer_1
 62
7
370
-1
  6
ByLayer
100
AcDbEntity
100
AcDbSpline
 70
8
 71
3
 72
8
 73
4
 74
0
 40
0.0
 40
0.0
 40
0.0
 40
0.0
 40
1.0
 40
1.0
 40
1.0
 40
1.0
 10
3.3425690000000001
 20
134.1048539999999889
 30
0.0
 10
3.4134060000000002
 20
134.1604319999999859
 30
0.0
 10
3.5173100000000002
 20
134.1930460000000096
 30
0.0
 10
3.660069
 20
134.193049000000002
 30
0.0
  0
LWPOLYLINE
  5
114
  8
Layer_1
 62
7
370
-1
  6
ByLayer
100
AcDbEntity
100
AcDbPolyline
 90
2
 70
0
 10
3.6159720000000002
 20
134.7927709999999877
 10
3.6159720000000002
 20
134.7927709999999877
  0
LWPOLYLINE
  5
115
  8
Layer_1
 62
7
370
-1
  6
ByLayer
100
AcDbEntity
100
AcDbPolyline
 90
2
 70
0
 10
3.660069
 20
134.193049000000002
 10
3.660069
 20
134.193049000000002
  0
LWPOLYLINE
  5
116
  8
Layer_1
 62
7
370
-1
  6
ByLayer
100
AcDbEntity
100
AcDbPolyline
 90
13
 70
0
 10
4.0040279999999999
 20
132.4203400000000101
 10
4.0040279999999999
 20
131.8647149999999897
 10
1.9931939999999999
 20
131.8647149999999897
 10
1.9931939999999999
 20
131.264993000000004
 10
2.1166670000000001
 20
130.7005489999999952
 10
2.54
 20
130.7005489999999952
 10
2.4253469999999999
 20
131.264993000000004
 10
4.0040279999999999
 20
131.264993000000004
 10
4.0040279999999999
 20
130.709368000000012
 10
4.4361810000000004
 20
130.709368000000012
 10
4.4361810000000004
 20
132.4203400000000101
 10
4.0040279999999999
 20
132.4203400000000101
 10
4.0040279999999999
 20
132.4203400000000101
  0
LWPOLYLINE
  5
117
  8
Layer_1
 62
7
370
-1
  6
ByLayer
100
AcDbEntity
100
AcDbPolyline
 90
6
 70
0
 10
1.9931939999999999
 20
129.1571460000000116
 10
1.9931939999999999
 20
128.7955489999999941
 10
4.7448610000000002
 20
127.9312429999999949
 10
4.7448610000000002
 20
128.2928400000000124
 10
1.9931939999999999
 20
129.1571460000000116
 10
1.9931939999999999
 20
129.1571460000000116
  0
SPLINE
  5
118
  8
Layer_1
 62
7
370
-1
  6
ByLayer
100
AcDbEntity
100
AcDbSpline
 70
8
 71
3
 72
8
 73
4
 74
0
 40
0.0
 40
0.0
 40
0.0
 40
0.0
 40
1.0
 40
1.0
 40
1.0
 40
1.0
 10
3.7482639999999998
 20
122.807146000000003
 30
0.0
 10
3.5913369999999998
 20
122.8071429999999964
 30
0.0
 10
3.4626480000000002
 20
122.7686730000000068
 30
0.0
 10
3.3602080000000001
 20
122.6836739999999963
 30
0.0
  0
SPLINE
  5
119
  8
Layer_1
 62
7
370
-1
  6
ByLayer
100
AcDbEntity
100
AcDbSpline
 70
8
 71
3
 72
8
 73
4
 74
0
 40
0.0
 40
0.0
 40
0.0
 40
0.0
 40
1.0
 40
1.0
 40
1.0
 40
1.0
 10
3.3602080000000001
 20
122.6836739999999963
 30
0.0
 10
3.2566809999999999
 20
122.5997579999999942
 30
0.0
 10
3.1854939999999998
 20
122.470082000000005
 30
0.0
 10
3.1397219999999999
 20
122.304436999999993
 30
0.0
  0
SPLINE
  5
11A
  8
Layer_1
 62
7
370
-1
  6
ByLayer
100
AcDbEntity
100
AcDbSpline
 70
8
 71
3
 72
8
 73
4
 74
0
 40
0.0
 40
0.0
 40
0.0
 40
0.0
 40
1.0
 40
1.0
 40
1.0
 40
1.0
 10
3.1397219999999999
 20
122.304436999999993
 30
0.0
 10
3.095043
 20
122.4526460000000014
 30
0.0
 10
3.0206879999999998
 20
122.5643809999999974
 30
0.0
 10
2.9280560000000002
 20
122.6395760000000053
 30
0.0
  0
SPLINE
  5
11B
  8
Layer_1
 62
7
370
-1
  6
ByLayer
100
AcDbEntity
100
AcDbSpline
 70
8
 71
3
 72
8
 73
4
 74
0
 40
0.0
 40
0.0
 40
0.0
 40
0.0
 40
1.0
 40
1.0
 40
1.0
 40
1.0
 10
2.9280560000000002
 20
122.6395760000000053
 30
0.0
 10
2.835426
 20
122.7158579999999972
 30
0.0
 10
2.7225009999999998
 20
122.7542260000000027
 30
0.0
 10
2.5840969999999999
 20
122.7542289999999952
 30
0.0
  0
SPLINE
  5
11C
  8
Layer_1
 62
7
370
-1
  6
ByLayer
100
AcDbEntity
100
AcDbSpline
 70
8
 71
3
 72
8
 73
4
 74
0
 40
0.0
 40
0.0
 40
0.0
 40
0.0
 40
1.0
 40
1.0
 40
1.0
 40
1.0
 10
2.5840969999999999
 20
122.7542289999999952
 30
0.0
 10
2.3770419999999999
 20
122.7542260000000027
 30
0.0
 10
2.2234669999999999
 20
122.6785789999999992
 30
0.0
 10
2.1166670000000001
 20
122.5249239999999986
 30
0.0
  0
SPLINE
  5
11D
  8
Layer_1
 62
7
370
-1
  6
ByLayer
100
AcDbEntity
100
AcDbSpline
 70
8
 71
3
 72
8
 73
4
 74
0
 40
0.0
 40
0.0
 40
0.0
 40
0.0
 40
1.0
 40
1.0
 40
1.0
 40
1.0
 10
2.1166670000000001
 20
122.5249239999999986
 30
0.0
 10
2.0087809999999999
 20
122.3712620000000015
 30
0.0
 10
1.9491000000000001
 20
122.1499740000000003
 30
0.0
 10
1.9490970000000001
 20
121.8546460000000025
 30
0.0
  0
SPLINE
  5
11E
  8
Layer_1
 62
7
370
-1
  6
ByLayer
100
AcDbEntity
100
AcDbSpline
 70
8
 71
3
 72
8
 73
4
 74
0
 40
0.0
 40
0.0
 40
0.0
 40
0.0
 40
1.0
 40
1.0
 40
1.0
 40
1.0
 10
1.9490970000000001
 20
121.8546460000000025
 30
0.0
 10
1.9491000000000001
 20
121.5571359999999999
 30
0.0
 10
2.0087809999999999
 20
121.3292069999999967
 30
0.0
 10
2.1166670000000001
 20
121.1755490000000037
 30
0.0
  0
SPLINE
  5
11F
  8
Layer_1
 62
7
370
-1
  6
ByLayer
100
AcDbEntity
100
AcDbSpline
 70
8
 71
3
 72
8
 73
4
 74
0
 40
0.0
 40
0.0
 40
0.0
 40
0.0
 40
1.0
 40
1.0
 40
1.0
 40
1.0
 10
2.1166670000000001
 20
121.1755490000000037
 30
0.0
 10
2.2245569999999999
 20
121.0218899999999991
 30
0.0
 10
2.3781310000000002
 20
120.9462429999999955
 30
0.0
 10
2.5840969999999999
 20
120.9462429999999955
 30
0.0
  0
SPLINE
  5
120
  8
Layer_1
 62
7
370
-1
  6
ByLayer
100
AcDbEntity
100
AcDbSpline
 70
8
 71
3
 72
8
 73
4
 74
0
 40
0.0
 40
0.0
 40
0.0
 40
0.0
 40
1.0
 40
1.0
 40
1.0
 40
1.0
 10
2.5840969999999999
 20
120.9462429999999955
 30
0.0
 10
2.7225009999999998
 20
120.9462429999999955
 30
0.0
 10
2.835426
 20
120.9857010000000059
 30
0.0
 10
2.9280560000000002
 20
121.0608959999999996
 30
0.0
  0
SPLINE
  5
121
  8
Layer_1
 62
7
370
-1
  6
ByLayer
100
AcDbEntity
100
AcDbSpline
 70
8
 71
3
 72
8
 73
4
 74
0
 40
0.0
 40
0.0
 40
0.0
 40
0.0
 40
1.0
 40
1.0
 40
1.0
 40
1.0
 10
2.9280560000000002
 20
121.0608959999999996
 30
0.0
 10
3.0206879999999998
 20
121.1360909999999933
 30
0.0
 10
3.095043
 20
121.2478260000000034
 30
0.0
 10
3.1397219999999999
 20
121.3960349999999977
 30
0.0
  0
SPLINE
  5
122
  8
Layer_1
 62
7
370
-1
  6
ByLayer
100
AcDbEntity
100
AcDbSpline
 70
8
 71
3
 72
8
 73
4
 74
0
 40
0.0
 40
0.0
 40
0.0
 40
0.0
 40
1.0
 40
1.0
 40
1.0
 40
1.0
 10
3.1397219999999999
 20
121.3960349999999977
 30
0.0
 10
3.1854939999999998
 20
121.2303869999999932
 30
0.0
 10
3.2566809999999999
 20
121.1018009999999947
 30
0.0
 10
3.3602080000000001
 20
121.016799000000006
 30
0.0
  0
SPLINE
  5
123
  8
Layer_1
 62
7
370
-1
  6
ByLayer
100
AcDbEntity
100
AcDbSpline
 70
8
 71
3
 72
8
 73
4
 74
0
 40
0.0
 40
0.0
 40
0.0
 40
0.0
 40
1.0
 40
1.0
 40
1.0
 40
1.0
 10
3.3602080000000001
 20
121.016799000000006
 30
0.0
 10
3.4626480000000002
 20
120.9328849999999989
 30
0.0
 10
3.5913369999999998
 20
120.8933260000000018
 30
0.0
 10
3.7482639999999998
 20
120.8933260000000018
 30
0.0
  0
SPLINE
  5
124
  8
Layer_1
 62
7
370
-1
  6
ByLayer
100
AcDbEntity
100
AcDbSpline
 70
8
 71
3
 72
8
 73
4
 74
0
 40
0.0
 40
0.0
 40
0.0
 40
0.0
 40
1.0
 40
1.0
 40
1.0
 40
1.0
 10
3.7482639999999998
 20
120.8933260000000018
 30
0.0
 10
3.9901949999999999
 20
120.8933260000000018
 30
0.0
 10
4.1796550000000003
 20
120.9701639999999969
 30
0.0
 10
4.3038889999999999
 20
121.1314509999999984
 30
0.0
  0
SPLINE
  5
125
  8
Layer_1
 62
7
370
-1
  6
ByLayer
100
AcDbEntity
100
AcDbSpline
 70
8
 71
3
 72
8
 73
4
 74
0
 40
0.0
 40
0.0
 40
0.0
 40
0.0
 40
1.0
 40
1.0
 40
1.0
 40
1.0
 10
4.3038889999999999
 20
121.1314509999999984
 30
0.0
 10
4.4270339999999999
 20
121.2938280000000049
 30
0.0
 10
4.4890970000000001
 20
121.5375209999999981
 30
0.0
 10
4.4890970000000001
 20
121.8546460000000025
 30
0.0
  0
SPLINE
  5
126
  8
Layer_1
 62
7
370
-1
  6
ByLayer
100
AcDbEntity
100
AcDbSpline
 70
8
 71
3
 72
8
 73
4
 74
0
 40
0.0
 40
0.0
 40
0.0
 40
0.0
 40
1.0
 40
1.0
 40
1.0
 40
1.0
 10
4.4890970000000001
 20
121.8546460000000025
 30
0.0
 10
4.4890970000000001
 20
122.1706779999999952
 30
0.0
 10
4.4270339999999999
 20
122.4088229999999982
 30
0.0
 10
4.3038889999999999
 20
122.5690210000000064
 30
0.0
  0
SPLINE
  5
127
  8
Layer_1
 62
7
370
-1
  6
ByLayer
100
AcDbEntity
100
AcDbSpline
 70
8
 71
3
 72
8
 73
4
 74
0
 40
0.0
 40
0.0
 40
0.0
 40
0.0
 40
1.0
 40
1.0
 40
1.0
 40
1.0
 10
4.3038889999999999
 20
122.5690210000000064
 30
0.0
 10
4.1796550000000003
 20
122.7303050000000013
 30
0.0
 10
3.9901949999999999
 20
122.8071429999999964
 30
0.0
 10
3.7482639999999998
 20
122.807146000000003
 30
0.0
  0
LWPOLYLINE
  5
128
  8
Layer_1
 62
7
370
-1
  6
ByLayer
100
AcDbEntity
100
AcDbPolyline
 90
9
 70
0
 10
1.9931939999999999
 20
126.7494370000000004
 10
1.9931939999999999
 20
126.1232569999999953
 10
3.8011810000000001
 20
125.4794370000000043
 10
1.9931939999999999
 20
124.8267989999999941
 10
1.9931939999999999
 20
124.1917990000000032
 10
4.4361810000000004
 20
125.1002009999999984
 10
4.4361810000000004
 20
125.8498539999999934
 10
1.9931939999999999
 20
126.7494370000000004
 10
1.9931939999999999
 20
126.7494370000000004
  0
SPLINE
  5
129
  8
Layer_1
 62
7
370
-1
  6
ByLayer
100
AcDbEntity
100
AcDbSpline
 70
8
 71
3
 72
8
 73
4
 74
0
 40
0.0
 40
0.0
 40
0.0
 40
0.0
 40
1.0
 40
1.0
 40
1.0
 40
1.0
 10
3.7218059999999999
 20
122.2162430000000057
 30
0.0
 10
3.841682
 20
122.2162399999999991
 30
0.0
 10
3.9309120000000002
 20
122.1813460000000049
 30
0.0
 10
3.9952079999999999
 20
122.1192290000000042
 30
0.0
  0
SPLINE
  5
12A
  8
Layer_1
 62
7
370
-1
  6
ByLayer
100
AcDbEntity
100
AcDbSpline
 70
8
 71
3
 72
8
 73
4
 74
0
 40
0.0
 40
0.0
 40
0.0
 40
0.0
 40
1.0
 40
1.0
 40
1.0
 40
1.0
 10
3.9952079999999999
 20
122.1192290000000042
 30
0.0
 10
4.0584160000000002
 20
122.057108999999997
 30
0.0
 10
4.0922229999999997
 20
121.9712520000000069
 30
0.0
 10
4.0922219999999996
 20
121.8546460000000025
 30
0.0
  0
SPLINE
  5
12B
  8
Layer_1
 62
7
370
-1
  6
ByLayer
100
AcDbEntity
100
AcDbSpline
 70
8
 71
3
 72
8
 73
4
 74
0
 40
0.0
 40
0.0
 40
0.0
 40
0.0
 40
1.0
 40
1.0
 40
1.0
 40
1.0
 10
4.0922219999999996
 20
121.8546460000000025
 30
0.0
 10
4.0922229999999997
 20
121.7369479999999982
 30
0.0
 10
4.0584160000000002
 20
121.6444500000000062
 30
0.0
 10
3.9952079999999999
 20
121.5812430000000006
 30
0.0
  0
SPLINE
  5
12C
  8
Layer_1
 62
7
370
-1
  6
ByLayer
100
AcDbEntity
100
AcDbSpline
 70
8
 71
3
 72
8
 73
4
 74
0
 40
0.0
 40
0.0
 40
0.0
 40
0.0
 40
1.0
 40
1.0
 40
1.0
 40
1.0
 10
3.9952079999999999
 20
121.5812430000000006
 30
0.0
 10
3.9309120000000002
 20
121.5180370000000067
 30
0.0
 10
3.841682
 20
121.4842289999999991
 30
0.0
 10
3.7218059999999999
 20
121.4842289999999991
 30
0.0
  0
SPLINE
  5
12D
  8
Layer_1
 62
7
370
-1
  6
ByLayer
100
AcDbEntity
100
AcDbSpline
 70
8
 71
3
 72
8
 73
4
 74
0
 40
0.0
 40
0.0
 40
0.0
 40
0.0
 40
1.0
 40
1.0
 40
1.0
 40
1.0
 10
3.7218059999999999
 20
121.4842289999999991
 30
0.0
 10
3.601931
 20
121.4842289999999991
 30
0.0
 10
3.5038809999999998
 20
121.5180370000000067
 30
0.0
 10
3.4395829999999998
 20
121.5812430000000006
 30
0.0
  0
SPLINE
  5
12E
  8
Layer_1
 62
7
370
-1
  6
ByLayer
100
AcDbEntity
100
AcDbSpline
 70
8
 71
3
 72
8
 73
4
 74
0
 40
0.0
 40
0.0
 40
0.0
 40
0.0
 40
1.0
 40
1.0
 40
1.0
 40
1.0
 10
3.4395829999999998
 20
121.5812430000000006
 30
0.0
 10
3.3752870000000001
 20
121.6444500000000062
 30
0.0
 10
3.342571
 20
121.7369479999999982
 30
0.0
 10
3.3425690000000001
 20
121.8546460000000025
 30
0.0
  0
SPLINE
  5
12F
  8
Layer_1
 62
7
370
-1
  6
ByLayer
100
AcDbEntity
100
AcDbSpline
 70
8
 71
3
 72
8
 73
4
 74
0
 40
0.0
 40
0.0
 40
0.0
 40
0.0
 40
1.0
 40
1.0
 40
1.0
 40
1.0
 10
3.3425690000000001
 20
121.8546460000000025
 30
0.0
 10
3.342571
 20
121.9712520000000069
 30
0.0
 10
3.3752870000000001
 20
122.057108999999997
 30
0.0
 10
3.4395829999999998
 20
122.1192290000000042
 30
0.0
  0
SPLINE
  5
130
  8
Layer_1
 62
7
370
-1
  6
ByLayer
100
AcDbEntity
100
AcDbSpline
 70
8
 71
3
 72
8
 73
4
 74
0
 40
0.0
 40
0.0
 40
0.0
 40
0.0
 40
1.0
 40
1.0
 40
1.0
 40
1.0
 10
3.4395829999999998
 20
122.1192290000000042
 30
0.0
 10
3.5027910000000002
 20
122.1813460000000049
 30
0.0
 10
3.600841
 20
122.2162399999999991
 30
0.0
 10
3.7218059999999999
 20
122.2162430000000057
 30
0.0
  0
LWPOLYLINE
  5
131
  8
Layer_1
 62
7
370
-1
  6
ByLayer
100
AcDbEntity
100
AcDbPolyline
 90
2
 70
0
 10
3.7482639999999998
 20
122.807146000000003
 10
3.7482639999999998
 20
122.807146000000003
  0
SPLINE
  5
132
  8
Layer_1
 62
7
370
-1
  6
ByLayer
100
AcDbEntity
100
AcDbSpline
 70
8
 71
3
 72
8
 73
4
 74
0
 40
0.0
 40
0.0
 40
0.0
 40
0.0
 40
1.0
 40
1.0
 40
1.0
 40
1.0
 10
2.6458330000000001
 20
122.1633259999999979
 30
0.0
 10
2.7428249999999998
 20
122.1633240000000029
 30
0.0
 10
2.8228309999999999
 20
122.1373480000000029
 30
0.0
 10
2.8751389999999999
 20
122.083950999999999
 30
0.0
  0
SPLINE
  5
133
  8
Layer_1
 62
7
370
-1
  6
ByLayer
100
AcDbEntity
100
AcDbSpline
 70
8
 71
3
 72
8
 73
4
 74
0
 40
0.0
 40
0.0
 40
0.0
 40
0.0
 40
1.0
 40
1.0
 40
1.0
 40
1.0
 10
2.8751389999999999
 20
122.083950999999999
 30
0.0
 10
2.9274499999999999
 20
122.0305520000000001
 30
0.0
 10
2.9545149999999998
 20
121.9527240000000035
 30
0.0
 10
2.9545140000000001
 20
121.8546460000000025
 30
0.0
  0
SPLINE
  5
134
  8
Layer_1
 62
7
370
-1
  6
ByLayer
100
AcDbEntity
100
AcDbSpline
 70
8
 71
3
 72
8
 73
4
 74
0
 40
0.0
 40
0.0
 40
0.0
 40
0.0
 40
1.0
 40
1.0
 40
1.0
 40
1.0
 10
2.9545140000000001
 20
121.8546460000000025
 30
0.0
 10
2.9545149999999998
 20
121.7543859999999967
 30
0.0
 10
2.9274499999999999
 20
121.671008999999998
 30
0.0
 10
2.8751389999999999
 20
121.6165210000000059
 30
0.0
  0
SPLINE
  5
135
  8
Layer_1
 62
7
370
-1
  6
ByLayer
100
AcDbEntity
100
AcDbSpline
 70
8
 71
3
 72
8
 73
4
 74
0
 40
0.0
 40
0.0
 40
0.0
 40
0.0
 40
1.0
 40
1.0
 40
1.0
 40
1.0
 10
2.8751389999999999
 20
121.6165210000000059
 30
0.0
 10
2.8228309999999999
 20
121.563122000000007
 30
0.0
 10
2.7428249999999998
 20
121.537146000000007
 30
0.0
 10
2.6458330000000001
 20
121.537146000000007
 30
0.0
  0
SPLINE
  5
136
  8
Layer_1
 62
7
370
-1
  6
ByLayer
100
AcDbEntity
100
AcDbSpline
 70
8
 71
3
 72
8
 73
4
 74
0
 40
0.0
 40
0.0
 40
0.0
 40
0.0
 40
1.0
 40
1.0
 40
1.0
 40
1.0
 10
2.6458330000000001
 20
121.537146000000007
 30
0.0
 10
2.5499350000000001
 20
121.537146000000007
 30
0.0
 10
2.4776579999999999
 20
121.563122000000007
 30
0.0
 10
2.4253469999999999
 20
121.6165210000000059
 30
0.0
  0
SPLINE
  5
137
  8
Layer_1
 62
7
370
-1
  6
ByLayer
100
AcDbEntity
100
AcDbSpline
 70
8
 71
3
 72
8
 73
4
 74
0
 40
0.0
 40
0.0
 40
0.0
 40
0.0
 40
1.0
 40
1.0
 40
1.0
 40
1.0
 10
2.4253469999999999
 20
121.6165210000000059
 30
0.0
 10
2.37304
 20
121.671008999999998
 30
0.0
 10
2.345974
 20
121.7543859999999967
 30
0.0
 10
2.3459720000000002
 20
121.8546460000000025
 30
0.0
  0
SPLINE
  5
138
  8
Layer_1
 62
7
370
-1
  6
ByLayer
100
AcDbEntity
100
AcDbSpline
 70
8
 71
3
 72
8
 73
4
 74
0
 40
0.0
 40
0.0
 40
0.0
 40
0.0
 40
1.0
 40
1.0
 40
1.0
 40
1.0
 10
2.3459720000000002
 20
121.8546460000000025
 30
0.0
 10
2.345974
 20
121.9527240000000035
 30
0.0
 10
2.37304
 20
122.0305520000000001
 30
0.0
 10
2.4253469999999999
 20
122.083950999999999
 30
0.0
  0
SPLINE
  5
139
  8
Layer_1
 62
7
370
-1
  6
ByLayer
100
AcDbEntity
100
AcDbSpline
 70
8
 71
3
 72
8
 73
4
 74
0
 40
0.0
 40
0.0
 40
0.0
 40
0.0
 40
1.0
 40
1.0
 40
1.0
 40
1.0
 10
2.4253469999999999
 20
122.083950999999999
 30
0.0
 10
2.476569
 20
122.1373480000000029
 30
0.0
 10
2.548845
 20
122.1633240000000029
 30
0.0
 10
2.6458330000000001
 20
122.1633259999999979
 30
0.0
  0
LWPOLYLINE
  5
13A
  8
Layer_1
 62
7
370
-1
  6
ByLayer
100
AcDbEntity
100
AcDbPolyline
 90
2
 70
0
 10
3.7218059999999999
 20
122.2162430000000057
 10
3.7218059999999999
 20
122.2162430000000057
  0
LWPOLYLINE
  5
13B
  8
Layer_1
 62
7
370
-1
  6
ByLayer
100
AcDbEntity
100
AcDbPolyline
 90
2
 70
0
 10
2.6458330000000001
 20
122.1633259999999979
 10
2.6458330000000001
 20
122.1633259999999979
  0
LWPOLYLINE
  5
13C
  8
Layer_1
 62
7
370
-1
  6
ByLayer
100
AcDbEntity
100
AcDbPolyline
 90
13
 70
0
 10
4.0040279999999999
 20
120.4611739999999998
 10
4.0040279999999999
 20
119.9055489999999935
 10
1.9931939999999999
 20
119.9055489999999935
 10
1.9931939999999999
 20
119.3058259999999962
 10
2.1166670000000001
 20
118.7413820000000015
 10
2.54
 20
118.7413820000000015
 10
2.4253469999999999
 20
119.3058259999999962
 10
4.0040279999999999
 20
119.3058259999999962
 10
4.0040279999999999
 20
118.7502010000000041
 10
4.4361810000000004
 20
118.7502010000000041
 10
4.4361810000000004
 20
120.4611739999999998
 10
4.0040279999999999
 20
120.4611739999999998
 10
4.0040279999999999
 20
120.4611739999999998
  0
LWPOLYLINE
  5
13D
  8
Layer_1
 62
7
370
-1
  6
ByLayer
100
AcDbEntity
100
AcDbPolyline
 90
6
 70
0
 10
1.9931939999999999
 20
117.1979790000000037
 10
1.9931939999999999
 20
116.8363820000000004
 10
4.7448610000000002
 20
115.9720760000000013
 10
4.7448610000000002
 20
116.333674000000002
 10
1.9931939999999999
 20
117.1979790000000037
 10
1.9931939999999999
 20
117.1979790000000037
  0
LWPOLYLINE
  5
13E
  8
Layer_1
 62
7
370
-1
  6
ByLayer
100
AcDbEntity
100
AcDbPolyline
 90
10
 70
0
 10
4.4361810000000004
 20
114.7902710000000042
 10
1.9931939999999999
 20
113.8906869999999998
 10
1.9931939999999999
 20
113.1410350000000022
 10
4.4361810000000004
 20
112.2326319999999953
 10
4.4361810000000004
 20
112.8676320000000004
 10
3.9952079999999999
 20
113.0263819999999981
 10
3.9952079999999999
 20
114.0053400000000039
 10
4.4361810000000004
 20
114.1640900000000016
 10
4.4361810000000004
 20
114.7902710000000042
 10
4.4361810000000004
 20
114.7902710000000042
  0
SPLINE
  5
13F
  8
Layer_1
 62
7
370
-1
  6
ByLayer
100
AcDbEntity
100
AcDbSpline
 70
8
 71
3
 72
8
 73
4
 74
0
 40
0.0
 40
0.0
 40
0.0
 40
0.0
 40
1.0
 40
1.0
 40
1.0
 40
1.0
 10
3.1926389999999998
 20
112.0033260000000013
 30
0.0
 10
2.8003209999999998
 20
112.0033240000000063
 30
0.0
 10
2.4901049999999998
 20
111.9219250000000017
 30
0.0
 10
2.275417
 20
111.7475620000000021
 30
0.0
  0
SPLINE
  5
140
  8
Layer_1
 62
7
370
-1
  6
ByLayer
100
AcDbEntity
100
AcDbSpline
 70
8
 71
3
 72
8
 73
4
 74
0
 40
0.0
 40
0.0
 40
0.0
 40
0.0
 40
1.0
 40
1.0
 40
1.0
 40
1.0
 10
2.275417
 20
111.7475620000000021
 30
0.0
 10
2.0607329999999999
 20
111.5731969999999933
 30
0.0
 10
1.957919
 20
111.3249430000000046
 30
0.0
 10
1.9579169999999999
 20
111.0067290000000071
 30
0.0
  0
SPLINE
  5
141
  8
Layer_1
 62
7
370
-1
  6
ByLayer
100
AcDbEntity
100
AcDbSpline
 70
8
 71
3
 72
8
 73
4
 74
0
 40
0.0
 40
0.0
 40
0.0
 40
0.0
 40
1.0
 40
1.0
 40
1.0
 40
1.0
 10
1.9579169999999999
 20
111.0067290000000071
 30
0.0
 10
1.957919
 20
110.7201179999999994
 30
0.0
 10
2.0380259999999999
 20
110.4899070000000023
 30
0.0
 10
2.1960419999999998
 20
110.3188119999999941
 30
0.0
  0
SPLINE
  5
142
  8
Layer_1
 62
7
370
-1
  6
ByLayer
100
AcDbEntity
100
AcDbSpline
 70
8
 71
3
 72
8
 73
4
 74
0
 40
0.0
 40
0.0
 40
0.0
 40
0.0
 40
1.0
 40
1.0
 40
1.0
 40
1.0
 10
2.1960419999999998
 20
110.3188119999999941
 30
0.0
 10
2.3540610000000002
 20
110.148807000000005
 30
0.0
 10
2.5595880000000002
 20
110.0630490000000066
 30
0.0
 10
2.822222
 20
110.0630490000000066
 30
0.0
  0
SPLINE
  5
143
  8
Layer_1
 62
7
370
-1
  6
ByLayer
100
AcDbEntity
100
AcDbSpline
 70
8
 71
3
 72
8
 73
4
 74
0
 40
0.0
 40
0.0
 40
0.0
 40
0.0
 40
1.0
 40
1.0
 40
1.0
 40
1.0
 10
2.822222
 20
110.0630490000000066
 30
0.0
 10
3.0597949999999998
 20
110.0630490000000066
 30
0.0
 10
3.249457
 20
110.1397850000000034
 30
0.0
 10
3.395486
 20
110.2923540000000031
 30
0.0
  0
SPLINE
  5
144
  8
Layer_1
 62
7
370
-1
  6
ByLayer
100
AcDbEntity
100
AcDbSpline
 70
8
 71
3
 72
8
 73
4
 74
0
 40
0.0
 40
0.0
 40
0.0
 40
0.0
 40
1.0
 40
1.0
 40
1.0
 40
1.0
 10
3.395486
 20
110.2923540000000031
 30
0.0
 10
3.5404270000000002
 20
110.4460129999999936
 30
0.0
 10
3.6159729999999999
 20
110.6513350000000031
 30
0.0
 10
3.6159720000000002
 20
110.900896000000003
 30
0.0
  0
SPLINE
  5
145
  8
Layer_1
 62
7
370
-1
  6
ByLayer
100
AcDbEntity
100
AcDbSpline
 70
8
 71
3
 72
8
 73
4
 74
0
 40
0.0
 40
0.0
 40
0.0
 40
0.0
 40
1.0
 40
1.0
 40
1.0
 40
1.0
 10
3.6159720000000002
 20
110.900896000000003
 30
0.0
 10
3.6159729999999999
 20
110.998974000000004
 30
0.0
 10
3.5991200000000001
 20
111.0903849999999977
 30
0.0
 10
3.5718749999999999
 20
111.1742990000000049
 30
0.0
  0
SPLINE
  5
146
  8
Layer_1
 62
7
370
-1
  6
ByLayer
100
AcDbEntity
100
AcDbSpline
 70
8
 71
3
 72
8
 73
4
 74
0
 40
0.0
 40
0.0
 40
0.0
 40
0.0
 40
1.0
 40
1.0
 40
1.0
 40
1.0
 10
3.5718749999999999
 20
111.1742990000000049
 30
0.0
 10
3.544632
 20
111.2582089999999937
 30
0.0
 10
3.5117120000000002
 20
111.338318000000001
 30
0.0
 10
3.4572219999999998
 20
111.4124240000000015
 30
0.0
  0
SPLINE
  5
147
  8
Layer_1
 62
7
370
-1
  6
ByLayer
100
AcDbEntity
100
AcDbSpline
 70
8
 71
3
 72
8
 73
4
 74
0
 40
0.0
 40
0.0
 40
0.0
 40
0.0
 40
1.0
 40
1.0
 40
1.0
 40
1.0
 10
3.4572219999999998
 20
111.4124240000000015
 30
0.0
 10
3.6621009999999998
 20
111.393895999999998
 30
0.0
 10
3.8112149999999998
 20
111.3318320000000057
 30
0.0
 10
3.9158330000000001
 20
111.2272150000000011
 30
0.0
  0
SPLINE
  5
148
  8
Layer_1
 62
7
370
-1
  6
ByLayer
100
AcDbEntity
100
AcDbSpline
 70
8
 71
3
 72
8
 73
4
 74
0
 40
0.0
 40
0.0
 40
0.0
 40
0.0
 40
1.0
 40
1.0
 40
1.0
 40
1.0
 10
3.9158330000000001
 20
111.2272150000000011
 30
0.0
 10
4.0193630000000002
 20
111.122595000000004
 30
0.0
 10
4.0745839999999998
 20
110.9736840000000058
 30
0.0
 10
4.0745829999999996
 20
110.7862429999999989
 30
0.0
  0
SPLINE
  5
149
  8
Layer_1
 62
7
370
-1
  6
ByLayer
100
AcDbEntity
100
AcDbSpline
 70
8
 71
3
 72
8
 73
4
 74
0
 40
0.0
 40
0.0
 40
0.0
 40
0.0
 40
1.0
 40
1.0
 40
1.0
 40
1.0
 10
4.0745829999999996
 20
110.7862429999999989
 30
0.0
 10
4.0745839999999998
 20
110.6968799999999931
 30
0.0
 10
4.0621910000000003
 20
110.6043820000000011
 30
0.0
 10
4.0393059999999998
 20
110.5128399999999971
 30
0.0
  0
SPLINE
  5
14A
  8
Layer_1
 62
7
370
-1
  6
ByLayer
100
AcDbEntity
100
AcDbSpline
 70
8
 71
3
 72
8
 73
4
 74
0
 40
0.0
 40
0.0
 40
0.0
 40
0.0
 40
1.0
 40
1.0
 40
1.0
 40
1.0
 10
4.0393059999999998
 20
110.5128399999999971
 30
0.0
 10
4.0153309999999998
 20
110.4212990000000048
 30
0.0
 10
3.9803329999999999
 20
110.330877000000001
 30
0.0
 10
3.9334720000000001
 20
110.2306180000000069
 30
0.0
  0
LWPOLYLINE
  5
14B
  8
Layer_1
 62
7
370
-1
  6
ByLayer
100
AcDbEntity
100
AcDbPolyline
 90
5
 70
0
 10
3.536597
 20
113.8465900000000062
 10
3.536597
 20
113.1851319999999959
 10
2.5664579999999999
 20
113.5202709999999939
 10
3.536597
 20
113.8465900000000062
 10
3.536597
 20
113.8465900000000062
  0
SPLINE
  5
14C
  8
Layer_1
 62
7
370
-1
  6
ByLayer
100
AcDbEntity
100
AcDbSpline
 70
8
 71
3
 72
8
 73
4
 74
0
 40
0.0
 40
0.0
 40
0.0
 40
0.0
 40
1.0
 40
1.0
 40
1.0
 40
1.0
 10
4.3832639999999996
 20
110.2306180000000069
 30
0.0
 10
4.4170470000000002
 20
110.330877000000001
 30
0.0
 10
4.4462919999999997
 20
110.4258590000000027
 30
0.0
 10
4.4626390000000002
 20
110.5304789999999997
 30
0.0
  0
SPLINE
  5
14D
  8
Layer_1
 62
7
370
-1
  6
ByLayer
100
AcDbEntity
100
AcDbSpline
 70
8
 71
3
 72
8
 73
4
 74
0
 40
0.0
 40
0.0
 40
0.0
 40
0.0
 40
1.0
 40
1.0
 40
1.0
 40
1.0
 10
4.4626390000000002
 20
110.5304789999999997
 30
0.0
 10
4.4800750000000003
 20
110.6350960000000043
 30
0.0
 10
4.4890970000000001
 20
110.7511910000000057
 30
0.0
 10
4.4890970000000001
 20
110.8656179999999978
 30
0.0
  0
SPLINE
  5
14E
  8
Layer_1
 62
7
370
-1
  6
ByLayer
100
AcDbEntity
100
AcDbSpline
 70
8
 71
3
 72
8
 73
4
 74
0
 40
0.0
 40
0.0
 40
0.0
 40
0.0
 40
1.0
 40
1.0
 40
1.0
 40
1.0
 10
4.4890970000000001
 20
110.8656179999999978
 30
0.0
 10
4.4890970000000001
 20
111.2208849999999956
 30
0.0
 10
4.366263
 20
111.4996749999999963
 30
0.0
 10
4.1363190000000003
 20
111.7034649999999942
 30
0.0
  0
SPLINE
  5
14F
  8
Layer_1
 62
7
370
-1
  6
ByLayer
100
AcDbEntity
100
AcDbSpline
 70
8
 71
3
 72
8
 73
4
 74
0
 40
0.0
 40
0.0
 40
0.0
 40
0.0
 40
1.0
 40
1.0
 40
1.0
 40
1.0
 10
4.1363190000000003
 20
111.7034649999999942
 30
0.0
 10
3.905287
 20
111.9072519999999997
 30
0.0
 10
3.5958570000000001
 20
112.0033240000000063
 30
0.0
 10
3.1926389999999998
 20
112.0033260000000013
 30
0.0
  0
LWPOLYLINE
  5
150
  8
Layer_1
 62
7
370
-1
  6
ByLayer
100
AcDbEntity
100
AcDbPolyline
 90
2
 70
0
 10
3.9334720000000001
 20
110.2306180000000069
 10
4.3832639999999996
 20
110.2306180000000069
  0
SPLINE
  5
151
  8
Layer_1
 62
7
370
-1
  6
ByLayer
100
AcDbEntity
100
AcDbSpline
 70
8
 71
3
 72
8
 73
4
 74
0
 40
0.0
 40
0.0
 40
0.0
 40
0.0
 40
1.0
 40
1.0
 40
1.0
 40
1.0
 10
2.7781250000000002
 20
111.3330490000000026
 30
0.0
 10
2.920887
 20
111.333045999999996
 30
0.0
 10
3.032521
 20
111.3092520000000007
 30
0.0
 10
3.104444
 20
111.2536740000000037
 30
0.0
  0
SPLINE
  5
152
  8
Layer_1
 62
7
370
-1
  6
ByLayer
100
AcDbEntity
100
AcDbSpline
 70
8
 71
3
 72
8
 73
4
 74
0
 40
0.0
 40
0.0
 40
0.0
 40
0.0
 40
1.0
 40
1.0
 40
1.0
 40
1.0
 10
3.104444
 20
111.2536740000000037
 30
0.0
 10
3.175281
 20
111.1980930000000001
 30
0.0
 10
3.2102789999999999
 20
111.1167959999999937
 30
0.0
 10
3.2102780000000002
 20
111.0067290000000071
 30
0.0
  0
SPLINE
  5
153
  8
Layer_1
 62
7
370
-1
  6
ByLayer
100
AcDbEntity
100
AcDbSpline
 70
8
 71
3
 72
8
 73
4
 74
0
 40
0.0
 40
0.0
 40
0.0
 40
0.0
 40
1.0
 40
1.0
 40
1.0
 40
1.0
 10
3.2102780000000002
 20
111.0067290000000071
 30
0.0
 10
3.2102789999999999
 20
110.8966599999999971
 30
0.0
 10
3.175281
 20
110.8065430000000049
 30
0.0
 10
3.104444
 20
110.7509649999999937
 30
0.0
  0
SPLINE
  5
154
  8
Layer_1
 62
7
370
-1
  6
ByLayer
100
AcDbEntity
100
AcDbSpline
 70
8
 71
3
 72
8
 73
4
 74
0
 40
0.0
 40
0.0
 40
0.0
 40
0.0
 40
1.0
 40
1.0
 40
1.0
 40
1.0
 10
3.104444
 20
110.7509649999999937
 30
0.0
 10
3.032521
 20
110.6953869999999966
 30
0.0
 10
2.920887
 20
110.6715899999999948
 30
0.0
 10
2.7781250000000002
 20
110.6715899999999948
 30
0.0
  0
SPLINE
  5
155
  8
Layer_1
 62
7
370
-1
  6
ByLayer
100
AcDbEntity
100
AcDbSpline
 70
8
 71
3
 72
8
 73
4
 74
0
 40
0.0
 40
0.0
 40
0.0
 40
0.0
 40
1.0
 40
1.0
 40
1.0
 40
1.0
 10
2.7781250000000002
 20
110.6715899999999948
 30
0.0
 10
2.6364559999999999
 20
110.6715899999999948
 30
0.0
 10
2.5325519999999999
 20
110.6953869999999966
 30
0.0
 10
2.4606249999999998
 20
110.7509649999999937
 30
0.0
  0
SPLINE
  5
156
  8
Layer_1
 62
7
370
-1
  6
ByLayer
100
AcDbEntity
100
AcDbSpline
 70
8
 71
3
 72
8
 73
4
 74
0
 40
0.0
 40
0.0
 40
0.0
 40
0.0
 40
1.0
 40
1.0
 40
1.0
 40
1.0
 10
2.4606249999999998
 20
110.7509649999999937
 30
0.0
 10
2.3887019999999999
 20
110.8065430000000049
 30
0.0
 10
2.3547940000000001
 20
110.8966599999999971
 30
0.0
 10
2.3547920000000002
 20
111.0067290000000071
 30
0.0
  0
SPLINE
  5
157
  8
Layer_1
 62
7
370
-1
  6
ByLayer
100
AcDbEntity
100
AcDbSpline
 70
8
 71
3
 72
8
 73
4
 74
0
 40
0.0
 40
0.0
 40
0.0
 40
0.0
 40
1.0
 40
1.0
 40
1.0
 40
1.0
 10
2.3547920000000002
 20
111.0067290000000071
 30
0.0
 10
2.3547940000000001
 20
111.1167959999999937
 30
0.0
 10
2.3887019999999999
 20
111.1980930000000001
 30
0.0
 10
2.4606249999999998
 20
111.2536740000000037
 30
0.0
  0
SPLINE
  5
158
  8
Layer_1
 62
7
370
-1
  6
ByLayer
100
AcDbEntity
100
AcDbSpline
 70
8
 71
3
 72
8
 73
4
 74
0
 40
0.0
 40
0.0
 40
0.0
 40
0.0
 40
1.0
 40
1.0
 40
1.0
 40
1.0
 10
2.4606249999999998
 20
111.2536740000000037
 30
0.0
 10
2.5325519999999999
 20
111.3092520000000007
 30
0.0
 10
2.6364559999999999
 20
111.333045999999996
 30
0.0
 10
2.7781250000000002
 20
111.3330490000000026
 30
0.0
  0
LWPOLYLINE
  5
159
  8
Layer_1
 62
7
370
-1
  6
ByLayer
100
AcDbEntity
100
AcDbPolyline
 90
2
 70
0
 10
3.1926389999999998
 20
112.0033260000000013
 10
3.1926389999999998
 20
112.0033260000000013
  0
SPLINE
  5
15A
  8
Layer_1
 62
7
370
-1
  6
ByLayer
100
AcDbEntity
100
AcDbSpline
 70
8
 71
3
 72
8
 73
4
 74
0
 40
0.0
 40
0.0
 40
0.0
 40
0.0
 40
1.0
 40
1.0
 40
1.0
 40
1.0
 10
3.2190970000000001
 20
108.5549239999999998
 30
0.0
 10
3.0371060000000001
 20
108.5549209999999931
 30
0.0
 10
2.8690600000000002
 20
108.5223040000000054
 30
0.0
 10
2.7252079999999999
 20
108.4667290000000008
 30
0.0
  0
SPLINE
  5
15B
  8
Layer_1
 62
7
370
-1
  6
ByLayer
100
AcDbEntity
100
AcDbSpline
 70
8
 71
3
 72
8
 73
4
 74
0
 40
0.0
 40
0.0
 40
0.0
 40
0.0
 40
1.0
 40
1.0
 40
1.0
 40
1.0
 10
2.7252079999999999
 20
108.4667290000000008
 30
0.0
 10
2.5813600000000001
 20
108.4111479999999972
 30
0.0
 10
2.4560420000000001
 20
108.3253890000000013
 30
0.0
 10
2.3459720000000002
 20
108.2109650000000016
 30
0.0
  0
SPLINE
  5
15C
  8
Layer_1
 62
7
370
-1
  6
ByLayer
100
AcDbEntity
100
AcDbSpline
 70
8
 71
3
 72
8
 73
4
 74
0
 40
0.0
 40
0.0
 40
0.0
 40
0.0
 40
1.0
 40
1.0
 40
1.0
 40
1.0
 10
2.3459720000000002
 20
108.2109650000000016
 30
0.0
 10
2.21956
 20
108.0812779999999975
 30
0.0
 10
2.1337000000000002
 20
107.925526000000005
 30
0.0
 10
2.0813890000000002
 20
107.7435349999999943
 30
0.0
  0
SPLINE
  5
15D
  8
Layer_1
 62
7
370
-1
  6
ByLayer
100
AcDbEntity
100
AcDbSpline
 70
8
 71
3
 72
8
 73
4
 74
0
 40
0.0
 40
0.0
 40
0.0
 40
0.0
 40
1.0
 40
1.0
 40
1.0
 40
1.0
 10
2.0813890000000002
 20
107.7435349999999943
 30
0.0
 10
2.0279919999999998
 20
107.5626299999999986
 30
0.0
 10
1.9931970000000001
 20
107.2938500000000062
 30
0.0
 10
1.9931939999999999
 20
106.923326000000003
 30
0.0
  0
LWPOLYLINE
  5
15E
  8
Layer_1
 62
7
370
-1
  6
ByLayer
100
AcDbEntity
100
AcDbPolyline
 90
2
 70
0
 10
2.7781250000000002
 20
111.3330490000000026
 10
2.7781250000000002
 20
111.3330490000000026
  0
SPLINE
  5
15F
  8
Layer_1
 62
7
370
-1
  6
ByLayer
100
AcDbEntity
100
AcDbSpline
 70
8
 71
3
 72
8
 73
4
 74
0
 40
0.0
 40
0.0
 40
0.0
 40
0.0
 40
1.0
 40
1.0
 40
1.0
 40
1.0
 10
4.4361810000000004
 20
106.923326000000003
 30
0.0
 10
4.4361810000000004
 20
107.2894900000000007
 30
0.0
 10
4.4091149999999999
 20
107.5604510000000005
 30
0.0
 10
4.3568059999999997
 20
107.7435349999999943
 30
0.0
  0
SPLINE
  5
160
  8
Layer_1
 62
7
370
-1
  6
ByLayer
100
AcDbEntity
100
AcDbSpline
 70
8
 71
3
 72
8
 73
4
 74
0
 40
0.0
 40
0.0
 40
0.0
 40
0.0
 40
1.0
 40
1.0
 40
1.0
 40
1.0
 10
4.3568059999999997
 20
107.7435349999999943
 30
0.0
 10
4.303407
 20
107.9266149999999982
 30
0.0
 10
4.2186370000000002
 20
108.0801890000000043
 30
0.0
 10
4.0922219999999996
 20
108.2109650000000016
 30
0.0
  0
SPLINE
  5
161
  8
Layer_1
 62
7
370
-1
  6
ByLayer
100
AcDbEntity
100
AcDbSpline
 70
8
 71
3
 72
8
 73
4
 74
0
 40
0.0
 40
0.0
 40
0.0
 40
0.0
 40
1.0
 40
1.0
 40
1.0
 40
1.0
 10
4.0922219999999996
 20
108.2109650000000016
 30
0.0
 10
3.9821550000000001
 20
108.3253890000000013
 30
0.0
 10
3.8480180000000002
 20
108.4111479999999972
 30
0.0
 10
3.704167
 20
108.4667290000000008
 30
0.0
  0
SPLINE
  5
162
  8
Layer_1
 62
7
370
-1
  6
ByLayer
100
AcDbEntity
100
AcDbSpline
 70
8
 71
3
 72
8
 73
4
 74
0
 40
0.0
 40
0.0
 40
0.0
 40
0.0
 40
1.0
 40
1.0
 40
1.0
 40
1.0
 10
3.704167
 20
108.4667290000000008
 30
0.0
 10
3.5592269999999999
 20
108.5223040000000054
 30
0.0
 10
3.4032710000000002
 20
108.5549209999999931
 30
0.0
 10
3.2190970000000001
 20
108.5549239999999998
 30
0.0
  0
LWPOLYLINE
  5
163
  8
Layer_1
 62
7
370
-1
  6
ByLayer
100
AcDbEntity
100
AcDbPolyline
 90
4
 70
0
 10
1.9931939999999999
 20
106.923326000000003
 10
1.9931939999999999
 20
106.2530490000000043
 10
4.4361810000000004
 20
106.2530490000000043
 10
4.4361810000000004
 20
106.923326000000003
  0
SPLINE
  5
164
  8
Layer_1
 62
7
370
-1
  6
ByLayer
100
AcDbEntity
100
AcDbSpline
 70
8
 71
3
 72
8
 73
4
 74
0
 40
0.0
 40
0.0
 40
0.0
 40
0.0
 40
1.0
 40
1.0
 40
1.0
 40
1.0
 10
3.2190970000000001
 20
107.9022850000000062
 30
0.0
 10
3.4621179999999998
 20
107.9022819999999996
 30
0.0
 10
3.6472190000000002
 20
107.8356579999999951
 30
0.0
 10
3.7747220000000001
 20
107.6994370000000032
 30
0.0
  0
SPLINE
  5
165
  8
Layer_1
 62
7
370
-1
  6
ByLayer
100
AcDbEntity
100
AcDbSpline
 70
8
 71
3
 72
8
 73
4
 74
0
 40
0.0
 40
0.0
 40
0.0
 40
0.0
 40
1.0
 40
1.0
 40
1.0
 40
1.0
 10
3.7747220000000001
 20
107.6994370000000032
 30
0.0
 10
3.9022269999999999
 20
107.564304000000007
 30
0.0
 10
3.9599310000000001
 20
107.3657209999999935
 30
0.0
 10
3.9599310000000001
 20
107.1085350000000034
 30
0.0
  0
LWPOLYLINE
  5
166
  8
Layer_1
 62
7
370
-1
  6
ByLayer
100
AcDbEntity
100
AcDbPolyline
 90
2
 70
0
 10
3.2190970000000001
 20
108.5549239999999998
 10
3.2190970000000001
 20
108.5549239999999998
  0
SPLINE
  5
167
  8
Layer_1
 62
7
370
-1
  6
ByLayer
100
AcDbEntity
100
AcDbSpline
 70
8
 71
3
 72
8
 73
4
 74
0
 40
0.0
 40
0.0
 40
0.0
 40
0.0
 40
1.0
 40
1.0
 40
1.0
 40
1.0
 10
2.4694440000000002
 20
107.1085350000000034
 30
0.0
 10
2.469446
 20
107.366810000000001
 30
0.0
 10
2.5370599999999999
 20
107.564304000000007
 30
0.0
 10
2.6634720000000001
 20
107.6994370000000032
 30
0.0
  0
SPLINE
  5
168
  8
Layer_1
 62
7
370
-1
  6
ByLayer
100
AcDbEntity
100
AcDbSpline
 70
8
 71
3
 72
8
 73
4
 74
0
 40
0.0
 40
0.0
 40
0.0
 40
0.0
 40
1.0
 40
1.0
 40
1.0
 40
1.0
 10
2.6634720000000001
 20
107.6994370000000032
 30
0.0
 10
2.7898879999999999
 20
107.8345680000000044
 30
0.0
 10
2.9771679999999998
 20
107.9022819999999996
 30
0.0
 10
3.2190970000000001
 20
107.9022850000000062
 30
0.0
  0
LWPOLYLINE
  5
169
  8
Layer_1
 62
7
370
-1
  6
ByLayer
100
AcDbEntity
100
AcDbPolyline
 90
4
 70
0
 10
3.9599310000000001
 20
107.1085350000000034
 10
3.9599310000000001
 20
106.8880489999999952
 10
2.4694440000000002
 20
106.8880489999999952
 10
2.4694440000000002
 20
107.1085350000000034
  0
LWPOLYLINE
  5
16A
  8
Layer_1
 62
7
370
-1
  6
ByLayer
100
AcDbEntity
100
AcDbPolyline
 90
2
 70
0
 10
3.2190970000000001
 20
107.9022850000000062
 10
3.2190970000000001
 20
107.9022850000000062
  0
SPLINE
  5
16B
  8
Layer_1
 62
7
370
-1
  6
ByLayer
100
AcDbEntity
100
AcDbSpline
 70
8
 71
3
 72
8
 73
4
 74
0
 40
0.0
 40
0.0
 40
0.0
 40
0.0
 40
1.0
 40
1.0
 40
1.0
 40
1.0
 10
3.7394440000000002
 20
103.4308259999999962
 30
0.0
 10
3.5857869999999998
 20
103.4308240000000012
 30
0.0
 10
3.4570979999999998
 20
103.3902769999999975
 30
0.0
 10
3.3513890000000002
 20
103.3161740000000037
 30
0.0
  0
SPLINE
  5
16C
  8
Layer_1
 62
7
370
-1
  6
ByLayer
100
AcDbEntity
100
AcDbSpline
 70
8
 71
3
 72
8
 73
4
 74
0
 40
0.0
 40
0.0
 40
0.0
 40
0.0
 40
1.0
 40
1.0
 40
1.0
 40
1.0
 10
3.3513890000000002
 20
103.3161740000000037
 30
0.0
 10
3.245682
 20
103.2420680000000033
 30
0.0
 10
3.1701359999999998
 20
103.1338039999999978
 30
0.0
 10
3.130903
 20
102.9986739999999941
 30
0.0
  0
SPLINE
  5
16D
  8
Layer_1
 62
7
370
-1
  6
ByLayer
100
AcDbEntity
100
AcDbSpline
 70
8
 71
3
 72
8
 73
4
 74
0
 40
0.0
 40
0.0
 40
0.0
 40
0.0
 40
1.0
 40
1.0
 40
1.0
 40
1.0
 10
3.130903
 20
102.9986739999999941
 30
0.0
 10
3.0905819999999999
 20
103.1043800000000061
 30
0.0
 10
3.0285190000000002
 20
103.1900370000000038
 30
0.0
 10
2.945694
 20
103.2456179999999932
 30
0.0
  0
SPLINE
  5
16E
  8
Layer_1
 62
7
370
-1
  6
ByLayer
100
AcDbEntity
100
AcDbSpline
 70
8
 71
3
 72
8
 73
4
 74
0
 40
0.0
 40
0.0
 40
0.0
 40
0.0
 40
1.0
 40
1.0
 40
1.0
 40
1.0
 10
2.945694
 20
103.2456179999999932
 30
0.0
 10
2.861783
 20
103.3011929999999978
 30
0.0
 10
2.764621
 20
103.3249899999999997
 30
0.0
 10
2.6458330000000001
 20
103.3249930000000063
 30
0.0
  0
SPLINE
  5
16F
  8
Layer_1
 62
7
370
-1
  6
ByLayer
100
AcDbEntity
100
AcDbSpline
 70
8
 71
3
 72
8
 73
4
 74
0
 40
0.0
 40
0.0
 40
0.0
 40
0.0
 40
1.0
 40
1.0
 40
1.0
 40
1.0
 10
2.6458330000000001
 20
103.3249930000000063
 30
0.0
 10
2.4202520000000001
 20
103.3249899999999997
 30
0.0
 10
2.2543859999999998
 20
103.2482540000000029
 30
0.0
 10
2.1519439999999999
 20
103.0956869999999981
 30
0.0
  0
SPLINE
  5
170
  8
Layer_1
 62
7
370
-1
  6
ByLayer
100
AcDbEntity
100
AcDbSpline
 70
8
 71
3
 72
8
 73
4
 74
0
 40
0.0
 40
0.0
 40
0.0
 40
0.0
 40
1.0
 40
1.0
 40
1.0
 40
1.0
 10
2.1519439999999999
 20
103.0956869999999981
 30
0.0
 10
2.0495079999999999
 20
102.9442080000000033
 30
0.0
 10
1.9931970000000001
 20
102.7025909999999982
 30
0.0
 10
1.9931939999999999
 20
102.3636740000000032
 30
0.0
  0
LWPOLYLINE
  5
171
  8
Layer_1
 62
7
370
-1
  6
ByLayer
100
AcDbEntity
100
AcDbPolyline
 90
14
 70
0
 10
3.9599310000000001
 20
105.7062430000000006
 10
3.9599310000000001
 20
104.5949930000000023
 10
3.4043060000000001
 20
104.5949930000000023
 10
3.4043060000000001
 20
105.6004099999999966
 10
2.9280560000000002
 20
105.6004099999999966
 10
2.9280560000000002
 20
104.5949930000000023
 10
2.4694440000000002
 20
104.5949930000000023
 10
2.4694440000000002
 20
105.662146000000007
 10
1.9931939999999999
 20
105.662146000000007
 10
1.9931939999999999
 20
103.9688119999999998
 10
4.4361810000000004
 20
103.9688119999999998
 10
4.4361810000000004
 20
105.7062430000000006
 10
3.9599310000000001
 20
105.7062430000000006
 10
3.9599310000000001
 20
105.7062430000000006
  0
SPLINE
  5
172
  8
Layer_1
 62
7
370
-1
  6
ByLayer
100
AcDbEntity
100
AcDbSpline
 70
8
 71
3
 72
8
 73
4
 74
0
 40
0.0
 40
0.0
 40
0.0
 40
0.0
 40
1.0
 40
1.0
 40
1.0
 40
1.0
 10
4.4361810000000004
 20
102.460686999999993
 30
0.0
 10
4.4361810000000004
 20
102.7854410000000058
 30
0.0
 10
4.3753080000000004
 20
103.0247729999999962
 30
0.0
 10
4.259792
 20
103.183881999999997
 30
0.0
  0
SPLINE
  5
173
  8
Layer_1
 62
7
370
-1
  6
ByLayer
100
AcDbEntity
100
AcDbSpline
 70
8
 71
3
 72
8
 73
4
 74
0
 40
0.0
 40
0.0
 40
0.0
 40
0.0
 40
1.0
 40
1.0
 40
1.0
 40
1.0
 10
4.259792
 20
103.183881999999997
 30
0.0
 10
4.1442759999999996
 20
103.3429880000000054
 30
0.0
 10
3.974837
 20
103.4308240000000012
 30
0.0
 10
3.7394440000000002
 20
103.4308259999999962
 30
0.0
  0
LWPOLYLINE
  5
174
  8
Layer_1
 62
7
370
-1
  6
ByLayer
100
AcDbEntity
100
AcDbPolyline
 90
4
 70
0
 10
1.9931939999999999
 20
102.3636740000000032
 10
1.9931939999999999
 20
101.4199930000000052
 10
4.4361810000000004
 20
101.4199930000000052
 10
4.4361810000000004
 20
102.460686999999993
  0
SPLINE
  5
175
  8
Layer_1
 62
7
370
-1
  6
ByLayer
100
AcDbEntity
100
AcDbSpline
 70
8
 71
3
 72
8
 73
4
 74
0
 40
0.0
 40
0.0
 40
0.0
 40
0.0
 40
1.0
 40
1.0
 40
1.0
 40
1.0
 10
3.686528
 20
102.7958260000000053
 30
0.0
 10
3.794416
 20
102.7958239999999961
 30
0.0
 10
3.880074
 20
102.7631080000000026
 30
0.0
 10
3.9334720000000001
 20
102.6988120000000038
 30
0.0
  0
SPLINE
  5
176
  8
Layer_1
 62
7
370
-1
  6
ByLayer
100
AcDbEntity
100
AcDbSpline
 70
8
 71
3
 72
8
 73
4
 74
0
 40
0.0
 40
0.0
 40
0.0
 40
0.0
 40
1.0
 40
1.0
 40
1.0
 40
1.0
 10
3.9334720000000001
 20
102.6988120000000038
 30
0.0
 10
3.986872
 20
102.6356030000000032
 30
0.0
 10
4.012848
 20
102.5430029999999988
 30
0.0
 10
4.0128469999999998
 20
102.4165899999999993
 30
0.0
  0
LWPOLYLINE
  5
177
  8
Layer_1
 62
7
370
-1
  6
ByLayer
100
AcDbEntity
100
AcDbPolyline
 90
2
 70
0
 10
3.7394440000000002
 20
103.4308259999999962
 10
3.7394440000000002
 20
103.4308259999999962
  0
SPLINE
  5
178
  8
Layer_1
 62
7
370
-1
  6
ByLayer
100
AcDbEntity
100
AcDbSpline
 70
8
 71
3
 72
8
 73
4
 74
0
 40
0.0
 40
0.0
 40
0.0
 40
0.0
 40
1.0
 40
1.0
 40
1.0
 40
1.0
 10
3.3690280000000001
 20
102.4165899999999993
 30
0.0
 10
3.3690289999999998
 20
102.5440930000000037
 30
0.0
 10
3.3950049999999998
 20
102.6356030000000032
 30
0.0
 10
3.4484029999999999
 20
102.6988120000000038
 30
0.0
  0
SPLINE
  5
179
  8
Layer_1
 62
7
370
-1
  6
ByLayer
100
AcDbEntity
100
AcDbSpline
 70
8
 71
3
 72
8
 73
4
 74
0
 40
0.0
 40
0.0
 40
0.0
 40
0.0
 40
1.0
 40
1.0
 40
1.0
 40
1.0
 10
3.4484029999999999
 20
102.6988120000000038
 30
0.0
 10
3.5007130000000002
 20
102.7620189999999951
 30
0.0
 10
3.5808200000000001
 20
102.7958239999999961
 30
0.0
 10
3.686528
 20
102.7958260000000053
 30
0.0
  0
LWPOLYLINE
  5
17A
  8
Layer_1
 62
7
370
-1
  6
ByLayer
100
AcDbEntity
100
AcDbPolyline
 90
4
 70
0
 10
4.0128469999999998
 20
102.4165899999999993
 10
4.0128469999999998
 20
102.0461739999999935
 10
3.3690280000000001
 20
102.0461739999999935
 10
3.3690280000000001
 20
102.4165899999999993
  0
SPLINE
  5
17B
  8
Layer_1
 62
7
370
-1
  6
ByLayer
100
AcDbEntity
100
AcDbSpline
 70
8
 71
3
 72
8
 73
4
 74
0
 40
0.0
 40
0.0
 40
0.0
 40
0.0
 40
1.0
 40
1.0
 40
1.0
 40
1.0
 10
2.681111
 20
102.6988120000000038
 30
0.0
 10
2.7661150000000001
 20
102.6988099999999946
 30
0.0
 10
2.8315489999999999
 20
102.6706549999999964
 30
0.0
 10
2.8751389999999999
 20
102.6194370000000049
 30
0.0
  0
SPLINE
  5
17C
  8
Layer_1
 62
7
370
-1
  6
ByLayer
100
AcDbEntity
100
AcDbSpline
 70
8
 71
3
 72
8
 73
4
 74
0
 40
0.0
 40
0.0
 40
0.0
 40
0.0
 40
1.0
 40
1.0
 40
1.0
 40
1.0
 10
2.8751389999999999
 20
102.6194370000000049
 30
0.0
 10
2.9187310000000002
 20
102.5682170000000042
 30
0.0
 10
2.9456959999999999
 20
102.4981190000000026
 30
0.0
 10
2.945694
 20
102.3989509999999967
 30
0.0
  0
LWPOLYLINE
  5
17D
  8
Layer_1
 62
7
370
-1
  6
ByLayer
100
AcDbEntity
100
AcDbPolyline
 90
2
 70
0
 10
3.686528
 20
102.7958260000000053
 10
3.686528
 20
102.7958260000000053
  0
SPLINE
  5
17E
  8
Layer_1
 62
7
370
-1
  6
ByLayer
100
AcDbEntity
100
AcDbSpline
 70
8
 71
3
 72
8
 73
4
 74
0
 40
0.0
 40
0.0
 40
0.0
 40
0.0
 40
1.0
 40
1.0
 40
1.0
 40
1.0
 10
2.4253469999999999
 20
102.3989509999999967
 30
0.0
 10
2.4253490000000002
 20
102.4981190000000026
 30
0.0
 10
2.4512239999999998
 20
102.5682170000000042
 30
0.0
 10
2.4959030000000002
 20
102.6194370000000049
 30
0.0
  0
SPLINE
  5
17F
  8
Layer_1
 62
7
370
-1
  6
ByLayer
100
AcDbEntity
100
AcDbSpline
 70
8
 71
3
 72
8
 73
4
 74
0
 40
0.0
 40
0.0
 40
0.0
 40
0.0
 40
1.0
 40
1.0
 40
1.0
 40
1.0
 10
2.4959030000000002
 20
102.6194370000000049
 30
0.0
 10
2.5394960000000002
 20
102.6706549999999964
 30
0.0
 10
2.5972
 20
102.6988099999999946
 30
0.0
 10
2.681111
 20
102.6988120000000038
 30
0.0
  0
LWPOLYLINE
  5
180
  8
Layer_1
 62
7
370
-1
  6
ByLayer
100
AcDbEntity
100
AcDbPolyline
 90
4
 70
0
 10
2.945694
 20
102.3989509999999967
 10
2.945694
 20
102.0461739999999935
 10
2.4253469999999999
 20
102.0461739999999935
 10
2.4253469999999999
 20
102.3989509999999967
  0
LWPOLYLINE
  5
181
  8
Layer_1
 62
7
370
-1
  6
ByLayer
100
AcDbEntity
100
AcDbPolyline
 90
2
 70
0
 10
2.681111
 20
102.6988120000000038
 10
2.681111
 20
102.6988120000000038
  0
LWPOLYLINE
  5
182
  8
Layer_1
 62
7
370
-1
  6
ByLayer
100
AcDbEntity
100
AcDbPolyline
 90
10
 70
0
 10
1.9931939999999999
 20
101.0936739999999929
 10
1.9931939999999999
 20
98.8447149999999937
 10
2.4694440000000002
 20
98.8447149999999937
 10
2.4694440000000002
 20
99.6561039999999991
 10
4.4361810000000004
 20
99.6561039999999991
 10
4.4361810000000004
 20
100.2822850000000017
 10
2.4694440000000002
 20
100.2822850000000017
 10
2.4694440000000002
 20
101.0936739999999929
 10
1.9931939999999999
 20
101.0936739999999929
 10
1.9931939999999999
 20
101.0936739999999929
  0
LWPOLYLINE
  5
183
  8
Layer_1
 62
7
370
-1
  6
ByLayer
100
AcDbEntity
100
AcDbPolyline
 90
10
 70
0
 10
4.4361810000000004
 20
99.0740210000000019
 10
1.9931939999999999
 20
98.1744369999999975
 10
1.9931939999999999
 20
97.424785
 10
4.4361810000000004
 20
96.516381999999993
 10
4.4361810000000004
 20
97.1513819999999981
 10
3.9952079999999999
 20
97.3013119999999958
 10
3.9952079999999999
 20
98.2890900000000016
 10
4.4361810000000004
 20
98.4390209999999968
 10
4.4361810000000004
 20
99.0740210000000019
 10
4.4361810000000004
 20
99.0740210000000019
  0
LWPOLYLINE
  5
184
  8
Layer_1
 62
7
370
-1
  6
ByLayer
100
AcDbEntity
100
AcDbPolyline
 90
5
 70
0
 10
3.536597
 20
98.1303400000000039
 10
3.536597
 20
97.4600619999999935
 10
2.5664579999999999
 20
97.7952010000000058
 10
3.536597
 20
98.1303400000000039
 10
3.536597
 20
98.1303400000000039
  0
LWPOLYLINE
  5
185
  8
Layer_1
 62
7
370
-1
  6
ByLayer
100
AcDbEntity
100
AcDbPolyline
 90
14
 70
0
 10
3.9599310000000001
 20
96.2517990000000054
 10
3.9599310000000001
 20
95.1493679999999955
 10
3.4043060000000001
 20
95.1493679999999955
 10
3.4043060000000001
 20
96.1547850000000039
 10
2.9280560000000002
 20
96.1547850000000039
 10
2.9280560000000002
 20
95.1493679999999955
 10
2.4694440000000002
 20
95.1493679999999955
 10
2.4694440000000002
 20
96.2165210000000002
 10
1.9931939999999999
 20
96.2165210000000002
 10
1.9931939999999999
 20
94.523186999999993
 10
4.4361810000000004
 20
94.523186999999993
 10
4.4361810000000004
 20
96.2517990000000054
 10
3.9599310000000001
 20
96.2517990000000054
 10
3.9599310000000001
 20
96.2517990000000054
  0
LWPOLYLINE
  5
186
  8
Layer_1
 62
7
370
-1
  6
ByLayer
100
AcDbEntity
100
AcDbPolyline
 90
14
 70
0
 10
1.9931939999999999
 20
93.9058260000000047
 10
1.9931939999999999
 20
93.2708259999999996
 10
2.9280560000000002
 20
93.2708259999999996
 10
2.9280560000000002
 20
92.3447850000000017
 10
1.9931939999999999
 20
92.3447850000000017
 10
1.9931939999999999
 20
91.7186039999999991
 10
4.4361810000000004
 20
91.7186039999999991
 10
4.4361810000000004
 20
92.3447850000000017
 10
3.4043060000000001
 20
92.3447850000000017
 10
3.4043060000000001
 20
93.2708259999999996
 10
4.4361810000000004
 20
93.2708259999999996
 10
4.4361810000000004
 20
93.9058260000000047
 10
1.9931939999999999
 20
93.9058260000000047
 10
1.9931939999999999
 20
93.9058260000000047
  0
ENDSEC
  0
SECTION
  2
OBJECTS
  0
DICTIONARY
  5
C
100
AcDbDictionary
280
0
281
1
  3
ACAD_GROUP
350
D
  3
ACAD_LAYOUT
350
1A
  3
ACAD_MLINESTYLE
350
17
  3
ACAD_PLOTSETTINGS
350
19
  3
ACAD_PLOTSTYLENAME
350
E
  3
AcDbVariableDictionary
350
187
  0
DICTIONARY
  5
D
100
AcDbDictionary
280
0
281
1
  0
ACDBDICTIONARYWDFLT
  5
E
100
AcDbDictionary
281
1
  3
Normal
350
F
100
AcDbDictionaryWithDefault
340
F
  0
ACDBPLACEHOLDER
  5
F
  0
DICTIONARY
  5
17
100
AcDbDictionary
280
0
281
1
  3
Standard
350
18
  0
MLINESTYLE
  5
18
100
AcDbMlineStyle
  2
STANDARD
 70
0
  3

 62
256
 51
90.0
 52
90.0
 71
2
 49
0.5
 62
256
  6
BYLAYER
 49
-0.5
 62
256
  6
BYLAYER
  0
DICTIONARY
  5
19
100
AcDbDictionary
280
0
281
1
  0
DICTIONARY
  5
1A
100
AcDbDictionary
281
1
  3
Layout1
350
1E
  3
Layout2
350
26
  3
Model
350
22
  0
LAYOUT
  5
1E
100
AcDbPlotSettings
  1

  2
C:\Program Files\AutoCAD 2002\plotters\DWF ePlot (optimized for plotting).pc3
  4

  6

 40
0.0
 41
0.0
 42
0.0
 43
0.0
 44
0.0
 45
0.0
 46
0.0
 47
0.0
 48
0.0
 49
0.0
140
0.0
141
0.0
142
1.0
143
1.0
 70
688
 72
0
 73
0
 74
5
  7

 75
16
147
1.0
148
0.0
149
0.0
100
AcDbLayout
  1
Layout1
 70
1
 71
1
 10
0.0
 20
0.0
 11
420.0
 21
297.0
 12
0.0
 22
0.0
 32
0.0
 14
100000000000000000000.0
 24
100000000000000000000.0
 34
100000000000000000000.0
 15
-100000000000000000000.0
 25
-100000000000000000000.0
 35
-100000000000000000000.0
146
0.0
 13
0.0
 23
0.0
 33
0.0
 16
1.0
 26
0.0
 36
0.0
 17
0.0
 27
1.0
 37
0.0
 76
0
330
1B
  0
LAYOUT
  5
22
100
AcDbPlotSettings
  1

  2
C:\Program Files\AutoCAD 2002\plotters\DWF ePlot (optimized for plotting).pc3
  4

  6

 40
0.0
 41
0.0
 42
0.0
 43
0.0
 44
0.0
 45
0.0
 46
0.0
 47
0.0
 48
0.0
 49
0.0
140
0.0
141
0.0
142
1.0
143
1.0
 70
1712
 72
0
 73
0
 74
0
  7

 75
0
147
1.0
148
0.0
149
0.0
100
AcDbLayout
  1
Model
 70
1
 71
0
 10
0.0
 20
0.0
 11
12.0
 21
9.0
 12
0.0
 22
0.0
 32
0.0
 14
0.0
 24
0.0
 34
0.0
 15
0.0
 25
0.0
 35
0.0
146
0.0
 13
0.0
 23
0.0
 33
0.0
 16
1.0
 26
0.0
 36
0.0
 17
0.0
 27
1.0
 37
0.0
 76
0
330
1F
  0
LAYOUT
  5
26
100
AcDbPlotSettings
  1

  2
C:\Program Files\AutoCAD 2002\plotters\DWF ePlot (optimized for plotting).pc3
  4

  6

 40
0.0
 41
0.0
 42
0.0
 43
0.0
 44
0.0
 45
0.0
 46
0.0
 47
0.0
 48
0.0
 49
0.0
140
0.0
141
0.0
142
1.0
143
1.0
 70
688
 72
0
 73
0
 74
5
  7

 75
16
147
1.0
148
0.0
149
0.0
100
AcDbLayout
  1
Layout2
 70
1
 71
2
 10
0.0
 20
0.0
 11
12.0
 21
9.0
 12
0.0
 22
0.0
 32
0.0
 14
0.0
 24
0.0
 34
0.0
 15
0.0
 25
0.0
 35
0.0
146
0.0
 13
0.0
 23
0.0
 33
0.0
 16
1.0
 26
0.0
 36
0.0
 17
0.0
 27
1.0
 37
0.0
 76
0
330
23
  0
DICTIONARY
  5
187
100
AcDbDictionary
281
1
  3
DIMASSOC
350
189
  3
HIDETEXT
350
188
  0
DICTIONARYVAR
  5
188
100
DictionaryVariables
280
0
  1
2
  0
DICTIONARYVAR
  5
189
100
DictionaryVariables
280
0
  1
1
  0
ENDSEC
  0
EOF
