<?xml version="1.0" encoding="UTF-8" standalone="no"?>
<!-- Created with Inkscape (http://www.inkscape.org/) -->

<svg
   xmlns:dc="http://purl.org/dc/elements/1.1/"
   xmlns:cc="http://creativecommons.org/ns#"
   xmlns:rdf="http://www.w3.org/1999/02/22-rdf-syntax-ns#"
   xmlns:svg="http://www.w3.org/2000/svg"
   xmlns="http://www.w3.org/2000/svg"
   xmlns:sodipodi="http://sodipodi.sourceforge.net/DTD/sodipodi-0.dtd"
   xmlns:inkscape="http://www.inkscape.org/namespaces/inkscape"
   width="531.49603"
   height="602.36218"
   id="svg2"
   version="1.1"
   inkscape:version="0.48.2 r9819"
   sodipodi:docname="heatbed_17x15cm_merged.dxf">
  <defs
     id="defs4" />
  <sodipodi:namedview
     id="base"
     pagecolor="#ffffff"
     bordercolor="#666666"
     borderopacity="1.0"
     inkscape:pageopacity="0.0"
     inkscape:pageshadow="2"
     inkscape:zoom="0.5"
     inkscape:cx="63.325247"
     inkscape:cy="110.6448"
     inkscape:document-units="mm"
     inkscape:current-layer="layer1"
     showgrid="false"
     units="mm"
     showguides="true"
     inkscape:guide-bbox="true"
     inkscape:window-width="1280"
     inkscape:window-height="950"
     inkscape:window-x="0"
     inkscape:window-y="24"
     inkscape:window-maximized="1" />
  <metadata
     id="metadata7">
    <rdf:RDF>
      <cc:Work
         rdf:about="">
        <dc:format>image/svg+xml</dc:format>
        <dc:type
           rdf:resource="http://purl.org/dc/dcmitype/StillImage" />
        <dc:title></dc:title>
      </cc:Work>
    </rdf:RDF>
  </metadata>
  <g
     inkscape:label="Layer 1"
     inkscape:groupmode="layer"
     id="layer1"
     transform="translate(0,-450)"
     style="display:inline;opacity:1">
    <path
       style="fill:#000000;stroke:none"
       d="M 519.625 8.53125 C 519.41725 8.53125 519.20219 8.5420889 519 8.5625 L 27.75 8.5625 L 22.4375 8.5625 L 22.4375 13.78125 L 22.4375 14.9375 L 22.4375 20.15625 L 27.75 20.15625 L 503.75 20.15625 L 503.75 21.3125 L 27.75 21.3125 L 22.4375 21.3125 L 22.4375 26.53125 L 22.4375 32.90625 L 27.75 32.90625 L 503.75 32.90625 L 503.75 34.0625 L 27.75 34.0625 L 22.4375 34.0625 L 22.4375 39.28125 L 22.4375 45.6875 L 27.75 45.6875 L 503.75 45.6875 L 503.75 46.8125 L 27.75 46.8125 L 22.4375 46.8125 L 22.4375 52.0625 L 22.4375 58.4375 L 27.75 58.4375 L 503.75 58.4375 L 503.75 59.5625 L 27.75 59.5625 L 22.4375 59.5625 L 22.4375 64.8125 L 22.4375 71.1875 L 27.75 71.1875 L 503.75 71.1875 L 503.75 72.3125 L 27.75 72.3125 L 22.4375 72.3125 L 22.4375 77.5625 L 22.4375 83.9375 L 27.75 83.9375 L 503.75 83.9375 L 503.75 85.09375 L 27.75 85.09375 L 22.4375 85.09375 L 22.4375 90.3125 L 22.4375 96.6875 L 27.75 96.6875 L 503.75 96.6875 L 503.75 97.84375 L 27.75 97.84375 L 22.4375 97.84375 L 22.4375 103.0625 L 22.4375 104.21875 L 22.4375 109.4375 L 22.4375 109.46875 L 27.75 109.46875 L 27.75 109.4375 L 503.75 109.4375 L 503.75 110.59375 L 27.75 110.59375 L 22.4375 110.59375 L 22.4375 115.84375 L 22.4375 116.90625 L 22.4375 122.125 L 22.4375 122.21875 L 27.75 122.21875 L 27.75 122.125 L 503.75 122.125 L 503.75 123.28125 L 22.4375 123.28125 L 22.4375 128.5 L 22.4375 129.65625 L 22.4375 134.875 L 22.4375 134.96875 L 27.75 134.96875 L 27.75 134.875 L 503.75 134.875 L 503.75 136.03125 L 22.4375 136.03125 L 22.4375 141.25 L 22.4375 142.40625 L 22.4375 147.625 L 22.4375 147.71875 L 27.75 147.71875 L 27.75 147.625 L 503.75 147.625 L 503.75 148.78125 L 27.75 148.78125 L 22.4375 148.78125 L 22.4375 154.03125 L 22.4375 160.40625 L 27.75 160.40625 L 503.75 160.40625 L 503.75 161.53125 L 27.75 161.53125 L 22.4375 161.53125 L 22.4375 166.78125 L 22.4375 173.15625 L 27.75 173.15625 L 503.75 173.15625 L 503.75 174.28125 L 27.75 174.28125 L 22.4375 174.28125 L 22.4375 179.53125 L 22.4375 185.90625 L 27.75 185.90625 L 503.75 185.90625 L 503.75 187.0625 L 27.75 187.0625 L 22.4375 187.0625 L 22.4375 192.28125 L 22.4375 198.65625 L 27.75 198.65625 L 503.75 198.65625 L 503.75 199.8125 L 27.75 199.8125 L 22.4375 199.8125 L 22.4375 205.03125 L 22.4375 211.40625 L 27.75 211.40625 L 503.75 211.40625 L 503.75 212.5625 L 27.75 212.5625 L 22.4375 212.5625 L 22.4375 217.8125 L 22.4375 224.1875 L 27.75 224.1875 L 503.75 224.1875 L 503.75 225.3125 L 27.75 225.3125 L 22.4375 225.3125 L 22.4375 230.5625 L 22.4375 236.9375 L 27.75 236.9375 L 503.75 236.9375 L 503.75 238.0625 L 27.75 238.0625 L 22.4375 238.0625 L 22.4375 243.3125 L 22.4375 244.375 L 22.4375 249.59375 L 22.4375 249.6875 L 27.75 249.6875 L 27.75 249.59375 L 503.75 249.59375 L 503.75 250.75 L 22.4375 250.75 L 22.4375 256 L 22.4375 257.125 L 22.4375 262.375 L 22.4375 262.4375 L 27.75 262.4375 L 27.75 262.375 L 503.75 262.375 L 503.75 263.5 L 22.4375 263.5 L 22.4375 268.75 L 22.4375 269.875 L 22.4375 275.125 L 22.4375 275.1875 L 27.75 275.1875 L 27.75 275.125 L 503.75 275.125 L 503.75 276.25 L 27.75 276.25 L 22.4375 276.25 L 22.4375 281.5 L 22.4375 287.875 L 27.75 287.875 L 503.75 287.875 L 503.75 289.03125 L 5.03125 289.03125 L 5.03125 289.0625 L 4.59375 289.0625 C 2.0839473 289.0625 0.0625 291.41096 0.0625 294.3125 L 0.0625 589.1875 L 0.0625 597.0625 L 0.0625 597.875 C 0.0625 600.368 2.0695 602.375 4.5625 602.375 L 240.0625 602.375 L 240.0625 605.1875 L 242.1875 605.1875 L 242.1875 602.375 L 243.53125 602.375 C 246.02425 602.375 248.03125 600.368 248.03125 597.875 L 248.03125 592.9375 L 252.28125 592.9375 L 252.28125 594.34375 L 255.8125 594.34375 L 255.8125 589.75 L 252.28125 589.75 L 252.28125 591.15625 L 248.03125 591.15625 L 248.03125 589.1875 C 248.03125 586.6945 246.02425 584.6875 243.53125 584.6875 L 17.71875 584.6875 L 17.71875 581.09375 L 509.0625 581.09375 L 509.0625 575.875 L 509.0625 569.5 L 27.75 569.5 L 27.75 568.34375 L 509.0625 568.34375 L 509.0625 563.125 L 509.0625 556.75 L 509.0625 556.71875 L 27.75 556.71875 L 27.75 555.59375 L 503.75 555.59375 L 503.75 555.6875 L 509.0625 555.6875 L 509.0625 544.0625 L 509.0625 543.96875 L 27.75 543.96875 L 27.75 542.84375 L 503.75 542.84375 L 503.75 542.90625 L 509.0625 542.90625 L 509.0625 531.3125 L 509.0625 531.21875 L 27.75 531.21875 L 27.75 530.09375 L 503.75 530.09375 L 503.75 530.15625 L 509.0625 530.15625 L 509.0625 518.53125 L 509.0625 518.46875 L 27.75 518.46875 L 27.75 517.3125 L 503.75 517.3125 L 503.75 517.40625 L 509.0625 517.40625 L 509.0625 505.78125 L 509.0625 505.71875 L 27.75 505.71875 L 27.75 504.5625 L 503.75 504.5625 L 503.75 504.65625 L 509.0625 504.65625 L 509.0625 493.03125 L 27.75 493.03125 L 27.75 491.90625 L 509.0625 491.90625 L 509.0625 486.65625 L 509.0625 480.28125 L 27.75 480.28125 L 27.75 479.125 L 509.0625 479.125 L 509.0625 473.90625 L 509.0625 467.53125 L 27.75 467.53125 L 27.75 466.375 L 509.0625 466.375 L 509.0625 461.15625 L 509.0625 454.78125 L 27.75 454.78125 L 27.75 453.625 L 509.0625 453.625 L 509.0625 448.375 L 509.0625 442 L 27.75 442 L 27.75 440.875 L 509.0625 440.875 L 509.0625 435.625 L 509.0625 429.25 L 27.75 429.25 L 27.75 428.125 L 503.75 428.125 L 503.75 428.1875 L 509.0625 428.1875 L 509.0625 416.59375 L 509.0625 416.5 L 27.75 416.5 L 27.75 415.34375 L 503.75 415.34375 L 503.75 415.4375 L 509.0625 415.4375 L 509.0625 403.8125 L 509.0625 403.75 L 27.75 403.75 L 27.75 402.59375 L 503.75 402.59375 L 503.75 402.6875 L 509.0625 402.6875 L 509.0625 391.0625 L 509.0625 391 L 27.75 391 L 27.75 389.84375 L 503.75 389.84375 L 503.75 389.9375 L 509.0625 389.9375 L 509.0625 378.3125 L 509.0625 378.21875 L 27.75 378.21875 L 27.75 377.09375 L 503.75 377.09375 L 503.75 377.15625 L 509.0625 377.15625 L 509.0625 365.5625 L 27.75 365.5625 L 27.75 364.40625 L 509.0625 364.40625 L 509.0625 359.1875 L 509.0625 352.8125 L 27.75 352.8125 L 27.75 351.65625 L 509.0625 351.65625 L 509.0625 346.40625 L 509.0625 340.03125 L 27.75 340.03125 L 27.75 338.90625 L 509.0625 338.90625 L 509.0625 333.65625 L 509.0625 327.28125 L 27.75 327.28125 L 27.75 326.15625 L 509.0625 326.15625 L 509.0625 320.90625 L 509.0625 314.53125 L 27.75 314.53125 L 27.75 313.375 L 509.0625 313.375 L 509.0625 308.15625 L 509.0625 307 L 509.0625 301.78125 L 503.75 301.78125 L 27.75 301.78125 L 27.75 300.625 L 513.625 300.625 L 513.625 584.6875 L 288.03125 584.6875 C 285.53825 584.6875 283.53125 586.6945 283.53125 589.1875 L 283.53125 594.59375 L 277.46875 594.59375 L 277.46875 593.8125 L 272.875 593.8125 L 272.875 594.59375 L 270.46875 594.59375 L 270.46875 593.8125 L 265.84375 593.8125 L 265.84375 594.59375 L 262.90625 594.59375 L 262.90625 589.34375 L 265.84375 589.34375 L 265.84375 590.28125 L 270.46875 590.28125 L 270.46875 589.53125 L 272.875 589.53125 L 272.875 590.28125 L 277.46875 590.28125 L 277.46875 586.71875 L 272.875 586.71875 L 272.875 587.75 L 270.46875 587.75 L 270.46875 586.71875 L 265.84375 586.71875 L 265.84375 587.5625 L 261.15625 587.5625 L 261.15625 589.34375 L 261.15625 589.75 L 259.375 589.75 L 259.375 594.34375 L 261.15625 594.34375 L 261.15625 595.34375 L 261.15625 596.375 L 265.84375 596.375 L 265.84375 597.34375 L 270.46875 597.34375 L 270.46875 596.375 L 272.875 596.375 L 272.875 597.34375 L 277.46875 597.34375 L 277.46875 596.375 L 283.53125 596.375 L 283.53125 597.875 C 283.53125 600.368 285.53825 602.375 288.03125 602.375 L 289.3125 602.375 L 289.3125 605.1875 L 291.4375 605.1875 L 291.4375 602.375 L 527 602.375 C 529.493 602.375 531.5 600.368 531.5 597.875 L 531.5 597.3125 C 531.55691 596.97941 531.59375 596.63106 531.59375 596.28125 L 531.59375 14.53125 C 531.59375 11.50203 529.34744 9.0117523 526.4375 8.59375 L 526.4375 8.5625 L 526.1875 8.5625 C 525.98531 8.5420889 525.8015 8.53125 525.59375 8.53125 L 519.625 8.53125 z M 27.75 13.78125 L 513.65625 13.78125 C 513.6266 14.023994 513.625 14.280242 513.625 14.53125 L 513.625 295.40625 L 27.75 295.40625 L 22.4375 295.40625 L 22.4375 300.625 L 22.4375 301.78125 L 22.4375 307 L 27.75 307 L 503.75 307 L 503.75 308.15625 L 27.75 308.15625 L 22.4375 308.15625 L 22.4375 313.375 L 22.4375 319.78125 L 27.75 319.78125 L 503.75 319.78125 L 503.75 320.90625 L 27.75 320.90625 L 22.4375 320.90625 L 22.4375 326.15625 L 22.4375 332.53125 L 27.75 332.53125 L 503.75 332.53125 L 503.75 333.65625 L 27.75 333.65625 L 22.4375 333.65625 L 22.4375 338.90625 L 22.4375 345.28125 L 27.75 345.28125 L 503.75 345.28125 L 503.75 346.40625 L 27.75 346.40625 L 22.4375 346.40625 L 22.4375 351.65625 L 22.4375 358.03125 L 27.75 358.03125 L 503.75 358.03125 L 503.75 359.1875 L 27.75 359.1875 L 22.4375 359.1875 L 22.4375 364.40625 L 22.4375 370.78125 L 27.75 370.78125 L 503.75 370.78125 L 503.75 371.84375 L 22.4375 371.84375 L 22.4375 377.09375 L 22.4375 378.21875 L 22.4375 383.46875 L 22.4375 383.5625 L 27.75 383.5625 L 27.75 383.46875 L 503.75 383.46875 L 503.75 384.59375 L 22.4375 384.59375 L 22.4375 389.84375 L 22.4375 391 L 22.4375 396.21875 L 22.4375 396.3125 L 27.75 396.3125 L 27.75 396.21875 L 503.75 396.21875 L 503.75 397.375 L 22.4375 397.375 L 22.4375 402.59375 L 22.4375 403.75 L 22.4375 408.96875 L 22.4375 409.0625 L 27.75 409.0625 L 27.75 408.96875 L 503.75 408.96875 L 503.75 410.125 L 22.4375 410.125 L 22.4375 415.34375 L 22.4375 416.5 L 22.4375 421.71875 L 22.4375 421.8125 L 27.75 421.8125 L 27.75 421.71875 L 503.75 421.71875 L 503.75 422.875 L 27.75 422.875 L 22.4375 422.875 L 22.4375 428.125 L 22.4375 434.5 L 27.75 434.5 L 503.75 434.5 L 503.75 435.625 L 27.75 435.625 L 22.4375 435.625 L 22.4375 440.875 L 22.4375 447.25 L 27.75 447.25 L 503.75 447.25 L 503.75 448.375 L 27.75 448.375 L 22.4375 448.375 L 22.4375 453.625 L 22.4375 460 L 27.75 460 L 503.75 460 L 503.75 461.15625 L 27.75 461.15625 L 22.4375 461.15625 L 22.4375 466.375 L 22.4375 472.75 L 27.75 472.75 L 503.75 472.75 L 503.75 473.90625 L 27.75 473.90625 L 22.4375 473.90625 L 22.4375 479.125 L 22.4375 480.28125 L 22.4375 485.5 L 22.4375 485.53125 L 27.75 485.53125 L 27.75 485.5 L 503.75 485.5 L 503.75 486.65625 L 27.75 486.65625 L 22.4375 486.65625 L 22.4375 491.90625 L 22.4375 498.28125 L 27.75 498.28125 L 503.75 498.28125 L 503.75 499.34375 L 22.4375 499.34375 L 22.4375 504.5625 L 22.4375 505.71875 L 22.4375 510.9375 L 22.4375 511.03125 L 27.75 511.03125 L 27.75 510.9375 L 503.75 510.9375 L 503.75 512.09375 L 22.4375 512.09375 L 22.4375 517.3125 L 22.4375 518.46875 L 22.4375 523.6875 L 22.4375 523.78125 L 27.75 523.78125 L 27.75 523.6875 L 503.75 523.6875 L 503.75 524.84375 L 22.4375 524.84375 L 22.4375 530.09375 L 22.4375 531.21875 L 22.4375 536.46875 L 22.4375 536.53125 L 27.75 536.53125 L 27.75 536.46875 L 503.75 536.46875 L 503.75 537.59375 L 22.4375 537.59375 L 22.4375 542.84375 L 22.4375 543.96875 L 22.4375 549.21875 L 22.4375 549.28125 L 27.75 549.28125 L 27.75 549.21875 L 503.75 549.21875 L 503.75 550.34375 L 27.75 550.34375 L 22.4375 550.34375 L 22.4375 555.59375 L 22.4375 561.96875 L 27.75 561.96875 L 503.75 561.96875 L 503.75 563.125 L 27.75 563.125 L 22.4375 563.125 L 22.4375 568.34375 L 22.4375 574.71875 L 27.75 574.71875 L 503.75 574.71875 L 503.75 575.875 L 17.71875 575.875 L 17.71875 294.3125 C 17.71875 294.29133 17.718965 294.27111 17.71875 294.25 L 503.75 294.25 L 509.0625 294.25 L 509.0625 289.03125 L 509.0625 282.625 L 27.75 282.625 L 27.75 281.5 L 509.0625 281.5 L 509.0625 276.25 L 509.0625 269.875 L 27.75 269.875 L 27.75 268.75 L 503.75 268.75 L 503.75 268.8125 L 509.0625 268.8125 L 509.0625 257.21875 L 509.0625 257.125 L 27.75 257.125 L 27.75 256 L 503.75 256 L 503.75 256.0625 L 509.0625 256.0625 L 509.0625 244.4375 L 509.0625 244.375 L 27.75 244.375 L 27.75 243.3125 L 509.0625 243.3125 L 509.0625 238.0625 L 509.0625 231.6875 L 27.75 231.6875 L 27.75 230.5625 L 509.0625 230.5625 L 509.0625 225.3125 L 509.0625 218.9375 L 27.75 218.9375 L 27.75 217.8125 L 509.0625 217.8125 L 509.0625 212.5625 L 509.0625 206.1875 L 27.75 206.1875 L 27.75 205.03125 L 509.0625 205.03125 L 509.0625 199.8125 L 509.0625 193.4375 L 27.75 193.4375 L 27.75 192.28125 L 509.0625 192.28125 L 509.0625 187.0625 L 509.0625 180.6875 L 27.75 180.6875 L 27.75 179.53125 L 509.0625 179.53125 L 509.0625 174.28125 L 509.0625 167.90625 L 27.75 167.90625 L 27.75 166.78125 L 509.0625 166.78125 L 509.0625 161.53125 L 509.0625 155.15625 L 27.75 155.15625 L 27.75 154.03125 L 509.0625 154.03125 L 509.0625 148.78125 L 509.0625 142.40625 L 27.75 142.40625 L 27.75 141.25 L 503.75 141.25 L 503.75 141.34375 L 509.0625 141.34375 L 509.0625 129.71875 L 509.0625 129.65625 L 27.75 129.65625 L 27.75 128.5 L 503.75 128.5 L 503.75 128.59375 L 509.0625 128.59375 L 509.0625 116.96875 L 509.0625 116.90625 L 27.75 116.90625 L 27.75 115.84375 L 509.0625 115.84375 L 509.0625 110.59375 L 509.0625 104.21875 L 27.75 104.21875 L 27.75 103.0625 L 509.0625 103.0625 L 509.0625 97.84375 L 509.0625 91.46875 L 27.75 91.46875 L 27.75 90.3125 L 509.0625 90.3125 L 509.0625 85.09375 L 509.0625 78.71875 L 27.75 78.71875 L 27.75 77.5625 L 509.0625 77.5625 L 509.0625 72.3125 L 509.0625 65.9375 L 27.75 65.9375 L 27.75 64.8125 L 509.0625 64.8125 L 509.0625 59.5625 L 509.0625 53.1875 L 27.75 53.1875 L 27.75 52.0625 L 509.0625 52.0625 L 509.0625 46.8125 L 509.0625 40.4375 L 27.75 40.4375 L 27.75 39.28125 L 509.0625 39.28125 L 509.0625 34.0625 L 509.0625 27.6875 L 27.75 27.6875 L 27.75 26.53125 L 509.0625 26.53125 L 509.0625 21.3125 L 509.0625 20.15625 L 509.0625 14.9375 L 503.75 14.9375 L 27.75 14.9375 L 27.75 13.78125 z M 10.90625 22.84375 L 10.90625 26.3125 L 12.40625 26.3125 L 12.40625 24.96875 L 14.09375 24.96875 C 14.155534 25.127075 14.21911 25.299213 14.25 25.5 C 14.277031 25.696938 14.281251 25.924571 14.28125 26.15625 C 14.281251 27.009627 14.029374 27.661634 13.53125 28.125 C 13.03313 28.588373 12.321409 28.812503 11.40625 28.8125 C 10.483377 28.812503 9.775517 28.572569 9.28125 28.09375 C 8.7831345 27.611077 8.5312572 26.91938 8.53125 26.03125 C 8.5312572 25.552441 8.6148576 25.099961 8.75 24.625 C 8.8851563 24.146192 9.0695962 23.638935 9.34375 23.15625 L 7.5625 23.15625 C 7.3501306 23.623489 7.2018781 24.127244 7.09375 24.65625 C 6.9856392 25.181409 6.9062588 25.737155 6.90625 26.3125 C 6.9062588 27.80301 7.3256957 28.986519 8.125 29.84375 C 8.9243196 30.700985 10.012285 31.125001 11.40625 31.125 C 12.784778 31.125001 13.880466 30.685539 14.6875 29.84375 C 15.490674 29.001964 15.90625 27.877811 15.90625 26.4375 C 15.90625 25.800373 15.822649 25.192276 15.6875 24.59375 C 15.552351 23.995239 15.364049 23.399802 15.09375 22.84375 L 10.90625 22.84375 z M 14.03125 32.59375 L 14.03125 36.5 L 12.0625 36.5 L 12.0625 32.9375 L 10.375 32.9375 L 10.375 36.5 L 8.75 36.5 L 8.75 32.71875 L 7.0625 32.71875 L 7.0625 38.71875 L 15.71875 38.71875 L 15.71875 32.59375 L 14.03125 32.59375 z M 11.40625 40.4375 C 10.761399 40.437509 10.165962 40.553077 9.65625 40.75 C 9.1465499 40.946941 8.7025099 41.21956 8.3125 41.625 C 7.8645838 42.084516 7.5603561 42.636401 7.375 43.28125 C 7.1857993 43.92225 7.0625086 44.905874 7.0625 46.21875 L 7.0625 48.5625 L 15.71875 48.5625 L 15.71875 46.21875 C 15.71875 44.92132 15.622848 43.961223 15.4375 43.3125 C 15.248291 42.663789 14.947925 42.088377 14.5 41.625 C 14.109999 41.21956 13.634709 40.946941 13.125 40.75 C 12.611435 40.553077 12.058833 40.437509 11.40625 40.4375 z M 11.40625 42.75 C 12.267349 42.750007 12.923217 42.98608 13.375 43.46875 C 13.826787 43.947571 14.031252 44.651211 14.03125 45.5625 L 14.03125 46.34375 L 8.75 46.34375 L 8.75 45.5625 C 8.750007 44.64735 8.9895827 43.947571 9.4375 43.46875 C 9.8854299 42.989941 10.549021 42.750007 11.40625 42.75 z M 11.40625 54.34375 C 9.9698096 54.343758 8.8699011 54.663431 8.09375 55.28125 C 7.3137527 55.899082 6.9062588 56.770999 6.90625 57.90625 C 6.9062588 59.04537 7.3137527 59.913426 8.09375 60.53125 C 8.8699011 61.149077 9.9698096 61.468751 11.40625 61.46875 C 12.838838 61.468751 13.938746 61.149077 14.71875 60.53125 C 15.494894 59.913426 15.90625 59.04537 15.90625 57.90625 C 15.90625 56.770999 15.494894 55.899082 14.71875 55.28125 C 13.938746 54.663431 12.838838 54.343758 11.40625 54.34375 z M 11.40625 56.59375 C 12.499033 56.593755 13.239578 56.67035 13.6875 56.875 C 14.135426 57.07966 14.375001 57.431301 14.375 57.90625 C 14.375001 58.385069 14.135426 58.732848 13.6875 58.9375 C 13.239578 59.142158 12.499033 59.250003 11.40625 59.25 C 10.325059 59.250003 9.5339574 59.142158 9.09375 58.9375 C 8.6496944 58.732848 8.4375073 58.385069 8.4375 57.90625 C 8.4375073 57.427439 8.6496944 57.075798 9.09375 56.875 C 9.5339574 56.67035 10.325059 56.593755 11.40625 56.59375 z M 11.40625 62.59375 C 9.9698096 62.593758 8.8699011 62.913431 8.09375 63.53125 C 7.3137527 64.149082 6.9062588 65.020999 6.90625 66.15625 C 6.9062588 67.29537 7.3137527 68.163426 8.09375 68.78125 C 8.8699011 69.399077 9.9698096 69.718751 11.40625 69.71875 C 12.838838 69.718751 13.938746 69.399077 14.71875 68.78125 C 15.494894 68.163426 15.90625 67.29537 15.90625 66.15625 C 15.90625 65.020999 15.494894 64.149082 14.71875 63.53125 C 13.938746 62.913431 12.838838 62.593758 11.40625 62.59375 z M 11.40625 64.84375 C 12.499033 64.843755 13.239578 64.92035 13.6875 65.125 C 14.135426 65.32966 14.375001 65.681301 14.375 66.15625 C 14.375001 66.635069 14.135426 66.982848 13.6875 67.1875 C 13.239578 67.392158 12.499033 67.500003 11.40625 67.5 C 10.325059 67.500003 9.5339574 67.392158 9.09375 67.1875 C 8.6496944 66.982848 8.4375073 66.635069 8.4375 66.15625 C 8.4375073 65.677439 8.6496944 65.325798 9.09375 65.125 C 9.5339574 64.92035 10.325059 64.843755 11.40625 64.84375 z M 14.1875 71.09375 L 14.1875 73.0625 L 7.0625 73.0625 L 7.0625 75.1875 L 7.5 77.1875 L 9 77.1875 L 8.59375 75.1875 L 14.1875 75.1875 L 14.1875 77.15625 L 15.71875 77.15625 L 15.71875 71.09375 L 14.1875 71.09375 z M 11.9375 83.5 C 11.450966 83.500011 10.971456 83.568166 10.53125 83.71875 C 10.087193 83.865494 9.6909246 84.085404 9.3125 84.375 C 8.6908193 84.849964 8.2032277 85.44962 7.875 86.15625 C 7.5429265 86.862896 7.3750083 87.63505 7.375 88.5 C 7.3750083 89.19506 7.518682 89.882537 7.78125 90.53125 C 8.0438339 91.17611 8.3961919 91.732215 8.875 92.21875 C 9.3576831 92.70529 9.9253724 93.081175 10.5625 93.34375 C 11.199638 93.606327 11.890976 93.750001 12.59375 93.75 C 13.32356 93.750001 13.987868 93.602466 14.625 93.34375 C 15.258272 93.085037 15.829823 92.713013 16.3125 92.21875 C 16.795176 91.724492 17.155257 91.164525 17.40625 90.53125 C 17.661101 89.897983 17.781248 89.214367 17.78125 88.5 C 17.781248 87.913072 17.669542 87.348885 17.46875 86.78125 C 17.271816 86.209769 16.999556 85.670186 16.625 85.1875 L 15.6875 85.8125 C 15.996413 86.156174 16.256013 86.57597 16.4375 87.0625 C 16.618986 87.549045 16.687499 88.044718 16.6875 88.53125 C 16.687499 89.098883 16.607043 89.623021 16.40625 90.125 C 16.209317 90.623126 15.909668 91.051362 15.53125 91.4375 C 15.145109 91.827506 14.689485 92.135236 14.1875 92.34375 C 13.681657 92.548407 13.169103 92.656252 12.59375 92.65625 C 11.894838 92.656252 11.223524 92.504138 10.625 92.1875 C 10.022625 91.867005 9.5346748 91.415242 9.15625 90.84375 C 8.9284333 90.496227 8.7720994 90.128064 8.65625 89.71875 C 8.5365534 89.309445 8.4687573 88.88543 8.46875 88.4375 C 8.4687573 87.796512 8.5889038 87.173328 8.84375 86.625 C 9.09861 86.072826 9.4664137 85.616843 9.9375 85.25 C 10.219389 85.022186 10.535201 84.861991 10.875 84.75 C 11.210948 84.638029 11.551363 84.59376 11.9375 84.59375 C 12.543745 84.59376 13.0475 84.725849 13.4375 85 C 13.823643 85.27417 14.051635 85.646194 14.125 86.125 L 10.125 86.125 L 10.125 87.34375 L 10.875 87.34375 C 10.600845 87.4596 10.404462 87.647542 10.25 87.90625 C 10.095549 88.16111 10.000006 88.43759 10 88.78125 C 10.000006 89.441557 10.236079 89.989222 10.71875 90.40625 C 11.201431 90.823286 11.852721 91.031253 12.625 91.03125 C 13.397285 91.031253 14.017325 90.819425 14.5 90.40625 C 14.978816 89.989222 15.218751 89.445418 15.21875 88.78125 C 15.218751 88.43759 15.150596 88.16111 15 87.90625 C 14.845544 87.647542 14.617912 87.4596 14.34375 87.34375 L 15.25 87.34375 L 15.25 87.09375 C 15.25 85.946919 14.954213 85.06692 14.375 84.4375 C 13.79579 83.8081 12.983946 83.500011 11.9375 83.5 z M 12.59375 87.4375 C 13.064845 87.437507 13.44073 87.545352 13.71875 87.75 C 13.992912 87.954662 14.125002 88.25009 14.125 88.59375 C 14.125002 88.941283 13.992912 89.2016 13.71875 89.40625 C 13.444592 89.607048 13.068707 89.718755 12.59375 89.71875 C 12.126522 89.718755 11.770303 89.607048 11.5 89.40625 C 11.225844 89.2016 11.093755 88.93356 11.09375 88.59375 C 11.093755 88.246229 11.225844 87.954662 11.5 87.75 C 11.770303 87.541491 12.126522 87.437507 12.59375 87.4375 z M 7.0625 99.03125 L 7.0625 101.15625 L 13.375 102.625 L 7.0625 104.125 L 7.0625 106.28125 L 13.375 107.75 L 7.0625 109.25 L 7.0625 111.375 L 15.71875 109.3125 L 15.71875 106.75 L 9.15625 105.1875 L 15.71875 103.625 L 15.71875 101.0625 L 7.0625 99.03125 z M 12.84375 116.8125 C 12.450611 116.8697 12.121774 117.02122 11.84375 117.25 C 11.469197 117.5512 11.2131 118.01068 11.0625 118.59375 C 10.931217 118.07247 10.695502 117.67269 10.375 117.40625 C 10.050647 117.13982 9.6308513 117.00001 9.125 117 C 8.3836158 117.00001 7.8355922 117.28385 7.46875 117.84375 C 7.0980628 118.3998 6.9062588 119.25133 6.90625 120.375 C 6.9062588 120.79204 6.9382261 121.19252 7 121.625 C 7.0617913 122.05748 7.1576933 122.4973 7.28125 122.9375 L 8.9375 122.9375 C 8.779189 122.57453 8.6435968 122.21059 8.5625 121.84375 C 8.4814175 121.47692 8.4375073 121.10911 8.4375 120.75 C 8.4375073 120.26347 8.5372707 119.89144 8.71875 119.625 C 8.9002433 119.35857 9.1679249 119.21875 9.5 119.21875 C 9.8591174 119.21875 10.103631 119.38209 10.28125 119.65625 C 10.455019 119.93041 10.562505 120.34635 10.5625 120.90625 L 10.5625 121.84375 L 12 121.84375 L 12 120.9375 C 12.000004 120.30809 12.076599 119.8205 12.28125 119.5 C 12.482047 119.17565 12.793639 119.03126 13.1875 119.03125 C 13.569782 119.03126 13.857847 119.18337 14.0625 119.5 C 14.267156 119.81278 14.375001 120.25296 14.375 120.84375 C 14.375001 121.24148 14.32301 121.64933 14.21875 122.0625 C 14.110632 122.47181 13.958518 122.89547 13.75 123.3125 L 15.46875 123.3125 C 15.611622 122.87616 15.711745 122.44406 15.78125 122 C 15.854617 121.55208 15.90625 121.10032 15.90625 120.65625 C 15.90625 119.39743 15.662813 118.4377 15.21875 117.78125 C 14.770827 117.12482 14.138486 116.81251 13.28125 116.8125 C 13.137413 116.8125 12.974796 116.79343 12.84375 116.8125 z M 12.8125 124.75 C 11.974577 124.75001 11.298684 125.01805 10.78125 125.5625 C 10.263826 126.1031 10.031256 126.80324 10.03125 127.6875 C 10.031256 128.03889 10.05972 128.35893 10.15625 128.65625 C 10.248929 128.95358 10.404546 129.24515 10.59375 129.5 C 9.86781 129.43822 9.3043408 129.21445 8.9375 128.84375 C 8.5668114 128.47306 8.3750073 127.94542 8.375 127.28125 C 8.3750073 126.97234 8.4463062 126.66811 8.53125 126.34375 C 8.6123468 126.0194 8.7324934 125.67934 8.90625 125.3125 L 7.3125 125.3125 C 7.1889433 125.67934 7.0930413 126.0317 7.03125 126.40625 C 6.9694761 126.78081 6.9375088 127.16478 6.9375 127.5625 C 6.9375088 128.81746 7.3376386 129.80917 8.15625 130.53125 C 8.9710152 131.24947 10.102532 131.625 11.53125 131.625 C 12.925223 131.625 13.989303 131.30147 14.75 130.6875 C 15.506837 130.06968 15.90625 129.21742 15.90625 128.09375 C 15.90625 127.07434 15.618544 126.2625 15.0625 125.65625 C 14.502596 125.05002 13.739241 124.75001 12.8125 124.75 z M 12.96875 126.875 C 13.474598 126.87501 13.870149 126.99057 14.125 127.1875 C 14.375993 127.38058 14.500001 127.66864 14.5 128.0625 C 14.500001 128.45251 14.375993 128.74057 14.125 128.9375 C 13.870149 129.13057 13.474598 129.21875 12.96875 129.21875 C 12.462908 129.21875 12.094746 129.13057 11.84375 128.9375 C 11.588901 128.74057 11.468754 128.45251 11.46875 128.0625 C 11.468754 127.66864 11.588901 127.38058 11.84375 127.1875 C 12.094746 126.99057 12.462908 126.87501 12.96875 126.875 z M 14.1875 133.15625 L 14.1875 135.125 L 7.0625 135.125 L 7.0625 137.25 L 7.5 139.25 L 9 139.25 L 8.59375 137.25 L 14.1875 137.25 L 14.1875 139.21875 L 15.71875 139.21875 L 15.71875 133.15625 L 14.1875 133.15625 z M 7.0625 144.71875 L 7.0625 146 L 16.8125 149.0625 L 16.8125 147.78125 L 7.0625 144.71875 z M 7.0625 153.25 L 7.0625 155.46875 L 13.46875 157.75 L 7.0625 160.0625 L 7.0625 162.3125 L 15.71875 159.09375 L 15.71875 156.4375 L 7.0625 153.25 z M 13.28125 167.21875 C 12.725209 167.21876 12.269226 167.35507 11.90625 167.65625 C 11.53942 167.95359 11.287184 168.41307 11.125 169 C 10.966687 168.47485 10.703225 168.07894 10.375 167.8125 C 10.046785 167.54221 9.6466557 167.40626 9.15625 167.40625 C 8.4225886 167.40626 7.8784265 167.6743 7.5 168.21875 C 7.1177286 168.76322 6.9062588 169.54731 6.90625 170.59375 C 6.9062588 171.64792 7.1177286 172.45554 7.5 173 C 7.8822879 173.54446 8.42645 173.8125 9.15625 173.8125 C 9.6466557 173.8125 10.046785 173.67269 10.375 173.40625 C 10.703225 173.13981 10.966687 172.7439 11.125 172.21875 C 11.287184 172.80569 11.53942 173.26131 11.90625 173.5625 C 12.269226 173.85983 12.725209 174 13.28125 174 C 14.138486 174 14.8098 173.72774 15.25 173.15625 C 15.68634 172.5809 15.90625 171.71742 15.90625 170.59375 C 15.90625 169.47395 15.68634 168.63013 15.25 168.0625 C 14.8098 167.49102 14.138486 167.21876 13.28125 167.21875 z M 13.1875 169.3125 C 13.612258 169.31251 13.928428 169.43615 14.15625 169.65625 C 14.380213 169.87636 14.500001 170.18058 14.5 170.59375 C 14.500001 171.01079 14.380213 171.33854 14.15625 171.5625 C 13.928428 171.78646 13.612258 171.90625 13.1875 171.90625 C 12.762747 171.90625 12.415327 171.78646 12.1875 171.5625 C 11.95968 171.33854 11.843754 171.01079 11.84375 170.59375 C 11.843754 170.18058 11.95968 169.87636 12.1875 169.65625 C 12.411465 169.43615 12.758886 169.31251 13.1875 169.3125 z M 9.375 169.5 C 9.7186719 169.50001 10.002158 169.59205 10.1875 169.78125 C 10.372853 169.97046 10.468755 170.24623 10.46875 170.59375 C 10.468755 170.949 10.372853 171.24443 10.1875 171.4375 C 10.002158 171.62671 9.7186719 171.71875 9.375 171.71875 C 9.0352022 171.71875 8.7791048 171.62671 8.59375 171.4375 C 8.4084094 171.24443 8.3125074 170.949 8.3125 170.59375 C 8.3125074 170.24623 8.4084094 169.97046 8.59375 169.78125 C 8.7752434 169.59205 9.0313408 169.50001 9.375 169.5 z M 14.1875 175.53125 L 14.1875 177.5 L 7.0625 177.5 L 7.0625 179.625 L 7.5 181.625 L 9 181.625 L 8.59375 179.625 L 14.1875 179.625 L 14.1875 181.59375 L 15.71875 181.59375 L 15.71875 175.53125 L 14.1875 175.53125 z M 7.0625 187.09375 L 7.0625 188.375 L 16.8125 191.4375 L 16.8125 190.15625 L 7.0625 187.09375 z M 15.71875 195.625 L 7.0625 198.8125 L 7.0625 201.46875 L 15.71875 204.6875 L 15.71875 202.4375 L 14.15625 201.875 L 14.15625 198.40625 L 15.71875 197.84375 L 15.71875 195.625 z M 12.53125 198.96875 L 12.53125 201.3125 L 9.09375 200.125 L 12.53125 198.96875 z M 11.3125 205.5 C 9.9223967 205.50001 8.8232055 205.78843 8.0625 206.40625 C 7.3018098 207.02408 6.9375088 207.90372 6.9375 209.03125 C 6.9375088 210.0468 7.2213534 210.86251 7.78125 211.46875 C 8.3411625 212.07113 9.0694058 212.375 10 212.375 C 10.841793 212.375 11.513825 212.1031 12.03125 211.5625 C 12.544821 211.01804 12.812503 210.29052 12.8125 209.40625 C 12.812503 209.05873 12.752788 208.73483 12.65625 208.4375 C 12.559718 208.14018 12.443074 207.85633 12.25 207.59375 C 12.975949 207.6594 13.504306 207.87931 13.875 208.25 C 14.241836 208.6207 14.437501 209.14834 14.4375 209.8125 C 14.437501 210.12914 14.393591 210.45689 14.3125 210.78125 C 14.22755 211.10561 14.103542 211.426 13.9375 211.78125 L 15.53125 211.78125 C 15.650954 211.426 15.754579 211.08945 15.8125 210.71875 C 15.874282 210.34806 15.90625 209.9367 15.90625 209.53125 C 15.90625 208.27243 15.471009 207.28459 14.65625 206.5625 C 13.837632 205.84042 12.741226 205.50001 11.3125 205.5 z M 9.84375 207.875 C 10.349601 207.87501 10.745152 207.95932 11 208.15625 C 11.250996 208.35319 11.375004 208.64125 11.375 209.03125 C 11.375004 209.42126 11.250996 209.74057 11 209.9375 C 10.745152 210.13443 10.349601 210.21875 9.84375 210.21875 C 9.3417725 210.21875 8.9736101 210.13443 8.71875 209.9375 C 8.4639039 209.74057 8.3437574 209.42126 8.34375 209.03125 C 8.3437574 208.64125 8.4639039 208.35319 8.71875 208.15625 C 8.9736101 207.95932 9.3417725 207.87501 9.84375 207.875 z M 11.40625 217.71875 C 10.761399 217.71876 10.165962 217.83433 9.65625 218.03125 C 9.1465499 218.22819 8.7025099 218.53206 8.3125 218.9375 C 7.8645838 219.39702 7.5603561 219.9489 7.375 220.59375 C 7.1857993 221.23475 7.0625086 222.18712 7.0625 223.5 L 7.0625 225.875 L 15.71875 225.875 L 15.71875 223.5 C 15.71875 222.20257 15.622848 221.24247 15.4375 220.59375 C 15.248291 219.94504 14.947925 219.40088 14.5 218.9375 C 14.109999 218.53206 13.634709 218.22819 13.125 218.03125 C 12.611435 217.83433 12.058833 217.71876 11.40625 217.71875 z M 11.40625 220.03125 C 12.267349 220.03126 12.923217 220.26733 13.375 220.75 C 13.826787 221.22882 14.031252 221.93246 14.03125 222.84375 L 14.03125 223.625 L 8.75 223.625 L 8.75 222.84375 C 8.750007 221.9286 8.9895827 221.22882 9.4375 220.75 C 9.8854299 220.27119 10.549021 220.03126 11.40625 220.03125 z M 14.03125 227.8125 L 14.03125 231.75 L 12.0625 231.75 L 12.0625 228.1875 L 10.375 228.1875 L 10.375 231.75 L 8.75 231.75 L 8.75 227.96875 L 7.0625 227.96875 L 7.0625 233.96875 L 15.71875 233.96875 L 15.71875 227.8125 L 14.03125 227.8125 z M 13.25 235.875 C 12.705544 235.87501 12.249561 236.01868 11.875 236.28125 C 11.500447 236.54383 11.232765 236.92744 11.09375 237.40625 C 10.950882 237.0317 10.730972 236.72819 10.4375 236.53125 C 10.140177 236.33433 9.7959001 236.25001 9.375 236.25 C 8.5756944 236.25001 7.9879807 236.52191 7.625 237.0625 C 7.2620355 237.59924 7.0625086 238.45536 7.0625 239.65625 L 7.0625 243 L 15.71875 243 L 15.71875 239.3125 C 15.71875 238.1618 15.50306 237.31377 15.09375 236.75 C 14.684441 236.18624 14.084067 235.87501 13.25 235.875 z M 13.0625 238.125 C 13.444782 238.12501 13.748293 238.24093 13.9375 238.46875 C 14.126711 238.69272 14.218752 239.02083 14.21875 239.46875 L 14.21875 240.78125 L 11.9375 240.78125 L 11.9375 239.46875 C 11.937504 239.01697 12.029544 238.69272 12.21875 238.46875 C 12.404101 238.24479 12.687946 238.12501 13.0625 238.125 z M 9.5 238.46875 C 9.8011962 238.46876 10.033049 238.56852 10.1875 238.75 C 10.341962 238.93149 10.437505 239.17987 10.4375 239.53125 L 10.4375 240.78125 L 8.59375 240.78125 L 8.59375 239.53125 C 8.5937571 239.17987 8.6854391 238.93149 8.84375 238.75 C 8.9982133 238.56852 9.2026776 238.46876 9.5 238.46875 z M 7.0625 244.15625 L 7.0625 252.125 L 8.75 252.125 L 8.75 249.25 L 15.71875 249.25 L 15.71875 247.03125 L 8.75 247.03125 L 8.75 244.15625 L 7.0625 244.15625 z M 15.71875 251.3125 L 7.0625 254.5 L 7.0625 257.15625 L 15.71875 260.375 L 15.71875 258.125 L 14.15625 257.59375 L 14.15625 254.09375 L 15.71875 253.5625 L 15.71875 251.3125 z M 12.53125 254.65625 L 12.53125 257.03125 L 9.09375 255.84375 L 12.53125 254.65625 z M 14.03125 261.3125 L 14.03125 265.21875 L 12.0625 265.21875 L 12.0625 261.65625 L 10.375 261.65625 L 10.375 265.21875 L 8.75 265.21875 L 8.75 261.4375 L 7.0625 261.4375 L 7.0625 267.4375 L 15.71875 267.4375 L 15.71875 261.3125 L 14.03125 261.3125 z M 7.0625 269.625 L 7.0625 271.875 L 10.375 271.875 L 10.375 275.15625 L 7.0625 275.15625 L 7.0625 277.375 L 15.71875 277.375 L 15.71875 275.15625 L 12.0625 275.15625 L 12.0625 271.875 L 15.71875 271.875 L 15.71875 269.625 L 7.0625 269.625 z "
       transform="translate(0,450)"
       id="rect2985" />
  </g>
</svg>
