  0
SECTION
  2
BLOCKS
  0
ENDSEC
  0
SECTION
  2
ENTITIES
  0
LINE
  8
0
 10
-21.566
 11
-21.551
 20
-0.337
 21
-0.258
  0
LINE
  8
0
 10
-21.551
 11
-21.5
 20
-0.258
 21
-0.158
  0
LINE
  8
0
 10
-21.5
 11
-21.426
 20
-0.158
 21
-0.076
  0
LINE
  8
0
 10
-21.426
 11
-21.331
 20
-0.076
 21
-0.017
  0
LINE
  8
0
 10
-21.331
 11
-20.479
 20
-0.017
 21
0.346
  0
LINE
  8
0
 10
-20.479
 11
-20.384
 20
0.346
 21
0.404
  0
LINE
  8
0
 10
-20.384
 11
-20.31
 20
0.404
 21
0.486
  0
LINE
  8
0
 10
-20.31
 11
-20.26
 20
0.486
 21
0.588
  0
LINE
  8
0
 10
-20.26
 11
-20.238
 20
0.588
 21
0.701
  0
LINE
  8
0
 10
-20.238
 11
-20.182
 20
0.701
 21
1.654
  0
LINE
  8
0
 10
-20.182
 11
-20.191
 20
1.654
 21
1.768
  0
LINE
  8
0
 10
-20.191
 11
-20.23
 20
1.768
 21
1.875
  0
LINE
  8
0
 10
-20.23
 11
-20.293
 20
1.875
 21
1.965
  0
LINE
  8
0
 10
-20.293
 11
-20.381
 20
1.965
 21
2.033
  0
LINE
  8
0
 10
-20.381
 11
-21.185
 20
2.033
 21
2.493
  0
LINE
  8
0
 10
-21.185
 11
-21.272
 20
2.493
 21
2.563
  0
LINE
  8
0
 10
-21.272
 11
-21.336
 20
2.563
 21
2.653
  0
LINE
  8
0
 10
-21.336
 11
-21.375
 20
2.653
 21
2.758
  0
LINE
  8
0
 10
-21.375
 11
-21.381
 20
2.758
 21
2.838
  0
LINE
  8
0
 10
-21.381
 11
-21.248
 20
2.838
 21
3.747
  0
LINE
  8
0
 10
-21.248
 11
-21.062
 20
3.747
 21
4.646
  0
LINE
  8
0
 10
-21.062
 11
-21.03
 20
4.646
 21
4.719
  0
LINE
  8
0
 10
-21.03
 11
-20.957
 20
4.719
 21
4.805
  0
LINE
  8
0
 10
-20.957
 11
-20.866
 20
4.805
 21
4.868
  0
LINE
  8
0
 10
-20.866
 11
-20.76
 20
4.868
 21
4.903
  0
LINE
  8
0
 10
-20.76
 11
-19.847
 20
4.903
 21
5.06
  0
LINE
  8
0
 10
-19.847
 11
-19.742
 20
5.06
 21
5.094
  0
LINE
  8
0
 10
-19.742
 11
-19.651
 20
5.094
 21
5.157
  0
LINE
  8
0
 10
-19.651
 11
-19.578
 20
5.157
 21
5.244
  0
LINE
  8
0
 10
-19.578
 11
-19.531
 20
5.244
 21
5.349
  0
LINE
  8
0
 10
-19.531
 11
-19.257
 20
5.349
 21
6.263
  0
LINE
  8
0
 10
-19.257
 11
-19.239
 20
6.263
 21
6.377
  0
LINE
  8
0
 10
-19.239
 11
-19.252
 20
6.377
 21
6.49
  0
LINE
  8
0
 10
-19.252
 11
-19.293
 20
6.49
 21
6.592
  0
LINE
  8
0
 10
-19.293
 11
-19.362
 20
6.592
 21
6.679
  0
LINE
  8
0
 10
-19.362
 11
-20.039
 20
6.679
 21
7.312
  0
LINE
  8
0
 10
-20.039
 11
-20.108
 20
7.312
 21
7.399
  0
LINE
  8
0
 10
-20.108
 11
-20.149
 20
7.399
 21
7.502
  0
LINE
  8
0
 10
-20.149
 11
-20.163
 20
7.502
 21
7.614
  0
LINE
  8
0
 10
-20.163
 11
-20.15
 20
7.614
 21
7.693
  0
LINE
  8
0
 10
-20.15
 11
-19.811
 20
7.693
 21
8.546
  0
LINE
  8
0
 10
-19.811
 11
-19.423
 20
8.546
 21
9.378
  0
LINE
  8
0
 10
-19.423
 11
-19.374
 20
9.378
 21
9.441
  0
LINE
  8
0
 10
-19.374
 11
-19.284
 20
9.441
 21
9.508
  0
LINE
  8
0
 10
-19.284
 11
-19.181
 20
9.508
 21
9.548
  0
LINE
  8
0
 10
-19.181
 11
-19.07
 20
9.548
 21
9.558
  0
LINE
  8
0
 10
-19.07
 11
-18.145
 20
9.558
 21
9.5
  0
LINE
  8
0
 10
-18.145
 11
-18.035
 20
9.5
 21
9.509
  0
LINE
  8
0
 10
-18.035
 11
-17.932
 20
9.509
 21
9.55
  0
LINE
  8
0
 10
-17.932
 11
-17.841
 20
9.55
 21
9.618
  0
LINE
  8
0
 10
-17.841
 11
-17.771
 20
9.618
 21
9.709
  0
LINE
  8
0
 10
-17.771
 11
-17.293
 20
9.709
 21
10.536
  0
LINE
  8
0
 10
-17.293
 11
-17.249
 20
10.536
 21
10.642
  0
LINE
  8
0
 10
-17.249
 11
-17.236
 20
10.642
 21
10.755
  0
LINE
  8
0
 10
-17.236
 11
-17.253
 20
10.755
 21
10.864
  0
LINE
  8
0
 10
-17.253
 11
-17.3
 20
10.864
 21
10.964
  0
LINE
  8
0
 10
-17.3
 11
-17.813
 20
10.964
 21
11.736
  0
LINE
  8
0
 10
-17.813
 11
-17.86
 20
11.736
 21
11.837
  0
LINE
  8
0
 10
-17.86
 11
-17.876
 20
11.837
 21
11.946
  0
LINE
  8
0
 10
-17.876
 11
-17.863
 20
11.946
 21
12.058
  0
LINE
  8
0
 10
-17.863
 11
-17.833
 20
12.058
 21
12.132
  0
LINE
  8
0
 10
-17.833
 11
-17.306
 20
12.132
 21
12.884
  0
LINE
  8
0
 10
-17.306
 11
-16.737
 20
12.884
 21
13.604
  0
LINE
  8
0
 10
-16.737
 11
-16.675
 20
13.604
 21
13.655
  0
LINE
  8
0
 10
-16.675
 11
-16.571
 20
13.655
 21
13.699
  0
LINE
  8
0
 10
-16.571
 11
-16.462
 20
13.699
 21
13.714
  0
LINE
  8
0
 10
-16.462
 11
-16.352
 20
13.714
 21
13.698
  0
LINE
  8
0
 10
-16.352
 11
-15.465
 20
13.698
 21
13.429
  0
LINE
  8
0
 10
-15.465
 11
-15.356
 20
13.429
 21
13.412
  0
LINE
  8
0
 10
-15.356
 11
-15.246
 20
13.412
 21
13.428
  0
LINE
  8
0
 10
-15.246
 11
-15.142
 20
13.428
 21
13.473
  0
LINE
  8
0
 10
-15.142
 11
-15.053
 20
13.473
 21
13.545
  0
LINE
  8
0
 10
-15.053
 11
-14.398
 20
13.545
 21
14.24
  0
LINE
  8
0
 10
-14.398
 11
-14.33
 20
14.24
 21
14.333
  0
LINE
  8
0
 10
-14.33
 11
-14.291
 20
14.333
 21
14.44
  0
LINE
  8
0
 10
-14.291
 11
-14.282
 20
14.44
 21
14.55
  0
LINE
  8
0
 10
-14.282
 11
-14.305
 20
14.55
 21
14.658
  0
LINE
  8
0
 10
-14.305
 11
-14.626
 20
14.658
 21
15.528
  0
LINE
  8
0
 10
-14.626
 11
-14.648
 20
15.528
 21
15.637
  0
LINE
  8
0
 10
-14.648
 11
-14.639
 20
15.637
 21
15.747
  0
LINE
  8
0
 10
-14.639
 11
-14.601
 20
15.747
 21
15.853
  0
LINE
  8
0
 10
-14.601
 11
-14.554
 20
15.853
 21
15.918
  0
LINE
  8
0
 10
-14.554
 11
-13.869
 20
15.918
 21
16.528
  0
LINE
  8
0
 10
-13.869
 11
-13.148
 20
16.528
 21
17.097
  0
LINE
  8
0
 10
-13.148
 11
-13.076
 20
17.097
 21
17.132
  0
LINE
  8
0
 10
-13.076
 11
-12.965
 20
17.132
 21
17.151
  0
LINE
  8
0
 10
-12.965
 11
-12.855
 20
17.151
 21
17.141
  0
LINE
  8
0
 10
-12.855
 11
-12.752
 20
17.141
 21
17.1
  0
LINE
  8
0
 10
-12.752
 11
-11.951
 20
17.1
 21
16.633
  0
LINE
  8
0
 10
-11.951
 11
-11.849
 20
16.633
 21
16.592
  0
LINE
  8
0
 10
-11.849
 11
-11.739
 20
16.592
 21
16.582
  0
LINE
  8
0
 10
-11.739
 11
-11.627
 20
16.582
 21
16.601
  0
LINE
  8
0
 10
-11.627
 11
-11.523
 20
16.601
 21
16.652
  0
LINE
  8
0
 10
-11.523
 11
-10.726
 20
16.652
 21
17.176
  0
LINE
  8
0
 10
-10.726
 11
-10.639
 20
17.176
 21
17.251
  0
LINE
  8
0
 10
-10.639
 11
-10.576
 20
17.251
 21
17.346
  0
LINE
  8
0
 10
-10.576
 11
-10.542
 20
17.346
 21
17.452
  0
LINE
  8
0
 10
-10.542
 11
-10.539
 20
17.452
 21
17.562
  0
LINE
  8
0
 10
-10.539
 11
-10.651
 20
17.562
 21
18.482
  0
LINE
  8
0
 10
-10.651
 11
-10.647
 20
18.482
 21
18.593
  0
LINE
  8
0
 10
-10.647
 11
-10.613
 20
18.593
 21
18.698
  0
LINE
  8
0
 10
-10.613
 11
-10.552
 20
18.698
 21
18.793
  0
LINE
  8
0
 10
-10.552
 11
-10.491
 20
18.793
 21
18.845
  0
LINE
  8
0
 10
-10.491
 11
-9.683
 20
18.845
 21
19.281
  0
LINE
  8
0
 10
-9.683
 11
-8.851
 20
19.281
 21
19.669
  0
LINE
  8
0
 10
-8.851
 11
-8.773
 20
19.669
 21
19.686
  0
LINE
  8
0
 10
-8.773
 11
-8.661
 20
19.686
 21
19.679
  0
LINE
  8
0
 10
-8.661
 11
-8.556
 20
19.679
 21
19.644
  0
LINE
  8
0
 10
-8.556
 11
-8.465
 20
19.644
 21
19.58
  0
LINE
  8
0
 10
-8.465
 11
-7.793
 20
19.58
 21
18.941
  0
LINE
  8
0
 10
-7.793
 11
-7.703
 20
18.941
 21
18.877
  0
LINE
  8
0
 10
-7.703
 11
-7.598
 20
18.877
 21
18.842
  0
LINE
  8
0
 10
-7.598
 11
-7.485
 20
18.842
 21
18.835
  0
LINE
  8
0
 10
-7.485
 11
-7.373
 20
18.835
 21
18.86
  0
LINE
  8
0
 10
-7.373
 11
-6.475
 20
18.86
 21
19.187
  0
LINE
  8
0
 10
-6.475
 11
-6.373
 20
19.187
 21
19.24
  0
LINE
  8
0
 10
-6.373
 11
-6.291
 20
19.24
 21
19.318
  0
LINE
  8
0
 10
-6.291
 11
-6.233
 20
19.318
 21
19.412
  0
LINE
  8
0
 10
-6.233
 11
-6.205
 20
19.412
 21
19.519
  0
LINE
  8
0
 10
-6.205
 11
-6.102
 20
19.519
 21
20.44
  0
LINE
  8
0
 10
-6.102
 11
-6.073
 20
20.44
 21
20.548
  0
LINE
  8
0
 10
-6.073
 11
-6.015
 20
20.548
 21
20.642
  0
LINE
  8
0
 10
-6.015
 11
-5.933
 20
20.642
 21
20.72
  0
LINE
  8
0
 10
-5.933
 11
-5.862
 20
20.72
 21
20.757
  0
LINE
  8
0
 10
-5.862
 11
-4.976
 20
20.757
 21
20.994
  0
LINE
  8
0
 10
-4.976
 11
-4.077
 20
20.994
 21
21.18
  0
LINE
  8
0
 10
-4.077
 11
-3.997
 20
21.18
 21
21.179
  0
LINE
  8
0
 10
-3.997
 11
-3.889
 20
21.179
 21
21.146
  0
LINE
  8
0
 10
-3.889
 11
-3.795
 20
21.146
 21
21.087
  0
LINE
  8
0
 10
-3.795
 11
-3.721
 20
21.087
 21
21.004
  0
LINE
  8
0
 10
-3.721
 11
-3.215
 20
21.004
 21
20.228
  0
LINE
  8
0
 10
-3.215
 11
-3.142
 20
20.228
 21
20.145
  0
LINE
  8
0
 10
-3.142
 11
-3.048
 20
20.145
 21
20.086
  0
LINE
  8
0
 10
-3.048
 11
-2.939
 20
20.086
 21
20.054
  0
LINE
  8
0
 10
-2.939
 11
-2.824
 20
20.054
 21
20.052
  0
LINE
  8
0
 10
-2.824
 11
-1.876
 20
20.052
 21
20.163
  0
LINE
  8
0
 10
-1.876
 11
-1.765
 20
20.163
 21
20.191
  0
LINE
  8
0
 10
-1.765
 11
-1.666
 20
20.191
 21
20.248
  0
LINE
  8
0
 10
-1.666
 11
-1.588
 20
20.248
 21
20.326
  0
LINE
  8
0
 10
-1.588
 11
-1.537
 20
20.326
 21
20.424
  0
LINE
  8
0
 10
-1.537
 11
-1.223
 20
20.424
 21
21.296
  0
LINE
  8
0
 10
-1.223
 11
-1.17
 20
21.296
 21
21.394
  0
LINE
  8
0
 10
-1.17
 11
-1.093
 20
21.394
 21
21.473
  0
LINE
  8
0
 10
-1.093
 11
-0.995
 20
21.473
 21
21.529
  0
LINE
  8
0
 10
-0.995
 11
-0.918
 20
21.529
 21
21.549
  0
LINE
  8
0
 10
-0.918
 11
0
 20
21.549
 21
21.576
  0
LINE
  8
0
 10
0
 11
0.918
 20
21.576
 21
21.549
  0
LINE
  8
0
 10
0.918
 11
0.995
 20
21.549
 21
21.529
  0
LINE
  8
0
 10
0.995
 11
1.093
 20
21.529
 21
21.473
  0
LINE
  8
0
 10
1.093
 11
1.17
 20
21.473
 21
21.394
  0
LINE
  8
0
 10
1.17
 11
1.223
 20
21.394
 21
21.296
  0
LINE
  8
0
 10
1.223
 11
1.537
 20
21.296
 21
20.424
  0
LINE
  8
0
 10
1.537
 11
1.588
 20
20.424
 21
20.326
  0
LINE
  8
0
 10
1.588
 11
1.666
 20
20.326
 21
20.248
  0
LINE
  8
0
 10
1.666
 11
1.765
 20
20.248
 21
20.191
  0
LINE
  8
0
 10
1.765
 11
1.876
 20
20.191
 21
20.163
  0
LINE
  8
0
 10
1.876
 11
2.824
 20
20.163
 21
20.052
  0
LINE
  8
0
 10
2.824
 11
2.939
 20
20.052
 21
20.054
  0
LINE
  8
0
 10
2.939
 11
3.048
 20
20.054
 21
20.086
  0
LINE
  8
0
 10
3.048
 11
3.142
 20
20.086
 21
20.145
  0
LINE
  8
0
 10
3.142
 11
3.215
 20
20.145
 21
20.228
  0
LINE
  8
0
 10
3.215
 11
3.721
 20
20.228
 21
21.004
  0
LINE
  8
0
 10
3.721
 11
3.795
 20
21.004
 21
21.087
  0
LINE
  8
0
 10
3.795
 11
3.889
 20
21.087
 21
21.146
  0
LINE
  8
0
 10
3.889
 11
3.997
 20
21.146
 21
21.179
  0
LINE
  8
0
 10
3.997
 11
4.077
 20
21.179
 21
21.18
  0
LINE
  8
0
 10
4.077
 11
4.976
 20
21.18
 21
20.994
  0
LINE
  8
0
 10
4.976
 11
5.862
 20
20.994
 21
20.757
  0
LINE
  8
0
 10
5.862
 11
5.933
 20
20.757
 21
20.72
  0
LINE
  8
0
 10
5.933
 11
6.015
 20
20.72
 21
20.642
  0
LINE
  8
0
 10
6.015
 11
6.073
 20
20.642
 21
20.548
  0
LINE
  8
0
 10
6.073
 11
6.102
 20
20.548
 21
20.44
  0
LINE
  8
0
 10
6.102
 11
6.205
 20
20.44
 21
19.519
  0
LINE
  8
0
 10
6.205
 11
6.233
 20
19.519
 21
19.412
  0
LINE
  8
0
 10
6.233
 11
6.291
 20
19.412
 21
19.318
  0
LINE
  8
0
 10
6.291
 11
6.373
 20
19.318
 21
19.24
  0
LINE
  8
0
 10
6.373
 11
6.475
 20
19.24
 21
19.187
  0
LINE
  8
0
 10
6.475
 11
7.373
 20
19.187
 21
18.86
  0
LINE
  8
0
 10
7.373
 11
7.485
 20
18.86
 21
18.835
  0
LINE
  8
0
 10
7.485
 11
7.598
 20
18.835
 21
18.842
  0
LINE
  8
0
 10
7.598
 11
7.703
 20
18.842
 21
18.877
  0
LINE
  8
0
 10
7.703
 11
7.793
 20
18.877
 21
18.941
  0
LINE
  8
0
 10
7.793
 11
8.465
 20
18.941
 21
19.58
  0
LINE
  8
0
 10
8.465
 11
8.556
 20
19.58
 21
19.644
  0
LINE
  8
0
 10
8.556
 11
8.661
 20
19.644
 21
19.679
  0
LINE
  8
0
 10
8.661
 11
8.773
 20
19.679
 21
19.686
  0
LINE
  8
0
 10
8.773
 11
8.851
 20
19.686
 21
19.669
  0
LINE
  8
0
 10
8.851
 11
9.683
 20
19.669
 21
19.281
  0
LINE
  8
0
 10
9.683
 11
10.491
 20
19.281
 21
18.845
  0
LINE
  8
0
 10
10.491
 11
10.552
 20
18.845
 21
18.793
  0
LINE
  8
0
 10
10.552
 11
10.613
 20
18.793
 21
18.698
  0
LINE
  8
0
 10
10.613
 11
10.647
 20
18.698
 21
18.593
  0
LINE
  8
0
 10
10.647
 11
10.651
 20
18.593
 21
18.482
  0
LINE
  8
0
 10
10.651
 11
10.539
 20
18.482
 21
17.562
  0
LINE
  8
0
 10
10.539
 11
10.542
 20
17.562
 21
17.452
  0
LINE
  8
0
 10
10.542
 11
10.576
 20
17.452
 21
17.346
  0
LINE
  8
0
 10
10.576
 11
10.639
 20
17.346
 21
17.251
  0
LINE
  8
0
 10
10.639
 11
10.726
 20
17.251
 21
17.176
  0
LINE
  8
0
 10
10.726
 11
11.523
 20
17.176
 21
16.652
  0
LINE
  8
0
 10
11.523
 11
11.627
 20
16.652
 21
16.601
  0
LINE
  8
0
 10
11.627
 11
11.739
 20
16.601
 21
16.582
  0
LINE
  8
0
 10
11.739
 11
11.849
 20
16.582
 21
16.592
  0
LINE
  8
0
 10
11.849
 11
11.951
 20
16.592
 21
16.633
  0
LINE
  8
0
 10
11.951
 11
12.752
 20
16.633
 21
17.1
  0
LINE
  8
0
 10
12.752
 11
12.855
 20
17.1
 21
17.141
  0
LINE
  8
0
 10
12.855
 11
12.965
 20
17.141
 21
17.151
  0
LINE
  8
0
 10
12.965
 11
13.076
 20
17.151
 21
17.132
  0
LINE
  8
0
 10
13.076
 11
13.148
 20
17.132
 21
17.097
  0
LINE
  8
0
 10
13.148
 11
13.869
 20
17.097
 21
16.528
  0
LINE
  8
0
 10
13.869
 11
14.554
 20
16.528
 21
15.918
  0
LINE
  8
0
 10
14.554
 11
14.601
 20
15.918
 21
15.853
  0
LINE
  8
0
 10
14.601
 11
14.639
 20
15.853
 21
15.747
  0
LINE
  8
0
 10
14.639
 11
14.648
 20
15.747
 21
15.637
  0
LINE
  8
0
 10
14.648
 11
14.626
 20
15.637
 21
15.528
  0
LINE
  8
0
 10
14.626
 11
14.305
 20
15.528
 21
14.658
  0
LINE
  8
0
 10
14.305
 11
14.282
 20
14.658
 21
14.55
  0
LINE
  8
0
 10
14.282
 11
14.291
 20
14.55
 21
14.44
  0
LINE
  8
0
 10
14.291
 11
14.33
 20
14.44
 21
14.333
  0
LINE
  8
0
 10
14.33
 11
14.398
 20
14.333
 21
14.24
  0
LINE
  8
0
 10
14.398
 11
15.053
 20
14.24
 21
13.545
  0
LINE
  8
0
 10
15.053
 11
15.142
 20
13.545
 21
13.473
  0
LINE
  8
0
 10
15.142
 11
15.246
 20
13.473
 21
13.428
  0
LINE
  8
0
 10
15.246
 11
15.356
 20
13.428
 21
13.412
  0
LINE
  8
0
 10
15.356
 11
15.465
 20
13.412
 21
13.429
  0
LINE
  8
0
 10
15.465
 11
16.352
 20
13.429
 21
13.698
  0
LINE
  8
0
 10
16.352
 11
16.462
 20
13.698
 21
13.714
  0
LINE
  8
0
 10
16.462
 11
16.571
 20
13.714
 21
13.699
  0
LINE
  8
0
 10
16.571
 11
16.675
 20
13.699
 21
13.655
  0
LINE
  8
0
 10
16.675
 11
16.737
 20
13.655
 21
13.604
  0
LINE
  8
0
 10
16.737
 11
17.306
 20
13.604
 21
12.884
  0
LINE
  8
0
 10
17.306
 11
17.833
 20
12.884
 21
12.132
  0
LINE
  8
0
 10
17.833
 11
17.863
 20
12.132
 21
12.058
  0
LINE
  8
0
 10
17.863
 11
17.876
 20
12.058
 21
11.946
  0
LINE
  8
0
 10
17.876
 11
17.86
 20
11.946
 21
11.837
  0
LINE
  8
0
 10
17.86
 11
17.813
 20
11.837
 21
11.736
  0
LINE
  8
0
 10
17.813
 11
17.3
 20
11.736
 21
10.964
  0
LINE
  8
0
 10
17.3
 11
17.253
 20
10.964
 21
10.864
  0
LINE
  8
0
 10
17.253
 11
17.236
 20
10.864
 21
10.755
  0
LINE
  8
0
 10
17.236
 11
17.249
 20
10.755
 21
10.642
  0
LINE
  8
0
 10
17.249
 11
17.293
 20
10.642
 21
10.536
  0
LINE
  8
0
 10
17.293
 11
17.771
 20
10.536
 21
9.709
  0
LINE
  8
0
 10
17.771
 11
17.841
 20
9.709
 21
9.618
  0
LINE
  8
0
 10
17.841
 11
17.932
 20
9.618
 21
9.55
  0
LINE
  8
0
 10
17.932
 11
18.035
 20
9.55
 21
9.509
  0
LINE
  8
0
 10
18.035
 11
18.145
 20
9.509
 21
9.5
  0
LINE
  8
0
 10
18.145
 11
19.07
 20
9.5
 21
9.558
  0
LINE
  8
0
 10
19.07
 11
19.181
 20
9.558
 21
9.548
  0
LINE
  8
0
 10
19.181
 11
19.284
 20
9.548
 21
9.508
  0
LINE
  8
0
 10
19.284
 11
19.374
 20
9.508
 21
9.441
  0
LINE
  8
0
 10
19.374
 11
19.423
 20
9.441
 21
9.378
  0
LINE
  8
0
 10
19.423
 11
19.811
 20
9.378
 21
8.546
  0
LINE
  8
0
 10
19.811
 11
20.15
 20
8.546
 21
7.693
  0
LINE
  8
0
 10
20.15
 11
20.163
 20
7.693
 21
7.614
  0
LINE
  8
0
 10
20.163
 11
20.149
 20
7.614
 21
7.502
  0
LINE
  8
0
 10
20.149
 11
20.108
 20
7.502
 21
7.399
  0
LINE
  8
0
 10
20.108
 11
20.039
 20
7.399
 21
7.312
  0
LINE
  8
0
 10
20.039
 11
19.362
 20
7.312
 21
6.679
  0
LINE
  8
0
 10
19.362
 11
19.293
 20
6.679
 21
6.592
  0
LINE
  8
0
 10
19.293
 11
19.252
 20
6.592
 21
6.49
  0
LINE
  8
0
 10
19.252
 11
19.239
 20
6.49
 21
6.377
  0
LINE
  8
0
 10
19.239
 11
19.257
 20
6.377
 21
6.263
  0
LINE
  8
0
 10
19.257
 11
19.531
 20
6.263
 21
5.349
  0
LINE
  8
0
 10
19.531
 11
19.578
 20
5.349
 21
5.244
  0
LINE
  8
0
 10
19.578
 11
19.651
 20
5.244
 21
5.157
  0
LINE
  8
0
 10
19.651
 11
19.742
 20
5.157
 21
5.094
  0
LINE
  8
0
 10
19.742
 11
19.847
 20
5.094
 21
5.06
  0
LINE
  8
0
 10
19.847
 11
20.76
 20
5.06
 21
4.903
  0
LINE
  8
0
 10
20.76
 11
20.866
 20
4.903
 21
4.868
  0
LINE
  8
0
 10
20.866
 11
20.957
 20
4.868
 21
4.805
  0
LINE
  8
0
 10
20.957
 11
21.03
 20
4.805
 21
4.719
  0
LINE
  8
0
 10
21.03
 11
21.062
 20
4.719
 21
4.646
  0
LINE
  8
0
 10
21.062
 11
21.248
 20
4.646
 21
3.747
  0
LINE
  8
0
 10
21.248
 11
21.381
 20
3.747
 21
2.838
  0
LINE
  8
0
 10
21.381
 11
21.375
 20
2.838
 21
2.758
  0
LINE
  8
0
 10
21.375
 11
21.336
 20
2.758
 21
2.653
  0
LINE
  8
0
 10
21.336
 11
21.272
 20
2.653
 21
2.563
  0
LINE
  8
0
 10
21.272
 11
21.185
 20
2.563
 21
2.493
  0
LINE
  8
0
 10
21.185
 11
20.381
 20
2.493
 21
2.033
  0
LINE
  8
0
 10
20.381
 11
20.293
 20
2.033
 21
1.965
  0
LINE
  8
0
 10
20.293
 11
20.23
 20
1.965
 21
1.875
  0
LINE
  8
0
 10
20.23
 11
20.191
 20
1.875
 21
1.768
  0
LINE
  8
0
 10
20.191
 11
20.182
 20
1.768
 21
1.654
  0
LINE
  8
0
 10
20.182
 11
20.238
 20
1.654
 21
0.701
  0
LINE
  8
0
 10
20.238
 11
20.26
 20
0.701
 21
0.588
  0
LINE
  8
0
 10
20.26
 11
20.31
 20
0.588
 21
0.486
  0
LINE
  8
0
 10
20.31
 11
20.384
 20
0.486
 21
0.404
  0
LINE
  8
0
 10
20.384
 11
20.479
 20
0.404
 21
0.346
  0
LINE
  8
0
 10
20.479
 11
21.331
 20
0.346
 21
-0.017
  0
LINE
  8
0
 10
21.331
 11
21.426
 20
-0.017
 21
-0.076
  0
LINE
  8
0
 10
21.426
 11
21.5
 20
-0.076
 21
-0.158
  0
LINE
  8
0
 10
21.5
 11
21.551
 20
-0.158
 21
-0.258
  0
LINE
  8
0
 10
21.551
 11
21.566
 20
-0.258
 21
-0.337
  0
LINE
  8
0
 10
21.566
 11
21.539
 20
-0.337
 21
-1.255
  0
LINE
  8
0
 10
21.539
 11
21.459
 20
-1.255
 21
-2.169
  0
LINE
  8
0
 10
21.459
 11
21.435
 20
-2.169
 21
-2.245
  0
LINE
  8
0
 10
21.435
 11
21.373
 20
-2.245
 21
-2.339
  0
LINE
  8
0
 10
21.373
 11
21.29
 20
-2.339
 21
-2.412
  0
LINE
  8
0
 10
21.29
 11
21.189
 20
-2.412
 21
-2.459
  0
LINE
  8
0
 10
21.189
 11
20.3
 20
-2.459
 21
-2.721
  0
LINE
  8
0
 10
20.3
 11
20.2
 20
-2.721
 21
-2.768
  0
LINE
  8
0
 10
20.2
 11
20.117
 20
-2.768
 21
-2.841
  0
LINE
  8
0
 10
20.117
 11
20.054
 20
-2.841
 21
-2.936
  0
LINE
  8
0
 10
20.054
 11
20.02
 20
-2.936
 21
-3.045
  0
LINE
  8
0
 10
20.02
 11
19.854
 20
-3.045
 21
-3.986
  0
LINE
  8
0
 10
19.854
 11
19.849
 20
-3.986
 21
-4.1
  0
LINE
  8
0
 10
19.849
 11
19.875
 20
-4.1
 21
-4.211
  0
LINE
  8
0
 10
19.875
 11
19.928
 20
-4.211
 21
-4.308
  0
LINE
  8
0
 10
19.928
 11
20.007
 20
-4.308
 21
-4.386
  0
LINE
  8
0
 10
20.007
 11
20.752
 20
-4.386
 21
-4.936
  0
LINE
  8
0
 10
20.752
 11
20.831
 20
-4.936
 21
-5.015
  0
LINE
  8
0
 10
20.831
 11
20.884
 20
-5.015
 21
-5.112
  0
LINE
  8
0
 10
20.884
 11
20.91
 20
-5.112
 21
-5.221
  0
LINE
  8
0
 10
20.91
 11
20.907
 20
-5.221
 21
-5.301
  0
LINE
  8
0
 10
20.907
 11
20.669
 20
-5.301
 21
-6.188
  0
LINE
  8
0
 10
20.669
 11
20.38
 20
-6.188
 21
-7.059
  0
LINE
  8
0
 10
20.38
 11
20.339
 20
-7.059
 21
-7.128
  0
LINE
  8
0
 10
20.339
 11
20.257
 20
-7.128
 21
-7.205
  0
LINE
  8
0
 10
20.257
 11
20.16
 20
-7.205
 21
-7.257
  0
LINE
  8
0
 10
20.16
 11
20.051
 20
-7.257
 21
-7.28
  0
LINE
  8
0
 10
20.051
 11
19.125
 20
-7.28
 21
-7.33
  0
LINE
  8
0
 10
19.125
 11
19.017
 20
-7.33
 21
-7.351
  0
LINE
  8
0
 10
19.017
 11
18.919
 20
-7.351
 21
-7.403
  0
LINE
  8
0
 10
18.919
 11
18.837
 20
-7.403
 21
-7.481
  0
LINE
  8
0
 10
18.837
 11
18.778
 20
-7.481
 21
-7.58
  0
LINE
  8
0
 10
18.778
 11
18.4
 20
-7.58
 21
-8.457
  0
LINE
  8
0
 10
18.4
 11
18.368
 20
-8.457
 21
-8.567
  0
LINE
  8
0
 10
18.368
 11
18.368
 20
-8.567
 21
-8.681
  0
LINE
  8
0
 10
18.368
 11
18.397
 20
-8.681
 21
-8.788
  0
LINE
  8
0
 10
18.397
 11
18.456
 20
-8.788
 21
-8.881
  0
LINE
  8
0
 10
18.456
 11
19.055
 20
-8.881
 21
-9.589
  0
LINE
  8
0
 10
19.055
 11
19.113
 20
-9.589
 21
-9.684
  0
LINE
  8
0
 10
19.113
 11
19.142
 20
-9.684
 21
-9.79
  0
LINE
  8
0
 10
19.142
 11
19.143
 20
-9.79
 21
-9.903
  0
LINE
  8
0
 10
19.143
 11
19.121
 20
-9.903
 21
-9.98
  0
LINE
  8
0
 10
19.121
 11
18.685
 20
-9.98
 21
-10.788
  0
LINE
  8
0
 10
18.685
 11
18.203
 20
-10.788
 21
-11.569
  0
LINE
  8
0
 10
18.203
 11
18.147
 20
-11.569
 21
-11.627
  0
LINE
  8
0
 10
18.147
 11
18.05
 20
-11.627
 21
-11.683
  0
LINE
  8
0
 10
18.05
 11
17.943
 20
-11.683
 21
-11.711
  0
LINE
  8
0
 10
17.943
 11
17.831
 20
-11.711
 21
-11.708
  0
LINE
  8
0
 10
17.831
 11
16.92
 20
-11.708
 21
-11.543
  0
LINE
  8
0
 10
16.92
 11
16.809
 20
-11.543
 21
-11.539
  0
LINE
  8
0
 10
16.809
 11
16.702
 20
-11.539
 21
-11.567
  0
LINE
  8
0
 10
16.702
 11
16.604
 20
-11.567
 21
-11.624
  0
LINE
  8
0
 10
16.604
 11
16.523
 20
-11.624
 21
-11.706
  0
LINE
  8
0
 10
16.523
 11
15.953
 20
-11.706
 21
-12.472
  0
LINE
  8
0
 10
15.953
 11
15.897
 20
-12.472
 21
-12.572
  0
LINE
  8
0
 10
15.897
 11
15.871
 20
-12.572
 21
-12.683
  0
LINE
  8
0
 10
15.871
 11
15.875
 20
-12.683
 21
-12.794
  0
LINE
  8
0
 10
15.875
 11
15.91
 20
-12.794
 21
-12.898
  0
LINE
  8
0
 10
15.91
 11
16.33
 20
-12.898
 21
-13.725
  0
LINE
  8
0
 10
16.33
 11
16.365
 20
-13.725
 21
-13.83
  0
LINE
  8
0
 10
16.365
 11
16.369
 20
-13.83
 21
-13.941
  0
LINE
  8
0
 10
16.369
 11
16.343
 20
-13.941
 21
-14.051
  0
LINE
  8
0
 10
16.343
 11
16.304
 20
-14.051
 21
-14.12
  0
LINE
  8
0
 10
16.304
 11
15.694
 20
-14.12
 21
-14.806
  0
LINE
  8
0
 10
15.694
 11
15.044
 20
-14.806
 21
-15.455
  0
LINE
  8
0
 10
15.044
 11
14.977
 20
-15.455
 21
-15.498
  0
LINE
  8
0
 10
14.977
 11
14.869
 20
-15.498
 21
-15.53
  0
LINE
  8
0
 10
14.869
 11
14.758
 20
-15.53
 21
-15.533
  0
LINE
  8
0
 10
14.758
 11
14.651
 20
-15.533
 21
-15.504
  0
LINE
  8
0
 10
14.651
 11
13.801
 20
-15.504
 21
-15.134
  0
LINE
  8
0
 10
13.801
 11
13.695
 20
-15.134
 21
-15.104
  0
LINE
  8
0
 10
13.695
 11
13.584
 20
-15.104
 21
-15.107
  0
LINE
  8
0
 10
13.584
 11
13.476
 20
-15.107
 21
-15.139
  0
LINE
  8
0
 10
13.476
 11
13.378
 20
-15.139
 21
-15.201
  0
LINE
  8
0
 10
13.378
 11
12.647
 20
-15.201
 21
-15.815
  0
LINE
  8
0
 10
12.647
 11
12.569
 20
-15.815
 21
-15.9
  0
LINE
  8
0
 10
12.569
 11
12.518
 20
-15.9
 21
-16.001
  0
LINE
  8
0
 10
12.518
 11
12.497
 20
-16.001
 21
-16.11
  0
LINE
  8
0
 10
12.497
 11
12.507
 20
-16.11
 21
-16.22
  0
LINE
  8
0
 10
12.507
 11
12.725
 20
-16.22
 21
-17.121
  0
LINE
  8
0
 10
12.725
 11
12.734
 20
-17.121
 21
-17.232
  0
LINE
  8
0
 10
12.734
 11
12.712
 20
-17.232
 21
-17.34
  0
LINE
  8
0
 10
12.712
 11
12.662
 20
-17.34
 21
-17.441
  0
LINE
  8
0
 10
12.662
 11
12.608
 20
-17.441
 21
-17.5
  0
LINE
  8
0
 10
12.608
 11
11.856
 20
-17.5
 21
-18.026
  0
LINE
  8
0
 10
11.856
 11
11.075
 20
-18.026
 21
-18.508
  0
LINE
  8
0
 10
11.075
 11
10.999
 20
-18.508
 21
-18.534
  0
LINE
  8
0
 10
10.999
 11
10.887
 20
-18.534
 21
-18.541
  0
LINE
  8
0
 10
10.887
 11
10.778
 20
-18.541
 21
-18.518
  0
LINE
  8
0
 10
10.778
 11
10.681
 20
-18.518
 21
-18.465
  0
LINE
  8
0
 10
10.681
 11
9.939
 20
-18.465
 21
-17.908
  0
LINE
  8
0
 10
9.939
 11
9.842
 20
-17.908
 21
-17.855
  0
LINE
  8
0
 10
9.842
 11
9.734
 20
-17.855
 21
-17.832
  0
LINE
  8
0
 10
9.734
 11
9.621
 20
-17.832
 21
-17.839
  0
LINE
  8
0
 10
9.621
 11
9.512
 20
-17.839
 21
-17.877
  0
LINE
  8
0
 10
9.512
 11
8.659
 20
-17.877
 21
-18.305
  0
LINE
  8
0
 10
8.659
 11
8.564
 20
-18.305
 21
-18.37
  0
LINE
  8
0
 10
8.564
 11
8.491
 20
-18.37
 21
-18.457
  0
LINE
  8
0
 10
8.491
 11
8.445
 20
-18.457
 21
-18.557
  0
LINE
  8
0
 10
8.445
 11
8.429
 20
-18.557
 21
-18.667
  0
LINE
  8
0
 10
8.429
 11
8.433
 20
-18.667
 21
-19.594
  0
LINE
  8
0
 10
8.433
 11
8.417
 20
-19.594
 21
-19.704
  0
LINE
  8
0
 10
8.417
 11
8.371
 20
-19.704
 21
-19.804
  0
LINE
  8
0
 10
8.371
 11
8.299
 20
-19.804
 21
-19.891
  0
LINE
  8
0
 10
8.299
 11
8.232
 20
-19.891
 21
-19.936
  0
LINE
  8
0
 10
8.232
 11
7.379
 20
-19.936
 21
-20.275
  0
LINE
  8
0
 10
7.379
 11
6.508
 20
-20.275
 21
-20.563
  0
LINE
  8
0
 10
6.508
 11
6.428
 20
-20.563
 21
-20.571
  0
LINE
  8
0
 10
6.428
 11
6.317
 20
-20.571
 21
-20.552
  0
LINE
  8
0
 10
6.317
 11
6.217
 20
-20.552
 21
-20.504
  0
LINE
  8
0
 10
6.217
 11
6.134
 20
-20.504
 21
-20.43
  0
LINE
  8
0
 10
6.134
 11
5.542
 20
-20.43
 21
-19.718
  0
LINE
  8
0
 10
5.542
 11
5.459
 20
-19.718
 21
-19.644
  0
LINE
  8
0
 10
5.459
 11
5.36
 20
-19.644
 21
-19.597
  0
LINE
  8
0
 10
5.36
 11
5.248
 20
-19.597
 21
-19.577
  0
LINE
  8
0
 10
5.248
 11
5.133
 20
-19.577
 21
-19.589
  0
LINE
  8
0
 10
5.133
 11
4.204
 20
-19.589
 21
-19.809
  0
LINE
  8
0
 10
4.204
 11
4.097
 20
-19.809
 21
-19.85
  0
LINE
  8
0
 10
4.097
 11
4.005
 20
-19.85
 21
-19.918
  0
LINE
  8
0
 10
4.005
 11
3.937
 20
-19.918
 21
-20.005
  0
LINE
  8
0
 10
3.937
 11
3.897
 20
-20.005
 21
-20.108
  0
LINE
  8
0
 10
3.897
 11
3.687
 20
-20.108
 21
-21.01
  0
LINE
  8
0
 10
3.687
 11
3.646
 20
-21.01
 21
-21.114
  0
LINE
  8
0
 10
3.646
 11
3.578
 20
-21.114
 21
-21.201
  0
LINE
  8
0
 10
3.578
 11
3.488
 20
-21.201
 21
-21.268
  0
LINE
  8
0
 10
3.488
 11
3.413
 20
-21.268
 21
-21.297
  0
LINE
  8
0
 10
3.413
 11
2.505
 20
-21.297
 21
-21.43
  0
LINE
  8
0
 10
2.505
 11
1.59
 20
-21.43
 21
-21.51
  0
LINE
  8
0
 10
1.59
 11
1.511
 20
-21.51
 21
-21.499
  0
LINE
  8
0
 10
1.511
 11
1.408
 20
-21.499
 21
-21.454
  0
LINE
  8
0
 10
1.408
 11
1.321
 20
-21.454
 21
-21.385
  0
LINE
  8
0
 10
1.321
 11
1.257
 20
-21.385
 21
-21.294
  0
LINE
  8
0
 10
1.257
 11
0.845
 20
-21.294
 21
-20.464
  0
LINE
  8
0
 10
0.845
 11
0.782
 20
-20.464
 21
-20.373
  0
LINE
  8
0
 10
0.782
 11
0.696
 20
-20.373
 21
-20.304
  0
LINE
  8
0
 10
0.696
 11
0.591
 20
-20.304
 21
-20.259
  0
LINE
  8
0
 10
0.591
 11
0.477
 20
-20.259
 21
-20.244
  0
LINE
  8
0
 10
0.477
 11
-0.477
 20
-20.244
 21
-20.244
  0
LINE
  8
0
 10
-0.477
 11
-0.591
 20
-20.244
 21
-20.259
  0
LINE
  8
0
 10
-0.591
 11
-0.696
 20
-20.259
 21
-20.304
  0
LINE
  8
0
 10
-0.696
 11
-0.782
 20
-20.304
 21
-20.373
  0
LINE
  8
0
 10
-0.782
 11
-0.845
 20
-20.373
 21
-20.464
  0
LINE
  8
0
 10
-0.845
 11
-1.257
 20
-20.464
 21
-21.294
  0
LINE
  8
0
 10
-1.257
 11
-1.321
 20
-21.294
 21
-21.385
  0
LINE
  8
0
 10
-1.321
 11
-1.408
 20
-21.385
 21
-21.454
  0
LINE
  8
0
 10
-1.408
 11
-1.511
 20
-21.454
 21
-21.499
  0
LINE
  8
0
 10
-1.511
 11
-1.59
 20
-21.499
 21
-21.51
  0
LINE
  8
0
 10
-1.59
 11
-2.505
 20
-21.51
 21
-21.43
  0
LINE
  8
0
 10
-2.505
 11
-3.413
 20
-21.43
 21
-21.297
  0
LINE
  8
0
 10
-3.413
 11
-3.488
 20
-21.297
 21
-21.268
  0
LINE
  8
0
 10
-3.488
 11
-3.578
 20
-21.268
 21
-21.201
  0
LINE
  8
0
 10
-3.578
 11
-3.646
 20
-21.201
 21
-21.114
  0
LINE
  8
0
 10
-3.646
 11
-3.687
 20
-21.114
 21
-21.01
  0
LINE
  8
0
 10
-3.687
 11
-3.897
 20
-21.01
 21
-20.108
  0
LINE
  8
0
 10
-3.897
 11
-3.937
 20
-20.108
 21
-20.005
  0
LINE
  8
0
 10
-3.937
 11
-4.005
 20
-20.005
 21
-19.918
  0
LINE
  8
0
 10
-4.005
 11
-4.097
 20
-19.918
 21
-19.85
  0
LINE
  8
0
 10
-4.097
 11
-4.204
 20
-19.85
 21
-19.809
  0
LINE
  8
0
 10
-4.204
 11
-5.133
 20
-19.809
 21
-19.589
  0
LINE
  8
0
 10
-5.133
 11
-5.248
 20
-19.589
 21
-19.577
  0
LINE
  8
0
 10
-5.248
 11
-5.36
 20
-19.577
 21
-19.597
  0
LINE
  8
0
 10
-5.36
 11
-5.459
 20
-19.597
 21
-19.644
  0
LINE
  8
0
 10
-5.459
 11
-5.542
 20
-19.644
 21
-19.718
  0
LINE
  8
0
 10
-5.542
 11
-6.134
 20
-19.718
 21
-20.43
  0
LINE
  8
0
 10
-6.134
 11
-6.217
 20
-20.43
 21
-20.504
  0
LINE
  8
0
 10
-6.217
 11
-6.317
 20
-20.504
 21
-20.552
  0
LINE
  8
0
 10
-6.317
 11
-6.428
 20
-20.552
 21
-20.571
  0
LINE
  8
0
 10
-6.428
 11
-6.508
 20
-20.571
 21
-20.563
  0
LINE
  8
0
 10
-6.508
 11
-7.379
 20
-20.563
 21
-20.275
  0
LINE
  8
0
 10
-7.379
 11
-8.232
 20
-20.275
 21
-19.936
  0
LINE
  8
0
 10
-8.232
 11
-8.299
 20
-19.936
 21
-19.891
  0
LINE
  8
0
 10
-8.299
 11
-8.371
 20
-19.891
 21
-19.804
  0
LINE
  8
0
 10
-8.371
 11
-8.417
 20
-19.804
 21
-19.704
  0
LINE
  8
0
 10
-8.417
 11
-8.433
 20
-19.704
 21
-19.594
  0
LINE
  8
0
 10
-8.433
 11
-8.429
 20
-19.594
 21
-18.667
  0
LINE
  8
0
 10
-8.429
 11
-8.445
 20
-18.667
 21
-18.557
  0
LINE
  8
0
 10
-8.445
 11
-8.491
 20
-18.557
 21
-18.457
  0
LINE
  8
0
 10
-8.491
 11
-8.564
 20
-18.457
 21
-18.37
  0
LINE
  8
0
 10
-8.564
 11
-8.659
 20
-18.37
 21
-18.305
  0
LINE
  8
0
 10
-8.659
 11
-9.512
 20
-18.305
 21
-17.877
  0
LINE
  8
0
 10
-9.512
 11
-9.621
 20
-17.877
 21
-17.839
  0
LINE
  8
0
 10
-9.621
 11
-9.734
 20
-17.839
 21
-17.832
  0
LINE
  8
0
 10
-9.734
 11
-9.842
 20
-17.832
 21
-17.855
  0
LINE
  8
0
 10
-9.842
 11
-9.939
 20
-17.855
 21
-17.908
  0
LINE
  8
0
 10
-9.939
 11
-10.681
 20
-17.908
 21
-18.465
  0
LINE
  8
0
 10
-10.681
 11
-10.778
 20
-18.465
 21
-18.518
  0
LINE
  8
0
 10
-10.778
 11
-10.887
 20
-18.518
 21
-18.541
  0
LINE
  8
0
 10
-10.887
 11
-10.999
 20
-18.541
 21
-18.534
  0
LINE
  8
0
 10
-10.999
 11
-11.075
 20
-18.534
 21
-18.508
  0
LINE
  8
0
 10
-11.075
 11
-11.856
 20
-18.508
 21
-18.026
  0
LINE
  8
0
 10
-11.856
 11
-12.608
 20
-18.026
 21
-17.5
  0
LINE
  8
0
 10
-12.608
 11
-12.662
 20
-17.5
 21
-17.441
  0
LINE
  8
0
 10
-12.662
 11
-12.712
 20
-17.441
 21
-17.34
  0
LINE
  8
0
 10
-12.712
 11
-12.734
 20
-17.34
 21
-17.232
  0
LINE
  8
0
 10
-12.734
 11
-12.725
 20
-17.232
 21
-17.121
  0
LINE
  8
0
 10
-12.725
 11
-12.507
 20
-17.121
 21
-16.22
  0
LINE
  8
0
 10
-12.507
 11
-12.497
 20
-16.22
 21
-16.11
  0
LINE
  8
0
 10
-12.497
 11
-12.518
 20
-16.11
 21
-16.001
  0
LINE
  8
0
 10
-12.518
 11
-12.569
 20
-16.001
 21
-15.9
  0
LINE
  8
0
 10
-12.569
 11
-12.647
 20
-15.9
 21
-15.815
  0
LINE
  8
0
 10
-12.647
 11
-13.378
 20
-15.815
 21
-15.201
  0
LINE
  8
0
 10
-13.378
 11
-13.476
 20
-15.201
 21
-15.139
  0
LINE
  8
0
 10
-13.476
 11
-13.584
 20
-15.139
 21
-15.107
  0
LINE
  8
0
 10
-13.584
 11
-13.695
 20
-15.107
 21
-15.104
  0
LINE
  8
0
 10
-13.695
 11
-13.801
 20
-15.104
 21
-15.134
  0
LINE
  8
0
 10
-13.801
 11
-14.651
 20
-15.134
 21
-15.504
  0
LINE
  8
0
 10
-14.651
 11
-14.758
 20
-15.504
 21
-15.533
  0
LINE
  8
0
 10
-14.758
 11
-14.869
 20
-15.533
 21
-15.53
  0
LINE
  8
0
 10
-14.869
 11
-14.977
 20
-15.53
 21
-15.498
  0
LINE
  8
0
 10
-14.977
 11
-15.044
 20
-15.498
 21
-15.455
  0
LINE
  8
0
 10
-15.044
 11
-15.694
 20
-15.455
 21
-14.806
  0
LINE
  8
0
 10
-15.694
 11
-16.304
 20
-14.806
 21
-14.12
  0
LINE
  8
0
 10
-16.304
 11
-16.343
 20
-14.12
 21
-14.051
  0
LINE
  8
0
 10
-16.343
 11
-16.369
 20
-14.051
 21
-13.941
  0
LINE
  8
0
 10
-16.369
 11
-16.365
 20
-13.941
 21
-13.83
  0
LINE
  8
0
 10
-16.365
 11
-16.33
 20
-13.83
 21
-13.725
  0
LINE
  8
0
 10
-16.33
 11
-15.91
 20
-13.725
 21
-12.898
  0
LINE
  8
0
 10
-15.91
 11
-15.875
 20
-12.898
 21
-12.794
  0
LINE
  8
0
 10
-15.875
 11
-15.871
 20
-12.794
 21
-12.683
  0
LINE
  8
0
 10
-15.871
 11
-15.897
 20
-12.683
 21
-12.572
  0
LINE
  8
0
 10
-15.897
 11
-15.953
 20
-12.572
 21
-12.472
  0
LINE
  8
0
 10
-15.953
 11
-16.523
 20
-12.472
 21
-11.706
  0
LINE
  8
0
 10
-16.523
 11
-16.604
 20
-11.706
 21
-11.624
  0
LINE
  8
0
 10
-16.604
 11
-16.702
 20
-11.624
 21
-11.567
  0
LINE
  8
0
 10
-16.702
 11
-16.809
 20
-11.567
 21
-11.539
  0
LINE
  8
0
 10
-16.809
 11
-16.92
 20
-11.539
 21
-11.543
  0
LINE
  8
0
 10
-16.92
 11
-17.831
 20
-11.543
 21
-11.708
  0
LINE
  8
0
 10
-17.831
 11
-17.943
 20
-11.708
 21
-11.711
  0
LINE
  8
0
 10
-17.943
 11
-18.05
 20
-11.711
 21
-11.683
  0
LINE
  8
0
 10
-18.05
 11
-18.147
 20
-11.683
 21
-11.627
  0
LINE
  8
0
 10
-18.147
 11
-18.203
 20
-11.627
 21
-11.569
  0
LINE
  8
0
 10
-18.203
 11
-18.685
 20
-11.569
 21
-10.788
  0
LINE
  8
0
 10
-18.685
 11
-19.121
 20
-10.788
 21
-9.98
  0
LINE
  8
0
 10
-19.121
 11
-19.143
 20
-9.98
 21
-9.903
  0
LINE
  8
0
 10
-19.143
 11
-19.142
 20
-9.903
 21
-9.79
  0
LINE
  8
0
 10
-19.142
 11
-19.113
 20
-9.79
 21
-9.684
  0
LINE
  8
0
 10
-19.113
 11
-19.055
 20
-9.684
 21
-9.589
  0
LINE
  8
0
 10
-19.055
 11
-18.456
 20
-9.589
 21
-8.881
  0
LINE
  8
0
 10
-18.456
 11
-18.397
 20
-8.881
 21
-8.788
  0
LINE
  8
0
 10
-18.397
 11
-18.368
 20
-8.788
 21
-8.681
  0
LINE
  8
0
 10
-18.368
 11
-18.368
 20
-8.681
 21
-8.567
  0
LINE
  8
0
 10
-18.368
 11
-18.4
 20
-8.567
 21
-8.457
  0
LINE
  8
0
 10
-18.4
 11
-18.778
 20
-8.457
 21
-7.58
  0
LINE
  8
0
 10
-18.778
 11
-18.837
 20
-7.58
 21
-7.481
  0
LINE
  8
0
 10
-18.837
 11
-18.919
 20
-7.481
 21
-7.403
  0
LINE
  8
0
 10
-18.919
 11
-19.017
 20
-7.403
 21
-7.351
  0
LINE
  8
0
 10
-19.017
 11
-19.125
 20
-7.351
 21
-7.33
  0
LINE
  8
0
 10
-19.125
 11
-20.051
 20
-7.33
 21
-7.28
  0
LINE
  8
0
 10
-20.051
 11
-20.16
 20
-7.28
 21
-7.257
  0
LINE
  8
0
 10
-20.16
 11
-20.257
 20
-7.257
 21
-7.205
  0
LINE
  8
0
 10
-20.257
 11
-20.339
 20
-7.205
 21
-7.128
  0
LINE
  8
0
 10
-20.339
 11
-20.38
 20
-7.128
 21
-7.059
  0
LINE
  8
0
 10
-20.38
 11
-20.669
 20
-7.059
 21
-6.188
  0
LINE
  8
0
 10
-20.669
 11
-20.907
 20
-6.188
 21
-5.301
  0
LINE
  8
0
 10
-20.907
 11
-20.91
 20
-5.301
 21
-5.221
  0
LINE
  8
0
 10
-20.91
 11
-20.884
 20
-5.221
 21
-5.112
  0
LINE
  8
0
 10
-20.884
 11
-20.831
 20
-5.112
 21
-5.015
  0
LINE
  8
0
 10
-20.831
 11
-20.752
 20
-5.015
 21
-4.936
  0
LINE
  8
0
 10
-20.752
 11
-20.007
 20
-4.936
 21
-4.386
  0
LINE
  8
0
 10
-20.007
 11
-19.928
 20
-4.386
 21
-4.308
  0
LINE
  8
0
 10
-19.928
 11
-19.875
 20
-4.308
 21
-4.211
  0
LINE
  8
0
 10
-19.875
 11
-19.849
 20
-4.211
 21
-4.1
  0
LINE
  8
0
 10
-19.849
 11
-19.854
 20
-4.1
 21
-3.986
  0
LINE
  8
0
 10
-19.854
 11
-20.02
 20
-3.986
 21
-3.045
  0
LINE
  8
0
 10
-20.02
 11
-20.054
 20
-3.045
 21
-2.936
  0
LINE
  8
0
 10
-20.054
 11
-20.117
 20
-2.936
 21
-2.841
  0
LINE
  8
0
 10
-20.117
 11
-20.2
 20
-2.841
 21
-2.768
  0
LINE
  8
0
 10
-20.2
 11
-20.3
 20
-2.768
 21
-2.721
  0
LINE
  8
0
 10
-20.3
 11
-21.189
 20
-2.721
 21
-2.459
  0
LINE
  8
0
 10
-21.189
 11
-21.29
 20
-2.459
 21
-2.412
  0
LINE
  8
0
 10
-21.29
 11
-21.373
 20
-2.412
 21
-2.339
  0
LINE
  8
0
 10
-21.373
 11
-21.435
 20
-2.339
 21
-2.245
  0
LINE
  8
0
 10
-21.435
 11
-21.459
 20
-2.245
 21
-2.169
  0
LINE
  8
0
 10
-21.459
 11
-21.539
 20
-2.169
 21
-1.255
  0
LINE
  8
0
 10
-21.539
 11
-21.566
 20
-1.255
 21
-0.337
  0
LINE
  8
0
 10
-2.6
 11
-2.473
 20
0
 21
0.803
  0
LINE
  8
0
 10
-2.473
 11
-2.103
 20
0.803
 21
1.528
  0
LINE
  8
0
 10
-2.103
 11
-1.528
 20
1.528
 21
2.103
  0
LINE
  8
0
 10
-1.528
 11
-0.803
 20
2.103
 21
2.473
  0
LINE
  8
0
 10
-0.803
 11
0
 20
2.473
 21
2.6
  0
LINE
  8
0
 10
0
 11
0.803
 20
2.6
 21
2.473
  0
LINE
  8
0
 10
0.803
 11
1.528
 20
2.473
 21
2.103
  0
LINE
  8
0
 10
1.528
 11
2.103
 20
2.103
 21
1.528
  0
LINE
  8
0
 10
2.103
 11
2.113
 20
1.528
 21
1.509
  0
LINE
  8
0
 10
2.113
 11
2.339
 20
1.509
 21
1.067
  0
LINE
  8
0
 10
2.339
 11
2.473
 20
1.067
 21
0.803
  0
LINE
  8
0
 10
2.473
 11
2.485
 20
0.803
 21
0.724
  0
LINE
  8
0
 10
2.485
 11
2.56
 20
0.724
 21
0.253
  0
LINE
  8
0
 10
2.56
 11
2.6
 20
0.253
 21
0
  0
LINE
  8
0
 10
2.6
 11
2.525
 20
0
 21
-0.471
  0
LINE
  8
0
 10
2.525
 11
2.485
 20
-0.471
 21
-0.724
  0
LINE
  8
0
 10
2.485
 11
2.473
 20
-0.724
 21
-0.803
  0
LINE
  8
0
 10
2.473
 11
2.254
 20
-0.803
 21
-1.233
  0
LINE
  8
0
 10
2.254
 11
2.113
 20
-1.233
 21
-1.509
  0
LINE
  8
0
 10
2.113
 11
2.103
 20
-1.509
 21
-1.528
  0
LINE
  8
0
 10
2.103
 11
1.528
 20
-1.528
 21
-2.103
  0
LINE
  8
0
 10
1.528
 11
0.803
 20
-2.103
 21
-2.473
  0
LINE
  8
0
 10
0.803
 11
0
 20
-2.473
 21
-2.6
  0
LINE
  8
0
 10
0
 11
-0.803
 20
-2.6
 21
-2.473
  0
LINE
  8
0
 10
-0.803
 11
-1.528
 20
-2.473
 21
-2.103
  0
LINE
  8
0
 10
-1.528
 11
-2.103
 20
-2.103
 21
-1.528
  0
LINE
  8
0
 10
-2.103
 11
-2.473
 20
-1.528
 21
-0.803
  0
LINE
  8
0
 10
-2.473
 11
-2.6
 20
-0.803
 21
0
  0
ENDSEC
  0
SECTION
  2
OBJECTS
  0
DICTIONARY
  0
ENDSEC
  0
EOF
