<?xml version="1.0" encoding="UTF-8" standalone="no"?>
<!-- Created with Inkscape (http://www.inkscape.org/) -->

<svg
   xmlns:dc="http://purl.org/dc/elements/1.1/"
   xmlns:cc="http://creativecommons.org/ns#"
   xmlns:rdf="http://www.w3.org/1999/02/22-rdf-syntax-ns#"
   xmlns:svg="http://www.w3.org/2000/svg"
   xmlns="http://www.w3.org/2000/svg"
   xmlns:sodipodi="http://sodipodi.sourceforge.net/DTD/sodipodi-0.dtd"
   xmlns:inkscape="http://www.inkscape.org/namespaces/inkscape"
   width="744.09448819"
   height="1052.3622047"
   id="svg6455"
   version="1.1"
   inkscape:version="0.48.3.1 r9886"
   sodipodi:docname="New document 6">
  <defs
     id="defs6457" />
  <sodipodi:namedview
     id="base"
     pagecolor="#ffffff"
     bordercolor="#666666"
     borderopacity="1.0"
     inkscape:pageopacity="0.0"
     inkscape:pageshadow="2"
     inkscape:zoom="0.35"
     inkscape:cx="375"
     inkscape:cy="520"
     inkscape:document-units="px"
     inkscape:current-layer="layer1"
     showgrid="false"
     inkscape:window-width="1680"
     inkscape:window-height="974"
     inkscape:window-x="0"
     inkscape:window-y="24"
     inkscape:window-maximized="1" />
  <metadata
     id="metadata6460">
    <rdf:RDF>
      <cc:Work
         rdf:about="">
        <dc:format>image/svg+xml</dc:format>
        <dc:type
           rdf:resource="http://purl.org/dc/dcmitype/StillImage" />
        <dc:title></dc:title>
      </cc:Work>
    </rdf:RDF>
  </metadata>
  <g
     inkscape:label="Layer 1"
     inkscape:groupmode="layer"
     id="layer1">
    <rect
       style="fill:#808000;stroke:none"
       id="rect6022"
       width="531.49603"
       height="354.33072"
       x="45.680553"
       y="38.053978"
       rx="8.5714283"
       ry="8.5714283" />
    <g
       id="g6373"
       transform="translate(-730.07521,-22.753064)">
      <path
         inkscape:connector-curvature="0"
         style="fill:#ffffff;stroke:none"
         d="m 782.98025,74.63728 46.063,0 0,35.43307 -46.063,0 0,-35.43307"
         id="path5601" />
      <path
         inkscape:connector-curvature="0"
         style="fill:#ffffff;stroke:none"
         d="m 835.31185,74.63728 46.063,0 0,35.43307 -46.063,0 0,-35.43307"
         id="path5603" />
      <path
         inkscape:connector-curvature="0"
         style="fill:#ffffff;stroke:none"
         d="m 887.64335,74.63728 46.063,0 0,35.43307 -46.063,0 0,-35.43307"
         id="path5605" />
      <path
         inkscape:connector-curvature="0"
         style="fill:#ffffff;stroke:none"
         d="m 939.97495,74.63728 46.06302,0 0,35.43307 -46.06302,0 0,-35.43307"
         id="path5607" />
      <path
         inkscape:connector-curvature="0"
         style="fill:#ffffff;stroke:none"
         d="m 992.30647,74.63728 46.06303,0 0,35.43307 -46.06303,0 0,-35.43307"
         id="path5609" />
      <path
         inkscape:connector-curvature="0"
         style="fill:#ffffff;stroke:none"
         d="m 1044.6381,74.63728 46.063,0 0,35.43307 -46.063,0 0,-35.43307"
         id="path5611" />
      <path
         inkscape:connector-curvature="0"
         style="fill:#ffffff;stroke:none"
         d="m 1096.9697,74.63728 46.063,0 0,35.43307 -46.063,0 0,-35.43307"
         id="path5613" />
      <path
         inkscape:connector-curvature="0"
         style="fill:#ffffff;stroke:none"
         d="m 1149.3012,74.63728 46.063,0 0,35.43307 -46.063,0 0,-35.43307"
         id="path5615" />
      <path
         inkscape:connector-curvature="0"
         style="fill:#ffffff;stroke:none"
         d="m 1201.6328,74.63728 46.063,0 0,35.43307 -46.063,0 0,-35.43307"
         id="path5617" />
      <path
         inkscape:connector-curvature="0"
         style="fill:#ffffff;stroke:none"
         d="m 1253.9643,74.63728 46.063,0 0,35.43307 -46.063,0 0,-35.43307"
         id="path5619" />
      <path
         inkscape:connector-curvature="0"
         style="fill:#ffffff;stroke:none"
         d="m 782.98025,115.49048 46.063,0 0,35.43307 -46.063,0 0,-35.43307"
         id="path5621" />
      <path
         inkscape:connector-curvature="0"
         style="fill:#ffffff;stroke:none"
         d="m 835.31185,115.49048 46.063,0 0,35.43307 -46.063,0 0,-35.43307"
         id="path5623" />
      <path
         inkscape:connector-curvature="0"
         style="fill:#ffffff;stroke:none"
         d="m 887.64335,115.49048 46.063,0 0,35.43307 -46.063,0 0,-35.43307"
         id="path5625" />
      <path
         inkscape:connector-curvature="0"
         style="fill:#ffffff;stroke:none"
         d="m 939.97495,115.49048 46.06302,0 0,35.43307 -46.06302,0 0,-35.43307"
         id="path5627" />
      <path
         inkscape:connector-curvature="0"
         style="fill:#ffffff;stroke:none"
         d="m 992.30647,115.49048 46.06303,0 0,35.43307 -46.06303,0 0,-35.43307"
         id="path5629" />
      <path
         inkscape:connector-curvature="0"
         style="fill:#ffffff;stroke:none"
         d="m 1044.6381,115.49048 46.063,0 0,35.43307 -46.063,0 0,-35.43307"
         id="path5631" />
      <path
         inkscape:connector-curvature="0"
         style="fill:#ffffff;stroke:none"
         d="m 1096.9697,115.49048 46.063,0 0,35.43307 -46.063,0 0,-35.43307"
         id="path5633" />
      <path
         inkscape:connector-curvature="0"
         style="fill:#ffffff;stroke:none"
         d="m 1149.3012,115.49048 46.063,0 0,35.43307 -46.063,0 0,-35.43307"
         id="path5635" />
      <path
         inkscape:connector-curvature="0"
         style="fill:#ffffff;stroke:none"
         d="m 1201.6328,115.49048 46.063,0 0,35.43307 -46.063,0 0,-35.43307"
         id="path5637" />
      <path
         inkscape:connector-curvature="0"
         style="fill:#ffffff;stroke:none"
         d="m 1253.9643,115.49048 46.063,0 0,35.43307 -46.063,0 0,-35.43307"
         id="path5639" />
      <path
         inkscape:connector-curvature="0"
         style="fill:#ffffff;stroke:none"
         d="m 782.98025,156.34363 46.063,0 0,35.43307 -46.063,0 0,-35.43307"
         id="path5641" />
      <path
         inkscape:connector-curvature="0"
         style="fill:#ffffff;stroke:none"
         d="m 835.31185,156.34363 46.063,0 0,35.43307 -46.063,0 0,-35.43307"
         id="path5643" />
      <path
         inkscape:connector-curvature="0"
         style="fill:#ffffff;stroke:none"
         d="m 887.64335,156.34363 46.063,0 0,35.43307 -46.063,0 0,-35.43307"
         id="path5645" />
      <path
         inkscape:connector-curvature="0"
         style="fill:#ffffff;stroke:none"
         d="m 939.97495,156.34363 46.06302,0 0,35.43307 -46.06302,0 0,-35.43307"
         id="path5647" />
      <path
         inkscape:connector-curvature="0"
         style="fill:#ffffff;stroke:none"
         d="m 992.30647,156.34363 46.06303,0 0,35.43307 -46.06303,0 0,-35.43307"
         id="path5649" />
      <path
         inkscape:connector-curvature="0"
         style="fill:#ffffff;stroke:none"
         d="m 1044.6381,156.34363 46.063,0 0,35.43307 -46.063,0 0,-35.43307"
         id="path5651" />
      <path
         inkscape:connector-curvature="0"
         style="fill:#ffffff;stroke:none"
         d="m 1096.9697,156.34363 46.063,0 0,35.43307 -46.063,0 0,-35.43307"
         id="path5653" />
      <path
         inkscape:connector-curvature="0"
         style="fill:#ffffff;stroke:none"
         d="m 1149.3012,156.34363 46.063,0 0,35.43307 -46.063,0 0,-35.43307"
         id="path5655" />
      <path
         inkscape:connector-curvature="0"
         style="fill:#ffffff;stroke:none"
         d="m 1201.6328,156.34363 46.063,0 0,35.43307 -46.063,0 0,-35.43307"
         id="path5657" />
      <path
         inkscape:connector-curvature="0"
         style="fill:#ffffff;stroke:none"
         d="m 1253.9643,156.34363 46.063,0 0,35.43307 -46.063,0 0,-35.43307"
         id="path5659" />
      <path
         inkscape:connector-curvature="0"
         style="fill:#ffffff;stroke:none"
         d="m 782.98025,197.19684 46.063,0 0,35.43307 -46.063,0 0,-35.43307"
         id="path5661" />
      <path
         inkscape:connector-curvature="0"
         style="fill:#ffffff;stroke:none"
         d="m 835.31185,197.19684 46.063,0 0,35.43307 -46.063,0 0,-35.43307"
         id="path5663" />
      <path
         inkscape:connector-curvature="0"
         style="fill:#ffffff;stroke:none"
         d="m 887.64335,197.19684 46.063,0 0,35.43307 -46.063,0 0,-35.43307"
         id="path5665" />
      <path
         inkscape:connector-curvature="0"
         style="fill:#ffffff;stroke:none"
         d="m 939.97495,197.19684 46.06302,0 0,35.43307 -46.06302,0 0,-35.43307"
         id="path5667" />
      <path
         inkscape:connector-curvature="0"
         style="fill:#ffffff;stroke:none"
         d="m 992.30647,197.19684 46.06303,0 0,35.43307 -46.06303,0 0,-35.43307"
         id="path5669" />
      <path
         inkscape:connector-curvature="0"
         style="fill:#ffffff;stroke:none"
         d="m 1044.6381,197.19684 46.063,0 0,35.43307 -46.063,0 0,-35.43307"
         id="path5671" />
      <path
         inkscape:connector-curvature="0"
         style="fill:#ffffff;stroke:none"
         d="m 1096.9697,197.19684 46.063,0 0,35.43307 -46.063,0 0,-35.43307"
         id="path5673" />
      <path
         inkscape:connector-curvature="0"
         style="fill:#ffffff;stroke:none"
         d="m 1149.3012,197.19684 46.063,0 0,35.43307 -46.063,0 0,-35.43307"
         id="path5675" />
      <path
         inkscape:connector-curvature="0"
         style="fill:#ffffff;stroke:none"
         d="m 1201.6328,197.19684 46.063,0 0,35.43307 -46.063,0 0,-35.43307"
         id="path5677" />
      <path
         inkscape:connector-curvature="0"
         style="fill:#ffffff;stroke:none"
         d="m 1253.9643,197.19684 46.063,0 0,35.43307 -46.063,0 0,-35.43307"
         id="path5679" />
      <path
         inkscape:connector-curvature="0"
         style="fill:#ffffff;stroke:none"
         d="m 782.98025,238.05005 46.063,0 0,35.43307 -46.063,0 0,-35.43307"
         id="path5681" />
      <path
         inkscape:connector-curvature="0"
         style="fill:#ffffff;stroke:none"
         d="m 835.31185,238.05005 46.063,0 0,35.43307 -46.063,0 0,-35.43307"
         id="path5683" />
      <path
         inkscape:connector-curvature="0"
         style="fill:#ffffff;stroke:none"
         d="m 887.64335,238.05005 46.063,0 0,35.43307 -46.063,0 0,-35.43307"
         id="path5685" />
      <path
         inkscape:connector-curvature="0"
         style="fill:#ffffff;stroke:none"
         d="m 939.97495,238.05005 46.06302,0 0,35.43307 -46.06302,0 0,-35.43307"
         id="path5687" />
      <path
         inkscape:connector-curvature="0"
         style="fill:#ffffff;stroke:none"
         d="m 992.30647,238.05005 46.06303,0 0,35.43307 -46.06303,0 0,-35.43307"
         id="path5689" />
      <path
         inkscape:connector-curvature="0"
         style="fill:#ffffff;stroke:none"
         d="m 1044.6381,238.05005 46.063,0 0,35.43307 -46.063,0 0,-35.43307"
         id="path5691" />
      <path
         inkscape:connector-curvature="0"
         style="fill:#ffffff;stroke:none"
         d="m 1096.9697,238.05005 46.063,0 0,35.43307 -46.063,0 0,-35.43307"
         id="path5693" />
      <path
         inkscape:connector-curvature="0"
         style="fill:#ffffff;stroke:none"
         d="m 1149.3012,238.05005 46.063,0 0,35.43307 -46.063,0 0,-35.43307"
         id="path5695" />
      <path
         inkscape:connector-curvature="0"
         style="fill:#ffffff;stroke:none"
         d="m 1201.6328,238.05005 46.063,0 0,35.43307 -46.063,0 0,-35.43307"
         id="path5697" />
      <path
         inkscape:connector-curvature="0"
         style="fill:#ffffff;stroke:none"
         d="m 1253.9643,238.05005 46.063,0 0,35.43307 -46.063,0 0,-35.43307"
         id="path5699" />
      <path
         inkscape:connector-curvature="0"
         style="fill:#ffffff;stroke:none"
         d="m 782.98025,278.90329 46.063,0 0,35.43307 -46.063,0 0,-35.43307"
         id="path5701" />
      <path
         inkscape:connector-curvature="0"
         style="fill:#ffffff;stroke:none"
         d="m 835.31185,278.90329 46.063,0 0,35.43307 -46.063,0 0,-35.43307"
         id="path5703" />
      <path
         inkscape:connector-curvature="0"
         style="fill:#ffffff;stroke:none"
         d="m 887.64335,278.90329 46.063,0 0,35.43307 -46.063,0 0,-35.43307"
         id="path5705" />
      <path
         inkscape:connector-curvature="0"
         style="fill:#ffffff;stroke:none"
         d="m 939.97495,278.90329 46.06302,0 0,35.43307 -46.06302,0 0,-35.43307"
         id="path5707" />
      <path
         inkscape:connector-curvature="0"
         style="fill:#ffffff;stroke:none"
         d="m 992.30647,278.90329 46.06303,0 0,35.43307 -46.06303,0 0,-35.43307"
         id="path5709" />
      <path
         inkscape:connector-curvature="0"
         style="fill:#ffffff;stroke:none"
         d="m 1044.6381,278.90329 46.063,0 0,35.43307 -46.063,0 0,-35.43307"
         id="path5711" />
      <path
         inkscape:connector-curvature="0"
         style="fill:#ffffff;stroke:none"
         d="m 1096.9697,278.90329 46.063,0 0,35.43307 -46.063,0 0,-35.43307"
         id="path5713" />
      <path
         inkscape:connector-curvature="0"
         style="fill:#ffffff;stroke:none"
         d="m 1149.3012,278.90329 46.063,0 0,35.43307 -46.063,0 0,-35.43307"
         id="path5715" />
      <path
         inkscape:connector-curvature="0"
         style="fill:#ffffff;stroke:none"
         d="m 1201.6328,278.90329 46.063,0 0,35.43307 -46.063,0 0,-35.43307"
         id="path5717" />
      <path
         inkscape:connector-curvature="0"
         style="fill:#ffffff;stroke:none"
         d="m 1253.9643,278.90329 46.063,0 0,35.43307 -46.063,0 0,-35.43307"
         id="path5719" />
      <path
         inkscape:connector-curvature="0"
         style="fill:#ffffff;stroke:none"
         d="m 782.98025,319.75641 46.063,0 0,35.43303 -46.063,0 0,-35.43303"
         id="path5721" />
      <path
         inkscape:connector-curvature="0"
         style="fill:#ffffff;stroke:none"
         d="m 835.31185,319.75641 46.063,0 0,35.43303 -46.063,0 0,-35.43303"
         id="path5723" />
      <path
         inkscape:connector-curvature="0"
         style="fill:#ffffff;stroke:none"
         d="m 887.64335,319.75641 46.063,0 0,35.43303 -46.063,0 0,-35.43303"
         id="path5725" />
      <path
         inkscape:connector-curvature="0"
         style="fill:#ffffff;stroke:none"
         d="m 939.97495,319.75641 46.06302,0 0,35.43303 -46.06302,0 0,-35.43303"
         id="path5727" />
      <path
         inkscape:connector-curvature="0"
         style="fill:#ffffff;stroke:none"
         d="m 992.30647,319.75641 46.06303,0 0,35.43303 -46.06303,0 0,-35.43303"
         id="path5729" />
      <path
         inkscape:connector-curvature="0"
         style="fill:#ffffff;stroke:none"
         d="m 1044.6381,319.75641 46.063,0 0,35.43303 -46.063,0 0,-35.43303"
         id="path5731" />
      <path
         inkscape:connector-curvature="0"
         style="fill:#ffffff;stroke:none"
         d="m 1096.9697,319.75641 46.063,0 0,35.43303 -46.063,0 0,-35.43303"
         id="path5733" />
      <path
         inkscape:connector-curvature="0"
         style="fill:#ffffff;stroke:none"
         d="m 1149.3012,319.75641 46.063,0 0,35.43303 -46.063,0 0,-35.43303"
         id="path5735" />
      <path
         inkscape:connector-curvature="0"
         style="fill:#ffffff;stroke:none"
         d="m 1201.6328,319.75641 46.063,0 0,35.43303 -46.063,0 0,-35.43303"
         id="path5737" />
      <path
         inkscape:connector-curvature="0"
         style="fill:#ffffff;stroke:none"
         d="m 1253.9643,319.75641 46.063,0 0,35.43303 -46.063,0 0,-35.43303"
         id="path5739" />
      <path
         inkscape:connector-curvature="0"
         style="fill:#ffffff;stroke:none"
         d="m 782.98025,360.60964 46.063,0 0,35.4331 -46.063,0 0,-35.4331"
         id="path5741" />
      <path
         inkscape:connector-curvature="0"
         style="fill:#ffffff;stroke:none"
         d="m 835.31185,360.60964 46.063,0 0,35.4331 -46.063,0 0,-35.4331"
         id="path5743" />
      <path
         inkscape:connector-curvature="0"
         style="fill:#ffffff;stroke:none"
         d="m 887.64335,360.60964 46.063,0 0,35.4331 -46.063,0 0,-35.4331"
         id="path5745" />
      <path
         inkscape:connector-curvature="0"
         style="fill:#ffffff;stroke:none"
         d="m 939.97495,360.60964 46.06302,0 0,35.4331 -46.06302,0 0,-35.4331"
         id="path5747" />
      <path
         inkscape:connector-curvature="0"
         style="fill:#ffffff;stroke:none"
         d="m 992.30647,360.60964 46.06303,0 0,35.4331 -46.06303,0 0,-35.4331"
         id="path5749" />
      <path
         inkscape:connector-curvature="0"
         style="fill:#ffffff;stroke:none"
         d="m 1044.6381,360.60964 46.063,0 0,35.4331 -46.063,0 0,-35.4331"
         id="path5751" />
      <path
         inkscape:connector-curvature="0"
         style="fill:#ffffff;stroke:none"
         d="m 1096.9697,360.60964 46.063,0 0,35.4331 -46.063,0 0,-35.4331"
         id="path5753" />
      <path
         inkscape:connector-curvature="0"
         style="fill:#ffffff;stroke:none"
         d="m 1149.3012,360.60964 46.063,0 0,35.4331 -46.063,0 0,-35.4331"
         id="path5755" />
      <path
         inkscape:connector-curvature="0"
         style="fill:#ffffff;stroke:none"
         d="m 1201.6328,360.60964 46.063,0 0,35.4331 -46.063,0 0,-35.4331"
         id="path5757" />
      <path
         inkscape:connector-curvature="0"
         style="fill:#ffffff;stroke:none"
         d="m 1253.9643,360.60964 46.063,0 0,35.4331 -46.063,0 0,-35.4331"
         id="path5759" />
    </g>
  </g>
</svg>
