  0
SECTION
  2
HEADER
  9
$ACADVER
  1
AC1014
  9
$HANDSEED
  5
FFFF
  9
$MEASUREMENT
 70
     1
  0
ENDSEC
  0
SECTION
  2
TABLES
  0
TABLE
  2
VPORT
  5
8
330
0
100
AcDbSymbolTable
 70
     4
  0
VPORT
  5
2E
330
8
100
AcDbSymbolTableRecord
100
AcDbViewportTableRecord
  2
*ACTIVE
 70
     0
 10
0.0
 20
0.0
 11
1.0
 21
1.0
 12
210.0
 22
148.5
 13
0.0
 23
0.0
 14
10.0
 24
10.0
 15
10.0
 25
10.0
 16
0.0
 26
0.0
 36
1.0
 17
0.0
 27
0.0
 37
0.0
 40
341.0
 41
1.24
 42
50.0
 43
0.0
 44
0.0
 50
0.0
 51
0.0
 71
     0
 72
   100
 73
     1
 74
     3
 75
     0
 76
     0
 77
     0
 78
     0
  0
ENDTAB
  0
TABLE
  2
LTYPE
  5
5
330
0
100
AcDbSymbolTable
 70
     1
  0
LTYPE
  5
14
330
5
100
AcDbSymbolTableRecord
100
AcDbLinetypeTableRecord
  2
BYBLOCK
 70
     0
  3

 72
    65
 73
     0
 40
0.0
  0
LTYPE
  5
15
330
5
100
AcDbSymbolTableRecord
100
AcDbLinetypeTableRecord
  2
BYLAYER
 70
     0
  3

 72
    65
 73
     0
 40
0.0
  0
LTYPE
  5
16
330
5
100
AcDbSymbolTableRecord
100
AcDbLinetypeTableRecord
  2
CONTINUOUS
 70
     0
  3
Solid line
 72
    65
 73
     0
 40
0.0
  0
ENDTAB
  0
TABLE
  2
LAYER
  5
2
100
AcDbSymbolTable
 70
2
  0
LAYER
  5
50
100
AcDbSymbolTableRecord
100
AcDbLayerTableRecord
  2
0
 70
0
  6
CONTINUOUS
  0
LAYER
  5
51
100
AcDbSymbolTableRecord
100
AcDbLayerTableRecord
  2
Layer_1
 70
0
  6
CONTINUOUS
  0
ENDTAB
  0
TABLE
  2
STYLE
  5
3
330
0
100
AcDbSymbolTable
 70
     1
  0
STYLE
  5
11
330
3
100
AcDbSymbolTableRecord
100
AcDbTextStyleTableRecord
  2
STANDARD
 70
     0
 40
0.0
 41
1.0
 50
0.0
 71
     0
 42
2.5
  3
txt
  4

  0
ENDTAB
  0
TABLE
  2
VIEW
  5
6
330
0
100
AcDbSymbolTable
 70
     0
  0
ENDTAB
  0
TABLE
  2
UCS
  5
7
330
0
100
AcDbSymbolTable
 70
     0
  0
ENDTAB
  0
TABLE
  2
APPID
  5
9
330
0
100
AcDbSymbolTable
 70
     2
  0
APPID
  5
12
330
9
100
AcDbSymbolTableRecord
100
AcDbRegAppTableRecord
  2
ACAD
 70
     0
  0
ENDTAB
  0
TABLE
  2
DIMSTYLE
  5
A
330
0
100
AcDbSymbolTable
 70
     1
  0
DIMSTYLE
105
27
330
A
100
AcDbSymbolTableRecord
100
AcDbDimStyleTableRecord
  2
ISO-25
 70
     0
  3

  4

  5

  6

  7

 40
1.0
 41
2.5
 42
0.625
 43
3.75
 44
1.25
 45
0.0
 46
0.0
 47
0.0
 48
0.0
140
2.5
141
2.5
142
0.0
143
0.03937007874016
144
1.0
145
0.0
146
1.0
147
0.625
 71
     0
 72
     0
 73
     0
 74
     0
 75
     0
 76
     0
 77
     1
 78
     8
170
     0
171
     3
172
     1
173
     0
174
     0
175
     0
176
     0
177
     0
178
     0
270
     2
271
     2
272
     2
273
     2
274
     3
340
11
275
     0
280
     0
281
     0
282
     0
283
     0
284
     8
285
     0
286
     0
287
     3
288
     0
  0
ENDTAB
  0
TABLE
  2
BLOCK_RECORD
  5
1
330
0
100
AcDbSymbolTable
 70
     1
  0
BLOCK_RECORD
  5
1F
330
1
100
AcDbSymbolTableRecord
100
AcDbBlockTableRecord
  2
*MODEL_SPACE
  0
BLOCK_RECORD
  5
1B
330
1
100
AcDbSymbolTableRecord
100
AcDbBlockTableRecord
  2
*PAPER_SPACE
  0
ENDTAB
  0
ENDSEC
  0
SECTION
  2
BLOCKS
  0
BLOCK
  5
20
330
1F
100
AcDbEntity
  8
0
100
AcDbBlockBegin
  2
*MODEL_SPACE
 70
     0
 10
0.0
 20
0.0
 30
0.0
  3
*MODEL_SPACE
  1

  0
ENDBLK
  5
21
330
1F
100
AcDbEntity
  8
0
100
AcDbBlockEnd
  0
BLOCK
  5
1C
330
1B
100
AcDbEntity
 67
     1
  8
0
100
AcDbBlockBegin
  2
*PAPER_SPACE
  1

  0
ENDBLK
  5
1D
330
1B
100
AcDbEntity
 67
     1
  8
0
100
AcDbBlockEnd
  0
ENDSEC
  0
SECTION
  2
ENTITIES
  0
LWPOLYLINE
  5
100
100
AcDbEntity
  8
Layer_1
 62
7
100
AcDbPolyline
 90
5
 70
0
 10
12.892067
 20
286.260322
 30
0.0
 10
162.892058
 20
286.260322
 30
0.0
 10
162.892058
 20
186.260319
 30
0.0
 10
12.892067
 20
186.260319
 30
0.0
 10
12.892067
 20
286.260322
 30
0.0
  0
LWPOLYLINE
  5
101
100
AcDbEntity
  8
Layer_1
 62
7
100
AcDbPolyline
 90
5
 70
0
 10
14.930978
 20
282.357121
 30
0.0
 10
27.930980
 20
282.357121
 30
0.0
 10
27.930980
 20
272.357121
 30
0.0
 10
14.930978
 20
272.357121
 30
0.0
 10
14.930978
 20
282.357121
 30
0.0
  0
LWPOLYLINE
  5
102
100
AcDbEntity
  8
Layer_1
 62
7
100
AcDbPolyline
 90
5
 70
0
 10
29.700118
 20
282.357121
 30
0.0
 10
42.700121
 20
282.357121
 30
0.0
 10
42.700121
 20
272.357121
 30
0.0
 10
29.700118
 20
272.357121
 30
0.0
 10
29.700118
 20
282.357121
 30
0.0
  0
LWPOLYLINE
  5
103
100
AcDbEntity
  8
Layer_1
 62
7
100
AcDbPolyline
 90
5
 70
0
 10
44.469231
 20
282.357121
 30
0.0
 10
57.469233
 20
282.357121
 30
0.0
 10
57.469233
 20
272.357121
 30
0.0
 10
44.469231
 20
272.357121
 30
0.0
 10
44.469231
 20
282.357121
 30
0.0
  0
LWPOLYLINE
  5
104
100
AcDbEntity
  8
Layer_1
 62
7
100
AcDbPolyline
 90
5
 70
0
 10
59.238371
 20
282.357121
 30
0.0
 10
72.238379
 20
282.357121
 30
0.0
 10
72.238379
 20
272.357121
 30
0.0
 10
59.238371
 20
272.357121
 30
0.0
 10
59.238371
 20
282.357121
 30
0.0
  0
LWPOLYLINE
  5
105
100
AcDbEntity
  8
Layer_1
 62
7
100
AcDbPolyline
 90
5
 70
0
 10
74.007489
 20
282.357121
 30
0.0
 10
87.007500
 20
282.357121
 30
0.0
 10
87.007500
 20
272.357121
 30
0.0
 10
74.007489
 20
272.357121
 30
0.0
 10
74.007489
 20
282.357121
 30
0.0
  0
LWPOLYLINE
  5
106
100
AcDbEntity
  8
Layer_1
 62
7
100
AcDbPolyline
 90
5
 70
0
 10
88.776638
 20
282.357121
 30
0.0
 10
101.776640
 20
282.357121
 30
0.0
 10
101.776640
 20
272.357121
 30
0.0
 10
88.776638
 20
272.357121
 30
0.0
 10
88.776638
 20
282.357121
 30
0.0
  0
LWPOLYLINE
  5
107
100
AcDbEntity
  8
Layer_1
 62
7
100
AcDbPolyline
 90
5
 70
0
 10
103.545778
 20
282.357121
 30
0.0
 10
116.545781
 20
282.357121
 30
0.0
 10
116.545781
 20
272.357121
 30
0.0
 10
103.545778
 20
272.357121
 30
0.0
 10
103.545778
 20
282.357121
 30
0.0
  0
LWPOLYLINE
  5
108
100
AcDbEntity
  8
Layer_1
 62
7
100
AcDbPolyline
 90
5
 70
0
 10
118.314891
 20
282.357121
 30
0.0
 10
131.314893
 20
282.357121
 30
0.0
 10
131.314893
 20
272.357121
 30
0.0
 10
118.314891
 20
272.357121
 30
0.0
 10
118.314891
 20
282.357121
 30
0.0
  0
LWPOLYLINE
  5
109
100
AcDbEntity
  8
Layer_1
 62
7
100
AcDbPolyline
 90
5
 70
0
 10
133.084031
 20
282.357121
 30
0.0
 10
146.084033
 20
282.357121
 30
0.0
 10
146.084033
 20
272.357121
 30
0.0
 10
133.084031
 20
272.357121
 30
0.0
 10
133.084031
 20
282.357121
 30
0.0
  0
LWPOLYLINE
  5
10a
100
AcDbEntity
  8
Layer_1
 62
7
100
AcDbPolyline
 90
5
 70
0
 10
147.853143
 20
282.357121
 30
0.0
 10
160.853145
 20
282.357121
 30
0.0
 10
160.853145
 20
272.357121
 30
0.0
 10
147.853143
 20
272.357121
 30
0.0
 10
147.853143
 20
282.357121
 30
0.0
  0
LWPOLYLINE
  5
10b
100
AcDbEntity
  8
Layer_1
 62
7
100
AcDbPolyline
 90
5
 70
0
 10
14.930978
 20
270.827440
 30
0.0
 10
27.930980
 20
270.827440
 30
0.0
 10
27.930980
 20
260.827441
 30
0.0
 10
14.930978
 20
260.827441
 30
0.0
 10
14.930978
 20
270.827440
 30
0.0
  0
LWPOLYLINE
  5
10c
100
AcDbEntity
  8
Layer_1
 62
7
100
AcDbPolyline
 90
5
 70
0
 10
29.700118
 20
270.827440
 30
0.0
 10
42.700121
 20
270.827440
 30
0.0
 10
42.700121
 20
260.827441
 30
0.0
 10
29.700118
 20
260.827441
 30
0.0
 10
29.700118
 20
270.827440
 30
0.0
  0
LWPOLYLINE
  5
10d
100
AcDbEntity
  8
Layer_1
 62
7
100
AcDbPolyline
 90
5
 70
0
 10
44.469231
 20
270.827440
 30
0.0
 10
57.469233
 20
270.827440
 30
0.0
 10
57.469233
 20
260.827441
 30
0.0
 10
44.469231
 20
260.827441
 30
0.0
 10
44.469231
 20
270.827440
 30
0.0
  0
LWPOLYLINE
  5
10e
100
AcDbEntity
  8
Layer_1
 62
7
100
AcDbPolyline
 90
5
 70
0
 10
59.238371
 20
270.827440
 30
0.0
 10
72.238379
 20
270.827440
 30
0.0
 10
72.238379
 20
260.827441
 30
0.0
 10
59.238371
 20
260.827441
 30
0.0
 10
59.238371
 20
270.827440
 30
0.0
  0
LWPOLYLINE
  5
10f
100
AcDbEntity
  8
Layer_1
 62
7
100
AcDbPolyline
 90
5
 70
0
 10
74.007489
 20
270.827440
 30
0.0
 10
87.007500
 20
270.827440
 30
0.0
 10
87.007500
 20
260.827441
 30
0.0
 10
74.007489
 20
260.827441
 30
0.0
 10
74.007489
 20
270.827440
 30
0.0
  0
LWPOLYLINE
  5
110
100
AcDbEntity
  8
Layer_1
 62
7
100
AcDbPolyline
 90
5
 70
0
 10
88.776638
 20
270.827440
 30
0.0
 10
101.776640
 20
270.827440
 30
0.0
 10
101.776640
 20
260.827441
 30
0.0
 10
88.776638
 20
260.827441
 30
0.0
 10
88.776638
 20
270.827440
 30
0.0
  0
LWPOLYLINE
  5
111
100
AcDbEntity
  8
Layer_1
 62
7
100
AcDbPolyline
 90
5
 70
0
 10
103.545778
 20
270.827440
 30
0.0
 10
116.545781
 20
270.827440
 30
0.0
 10
116.545781
 20
260.827441
 30
0.0
 10
103.545778
 20
260.827441
 30
0.0
 10
103.545778
 20
270.827440
 30
0.0
  0
LWPOLYLINE
  5
112
100
AcDbEntity
  8
Layer_1
 62
7
100
AcDbPolyline
 90
5
 70
0
 10
118.314891
 20
270.827440
 30
0.0
 10
131.314893
 20
270.827440
 30
0.0
 10
131.314893
 20
260.827441
 30
0.0
 10
118.314891
 20
260.827441
 30
0.0
 10
118.314891
 20
270.827440
 30
0.0
  0
LWPOLYLINE
  5
113
100
AcDbEntity
  8
Layer_1
 62
7
100
AcDbPolyline
 90
5
 70
0
 10
133.084031
 20
270.827440
 30
0.0
 10
146.084033
 20
270.827440
 30
0.0
 10
146.084033
 20
260.827441
 30
0.0
 10
133.084031
 20
260.827441
 30
0.0
 10
133.084031
 20
270.827440
 30
0.0
  0
LWPOLYLINE
  5
114
100
AcDbEntity
  8
Layer_1
 62
7
100
AcDbPolyline
 90
5
 70
0
 10
147.853143
 20
270.827440
 30
0.0
 10
160.853145
 20
270.827440
 30
0.0
 10
160.853145
 20
260.827441
 30
0.0
 10
147.853143
 20
260.827441
 30
0.0
 10
147.853143
 20
270.827440
 30
0.0
  0
LWPOLYLINE
  5
115
100
AcDbEntity
  8
Layer_1
 62
7
100
AcDbPolyline
 90
5
 70
0
 10
14.930978
 20
259.297774
 30
0.0
 10
27.930980
 20
259.297774
 30
0.0
 10
27.930980
 20
249.297774
 30
0.0
 10
14.930978
 20
249.297774
 30
0.0
 10
14.930978
 20
259.297774
 30
0.0
  0
LWPOLYLINE
  5
116
100
AcDbEntity
  8
Layer_1
 62
7
100
AcDbPolyline
 90
5
 70
0
 10
29.700118
 20
259.297774
 30
0.0
 10
42.700121
 20
259.297774
 30
0.0
 10
42.700121
 20
249.297774
 30
0.0
 10
29.700118
 20
249.297774
 30
0.0
 10
29.700118
 20
259.297774
 30
0.0
  0
LWPOLYLINE
  5
117
100
AcDbEntity
  8
Layer_1
 62
7
100
AcDbPolyline
 90
5
 70
0
 10
44.469231
 20
259.297774
 30
0.0
 10
57.469233
 20
259.297774
 30
0.0
 10
57.469233
 20
249.297774
 30
0.0
 10
44.469231
 20
249.297774
 30
0.0
 10
44.469231
 20
259.297774
 30
0.0
  0
LWPOLYLINE
  5
118
100
AcDbEntity
  8
Layer_1
 62
7
100
AcDbPolyline
 90
5
 70
0
 10
59.238371
 20
259.297774
 30
0.0
 10
72.238379
 20
259.297774
 30
0.0
 10
72.238379
 20
249.297774
 30
0.0
 10
59.238371
 20
249.297774
 30
0.0
 10
59.238371
 20
259.297774
 30
0.0
  0
LWPOLYLINE
  5
119
100
AcDbEntity
  8
Layer_1
 62
7
100
AcDbPolyline
 90
5
 70
0
 10
74.007489
 20
259.297774
 30
0.0
 10
87.007500
 20
259.297774
 30
0.0
 10
87.007500
 20
249.297774
 30
0.0
 10
74.007489
 20
249.297774
 30
0.0
 10
74.007489
 20
259.297774
 30
0.0
  0
LWPOLYLINE
  5
11a
100
AcDbEntity
  8
Layer_1
 62
7
100
AcDbPolyline
 90
5
 70
0
 10
88.776638
 20
259.297774
 30
0.0
 10
101.776640
 20
259.297774
 30
0.0
 10
101.776640
 20
249.297774
 30
0.0
 10
88.776638
 20
249.297774
 30
0.0
 10
88.776638
 20
259.297774
 30
0.0
  0
LWPOLYLINE
  5
11b
100
AcDbEntity
  8
Layer_1
 62
7
100
AcDbPolyline
 90
5
 70
0
 10
103.545778
 20
259.297774
 30
0.0
 10
116.545781
 20
259.297774
 30
0.0
 10
116.545781
 20
249.297774
 30
0.0
 10
103.545778
 20
249.297774
 30
0.0
 10
103.545778
 20
259.297774
 30
0.0
  0
LWPOLYLINE
  5
11c
100
AcDbEntity
  8
Layer_1
 62
7
100
AcDbPolyline
 90
5
 70
0
 10
118.314891
 20
259.297774
 30
0.0
 10
131.314893
 20
259.297774
 30
0.0
 10
131.314893
 20
249.297774
 30
0.0
 10
118.314891
 20
249.297774
 30
0.0
 10
118.314891
 20
259.297774
 30
0.0
  0
LWPOLYLINE
  5
11d
100
AcDbEntity
  8
Layer_1
 62
7
100
AcDbPolyline
 90
5
 70
0
 10
133.084031
 20
259.297774
 30
0.0
 10
146.084033
 20
259.297774
 30
0.0
 10
146.084033
 20
249.297774
 30
0.0
 10
133.084031
 20
249.297774
 30
0.0
 10
133.084031
 20
259.297774
 30
0.0
  0
LWPOLYLINE
  5
11e
100
AcDbEntity
  8
Layer_1
 62
7
100
AcDbPolyline
 90
5
 70
0
 10
147.853143
 20
259.297774
 30
0.0
 10
160.853145
 20
259.297774
 30
0.0
 10
160.853145
 20
249.297774
 30
0.0
 10
147.853143
 20
249.297774
 30
0.0
 10
147.853143
 20
259.297774
 30
0.0
  0
LWPOLYLINE
  5
11f
100
AcDbEntity
  8
Layer_1
 62
7
100
AcDbPolyline
 90
5
 70
0
 10
14.930978
 20
247.768090
 30
0.0
 10
27.930980
 20
247.768090
 30
0.0
 10
27.930980
 20
237.768090
 30
0.0
 10
14.930978
 20
237.768090
 30
0.0
 10
14.930978
 20
247.768090
 30
0.0
  0
LWPOLYLINE
  5
120
100
AcDbEntity
  8
Layer_1
 62
7
100
AcDbPolyline
 90
5
 70
0
 10
29.700118
 20
247.768090
 30
0.0
 10
42.700121
 20
247.768090
 30
0.0
 10
42.700121
 20
237.768090
 30
0.0
 10
29.700118
 20
237.768090
 30
0.0
 10
29.700118
 20
247.768090
 30
0.0
  0
LWPOLYLINE
  5
121
100
AcDbEntity
  8
Layer_1
 62
7
100
AcDbPolyline
 90
5
 70
0
 10
44.469231
 20
247.768090
 30
0.0
 10
57.469233
 20
247.768090
 30
0.0
 10
57.469233
 20
237.768090
 30
0.0
 10
44.469231
 20
237.768090
 30
0.0
 10
44.469231
 20
247.768090
 30
0.0
  0
LWPOLYLINE
  5
122
100
AcDbEntity
  8
Layer_1
 62
7
100
AcDbPolyline
 90
5
 70
0
 10
59.238371
 20
247.768090
 30
0.0
 10
72.238379
 20
247.768090
 30
0.0
 10
72.238379
 20
237.768090
 30
0.0
 10
59.238371
 20
237.768090
 30
0.0
 10
59.238371
 20
247.768090
 30
0.0
  0
LWPOLYLINE
  5
123
100
AcDbEntity
  8
Layer_1
 62
7
100
AcDbPolyline
 90
5
 70
0
 10
74.007489
 20
247.768090
 30
0.0
 10
87.007500
 20
247.768090
 30
0.0
 10
87.007500
 20
237.768090
 30
0.0
 10
74.007489
 20
237.768090
 30
0.0
 10
74.007489
 20
247.768090
 30
0.0
  0
LWPOLYLINE
  5
124
100
AcDbEntity
  8
Layer_1
 62
7
100
AcDbPolyline
 90
5
 70
0
 10
88.776638
 20
247.768090
 30
0.0
 10
101.776640
 20
247.768090
 30
0.0
 10
101.776640
 20
237.768090
 30
0.0
 10
88.776638
 20
237.768090
 30
0.0
 10
88.776638
 20
247.768090
 30
0.0
  0
LWPOLYLINE
  5
125
100
AcDbEntity
  8
Layer_1
 62
7
100
AcDbPolyline
 90
5
 70
0
 10
103.545778
 20
247.768090
 30
0.0
 10
116.545781
 20
247.768090
 30
0.0
 10
116.545781
 20
237.768090
 30
0.0
 10
103.545778
 20
237.768090
 30
0.0
 10
103.545778
 20
247.768090
 30
0.0
  0
LWPOLYLINE
  5
126
100
AcDbEntity
  8
Layer_1
 62
7
100
AcDbPolyline
 90
5
 70
0
 10
118.314891
 20
247.768090
 30
0.0
 10
131.314893
 20
247.768090
 30
0.0
 10
131.314893
 20
237.768090
 30
0.0
 10
118.314891
 20
237.768090
 30
0.0
 10
118.314891
 20
247.768090
 30
0.0
  0
LWPOLYLINE
  5
127
100
AcDbEntity
  8
Layer_1
 62
7
100
AcDbPolyline
 90
5
 70
0
 10
133.084031
 20
247.768090
 30
0.0
 10
146.084033
 20
247.768090
 30
0.0
 10
146.084033
 20
237.768090
 30
0.0
 10
133.084031
 20
237.768090
 30
0.0
 10
133.084031
 20
247.768090
 30
0.0
  0
LWPOLYLINE
  5
128
100
AcDbEntity
  8
Layer_1
 62
7
100
AcDbPolyline
 90
5
 70
0
 10
147.853143
 20
247.768090
 30
0.0
 10
160.853145
 20
247.768090
 30
0.0
 10
160.853145
 20
237.768090
 30
0.0
 10
147.853143
 20
237.768090
 30
0.0
 10
147.853143
 20
247.768090
 30
0.0
  0
LWPOLYLINE
  5
129
100
AcDbEntity
  8
Layer_1
 62
7
100
AcDbPolyline
 90
5
 70
0
 10
14.930978
 20
236.238406
 30
0.0
 10
27.930980
 20
236.238406
 30
0.0
 10
27.930980
 20
226.238406
 30
0.0
 10
14.930978
 20
226.238406
 30
0.0
 10
14.930978
 20
236.238406
 30
0.0
  0
LWPOLYLINE
  5
12a
100
AcDbEntity
  8
Layer_1
 62
7
100
AcDbPolyline
 90
5
 70
0
 10
29.700118
 20
236.238406
 30
0.0
 10
42.700121
 20
236.238406
 30
0.0
 10
42.700121
 20
226.238406
 30
0.0
 10
29.700118
 20
226.238406
 30
0.0
 10
29.700118
 20
236.238406
 30
0.0
  0
LWPOLYLINE
  5
12b
100
AcDbEntity
  8
Layer_1
 62
7
100
AcDbPolyline
 90
5
 70
0
 10
44.469231
 20
236.238406
 30
0.0
 10
57.469233
 20
236.238406
 30
0.0
 10
57.469233
 20
226.238406
 30
0.0
 10
44.469231
 20
226.238406
 30
0.0
 10
44.469231
 20
236.238406
 30
0.0
  0
LWPOLYLINE
  5
12c
100
AcDbEntity
  8
Layer_1
 62
7
100
AcDbPolyline
 90
5
 70
0
 10
59.238371
 20
236.238406
 30
0.0
 10
72.238379
 20
236.238406
 30
0.0
 10
72.238379
 20
226.238406
 30
0.0
 10
59.238371
 20
226.238406
 30
0.0
 10
59.238371
 20
236.238406
 30
0.0
  0
LWPOLYLINE
  5
12d
100
AcDbEntity
  8
Layer_1
 62
7
100
AcDbPolyline
 90
5
 70
0
 10
74.007489
 20
236.238406
 30
0.0
 10
87.007500
 20
236.238406
 30
0.0
 10
87.007500
 20
226.238406
 30
0.0
 10
74.007489
 20
226.238406
 30
0.0
 10
74.007489
 20
236.238406
 30
0.0
  0
LWPOLYLINE
  5
12e
100
AcDbEntity
  8
Layer_1
 62
7
100
AcDbPolyline
 90
5
 70
0
 10
88.776638
 20
236.238406
 30
0.0
 10
101.776640
 20
236.238406
 30
0.0
 10
101.776640
 20
226.238406
 30
0.0
 10
88.776638
 20
226.238406
 30
0.0
 10
88.776638
 20
236.238406
 30
0.0
  0
LWPOLYLINE
  5
12f
100
AcDbEntity
  8
Layer_1
 62
7
100
AcDbPolyline
 90
5
 70
0
 10
103.545778
 20
236.238406
 30
0.0
 10
116.545781
 20
236.238406
 30
0.0
 10
116.545781
 20
226.238406
 30
0.0
 10
103.545778
 20
226.238406
 30
0.0
 10
103.545778
 20
236.238406
 30
0.0
  0
LWPOLYLINE
  5
130
100
AcDbEntity
  8
Layer_1
 62
7
100
AcDbPolyline
 90
5
 70
0
 10
118.314891
 20
236.238406
 30
0.0
 10
131.314893
 20
236.238406
 30
0.0
 10
131.314893
 20
226.238406
 30
0.0
 10
118.314891
 20
226.238406
 30
0.0
 10
118.314891
 20
236.238406
 30
0.0
  0
LWPOLYLINE
  5
131
100
AcDbEntity
  8
Layer_1
 62
7
100
AcDbPolyline
 90
5
 70
0
 10
133.084031
 20
236.238406
 30
0.0
 10
146.084033
 20
236.238406
 30
0.0
 10
146.084033
 20
226.238406
 30
0.0
 10
133.084031
 20
226.238406
 30
0.0
 10
133.084031
 20
236.238406
 30
0.0
  0
LWPOLYLINE
  5
132
100
AcDbEntity
  8
Layer_1
 62
7
100
AcDbPolyline
 90
5
 70
0
 10
147.853143
 20
236.238406
 30
0.0
 10
160.853145
 20
236.238406
 30
0.0
 10
160.853145
 20
226.238406
 30
0.0
 10
147.853143
 20
226.238406
 30
0.0
 10
147.853143
 20
236.238406
 30
0.0
  0
LWPOLYLINE
  5
133
100
AcDbEntity
  8
Layer_1
 62
7
100
AcDbPolyline
 90
5
 70
0
 10
14.930978
 20
224.708714
 30
0.0
 10
27.930980
 20
224.708714
 30
0.0
 10
27.930980
 20
214.708714
 30
0.0
 10
14.930978
 20
214.708714
 30
0.0
 10
14.930978
 20
224.708714
 30
0.0
  0
LWPOLYLINE
  5
134
100
AcDbEntity
  8
Layer_1
 62
7
100
AcDbPolyline
 90
5
 70
0
 10
29.700118
 20
224.708714
 30
0.0
 10
42.700121
 20
224.708714
 30
0.0
 10
42.700121
 20
214.708714
 30
0.0
 10
29.700118
 20
214.708714
 30
0.0
 10
29.700118
 20
224.708714
 30
0.0
  0
LWPOLYLINE
  5
135
100
AcDbEntity
  8
Layer_1
 62
7
100
AcDbPolyline
 90
5
 70
0
 10
44.469231
 20
224.708714
 30
0.0
 10
57.469233
 20
224.708714
 30
0.0
 10
57.469233
 20
214.708714
 30
0.0
 10
44.469231
 20
214.708714
 30
0.0
 10
44.469231
 20
224.708714
 30
0.0
  0
LWPOLYLINE
  5
136
100
AcDbEntity
  8
Layer_1
 62
7
100
AcDbPolyline
 90
5
 70
0
 10
59.238371
 20
224.708714
 30
0.0
 10
72.238379
 20
224.708714
 30
0.0
 10
72.238379
 20
214.708714
 30
0.0
 10
59.238371
 20
214.708714
 30
0.0
 10
59.238371
 20
224.708714
 30
0.0
  0
LWPOLYLINE
  5
137
100
AcDbEntity
  8
Layer_1
 62
7
100
AcDbPolyline
 90
5
 70
0
 10
74.007489
 20
224.708714
 30
0.0
 10
87.007500
 20
224.708714
 30
0.0
 10
87.007500
 20
214.708714
 30
0.0
 10
74.007489
 20
214.708714
 30
0.0
 10
74.007489
 20
224.708714
 30
0.0
  0
LWPOLYLINE
  5
138
100
AcDbEntity
  8
Layer_1
 62
7
100
AcDbPolyline
 90
5
 70
0
 10
88.776638
 20
224.708714
 30
0.0
 10
101.776640
 20
224.708714
 30
0.0
 10
101.776640
 20
214.708714
 30
0.0
 10
88.776638
 20
214.708714
 30
0.0
 10
88.776638
 20
224.708714
 30
0.0
  0
LWPOLYLINE
  5
139
100
AcDbEntity
  8
Layer_1
 62
7
100
AcDbPolyline
 90
5
 70
0
 10
103.545778
 20
224.708714
 30
0.0
 10
116.545781
 20
224.708714
 30
0.0
 10
116.545781
 20
214.708714
 30
0.0
 10
103.545778
 20
214.708714
 30
0.0
 10
103.545778
 20
224.708714
 30
0.0
  0
LWPOLYLINE
  5
13a
100
AcDbEntity
  8
Layer_1
 62
7
100
AcDbPolyline
 90
5
 70
0
 10
118.314891
 20
224.708714
 30
0.0
 10
131.314893
 20
224.708714
 30
0.0
 10
131.314893
 20
214.708714
 30
0.0
 10
118.314891
 20
214.708714
 30
0.0
 10
118.314891
 20
224.708714
 30
0.0
  0
LWPOLYLINE
  5
13b
100
AcDbEntity
  8
Layer_1
 62
7
100
AcDbPolyline
 90
5
 70
0
 10
133.084031
 20
224.708714
 30
0.0
 10
146.084033
 20
224.708714
 30
0.0
 10
146.084033
 20
214.708714
 30
0.0
 10
133.084031
 20
214.708714
 30
0.0
 10
133.084031
 20
224.708714
 30
0.0
  0
LWPOLYLINE
  5
13c
100
AcDbEntity
  8
Layer_1
 62
7
100
AcDbPolyline
 90
5
 70
0
 10
147.853143
 20
224.708714
 30
0.0
 10
160.853145
 20
224.708714
 30
0.0
 10
160.853145
 20
214.708714
 30
0.0
 10
147.853143
 20
214.708714
 30
0.0
 10
147.853143
 20
224.708714
 30
0.0
  0
LWPOLYLINE
  5
13d
100
AcDbEntity
  8
Layer_1
 62
7
100
AcDbPolyline
 90
5
 70
0
 10
14.930978
 20
213.179056
 30
0.0
 10
27.930980
 20
213.179056
 30
0.0
 10
27.930980
 20
203.179067
 30
0.0
 10
14.930978
 20
203.179067
 30
0.0
 10
14.930978
 20
213.179056
 30
0.0
  0
LWPOLYLINE
  5
13e
100
AcDbEntity
  8
Layer_1
 62
7
100
AcDbPolyline
 90
5
 70
0
 10
29.700118
 20
213.179056
 30
0.0
 10
42.700121
 20
213.179056
 30
0.0
 10
42.700121
 20
203.179067
 30
0.0
 10
29.700118
 20
203.179067
 30
0.0
 10
29.700118
 20
213.179056
 30
0.0
  0
LWPOLYLINE
  5
13f
100
AcDbEntity
  8
Layer_1
 62
7
100
AcDbPolyline
 90
5
 70
0
 10
44.469231
 20
213.179056
 30
0.0
 10
57.469233
 20
213.179056
 30
0.0
 10
57.469233
 20
203.179067
 30
0.0
 10
44.469231
 20
203.179067
 30
0.0
 10
44.469231
 20
213.179056
 30
0.0
  0
LWPOLYLINE
  5
140
100
AcDbEntity
  8
Layer_1
 62
7
100
AcDbPolyline
 90
5
 70
0
 10
59.238371
 20
213.179056
 30
0.0
 10
72.238379
 20
213.179056
 30
0.0
 10
72.238379
 20
203.179067
 30
0.0
 10
59.238371
 20
203.179067
 30
0.0
 10
59.238371
 20
213.179056
 30
0.0
  0
LWPOLYLINE
  5
141
100
AcDbEntity
  8
Layer_1
 62
7
100
AcDbPolyline
 90
5
 70
0
 10
74.007489
 20
213.179056
 30
0.0
 10
87.007500
 20
213.179056
 30
0.0
 10
87.007500
 20
203.179067
 30
0.0
 10
74.007489
 20
203.179067
 30
0.0
 10
74.007489
 20
213.179056
 30
0.0
  0
LWPOLYLINE
  5
142
100
AcDbEntity
  8
Layer_1
 62
7
100
AcDbPolyline
 90
5
 70
0
 10
88.776638
 20
213.179056
 30
0.0
 10
101.776640
 20
213.179056
 30
0.0
 10
101.776640
 20
203.179067
 30
0.0
 10
88.776638
 20
203.179067
 30
0.0
 10
88.776638
 20
213.179056
 30
0.0
  0
LWPOLYLINE
  5
143
100
AcDbEntity
  8
Layer_1
 62
7
100
AcDbPolyline
 90
5
 70
0
 10
103.545778
 20
213.179056
 30
0.0
 10
116.545781
 20
213.179056
 30
0.0
 10
116.545781
 20
203.179067
 30
0.0
 10
103.545778
 20
203.179067
 30
0.0
 10
103.545778
 20
213.179056
 30
0.0
  0
LWPOLYLINE
  5
144
100
AcDbEntity
  8
Layer_1
 62
7
100
AcDbPolyline
 90
5
 70
0
 10
118.314891
 20
213.179056
 30
0.0
 10
131.314893
 20
213.179056
 30
0.0
 10
131.314893
 20
203.179067
 30
0.0
 10
118.314891
 20
203.179067
 30
0.0
 10
118.314891
 20
213.179056
 30
0.0
  0
LWPOLYLINE
  5
145
100
AcDbEntity
  8
Layer_1
 62
7
100
AcDbPolyline
 90
5
 70
0
 10
133.084031
 20
213.179056
 30
0.0
 10
146.084033
 20
213.179056
 30
0.0
 10
146.084033
 20
203.179067
 30
0.0
 10
133.084031
 20
203.179067
 30
0.0
 10
133.084031
 20
213.179056
 30
0.0
  0
LWPOLYLINE
  5
146
100
AcDbEntity
  8
Layer_1
 62
7
100
AcDbPolyline
 90
5
 70
0
 10
147.853143
 20
213.179056
 30
0.0
 10
160.853145
 20
213.179056
 30
0.0
 10
160.853145
 20
203.179067
 30
0.0
 10
147.853143
 20
203.179067
 30
0.0
 10
147.853143
 20
213.179056
 30
0.0
  0
LWPOLYLINE
  5
147
100
AcDbEntity
  8
Layer_1
 62
7
100
AcDbPolyline
 90
5
 70
0
 10
14.930978
 20
201.649366
 30
0.0
 10
27.930980
 20
201.649366
 30
0.0
 10
27.930980
 20
191.649358
 30
0.0
 10
14.930978
 20
191.649358
 30
0.0
 10
14.930978
 20
201.649366
 30
0.0
  0
LWPOLYLINE
  5
148
100
AcDbEntity
  8
Layer_1
 62
7
100
AcDbPolyline
 90
5
 70
0
 10
29.700118
 20
201.649366
 30
0.0
 10
42.700121
 20
201.649366
 30
0.0
 10
42.700121
 20
191.649358
 30
0.0
 10
29.700118
 20
191.649358
 30
0.0
 10
29.700118
 20
201.649366
 30
0.0
  0
LWPOLYLINE
  5
149
100
AcDbEntity
  8
Layer_1
 62
7
100
AcDbPolyline
 90
5
 70
0
 10
44.469231
 20
201.649366
 30
0.0
 10
57.469233
 20
201.649366
 30
0.0
 10
57.469233
 20
191.649358
 30
0.0
 10
44.469231
 20
191.649358
 30
0.0
 10
44.469231
 20
201.649366
 30
0.0
  0
LWPOLYLINE
  5
14a
100
AcDbEntity
  8
Layer_1
 62
7
100
AcDbPolyline
 90
5
 70
0
 10
59.238371
 20
201.649366
 30
0.0
 10
72.238379
 20
201.649366
 30
0.0
 10
72.238379
 20
191.649358
 30
0.0
 10
59.238371
 20
191.649358
 30
0.0
 10
59.238371
 20
201.649366
 30
0.0
  0
LWPOLYLINE
  5
14b
100
AcDbEntity
  8
Layer_1
 62
7
100
AcDbPolyline
 90
5
 70
0
 10
74.007489
 20
201.649366
 30
0.0
 10
87.007500
 20
201.649366
 30
0.0
 10
87.007500
 20
191.649358
 30
0.0
 10
74.007489
 20
191.649358
 30
0.0
 10
74.007489
 20
201.649366
 30
0.0
  0
LWPOLYLINE
  5
14c
100
AcDbEntity
  8
Layer_1
 62
7
100
AcDbPolyline
 90
5
 70
0
 10
88.776638
 20
201.649366
 30
0.0
 10
101.776640
 20
201.649366
 30
0.0
 10
101.776640
 20
191.649358
 30
0.0
 10
88.776638
 20
191.649358
 30
0.0
 10
88.776638
 20
201.649366
 30
0.0
  0
LWPOLYLINE
  5
14d
100
AcDbEntity
  8
Layer_1
 62
7
100
AcDbPolyline
 90
5
 70
0
 10
103.545778
 20
201.649366
 30
0.0
 10
116.545781
 20
201.649366
 30
0.0
 10
116.545781
 20
191.649358
 30
0.0
 10
103.545778
 20
191.649358
 30
0.0
 10
103.545778
 20
201.649366
 30
0.0
  0
LWPOLYLINE
  5
14e
100
AcDbEntity
  8
Layer_1
 62
7
100
AcDbPolyline
 90
5
 70
0
 10
118.314891
 20
201.649366
 30
0.0
 10
131.314893
 20
201.649366
 30
0.0
 10
131.314893
 20
191.649358
 30
0.0
 10
118.314891
 20
191.649358
 30
0.0
 10
118.314891
 20
201.649366
 30
0.0
  0
LWPOLYLINE
  5
14f
100
AcDbEntity
  8
Layer_1
 62
7
100
AcDbPolyline
 90
5
 70
0
 10
133.084031
 20
201.649366
 30
0.0
 10
146.084033
 20
201.649366
 30
0.0
 10
146.084033
 20
191.649358
 30
0.0
 10
133.084031
 20
191.649358
 30
0.0
 10
133.084031
 20
201.649366
 30
0.0
  0
LWPOLYLINE
  5
150
100
AcDbEntity
  8
Layer_1
 62
7
100
AcDbPolyline
 90
5
 70
0
 10
147.853143
 20
201.649366
 30
0.0
 10
160.853145
 20
201.649366
 30
0.0
 10
160.853145
 20
191.649358
 30
0.0
 10
147.853143
 20
191.649358
 30
0.0
 10
147.853143
 20
201.649366
 30
0.0
  0
ENDSEC
  0
SECTION
  2
OBJECTS
  0
DICTIONARY
  5
C
330
0
100
AcDbDictionary
  3
ACAD_GROUP
350
D
  3
ACAD_MLINESTYLE
350
17
  0
DICTIONARY
  5
D
330
C
100
AcDbDictionary
  0
DICTIONARY
  5
1A
330
C
100
AcDbDictionary
  0
DICTIONARY
  5
17
330
C
100
AcDbDictionary
  3
STANDARD
350
18
  0
DICTIONARY
  5
19
330
C
100
AcDbDictionary
  0
ENDSEC
  0
EOF
